<?xml version="1.0" encoding="utf-8"?>
<!-- Generator: Adobe Illustrator 22.0.1, SVG Export Plug-In . SVG Version: 6.00 Build 0)  -->
<svg version="1.1" id="Layer_1" xmlns="http://www.w3.org/2000/svg" xmlns:xlink="http://www.w3.org/1999/xlink" x="0px" y="0px"
	 viewBox="0 0 1271.8 340.6" style="enable-background:new 0 0 1271.8 340.6;" xml:space="preserve">
<style type="text/css">
	.st0{fill:#FFFFFF;}
	.st1{opacity:0.8;clip-path:url(#SVGID_2_);fill:url(#SVGID_3_);enable-background:new    ;}
	.st2{enable-background:new    ;}
</style>
<title>Asset 7</title>
<path class="st0" d="M393.6,81h-1v-4.2h-1.5V76h3.9v0.8h-1.5L393.6,81z"/>
<path class="st0" d="M400.2,81h-0.9l-1.6-4.2l0,0l0.1,4.2h-1v-5h1.6l1.4,3.8l0,0l1.4-3.8h1.6v5h-1l0.1-4.3l0,0L400.2,81z"/>
<path class="st0" d="M208.1,73.5h19.6c0.3,0,0.6,0,0.9,0c0.2,0,0.3,0.1,0.3,0.3c0,0,0,0.1,0,0.1c0,0.1-0.1,0.3-0.1,0.4l-0.8,1.8
	l-0.1,0.3c-0.1,0.4-0.5,0.6-0.9,0.5h-16.8h-21h-1c-0.8,0-1.6,0.5-1.7,1.4c-0.1,0.5-0.2,0.9-0.4,1.4c-0.3,0.9-0.7,1.7-1,2.6
	c-0.1,0.2-0.1,0.3-0.2,0.5c-0.1,0.2,0.1,0.5,0.3,0.6c0,0,0.1,0,0.1,0c0.2,0,0.4,0,0.6,0h4.6c0.3,0,0.6,0,0.9,0.1
	c1.2,0.2,2.1,1.1,2.2,2.3c0.1,0.9,0.1,1.8-0.2,2.6c-0.1,0.4-0.3,0.8-0.4,1.2l-5.1,13.2c-1.4,3.6-2.8,7.3-4.2,11
	c-1.3,3.4-2.6,6.8-3.9,10.1c-0.1,0.2-0.1,0.3-0.2,0.4c-0.2,0.5-0.7,0.8-1.2,0.8H170c-0.2,0-0.5,0-0.7-0.1c-0.2-0.1-0.4-0.3-0.3-0.5
	c0.1-0.3,0.2-0.5,0.3-0.8c0.9-1.7,1.7-3.5,2.6-5.2l6.1-12.5l5-10.2c0.9-1.9,1.9-3.8,2.8-5.7c0.1-0.2,0.2-0.3,0.2-0.5
	c0.1-0.3,0-0.7-0.3-0.8c-0.3-0.2-0.7-0.3-1-0.3c-0.6-0.1-1.1-0.1-1.7-0.1c-0.6,0-1.1-0.1-1.7-0.2c-0.6-0.2-1.2-0.5-1.7-0.9
	c-0.8-0.7-1.1-1.8-0.9-2.8c0.1-0.5,0.2-1,0.5-1.4c1-1.8,1.9-3.7,3.1-5.5c0.4-0.6,0.8-1.2,1.2-1.8c0.4-0.5,0.9-1,1.5-1.4
	c0.7-0.5,1.5-0.9,2.4-1c0.6-0.1,1.1-0.1,1.7-0.1c1.6,0.1,3.1,0.1,4.7,0.1L208.1,73.5L208.1,73.5z"/>
<path class="st0" d="M211.7,104h-3.6c-0.8,0-1.6,0.4-2.1,1.1l-0.2,0.4c-1.8,2.8-3.5,5.5-5.3,8.2c-1.2,1.8-2.5,3.4-3.8,5.1
	c-1.8,2.2-4,3.9-6.6,5.2c-1.2,0.5-2.5,0.9-3.8,1c-1.5,0.1-3.1,0.2-4.6,0.1c-0.1,0-0.2,0-0.3,0c-0.2-0.1-0.3-0.2-0.2-0.4
	c0.1-0.3,0.2-0.7,0.3-1c0.2-0.5,0.2-0.6,0.4-1c0.4-0.9,0.5-1.1,1.4-1.1h1.1c0.6,0,1,0,1.5,0c1.3,0,2.5-0.4,3.6-1.2
	c0.3-0.2,0.6-0.4,0.9-0.6c1.4-1.2,2.7-2.5,3.9-3.9c1.8-2.3,3.3-4.9,4.5-7.6c2.6-5.9,5-11.8,7.4-17.8c0.6-1.6,1.3-3.2,2-4.8
	c0.1-0.4,0.3-0.7,0.6-1.1c0.5-0.7,1.2-1.2,2-1.4c0.5-0.2,1.1-0.2,1.7-0.2h13.2c0.5,0,0.9-0.3,1.1-0.7c0.1-0.2,0.2-0.3,0.3-0.5
	c0.6-1.4,1.3-2.8,1.9-4.2c0.4-0.9,0.8-1.8,1.2-2.6l0.1-0.3c0.3-0.5,0.8-0.9,1.4-0.8h5.5c0.3,0,0.7,0,1,0.2c0.5,0.1,0.8,0.7,0.7,1.2
	c0,0,0,0,0,0.1c-0.1,0.4-0.2,0.7-0.4,1l-1.4,2.4l-4.6,7.9c-0.2,0.4-0.4,0.7-0.7,1.1c-0.9,1.3-2.4,1.9-3.9,1.7
	c-0.7-0.1-1.4-0.1-2.1-0.1h-8.9c-0.6,0-1.2,0.1-1.8,0.2c-1,0.3-1.9,0.9-2.4,1.8c-0.3,0.4-0.5,0.8-0.6,1.2c-0.5,1.2-0.9,2.5-1.4,3.7
	c0,0.1-0.1,0.2-0.1,0.3c-0.1,0.3,0,0.6,0.3,0.7c0.1,0,0.1,0,0.2,0c0.2,0,0.4,0,0.6,0h7.1c0.2,0,0.4,0,0.6,0.1c0.1,0,0.2,0.2,0.2,0.3
	c0,0,0,0,0,0c-0.1,0.3-0.2,0.5-0.3,0.8l-1.2,2.6c-0.3,0.7-0.6,1.4-0.9,2.1c-0.1,0.1-0.1,0.3-0.2,0.4c-0.2,0.4-0.6,0.6-1,0.6
	L211.7,104L211.7,104z"/>
<path class="st0" d="M308.8,89.9c0.1-0.1,0.3-0.2,0.4-0.3c1.1-1.1,2.6-1.7,4.1-1.8c1-0.1,2,0,3,0.1c0.6,0.1,1.1,0.1,1.7,0.2
	c0.9,0.1,1.7,0.7,2.1,1.5c0.3,0.6,0.5,1.3,0.5,1.9c0,0.9,0,1.7-0.2,2.5c-0.5,2.5-1.1,5.1-1.6,7.6c-0.3,1.3-0.6,2.7-0.9,4.1
	c0,0.2-0.1,0.4-0.1,0.5c-0.1,0.3-0.3,0.5-0.6,0.5c-0.2,0-0.3,0-0.5,0c-0.4,0-0.8,0-1.1,0H314c-0.2,0-0.4,0-0.5,0
	c-0.2,0-0.4-0.2-0.4-0.5c0-0.2,0-0.3,0-0.4c0.5-2.5,1.1-4.9,1.6-7.4c0.3-1.4,0.6-2.8,0.9-4.2c0.1-0.5,0.2-1,0.1-1.5
	c-0.1-0.5-0.5-0.9-0.9-1.1c-0.4-0.2-0.9-0.3-1.3-0.3c-0.8,0-1.6,0-2.4,0.2c-1.1,0.2-2.1,0.9-2.6,1.9c-0.3,0.7-0.6,1.4-0.8,2.1
	c-0.5,2.1-1,4.2-1.4,6.3l-0.8,3.9c0,0.1,0,0.2-0.1,0.3c-0.1,0.5-0.5,0.8-1,0.7c-0.2,0-0.4,0-0.5,0c-0.6,0-1.2,0-1.8,0
	c-0.2,0-0.4,0-0.6,0c-0.1,0-0.3,0-0.4-0.1c-0.2,0-0.3-0.2-0.3-0.4c0-0.2,0-0.3,0.1-0.5c0.3-1.3,0.6-2.6,0.9-4l1.7-8.1
	c0.7-3.1,1.3-6.2,2-9.3c0.3-1.2,0.5-2.4,0.7-3.6c0-0.2,0.1-0.3,0.1-0.4c0.1-0.3,0.4-0.5,0.7-0.5h0.6c0.8,0.1,1.6,0.1,2.4,0
	c0.1,0,0.2,0,0.3,0c0.5,0.1,0.6,0.2,0.6,0.7c0,0.3-0.1,0.6-0.1,0.9c-0.5,2.5-1.1,5-1.6,7.6C308.9,89.4,308.9,89.6,308.8,89.9z"/>
<path class="st0" d="M273,98.3h-5.7c-0.5,0-0.9,0.3-0.9,0.8c0,0.2-0.1,0.4-0.1,0.6c-0.1,0.6-0.1,1.2-0.1,1.7c0,0.2,0,0.5,0.1,0.7
	c0.1,0.4,0.4,0.8,0.8,1c0.4,0.2,0.7,0.2,1.1,0.3c1.2,0.1,2.4,0.1,3.6-0.1c0.2,0,0.5-0.1,0.7-0.2c0.6-0.2,1.1-0.7,1.4-1.3
	c0.1-0.2,0.1-0.3,0.2-0.5c0.1-0.3,0.4-0.5,0.7-0.5c0.2,0,0.4,0,0.5,0h1c0.5,0,1.1,0,1.6,0c0.2,0,0.4,0,0.6,0c0.2,0,0.3,0.2,0.3,0.4
	c0,0.2,0,0.3,0,0.5c-0.2,0.9-0.6,1.8-1.2,2.7c-0.6,0.9-1.5,1.6-2.5,2c-0.6,0.3-1.3,0.4-2,0.5c-1.9,0.2-3.7,0.3-5.6,0.2
	c-1-0.1-2-0.2-3-0.5c-0.5-0.1-1-0.4-1.5-0.7c-0.8-0.7-1.3-1.6-1.3-2.7c-0.1-2.4,0.2-4.8,0.8-7.2c0.3-1.3,0.8-2.5,1.3-3.7
	c0.8-2,2.6-3.4,4.6-3.9c0.7-0.2,1.4-0.3,2.2-0.3c1.3-0.1,2.6-0.1,3.9-0.1c0.9,0,1.8,0.2,2.7,0.4c0.2,0.1,0.5,0.1,0.7,0.2
	c1.1,0.4,1.9,1.4,2.1,2.5c0.1,0.3,0.1,0.7,0.1,1c0,1.1-0.1,2.1-0.3,3.1c-0.1,0.7-0.3,1.5-0.4,2.2c0,0,0,0.1,0,0.1
	c-0.1,0.6-0.3,0.8-1,0.8C276.8,98.2,274.9,98.2,273,98.3L273,98.3z M271.3,95.3h2.7c0.3,0,0.6,0,0.9,0c0.4,0,0.7-0.3,0.7-0.8
	c0.1-0.5,0.1-1.1,0.1-1.6c0-0.9-0.3-1.2-1.2-1.4c-1.5-0.3-3.1-0.3-4.6,0c-0.7,0.1-1.2,0.5-1.7,1c-0.5,0.7-0.8,1.5-0.9,2.3
	c-0.1,0.2,0.1,0.4,0.3,0.5c0,0,0.1,0,0.1,0c0.2,0,0.3,0,0.5,0C269.3,95.3,270.3,95.3,271.3,95.3L271.3,95.3z"/>
<path class="st0" d="M346.4,98.3H341c-0.1,0-0.3,0-0.5,0c-0.3,0-0.5,0.2-0.6,0.5c0,0.1-0.1,0.2-0.1,0.3c-0.1,0.6-0.2,1.1-0.3,1.7
	c-0.1,0.4,0,0.8,0,1.2c0.1,0.5,0.5,1,1,1.2c0.4,0.1,0.7,0.2,1.1,0.2c1.2,0.1,2.3,0.1,3.5-0.1c0.3,0,0.7-0.2,1-0.3
	c0.5-0.2,0.8-0.6,1-1.1c0-0.1,0.1-0.3,0.1-0.4c0.2-0.5,0.6-0.8,1.1-0.8c0.2,0,0.5,0,0.7,0c0.5,0,0.9,0,1.4,0c0.3,0,0.7,0,1,0
	c0.5,0,0.7,0.3,0.6,0.8c-0.2,1.3-0.9,2.5-1.8,3.5c-0.9,0.9-2,1.5-3.2,1.7c-0.4,0.1-0.8,0.1-1.2,0.2c-1.7,0.1-3.3,0.2-5,0.1
	c-1.1,0-2.1-0.2-3.1-0.5c-0.8-0.2-1.5-0.7-2-1.3c-0.5-0.6-0.8-1.3-0.8-2.1c0-1.3,0.1-2.7,0.2-4c0.2-1.5,0.5-3,1-4.5
	c0.4-1,0.8-2,1.3-3c0.8-1.6,2.3-2.8,4.1-3.3c0.8-0.2,1.5-0.3,2.3-0.4c1.2-0.1,2.5-0.2,3.8-0.1c0.9,0,1.8,0.1,2.7,0.3
	c0.5,0.1,1,0.3,1.4,0.5c0.8,0.4,1.4,1.1,1.7,2c0.2,0.9,0.3,1.8,0.2,2.7c-0.1,1.4-0.3,2.8-0.6,4.2c0,0.1-0.1,0.2-0.1,0.3
	c-0.1,0.2-0.3,0.4-0.6,0.4L346.4,98.3L346.4,98.3z M344.8,95.3h3.1c0.1,0,0.2,0,0.3,0c0.4,0,0.7-0.3,0.7-0.7c0,0,0,0,0,0
	c0-0.3,0.1-0.7,0.1-1c0-0.3,0-0.6,0-0.8c0-0.5-0.3-0.9-0.8-1.1c-0.2-0.1-0.4-0.1-0.6-0.2c-1.2-0.2-2.5-0.3-3.7-0.1
	c-0.4,0.1-0.8,0.1-1.2,0.3c-0.7,0.2-1.3,0.7-1.6,1.4c-0.2,0.5-0.4,1-0.5,1.5c0,0.1,0,0.2,0,0.3c0,0.2,0.1,0.4,0.3,0.4
	c0.2,0.1,0.4,0.1,0.5,0.1L344.8,95.3z"/>
<path class="st0" d="M257,80h9.4c0.2,0,0.4,0,0.5,0c0.3,0,0.5,0.2,0.5,0.5c0,0,0,0.1,0,0.1c0,0.1-0.1,0.3-0.1,0.4
	c-0.3,0.9-0.5,1.7-0.6,2.6c0,0.1,0,0.2,0,0.3c-0.1,0.4-0.3,0.6-0.7,0.7c-0.1,0-0.3,0-0.5,0h-5.7c-0.2,0-0.4,0-0.5,0
	c-0.3,0-0.5,0.2-0.6,0.4c-0.1,0.2-0.1,0.3-0.2,0.5c-0.5,2.2-0.9,4.4-1.4,6.7l-1.1,5.4c-0.5,2.4-1.1,4.9-1.6,7.3
	c-0.1,0.3-0.1,0.7-0.2,1c-0.2,0.8-0.5,1-1.3,1c-0.4,0-0.9,0-1.3,0s-1.1,0-1.6,0c-0.2,0-0.3,0-0.5,0c-0.5,0-0.7-0.3-0.6-0.7l0.1-0.3
	c0.3-1.4,0.6-2.8,0.9-4.3c0.6-2.9,1.3-5.8,1.9-8.7c0.5-2.2,0.9-4.4,1.4-6.6c0.1-0.3,0.1-0.6,0.2-0.9c0-0.1,0.1-0.2,0.1-0.3
	c0-0.2-0.1-0.3-0.2-0.4c0,0,0,0,0,0c-0.2,0-0.3,0-0.5,0c-0.9,0-1.9,0-2.8,0h-3.1c-0.2,0-0.4,0-0.6,0c-0.3-0.1-0.4-0.3-0.4-0.6
	c0-0.2,0.1-0.4,0.1-0.5c0.3-0.8,0.4-1.7,0.6-2.5c0-0.1,0-0.2,0.1-0.3c0.1-0.4,0.4-0.6,0.8-0.6c0.2,0,0.4,0,0.6,0L257,80z"/>
<path class="st0" d="M362.1,107c-1.3,0-2.6,0-3.8-0.2c-0.6-0.1-1.2-0.2-1.7-0.5c-1.1-0.6-1.9-1.7-2-2.9c-0.1-0.7,0-1.4,0.3-2.1
	c0.1-0.4,0.5-0.7,0.9-0.7h3.1h0.2c0.3,0,0.5,0.2,0.5,0.5c0,0.3,0.1,0.5,0.1,0.8c0,0.3,0.1,0.5,0.1,0.8c0.1,0.5,0.5,0.8,1,0.9
	c0.4,0.1,0.7,0.1,1.1,0.1c0.4,0,0.9,0,1.3,0c0.3,0,0.7,0,1,0c0.5,0,1,0,1.5-0.1c1-0.2,1.7-0.9,2-1.9c0.1-0.4,0.2-0.8,0.1-1.1
	c0-0.6-0.4-1.2-1-1.3c-0.5-0.1-0.9-0.2-1.4-0.2c-0.9,0-1.7-0.1-2.6-0.1c-1.1-0.1-2.1-0.1-3.2-0.3c-0.6-0.1-1.2-0.3-1.8-0.5
	c-0.8-0.3-1.3-1.1-1.4-1.9c-0.1-0.7,0-1.4,0.1-2.1c0.1-1,0.4-1.9,0.8-2.8c0.4-1.1,1.3-2,2.3-2.6c0.6-0.3,1.2-0.5,1.8-0.6
	c1.9-0.3,3.8-0.5,5.6-0.4c1.2,0,2.4,0.2,3.6,0.4c0.5,0.1,1,0.3,1.5,0.6c0.8,0.5,1.3,1.4,1.4,2.3c0,0.4,0,0.9,0,1.3
	c0,0.1,0,0.2-0.1,0.3c-0.1,0.3-0.3,0.5-0.6,0.5c-0.1,0-0.2,0-0.4,0h-2.6c-0.1,0-0.3,0-0.5,0c-0.4,0-0.6-0.3-0.6-0.7
	c0-0.2,0-0.3,0-0.5c0-0.3-0.1-0.6-0.4-0.7c-0.2-0.1-0.3-0.2-0.5-0.2c-1-0.2-2.1-0.3-3.1-0.2c-0.5,0.1-1.1,0.1-1.6,0.2
	c-0.6,0.1-1.1,0.4-1.4,0.9c-0.4,0.5-0.6,1.2-0.6,1.8c0,0.5,0.4,1,0.9,1.1c0.1,0,0.2,0.1,0.3,0.1l2.8,0.2c1.1,0.1,2.2,0.1,3.3,0.2
	c0.6,0,1.3,0.2,1.9,0.4c0.3,0.1,0.5,0.2,0.8,0.4c0.6,0.3,1,0.8,1.2,1.4c0.1,0.4,0.2,0.7,0.2,1.1c0,1.4-0.2,2.7-0.7,4
	c-0.6,1.6-1.9,2.9-3.6,3.4c-0.6,0.2-1.3,0.4-2,0.4c-1.2,0.1-2.4,0.2-3.5,0.2L362.1,107z"/>
<path class="st0" d="M293.2,87.8c0.6,0,1.1,0,1.7,0c1,0,2,0.2,2.9,0.5c0.3,0.1,0.7,0.3,1,0.4c0.8,0.4,1.3,1.2,1.5,2
	c0.1,0.3,0.1,0.7,0.1,1c0,0.5,0,1,0,1.5c0,0.2,0,0.4-0.1,0.6c-0.1,0.3-0.3,0.6-0.6,0.6c-0.2,0.1-0.5,0.1-0.7,0.1h-2.5
	c-0.4,0-0.6-0.2-0.7-0.7c0-0.2,0-0.4-0.1-0.7s0-0.3,0-0.4c0-0.6-0.5-1.2-1.1-1.3c-0.8-0.2-1.6-0.3-2.5-0.3c-0.6,0-1.3,0.1-1.9,0.3
	c-0.9,0.3-1.7,0.9-2,1.8c-0.1,0.3-0.2,0.6-0.3,0.8c-0.5,1.9-0.9,3.8-1.2,5.7c-0.1,0.5-0.1,1.1-0.1,1.6c0,0.7,0.5,1.4,1.2,1.6
	c0.1,0,0.2,0.1,0.3,0.1c0.7,0.1,1.5,0.2,2.2,0.1c0.5,0,1,0,1.5-0.1c0.9-0.1,1.6-0.6,2-1.4c0.1-0.3,0.3-0.6,0.4-0.9
	c0.1-0.3,0.2-0.6,0.3-0.9c0.1-0.3,0.4-0.5,0.7-0.5c0.2,0,0.4,0,0.5-0.1h2.7c0.2,0,0.3,0,0.5,0.1c0.2,0,0.3,0.2,0.3,0.4
	c0,0.1,0,0.3-0.1,0.4c-0.1,0.3-0.2,0.6-0.3,0.9c-0.2,0.7-0.4,1.4-0.7,2c-0.8,1.7-2.4,3-4.2,3.4c-0.7,0.2-1.4,0.3-2.1,0.3
	c-1.2,0.1-2.4,0.1-3.6,0.1c-1,0-2.1-0.2-3.1-0.4c-0.4-0.1-0.8-0.2-1.2-0.4c-0.9-0.4-1.5-1.3-1.7-2.2c0-0.2-0.1-0.4-0.1-0.6
	c-0.1-1.2,0-2.4,0.1-3.6c0.2-1.8,0.6-3.6,1.2-5.3c0.3-0.8,0.6-1.6,0.9-2.4c0.7-1.7,2-2.9,3.7-3.5c0.8-0.3,1.7-0.5,2.6-0.6
	C291.4,87.9,292.3,87.8,293.2,87.8z"/>
<path class="st0" d="M386.5,88.1h2.7c0.2,0,0.4,0,0.5,0c0.2,0,0.3,0.2,0.3,0.4c0,0,0,0,0,0c0,0.1,0,0.2,0,0.2
	c-0.2,0.4-0.3,0.8-0.4,1.2c-0.1,0.3-0.1,0.5-0.2,0.8c-0.1,0.5-0.5,0.8-1,0.8c-0.3,0-0.7,0-1,0h-3.7c-0.3,0-0.6,0-0.9,0.1
	c-0.3,0-0.6,0.3-0.8,0.6c-0.1,0.2-0.1,0.4-0.2,0.6l-1,4.8c-0.3,1.4-0.6,2.8-0.9,4.3c0,0.2-0.1,0.4-0.1,0.6c0,0.4,0.2,0.7,0.6,0.8
	c0.4,0.1,0.8,0.2,1.2,0.2c0.9,0,1.7-0.6,2-1.4c0.1-0.3,0.3-0.7,0.4-1c0.1-0.3,0.2-0.6,0.3-0.9c0.1-0.3,0.4-0.6,0.8-0.6
	c0.2,0,0.3,0,0.5,0c0.7,0,1.3,0,2,0s0.8,0.2,0.7,0.8c-0.3,1.3-0.7,2.6-1.3,3.8c-0.7,1.3-1.9,2.2-3.4,2.6c-1.1,0.3-2.3,0.4-3.5,0.4
	c-1,0-1.9-0.2-2.9-0.4c-0.3-0.1-0.5-0.2-0.8-0.3c-0.8-0.4-1.3-1.1-1.4-2c-0.1-0.5-0.1-1.1,0-1.6l1.2-6c0.3-1.4,0.6-2.8,0.9-4.2
	c0-0.1,0-0.2,0-0.3c0-0.5-0.2-0.7-0.7-0.7c-0.2,0-0.3,0-0.5,0c-0.2,0-0.3,0-0.5,0c-0.2,0-0.4-0.3-0.4-0.5c0-0.1,0-0.2,0-0.3
	c0.1-0.4,0.2-0.8,0.2-1.2c0-0.3,0.1-0.6,0.2-0.8c0.2-0.4,0.6-0.7,1-0.6c0.2,0,0.5,0,0.7,0c0.4,0.1,0.8-0.1,0.9-0.5c0,0,0-0.1,0-0.1
	c0.1-0.4,0.2-0.8,0.3-1.3s0.1-0.9,0.2-1.3c0-0.1,0.1-0.3,0.1-0.4c0.1-0.3,0.4-0.5,0.7-0.5h3.5c0.4,0,0.6,0.3,0.5,0.7
	c-0.2,0.8-0.4,1.7-0.5,2.5c0,0.2-0.1,0.3-0.1,0.4c-0.1,0.2,0.1,0.5,0.3,0.6c0,0,0.1,0,0.1,0c0.1,0,0.3,0,0.5,0L386.5,88.1z"/>
<path class="st0" d="M334.9,80h1.9c0.5,0.1,0.6,0.3,0.6,0.8s-0.1,0.7-0.2,1.1s-0.2,0.8-0.3,1.2s-0.2,0.5-0.7,0.5s-1.1,0-1.6,0.1
	c-0.3,0-0.7,0.1-1,0.2c-0.6,0.2-1,0.6-1.3,1.1c-0.2,0.3-0.3,0.7-0.4,1c-0.1,0.4-0.3,0.9-0.4,1.3v0.1c-0.1,0.4,0.1,0.6,0.5,0.6h3.2
	c0.5,0,0.6,0.2,0.6,0.7c-0.1,0.6-0.2,1.3-0.4,1.9c-0.1,0.5-0.5,0.8-1,0.9c-0.2,0-0.4,0-0.5,0.1h-1.7c-0.3,0-0.6,0-0.9,0.1
	c-0.4,0-0.7,0.3-0.8,0.6c-0.1,0.4-0.2,0.8-0.3,1.2c-0.4,1.9-0.8,3.7-1.1,5.6c-0.4,1.7-0.7,3.3-1.1,5c-0.1,0.7-0.3,1.3-0.4,2
	c0,0.1,0,0.1,0,0.2c-0.1,0.4-0.4,0.6-0.7,0.6c-0.1,0-0.2,0-0.3,0c-0.9,0-1.9,0-2.8,0c-0.2,0-0.3,0-0.5,0c-0.2-0.1-0.3-0.2-0.3-0.4
	c0-0.2,0-0.4,0-0.6c0.7-3.1,1.4-6.3,2-9.4c0.3-1.3,0.6-2.6,0.9-3.9c0-0.1,0.1-0.3,0.1-0.4c0.1-0.3-0.1-0.5-0.4-0.6
	c-0.1,0-0.1,0-0.2,0H325c-0.3,0-0.7,0-1,0c-0.3,0-0.5-0.2-0.5-0.4c0,0,0-0.1,0-0.1c0-0.1,0-0.2,0-0.2c0.1-0.7,0.3-1.4,0.4-2.1
	c0.1-0.4,0.3-0.6,0.7-0.6s0.7,0,1,0c0.2,0,0.3,0,0.5-0.1c0.3,0,0.5-0.2,0.6-0.5c0.1-0.2,0.1-0.4,0.2-0.6c0.2-1.1,0.6-2.3,1-3.3
	c0.5-1.3,1.5-2.4,2.9-2.9c0.4-0.2,0.8-0.3,1.2-0.4c0.7-0.1,1.4-0.2,2.1-0.2C334.4,80.1,334.7,80,334.9,80z"/>
<g>
	<defs>
		<path id="SVGID_1_" d="M1075.2,116.5H678.1c-127.4,0-98.7,49.6-226.1,49.6H181.8V61.7h893.4V116.5z"/>
	</defs>
	<clipPath id="SVGID_2_">
		<use xlink:href="#SVGID_1_"  style="overflow:visible;"/>
	</clipPath>
	
		<radialGradient id="SVGID_3_" cx="803.5427" cy="408.2863" r="507.5226" gradientTransform="matrix(0.89 -8.000000e-02 -2.000000e-02 -0.2 -58.91 315.63)" gradientUnits="userSpaceOnUse">
		<stop  offset="0" style="stop-color:#FFFFFF;stop-opacity:0.7"/>
		<stop  offset="0.26" style="stop-color:#FFFFFF;stop-opacity:0.48"/>
		<stop  offset="0.59" style="stop-color:#FFFFFF;stop-opacity:0.22"/>
		<stop  offset="0.84" style="stop-color:#FFFFFF;stop-opacity:6.000000e-02"/>
		<stop  offset="0.96" style="stop-color:#FFFFFF;stop-opacity:0"/>
	</radialGradient>
	<path class="st1" d="M1271.8,113.6l-613.2,54.6c-117.7,10.5-81.3,122.6-199,133.1L19.8,340.6L0,113.2L1270.1,0L1271.8,113.6z"/>
</g>
<path class="st0" d="M484.4,85.6c-1-0.2-2.1-0.3-3.2-0.4c-0.2-0.9-0.5-1.7-0.9-2.6c0.6-0.7,1.3-1.4,2-2c0.1-0.1,0.2-0.2,0.3-0.3
	c-0.7-1.4-1.6-2.7-2.5-4c0-0.1-0.1-0.2-0.2-0.2l-0.2,0.1l-2.8,1.1c-0.2-0.2-0.4-0.4-0.5-0.5c-0.4-0.4-0.7-0.7-1.1-1.1
	c-0.2-0.2-0.4-0.3-0.6-0.5c0.3-1,0.6-2,0.9-3.1c-0.6-0.5-1.3-0.9-2.1-1.3c-0.7-0.4-1.5-0.8-2.3-1.1c-0.7,0.7-1.5,1.5-2.2,2.2
	c0,0.1-0.1,0.1-0.2,0.1c-0.9-0.3-1.9-0.6-2.9-0.8c-0.3-1.1-0.5-2.1-0.8-3.2c-1.7-0.2-3.3-0.2-5-0.1c-0.3,0.9-0.5,1.9-0.8,2.8
	c0,0.1-0.1,0.3-0.1,0.4c-1,0.2-2,0.4-3,0.7c-0.2-0.2-0.4-0.4-0.6-0.6l-1.1-1.2c-0.2-0.2-0.4-0.4-0.6-0.6c-1.6,0.7-3.1,1.5-4.5,2.4
	c0,0-0.1,0-0.1,0.1c0.4,1,0.7,2,1,3.1c-0.2,0.2-0.4,0.3-0.5,0.5c-0.5,0.4-0.9,0.8-1.4,1.3c-0.1,0.1-0.2,0.2-0.3,0.3
	c-1-0.5-1.9-0.9-2.9-1.4c-0.2,0.2-0.3,0.3-0.4,0.5c-1,1.2-1.8,2.5-2.5,4c0.6,0.6,1.2,1.2,1.7,1.8l0.4,0.4c0,0.1,0.1,0.1,0.1,0.2
	s0,0.1-0.1,0.2c-0.3,0.8-0.6,1.7-0.9,2.5l-3.3,0.4c-0.4,1.6-0.6,3.3-0.5,5c1,0.3,2.1,0.6,3.2,0.9c0.1,1,0.2,2,0.4,2.9L441,96
	c-0.1,0-0.1,0.1-0.2,0.1c0.4,1.3,0.8,2.5,1.4,3.7c0.2,0.3,0.3,0.7,0.5,1c0,0,0,0.1,0.1,0.1l3.3-0.6c0.5,0.8,1.1,1.6,1.7,2.3
	c0.1,0.1,0.2,0.2,0.3,0.3l2.1-1.7c0.5-0.4,1.1-0.9,1.6-1.3c0.2-0.1,0.4-0.3,0.5-0.4c-1.7-1.9-2.8-4.3-3.4-6.8
	c-0.2-0.7-0.3-1.5-0.3-2.3c0-0.8,0-1.6,0.1-2.4c0.1-0.7,0.3-1.4,0.5-2.1c0.2-0.6,0.4-1.2,0.7-1.8c0.5-1.1,1.2-2.1,2-3.1
	c1.6-1.9,3.7-3.3,6-4.2c1.4-0.5,2.9-0.7,4.3-0.8c0.8,0,1.6,0,2.4,0.2c2,0.3,3.8,1,5.5,2.1c2,1.4,3.6,3.2,4.7,5.4
	c0.6,1.2,1,2.5,1.3,3.8c0.1,0.8,0.2,1.6,0.2,2.3c0,2.1-0.5,4.2-1.5,6.2c-0.4,0.8-0.9,1.6-1.5,2.3l-0.4,0.5c-0.1,0.1-0.1,0.1-0.1,0.2
	l0.1,0.1c0.7,0.6,1.3,1.1,2,1.7c0.4,0.3,0.7,0.6,1.1,0.8s0.7,0.6,1.1,0.9c0.6-0.8,1.2-1.6,1.7-2.4c0-0.1,0-0.1,0.1-0.2l3.1,0.7
	c0.8-1.5,1.5-3.1,1.9-4.8c-0.7-0.6-1.5-1.2-2.3-1.7c-0.1,0-0.3-0.2-0.3-0.3c0-0.1,0-0.1,0-0.2c0.2-0.8,0.3-1.7,0.4-2.6l3-1
	c0,0,0.1,0,0.1,0C484.8,88.9,484.7,87.2,484.4,85.6z M481,90.9c-0.1,1.2-0.3,2.5-0.6,3.7c0,0.1,0.1,0.1,0.2,0.1
	c0.8,0.6,1.7,1.2,2.5,1.8c-0.4,1.2-0.8,2.4-1.4,3.5l-3.1-0.7c0,0-0.1,0.1-0.1,0.1c-0.4,0.7-0.9,1.5-1.5,2.2c-1-0.8-2-1.6-3-2.4
	c0.8-1,1.5-2.1,2-3.3c0.6-1.3,0.9-2.7,1.1-4.1c0.4-3-0.2-6-1.6-8.6c-1.2-2.2-2.9-4.1-5-5.4c-1.1-0.7-2.3-1.3-3.6-1.7
	c-1.5-0.5-3-0.7-4.5-0.7c-1.2,0-2.3,0.2-3.5,0.5c-1,0.2-2,0.6-2.9,1.1c-0.6,0.3-1.1,0.6-1.6,1c-1,0.7-2,1.5-2.8,2.4
	c-0.8,0.9-1.6,2-2.1,3.1c-0.1,0.3-0.3,0.6-0.4,0.9c-0.4,1-0.7,2-0.9,3c-0.3,1.6-0.4,3.2-0.1,4.8c0.4,2.7,1.5,5.2,3.2,7.3
	c-0.2,0.2-0.5,0.4-0.7,0.6c-0.7,0.6-1.5,1.2-2.2,1.8c-0.6-0.7-1.2-1.5-1.7-2.4c-1.1,0.2-2.2,0.4-3.3,0.6c-0.1-0.1-0.1-0.1-0.1-0.2
	c-0.5-1.1-1-2.2-1.3-3.3c0-0.1,0.1-0.1,0.2-0.1l1.2-0.8c0.5-0.3,0.9-0.6,1.4-0.9c-0.4-1.3-0.5-2.6-0.6-3.9c-1-0.3-2.1-0.6-3.2-0.9
	c0-1.2,0.1-2.5,0.4-3.7c1.1-0.2,2.2-0.3,3.3-0.4c0.3-1.1,0.6-2.2,1.1-3.2c0-0.1,0.1-0.1,0.1-0.2c0-0.1,0.1-0.1,0.1-0.2
	c0,0-0.1-0.1-0.1-0.2c-0.5-0.6-1.1-1.1-1.6-1.6c-0.2-0.2-0.4-0.4-0.6-0.6c0.5-1,1.1-2,1.8-2.8c0.1-0.1,0.2-0.2,0.3-0.3l2.9,1.3
	c0,0,0.1,0,0.1-0.1c0.8-0.8,1.6-1.6,2.5-2.3c0.1-0.1,0.3-0.2,0.4-0.3c-0.3-1-0.7-2-1-3c0.1-0.1,0.1-0.1,0.2-0.2
	c1-0.7,2.1-1.2,3.2-1.8c0.1,0,0.1,0.1,0.1,0.2c0.5,0.5,1,1.1,1.5,1.7c0.2,0.2,0.4,0.4,0.6,0.6c1.2-0.5,2.5-0.8,3.9-1
	c0.3-1,0.6-2.1,0.9-3.2c1.2-0.1,2.4-0.1,3.7,0c0.3,1,0.5,2.1,0.8,3.2c1.3,0.2,2.6,0.5,3.8,1c0.8-0.8,1.5-1.5,2.3-2.3
	c1.1,0.5,2.2,1.1,3.2,1.8c-0.3,0.9-0.5,1.9-0.8,2.9c0,0.1,0,0.1,0,0.2c0,0,0.1,0.1,0.2,0.2c1,0.8,1.9,1.6,2.7,2.6
	c1-0.4,2-0.7,2.9-1.1c0.1,0.1,0.2,0.2,0.3,0.4c0.6,0.9,1.2,1.8,1.7,2.7c-0.1,0.1-0.2,0.2-0.3,0.3c-0.3,0.3-0.5,0.6-0.8,0.9
	s-0.8,0.8-1.1,1.1L480,84c0.2,0.6,0.4,1.2,0.5,1.8c1.1,0.2,2.1,0.3,3.2,0.4c0.2,1.2,0.3,2.4,0.4,3.6L481,90.9z"/>
<path class="st0" d="M467.3,95.8c0.2,0,0.4,0,0.6,0.1c0-0.1,0-0.1,0-0.2c-0.2,0-0.4,0-0.5-0.1C467.3,95.7,467.3,95.7,467.3,95.8z"/>
<path class="st0" d="M467.1,95.2c0.2,0.1,0.4,0.1,0.6,0c0-0.1,0-0.1-0.1-0.2c-0.2,0.1-0.3,0.1-0.5,0
	C467.1,95.1,467.1,95.2,467.1,95.2z"/>
<path class="st0" d="M467.3,94.8c0-0.1,0-0.1,0-0.2c-0.2,0-0.5,0-0.7-0.1v0.2C466.8,94.8,467,94.8,467.3,94.8z"/>
<path class="st0" d="M466.4,95.7c0.2,0,0.4,0.1,0.6,0.1c0-0.1,0-0.1,0-0.2c-0.2,0-0.4,0-0.6-0.1C466.4,95.5,466.4,95.6,466.4,95.7z"
	/>
<path class="st0" d="M467,94.3c0-0.1,0-0.1,0-0.2h-0.3c0,0.1,0,0.1,0,0.2C466.8,94.3,466.9,94.3,467,94.3z"/>
<path class="st0" d="M466.8,95.2c0-0.1,0-0.1,0-0.2c-0.2,0-0.3,0-0.5-0.1c0,0.1,0,0.1,0,0.2C466.5,95.2,466.6,95.2,466.8,95.2z"/>
<path class="st0" d="M466.3,94.1l-0.5-0.1c0,0.1,0,0.1,0,0.2c0.2,0,0.3,0,0.5,0.1C466.3,94.2,466.3,94.1,466.3,94.1z"/>
<path class="st0" d="M466.3,94.5c-0.2,0-0.3,0-0.5-0.1c0,0.1,0,0.1,0,0.2c0.2,0,0.3,0,0.5,0C466.3,94.6,466.3,94.6,466.3,94.5z"/>
<path class="st0" d="M466,95c-0.2,0-0.3-0.1-0.5-0.1c0,0.1,0,0.1,0,0.2c0.2,0,0.3,0.1,0.5,0.1C466,95.1,466,95.1,466,95z"/>
<path class="st0" d="M465.6,94c-0.1,0-0.2,0-0.4-0.1c0,0.1,0,0.1,0,0.2c0.1,0,0.3,0,0.4,0.1C465.6,94.1,465.6,94.1,465.6,94z"/>
<path class="st0" d="M465.5,94.6c0-0.1,0-0.1,0-0.2c-0.1,0-0.3,0-0.5-0.1c0,0.1,0,0.1,0,0.2C465.1,94.6,465.3,94.6,465.5,94.6z"/>
<path class="st0" d="M465.3,94.8c-0.1,0-0.3-0.1-0.4-0.1c0,0.1,0,0.1,0,0.2l0.4,0.1C465.3,95,465.3,94.9,465.3,94.8z"/>
<path class="st0" d="M465,94.1c0-0.1,0-0.1,0-0.2c-0.2-0.1-0.3-0.1-0.5-0.1c0,0.1,0,0.1,0,0.2C464.7,94,464.8,94,465,94.1z"/>
<path class="st0" d="M464.7,94.5c0-0.1,0-0.1,0-0.2c-0.1,0-0.3-0.1-0.5-0.1c0,0,0,0.1,0,0.2C464.5,94.4,464.6,94.5,464.7,94.5z"/>
<path class="st0" d="M464.2,95.2c0,0.1,0,0.2,0,0.2s0.3,0,0.4,0c0-0.1,0-0.1,0-0.2C464.5,95.2,464.3,95.2,464.2,95.2z"/>
<path class="st0" d="M464.6,94.9c0-0.1,0-0.1,0-0.2c-0.2,0-0.4,0-0.6,0c0,0.1,0,0.1,0,0.2C464.2,94.9,464.4,94.9,464.6,94.9z"/>
<path class="st0" d="M464.2,93.9c0-0.1,0-0.1,0-0.2c-0.1,0-0.3,0-0.4,0v0.2L464.2,93.9z"/>
<path class="st0" d="M464,94.2c-0.3,0-0.6,0.1-0.8,0.2c0,0.1,0.1,0.1,0.1,0.2c0.2-0.1,0.5-0.2,0.7-0.2C464,94.4,464,94.3,464,94.2z"
	/>
<path class="st0" d="M463.4,95.1c0.1-0.1,0.3-0.1,0.4-0.2c0-0.1,0-0.2-0.1-0.2l0,0c-0.1,0.1-0.3,0.1-0.4,0.2S463.4,95.1,463.4,95.1z
	"/>
<path class="st0" d="M463.2,94.1c0.1-0.1,0.3-0.1,0.5-0.2c0-0.1,0-0.1,0-0.2c-0.2,0-0.4,0.1-0.5,0.2C463.1,94,463.2,94.1,463.2,94.1
	z"/>
<path class="st0" d="M461.7,94c-0.2-0.1-0.3-0.2-0.5-0.2c0,0.1,0,0.1,0,0.2c0.2,0,0.3,0.1,0.5,0.2C461.7,94.1,461.7,94.1,461.7,94z"
	/>
<path class="st0" d="M460.8,94.5c0.3,0,0.5,0.1,0.7,0.2c0-0.1,0.1-0.1,0.1-0.2c-0.3-0.1-0.5-0.2-0.8-0.2
	C460.8,94.4,460.8,94.4,460.8,94.5z"/>
<path class="st0" d="M461,95c0.1,0,0.3,0.1,0.4,0.2c0,0,0.1-0.1,0.1-0.2c-0.1-0.1-0.3-0.1-0.5-0.2C461,94.9,461,95,461,95z"/>
<path class="st0" d="M465.6,95.6c0.2,0,0.4,0.1,0.6,0.1c0-0.1,0-0.1,0-0.2c-0.2,0-0.4-0.1-0.6-0.1C465.6,95.4,465.6,95.5,465.6,95.6
	z"/>
<path class="st0" d="M464.9,95.4c0.1,0,0.3,0,0.5,0.1s0-0.1,0.1-0.2c-0.1,0-0.3-0.1-0.5-0.1C464.9,95.3,464.9,95.3,464.9,95.4z"/>
<path class="st0" d="M463.9,95.2c-0.2,0-0.4,0.1-0.5,0.2c0,0.1,0.1,0.1,0.1,0.2c0.1-0.1,0.3-0.1,0.4-0.2
	C463.9,95.4,463.9,95.3,463.9,95.2z"/>
<path class="st0" d="M460.8,95.5c0.2,0,0.3,0.1,0.4,0.2c0.1,0,0.1-0.1,0.1-0.2c-0.2-0.1-0.3-0.2-0.5-0.2
	C460.8,95.4,460.8,95.4,460.8,95.5z"/>
<path class="st0" d="M460.6,94c0.1,0,0.2,0,0.4,0c0-0.1,0-0.1,0-0.2c-0.1,0-0.3,0-0.4,0C460.6,93.9,460.6,93.9,460.6,94z"/>
<path class="st0" d="M460.2,94.8c0,0.1,0,0.1,0,0.2c0.2,0,0.3,0,0.5,0c0-0.1,0-0.1,0-0.2C460.5,94.7,460.4,94.7,460.2,94.8z"/>
<path class="st0" d="M460.1,95.2c0,0.1,0,0.1,0,0.2c0.1,0,0.3,0,0.4,0c0-0.1,0-0.1,0-0.2C460.4,95.2,460.2,95.2,460.1,95.2z"/>
<path class="st0" d="M460.5,94.5c0-0.1,0-0.1,0-0.2c-0.2,0-0.3,0-0.5,0c0,0.1,0,0.1,0,0.2S460.4,94.5,460.5,94.5z"/>
<path class="st0" d="M460.4,94c0-0.1,0-0.1,0-0.2l-0.5,0.1c0,0,0,0.1,0,0.2C460,94.1,460.2,94,460.4,94z"/>
<path class="st0" d="M459.5,94.9c0,0.1,0,0.1,0.1,0.2L460,95c0-0.1,0-0.2,0-0.2L459.5,94.9z"/>
<path class="st0" d="M459.4,95.3c0,0.1,0,0.1,0.1,0.2c0.1,0,0.3-0.1,0.4-0.1v-0.2C459.7,95.3,459.5,95.3,459.4,95.3z"/>
<path class="st0" d="M459.8,94.5c0-0.1,0-0.1-0.1-0.2l-0.4,0.1c0,0.1,0,0.1,0,0.2C459.5,94.6,459.7,94.6,459.8,94.5z"/>
<path class="st0" d="M459.6,94.1c0-0.1,0-0.1,0-0.2l-0.4,0.1c0,0.1,0,0.1,0,0.2L459.6,94.1z"/>
<path class="st0" d="M458.8,95c0,0.1,0,0.1,0,0.2l0.5-0.1c0-0.1,0-0.1,0-0.2L458.8,95z"/>
<path class="st0" d="M458.5,95.5c0,0.1,0,0.1,0,0.2c0.2,0,0.4,0,0.6-0.1c0-0.1,0-0.1,0-0.2L458.5,95.5z"/>
<path class="st0" d="M458.6,94.7c0.2,0,0.3,0,0.5,0c0-0.1,0-0.1,0-0.2h-0.5C458.6,94.5,458.6,94.7,458.6,94.7z"/>
<path class="st0" d="M458.5,94.3c0.2,0,0.3,0,0.5,0c0-0.1,0-0.1,0-0.2h-0.4C458.5,94.1,458.5,94.2,458.5,94.3z"/>
<path class="st0" d="M458,95.1c0,0.1,0,0.1,0,0.2c0.2,0,0.4,0,0.5,0c0-0.1,0-0.1,0-0.2L458,95.1z"/>
<path class="st0" d="M457.7,95.5c0,0.1,0,0.1,0,0.2h0.6c0-0.1,0-0.1,0-0.2H457.7z"/>
<path class="st0" d="M458.3,94.7c0-0.1,0-0.1,0-0.2c-0.2,0-0.5,0-0.8,0c0,0.1,0,0.1,0,0.2C457.8,94.7,458,94.7,458.3,94.7z"/>
<path class="st0" d="M458.2,94.3c0-0.1,0-0.1,0-0.2c-0.1,0-0.2,0-0.3,0c0,0.1,0,0.1,0,0.2C458,94.3,458.1,94.3,458.2,94.3z"/>
<path class="st0" d="M457.1,95c0,0.1,0,0.1,0,0.2c0.2,0,0.4,0,0.6,0c0-0.1,0-0.1,0-0.2H457.1z"/>
<path class="st0" d="M456.8,95.6c0,0,0,0.1,0,0.2c0.2,0,0.5,0,0.7,0c0-0.1,0-0.1,0-0.2H456.8z"/>
<polygon class="st0" points="456,74.2 455.8,74.3 456.4,75.5 456.5,75.5 456.6,75.4 456.1,74.2 "/>
<polygon class="st0" points="457.3,73.7 457.2,73.8 457.5,74.7 456.7,74 456.5,74 456.4,74.1 456.8,75.3 457,75.3 457.1,75.3 
	456.8,74.3 457.6,75.1 457.7,75 457.9,75 457.4,73.7 "/>
<path class="st0" d="M458.8,73.5c-0.1-0.1-0.3-0.1-0.5,0l-0.4,0.1h-0.1l0.3,1.3h0.1l0.4-0.1c0.2,0,0.3-0.1,0.4-0.3
	c0.1-0.2,0.1-0.4,0-0.6C459,73.8,458.9,73.6,458.8,73.5z M458.8,74.4c0,0.1-0.1,0.2-0.2,0.2l-0.2,0.1l-0.2-0.9l0.3-0.1
	c0.1,0,0.2,0,0.3,0c0.1,0.1,0.1,0.2,0.2,0.3C458.8,74.1,458.8,74.2,458.8,74.4L458.8,74.4z"/>
<polygon class="st0" points="459.3,73.2 459.1,73.3 459.4,74.6 459.5,74.6 459.7,74.6 459.4,73.2 "/>
<path class="st0" d="M460.3,73.1h-0.2l-0.3,1.4h0.1h0.1l0-0.3l0.5-0.1l0.1,0.3h0.1h0.1l-0.7-1.3L460.3,73.1z M460.2,74l0.1-0.6l0,0
	l0.3,0.5L460.2,74z"/>
<polygon class="st0" points="462.1,72.9 462,72.9 462,73.9 461.4,73 461.3,73 461.1,73 461.2,74.3 461.3,74.3 461.5,74.3 
	461.4,73.3 462,74.3 462.1,74.3 462.3,74.3 462.2,72.9 "/>
<polygon class="st0" points="463,72.9 463,74.3 463.1,74.3 463.3,74.3 463.3,72.9 463.2,72.9 "/>
<polygon class="st0" points="464.5,73 464.4,74 463.9,73 463.8,73 463.6,73 463.5,74.3 463.6,74.3 463.8,74.3 463.9,73.4 
	464.3,74.4 464.5,74.4 464.6,74.4 464.7,73.1 464.6,73.1 "/>
<path class="st0" d="M465.6,73.2c-0.1,0-0.3,0-0.4,0c-0.1,0.1-0.2,0.2-0.2,0.3c0,0.1,0,0.2,0.1,0.3c0.1,0.1,0.3,0.2,0.4,0.2
	c0.1,0,0.1,0.1,0.2,0.1c0,0,0,0.1,0,0.1c0,0.1,0,0.1-0.1,0.1c-0.1,0-0.1,0-0.2,0c-0.1,0-0.1,0-0.2-0.1c0-0.1-0.1-0.1,0-0.2h-0.3
	c0,0.1,0,0.3,0.1,0.4c0.1,0.1,0.2,0.2,0.4,0.2c0.1,0,0.3,0,0.4,0c0.1-0.1,0.2-0.2,0.2-0.3c0-0.1,0-0.2,0-0.3
	c-0.1-0.1-0.2-0.2-0.4-0.2c-0.1,0-0.2-0.1-0.3-0.1c0,0,0-0.1,0-0.1c0-0.1,0-0.1,0.1-0.1c0.1,0,0.1,0,0.2,0c0.1,0,0.1,0,0.2,0.1
	c0,0,0.1,0.1,0.1,0.2h0.3c0-0.1,0-0.2-0.1-0.3C465.8,73.2,465.7,73.2,465.6,73.2z"/>
<polygon class="st0" points="467.3,73.7 467.3,73.6 466.3,73.3 466.2,73.4 466.2,73.6 466.6,73.7 466.3,74.8 466.5,74.8 466.6,74.8 
	466.9,73.7 467.3,73.8 "/>
<polygon class="st0" points="467.5,73.7 467.1,75 467.2,75 467.4,75.1 467.8,73.8 467.6,73.7 "/>
<polygon class="st0" points="469,74.3 469,74.2 468,73.8 467.9,73.9 467.9,74 468.3,74.2 467.9,75.2 468,75.3 468.1,75.3 
	468.5,74.3 468.9,74.4 "/>
<path class="st0" d="M470.1,74.7h-0.1l-0.4,0.8c0,0.1-0.1,0.1-0.1,0.2c-0.1,0-0.2,0-0.2,0c-0.1,0-0.1-0.1-0.1-0.2c0-0.1,0-0.2,0-0.2
	l0.4-0.8l-0.1-0.1h-0.1l-0.4,0.8c-0.1,0.1-0.1,0.3,0,0.4c0.1,0.1,0.2,0.2,0.3,0.3c0.1,0.1,0.3,0.1,0.4,0.1c0.1-0.1,0.2-0.2,0.3-0.3
	l0.4-0.8L470.1,74.7z"/>
<polygon class="st0" points="471.2,75.6 471.3,75.5 471.4,75.4 470.4,74.8 470.3,74.9 470.3,75 470.6,75.2 470.1,76.2 470.2,76.3 
	470.3,76.3 470.9,75.4 "/>
<polygon class="st0" points="470.8,76.6 471.7,77.2 471.7,77.1 471.8,77 471.2,76.6 471.4,76.3 471.9,76.6 472,76.5 472,76.4 
	471.5,76.1 471.6,75.8 472.3,76.2 472.3,76.1 472.4,76 471.5,75.5 "/>
<path class="st0" d="M473.6,77.9c0.1-0.1,0.2-0.3,0.2-0.5c0-0.2-0.1-0.3-0.2-0.5c-0.1-0.1-0.3-0.2-0.5-0.2c-0.2,0-0.4,0.1-0.5,0.3
	c-0.1,0.1-0.2,0.3-0.2,0.5c0,0.4,0.4,0.6,0.7,0.6C473.3,78.1,473.5,78,473.6,77.9z M473.4,77.7c-0.1,0.1-0.2,0.2-0.3,0.2
	c-0.1,0-0.2,0-0.3-0.1c-0.1-0.1-0.1-0.2-0.1-0.3c0-0.1,0.1-0.2,0.1-0.3c0.1-0.1,0.2-0.2,0.3-0.2c0.1,0,0.2,0,0.3,0.1
	c0.1,0.1,0.1,0.2,0.1,0.3C473.5,77.5,473.5,77.6,473.4,77.7z"/>
<polygon class="st0" points="474.3,77.9 474.8,78.4 474.9,78.3 474.9,78.2 474.2,77.6 473.3,78.5 473.4,78.6 473.5,78.7 473.9,78.3 
	474.3,78.7 474.4,78.6 474.5,78.6 474.1,78.1 "/>
<polygon class="st0" points="475.9,79.7 476,79.6 476.1,79.6 475.4,78.7 475.3,78.8 475.2,78.9 475.5,79.2 474.6,79.9 474.7,80 
	474.8,80.1 475.6,79.4 "/>
<polygon class="st0" points="475.8,80.4 476.1,80.9 476.3,80.9 476.3,80.8 476,80.3 476.2,80.1 476.6,80.7 476.7,80.6 476.8,80.6 
	476.2,79.7 475.1,80.5 475.7,81.4 475.8,81.3 475.9,81.2 475.5,80.6 "/>
<path class="st0" d="M476.8,82.2l-0.1-0.2c-0.1,0-0.1,0-0.2,0c-0.1,0-0.1-0.1-0.2-0.1c-0.1-0.1-0.1-0.2,0-0.3
	c0.1-0.1,0.1-0.2,0.3-0.3c0.1-0.1,0.2-0.1,0.4-0.1c0.1,0,0.2,0.1,0.2,0.1c0,0.1,0.1,0.1,0,0.2c0,0.1,0,0.1-0.1,0.2l0.1,0.2
	c0.1-0.1,0.2-0.2,0.2-0.3c0-0.1,0-0.3-0.1-0.4c-0.1-0.2-0.2-0.3-0.4-0.3c-0.2,0-0.4,0-0.5,0.1c-0.2,0.1-0.3,0.2-0.4,0.4
	c0,0.2,0,0.3,0.1,0.5c0.1,0.1,0.2,0.2,0.3,0.3C476.5,82.3,476.7,82.3,476.8,82.2z"/>
<polygon class="st0" points="478.1,82.9 478.1,82.8 477.6,83 477.4,82.5 477.8,82.3 477.8,82.2 477.7,82 476.5,82.6 476.5,82.8 
	476.6,82.9 477.1,82.6 477.4,83.1 476.8,83.4 476.9,83.5 477,83.6 478.2,83 "/>
<polygon class="st0" points="477.4,84.6 477.4,84.7 477.5,84.9 478.7,84.4 478.7,84.3 478.6,84.1 477.7,84.5 478.4,83.6 478.4,83.5 
	478.3,83.3 477.1,83.8 477.1,84 477.1,84.1 478.1,83.7 "/>
<path class="st0" d="M478.2,84.8c-0.2,0-0.3,0.2-0.4,0.3c-0.1,0.2-0.1,0.3,0,0.5c0,0.2,0.2,0.3,0.3,0.4c0.2,0.1,0.4,0.1,0.5,0
	c0.2,0,0.3-0.2,0.5-0.3c0.1-0.2,0.1-0.3,0-0.5c0-0.2-0.2-0.3-0.3-0.4C478.5,84.8,478.3,84.8,478.2,84.8z M478.8,85.3
	c0,0.1,0,0.2,0,0.3c-0.2,0.2-0.4,0.3-0.7,0.2c-0.1,0-0.2-0.1-0.2-0.2c0-0.1,0-0.2,0-0.3c0.2-0.2,0.4-0.3,0.7-0.2
	C478.7,85.1,478.8,85.2,478.8,85.3z"/>
<polygon class="st0" points="478.1,87.4 478.2,87.4 478.4,87.4 478.2,86.7 479.3,86.5 479.3,86.3 479.3,86.2 477.9,86.5 "/>
<path class="st0" d="M478.8,87.4c-0.2,0-0.4,0.1-0.5,0.2c-0.1,0.1-0.2,0.3-0.1,0.5c0,0.2,0.1,0.3,0.3,0.4c0.2,0.1,0.4,0.1,0.5,0.1
	c0.2,0,0.4-0.1,0.5-0.2c0.1-0.1,0.2-0.3,0.1-0.5c0-0.2-0.1-0.3-0.3-0.4C479.2,87.4,479,87.4,478.8,87.4z M479.4,88
	c0,0.1,0,0.2-0.1,0.3c-0.1,0.1-0.2,0.1-0.3,0.1c-0.1,0-0.2,0-0.4-0.1c-0.1-0.1-0.2-0.2-0.2-0.3c0-0.1,0-0.2,0.1-0.3
	c0.1-0.1,0.2-0.1,0.3-0.1c0.1,0,0.2,0,0.4,0C479.3,87.7,479.4,87.9,479.4,88L479.4,88z"/>
<path class="st0" d="M479.5,89c-0.1-0.1-0.3-0.2-0.5-0.2c-0.2,0-0.4,0.1-0.5,0.2c-0.1,0.1-0.2,0.3-0.2,0.5c0,0.2,0.1,0.3,0.2,0.4
	l0,0h-0.2v0.2h0.7v-0.6h-0.2v0.3l0,0l-0.2-0.1c-0.1-0.1-0.1-0.2-0.1-0.3l0,0c0-0.1,0-0.2,0.1-0.3c0.1-0.1,0.2-0.1,0.3-0.1
	c0.1,0,0.3,0,0.4,0.1c0.1,0.1,0.1,0.2,0.1,0.3c0,0.1,0,0.1-0.1,0.2c0,0.1-0.1,0.1-0.1,0.1V90c0.1,0,0.2-0.1,0.3-0.2
	c0.1-0.1,0.1-0.3,0.1-0.4C479.7,89.3,479.6,89.1,479.5,89z"/>
<polygon class="st0" points="478.3,89.5 478.3,89.5 478.3,89.5 "/>
<polygon class="st0" points="478.3,90.7 478.3,90.8 478.3,90.9 478.8,91 479.6,91.4 479.6,91.3 479.7,91.1 479.1,90.8 479.1,90.8 
	479.7,90.6 479.7,90.4 479.7,90.2 478.8,90.7 "/>
<path class="st0" d="M478.2,92.1l-0.1,0.5c0,0.1,0,0.3,0,0.4c0.1,0.1,0.2,0.2,0.3,0.2c0.1,0,0.2,0,0.3-0.1l0.1-0.1l0,0
	c0,0.1,0.1,0.1,0.2,0.2c0.1,0,0.2,0,0.3-0.1c0.1-0.1,0.1-0.2,0.1-0.3l0.1-0.5v-0.1l-1.3-0.2L478.2,92.1z M479,92.7l0-0.3h0.3v0.3
	c0,0.1,0,0.1-0.1,0.2c0,0-0.1,0-0.1,0C479.1,92.9,479,92.8,479,92.7C479,92.8,479,92.7,479,92.7L479,92.7z M478.4,92.6l0.1-0.3h0.4
	v0.3c0,0.1,0,0.1-0.1,0.2c0,0-0.1,0-0.1,0C478.5,92.8,478.5,92.8,478.4,92.6C478.4,92.7,478.4,92.7,478.4,92.6L478.4,92.6z"/>
<path class="st0" d="M478.7,93.4c-0.2-0.1-0.4-0.1-0.5,0c-0.3,0.2-0.4,0.6-0.2,0.9c0.1,0.2,0.3,0.3,0.5,0.3c0.2,0.1,0.4,0.1,0.6,0
	c0.2-0.1,0.3-0.2,0.3-0.4c0.1-0.2,0-0.4-0.1-0.5C479,93.5,478.9,93.4,478.7,93.4z M479,94.1c0,0.1-0.1,0.2-0.2,0.2
	c-0.2,0.1-0.5,0-0.7-0.2c-0.1-0.1-0.1-0.2-0.1-0.3c0-0.1,0.1-0.2,0.2-0.2c0.1,0,0.2,0,0.4,0c0.1,0,0.2,0.1,0.3,0.2
	C479,93.9,479,94,479,94.1z"/>
<polygon class="st0" points="477.6,94.8 477.6,94.9 478.7,95.3 478.7,95.3 477.5,95.2 477.5,95.3 477.4,95.4 478.4,96 477.3,95.7 
	477.3,95.8 477.2,95.9 478.5,96.4 478.6,96.2 478.6,96 477.7,95.4 477.7,95.4 478.8,95.5 478.9,95.3 479,95.1 477.7,94.7 "/>
<path class="st0" d="M477.1,96.3l-0.2,0.4c-0.1,0.1-0.1,0.3-0.1,0.4c0,0.1,0.1,0.2,0.2,0.3c0.1,0.1,0.2,0.1,0.3,0c0,0,0.1,0,0.1-0.1
	l0,0c0,0.2,0.2,0.3,0.4,0.2c0,0,0,0,0,0c0.1,0,0.2-0.1,0.2-0.2l0.2-0.5l0.1-0.1l-1.2-0.6L477.1,96.3z M477.6,97l0.1-0.3l0.3,0.1
	l-0.1,0.3c0,0.1-0.1,0.1-0.1,0.1c0,0-0.1,0-0.1,0c0,0-0.1-0.1-0.1-0.1C477.6,97.1,477.6,97.1,477.6,97L477.6,97z M477.6,96.6
	l-0.1,0.3c0,0.1-0.1,0.1-0.1,0.1c0,0-0.1,0-0.1,0c0,0-0.1-0.1-0.1-0.1c0-0.1,0-0.1,0-0.2l0.1-0.3L477.6,96.6z"/>
<path class="st0" d="M476.6,97.3l-0.1,0.1l0.2,0.2l-0.3,0.4l-0.3-0.1l-0.1,0.1l-0.1,0.1l1.4,0.2l0.1-0.1l0.1-0.2l-1-1.1L476.6,97.3z
	 M477.3,98.3l-0.6-0.1l0.2-0.3L477.3,98.3z"/>
<polygon class="st0" points="475.8,98.6 475.8,98.7 475.7,98.8 476.1,99.1 476.6,100 476.7,99.8 476.8,99.7 476.4,99.2 476.4,99.2 
	477,99.2 477.1,99.1 477.2,98.9 476.3,98.9 "/>
<rect x="451.8" y="75.8" transform="matrix(0.7984 -0.6021 0.6021 0.7984 45.3852 287.4359)" class="st0" width="0.3" height="0.3"/>
<path class="st0" d="M446,92.1c0.1,0,0.2-0.1,0.2-0.1c0.1-0.1,0.1-0.2,0.1-0.3l0,0l0.4,0.4l0.1-0.2l-0.5-0.5l0.5-0.1v-0.2l-1.2,0.2
	V91l1.2-0.1v-0.2l-1.2,0.1c0-0.3,0-0.8,0-0.8h0.1v0.4c0,0.1,0,0.1,0.1,0.1c0,0,0.1,0,0.1,0c0.1,0,0.2,0,0.2-0.1l0.1-0.1v0.1
	c0,0,0.1,0,0.1,0c0.1,0,0.2-0.1,0.2-0.2c0-0.1,0.1-0.2,0.1-0.3c0-0.1,0-0.3-0.1-0.4c0-0.1-0.1-0.1-0.1-0.2h0.3v-0.2h-1.2v-0.4
	l1.2,0.1v-0.2l-1.2-0.1v-0.4l1.2,0.1V88l-1.2-0.1l0.1-0.4l0.4,0.1v0.1l0,0c0,0,0,0,0.1,0s0.1,0,0.2-0.1s0.1-0.2,0.1-0.2
	c0,0,0-0.1,0-0.1h-0.1l-0.6-0.1l0.1-0.4l1.2,0.3l0-0.2l-1.2-0.3l0.2-0.8l0.6,0.2c0,0,0,0,0,0.1c0,0.1,0,0.1,0,0.2
	c0,0.1-0.1,0.2-0.3,0.1c-0.1,0-0.2-0.1-0.1-0.2c0,0,0-0.1,0-0.2H446c0,0.1,0,0.2,0,0.2c0,0.2,0.1,0.3,0.3,0.3c0.1,0,0.2,0,0.3,0
	c0.1-0.1,0.2-0.1,0.2-0.3c0-0.1,0-0.1,0-0.2v-0.1l0.3,0.1l0.1-0.2l-0.6-0.2c0,0,0,0,0-0.1c-0.1-0.1-0.1-0.1-0.1-0.2
	c0-0.1,0.1-0.2,0.2-0.1c0.1,0,0.2,0.1,0.2,0.2c0,0,0.1,0.1,0.1,0.1l0.2-0.1c0-0.1-0.1-0.1-0.1-0.2c-0.1-0.1-0.2-0.2-0.3-0.2
	c-0.1,0-0.2,0-0.3,0c-0.1,0-0.1,0.1-0.2,0.2c0,0.1,0,0.1,0,0.2v0.1l-0.3-0.1l0.2-0.8l1.1,0.4l0.1-0.2l-1.1-0.4l0.1-0.2l-0.2-0.1
	l-0.1,0.2H446c-0.3,0-0.6,0.1-0.7,0.4c0,0.1,0,0.2,0,0.3c0,0.1,0.1,0.2,0.2,0.2c0.1,0,0.1,0,0.2,0c0.1,0,0.1,0,0.2,0
	c-0.1,0.4-0.3,0.9-0.4,1.3c-0.2,0.1-0.4,0.3-0.6,0.5c-0.1,0.1-0.2,0.3-0.2,0.4c0,0.3,0.1,0.5,0.4,0.6c0.1,0,0.1,0,0.2,0h0.1v0.4
	l-0.7,0.5l0.1,0.2l0.5-0.5c0,0.3,0,1.6,0,2.1l-0.6,0.4l0.1,0.2l0.5-0.5V91l-0.4,0.5l0.2,0.1l0.2-0.4c0,0,0.1,0.8,0.2,1.2h0.2v-0.2
	L446,92.1z M445.7,85.2c-0.1,0-0.1,0-0.2,0c0,0-0.1,0-0.1-0.1c0,0,0-0.1,0-0.2c0-0.1,0.1-0.2,0.3-0.2c0.1,0,0.2,0,0.3,0l-0.1,0.4
	L445.7,85.2z M445.3,87.9L445.3,87.9c0,0-0.1,0-0.1,0c-0.2,0-0.3-0.1-0.2-0.3c0-0.2,0.1-0.3,0.3-0.4l0.3-0.2
	C445.4,87.3,445.3,87.6,445.3,87.9L445.3,87.9z M445.4,89.4h0.6c0.1,0.1,0.1,0.1,0.1,0.2c0.1,0.1,0.1,0.2,0.1,0.3c0,0,0,0.1,0,0.1
	c0,0-0.1,0.1-0.1,0.1c-0.1,0-0.1-0.1-0.1-0.2c0,0,0-0.1,0-0.1h-0.2c0,0,0,0.1,0,0.2c0,0,0,0.1,0,0.2l0,0c0,0,0,0,0,0.1h-0.1
	c0,0-0.1,0-0.1-0.1v-0.4h-0.3L445.4,89.4z M445.5,91.7L445.5,91.7v-0.2l0.5-0.1c0,0,0,0,0.1,0c0,0,0.1,0.1,0.1,0.2
	c0,0.1,0,0.2-0.2,0.2l-0.4,0.1L445.5,91.7z"/>
<rect x="446.8" y="81.5" transform="matrix(0.4876 -0.8731 0.8731 0.4876 157.7791 431.9846)" class="st0" width="0.3" height="0.3"/>
<path class="st0" d="M450.3,78l-0.1-0.1l-0.4,0.4l0,0l-0.5,0.6l-0.3,0.4l-0.4,0.5l0.1,0.1l0.1-0.2l0.4,0.3c0,0.1,0,0.1,0,0.2
	c0,0.1,0,0.2-0.1,0.3c0,0.1-0.1,0.1-0.2,0.1h-0.1c0.1-0.1,0.1-0.2,0.1-0.3c0-0.1-0.1-0.2-0.2-0.3c-0.1-0.1-0.2-0.1-0.3-0.1
	c-0.1,0-0.2,0.1-0.3,0.2c0,0.1-0.1,0.1-0.1,0.2c0,0.1,0,0.2,0.1,0.2c0.1,0.1,0.2,0.1,0.3,0c0,0,0.1-0.1,0.1-0.1l-0.1-0.1
	c0,0,0,0-0.1,0c0,0-0.1,0-0.1,0c-0.1,0-0.1-0.1,0-0.2s0.2-0.1,0.3,0c0.1,0,0.1,0.1,0.1,0.2c0,0.1,0,0.2-0.1,0.2l-0.1,0.1l0,0h-0.1
	l-0.2,0.3h0.2l0.1-0.2c0.1,0,0.2,0,0.3,0c0.2,0,0.3-0.1,0.4-0.3c0.1-0.1,0.1-0.3,0.1-0.4l0.3,0.2l0.1-0.2l-1-0.7l0.2-0.3l0.9,0.8
	l0.1-0.2l-0.9-0.8l0.1-0.1l0,0l0.5-0.5l0.1-0.2l0.2,0.2l-0.5,0.5l0,0c0,0,0,0.1,0,0.1c0.1,0,0.2,0,0.2,0c0.1,0,0.2,0,0.2,0
	s0-0.1,0-0.1l-0.1-0.1l0.3-0.3l0.5,0.5l0.2-0.2l-0.9-0.8L450.3,78z"/>
<path class="st0" d="M448.8,81.4h-0.2h-0.2h-0.1c0,0,0,0,0-0.1c0,0,0-0.1,0-0.1c0-0.1,0-0.1-0.1-0.2l-0.3-0.2l0.1-0.2l-0.2-0.1
	l-0.5,0.9l0,0l-0.3,0.6l0,0l-0.4,0.9l0.2,0.1l0.3-0.5l0.3,0.1l0,0c0,0,0,0.1,0,0.1c0,0-0.1,0.1-0.1,0.1H447V83h0.2
	c0.2,0,0.5-0.1,0.7-0.1h0.2l0-0.2H448l-0.2,0.1h-0.2h-0.1c0,0,0,0,0-0.1c0,0,0-0.1,0-0.1c0-0.1-0.1-0.1-0.1-0.2l-0.3-0.1l0.1-0.2
	l0,0l0.1-0.2l0.3,0.2l-0.2,0.3h0.2l0.1-0.2l0.6,0.3l0.1-0.2l-1.1-0.6l0.1-0.2l0,0l0.3-0.5l0.3,0.2l0,0c0,0,0,0.1,0,0.1
	c0,0-0.1,0-0.2,0h-0.1v0.2h0.3C448.2,81.5,448.5,81.5,448.8,81.4L448.8,81.4l0.1-0.2L448.8,81.4z"/>
<path class="st0" d="M454.9,76.1h-0.2c0.1,0,0.1-0.1,0.1-0.2c0-0.1,0-0.2,0-0.3c-0.1-0.1-0.2-0.2-0.3-0.1l-0.1,0.1
	c0,0-0.1,0.1-0.1,0.1c0,0-0.1,0-0.2,0H454c0,0,0,0,0-0.1l0.5-0.3l-0.2-0.3l0.2-0.1l-0.1-0.2l-0.3,0.2h-0.1c-0.1,0-0.1-0.1-0.2-0.2
	c-0.1-0.1,0-0.2,0.1-0.2h0.1l0,0l-0.1-0.1c-0.1,0-0.1,0-0.2,0.1c-0.1,0-0.2,0.2-0.2,0.3c0,0,0,0,0,0.1c0.1,0.1,0.1,0.2,0.2,0.2h0.1
	c-1,0.6-1.9,1.2-2.7,1.9l0.1,0.1l0.2-0.2l0.3,0.3l-0.1,0.1l0,0c0,0,0,0.1,0,0.1c0,0,0.1,0,0.3,0.1c0.1,0,0.2,0,0.3,0
	c0,0,0-0.1,0-0.1l-0.1-0.1l0.3-0.3l0.4,0.5l0,0l0,0l0,0h0.2l0,0c0,0,0-0.1,0.1-0.1c0.1-0.1,0.1-0.1,0.2,0s0,0,0,0s0,0.2-0.1,0.3
	c-0.1,0.1-0.2,0.1-0.3,0.1h-0.1v0.2h0.2c0.1,0,0.3,0,0.4-0.1c0.1-0.1,0.2-0.1,0.2-0.3c0.1-0.1,0.1-0.2,0-0.3c0-0.1-0.1-0.1-0.2-0.1
	c-0.1,0-0.2,0-0.3,0.1l0,0l-0.7-0.9l0.8-0.6l0.3,0.5h-0.5l0,0c0,0,0.1-0.1,0.1-0.1l0.1-0.1l0,0l-0.1-0.1h0c0,0-0.1,0-0.1,0.1
	c-0.1,0.1-0.2,0.2-0.2,0.3c0,0.1,0,0.2,0,0.3c0.1,0.1,0.2,0.2,0.3,0.2c0.1,0,0.2,0,0.3-0.1c0.1-0.1,0.1-0.1,0.2-0.2c0,0,0,0,0-0.1
	l0.2,0.3l0.2-0.1l-0.7-1l0.1-0.1l0,0l0.6-0.4l0.1,0.2l-0.4,0.2c0,0-0.1,0-0.1,0.1c0,0,0,0.1,0,0.1c0.1,0.1,0.1,0.1,0.3,0.2
	c0.1,0.1,0.2,0.1,0.4,0l0,0l0.1-0.1c0,0,0.1,0,0.1,0c0.1,0.1,0.1,0.2,0,0.3c0,0-0.1,0.1-0.1,0.1l0,0h-0.1c-0.1,0-0.1,0-0.2,0
	c0,0-0.1,0.1-0.1,0.1c0,0,0,0.1,0,0.1c0,0,0.1,0.1,0.1,0.1c0.1,0,0.1,0,0.2,0h0.1h0.1h0.3h0.2v-0.3H454.9L454.9,76.1z M452.4,76.7
	l-0.3,0.3l-0.3-0.3l0.2-0.2l0.1-0.1L452.4,76.7z M453.5,76.3c0,0-0.1,0.1-0.1,0.1c-0.1,0-0.1,0.1-0.2,0.1c-0.1,0-0.1,0-0.2-0.1
	c0,0,0-0.1,0-0.1l0,0H453.5L453.5,76.3z"/>
<path class="st0" d="M446.6,96.1l-0.1-0.3l1.1-0.4l-0.1-0.2l-1.1,0.4l-0.2-0.5c0,0,0-0.1,0.1-0.1c0,0,0.1-0.1,0.1-0.1
	c0.1,0,0.2,0,0.3,0.2v0.1c0.1,0,0.3-0.1,0.3-0.3c0.1-0.1,0.1-0.3,0-0.4c0-0.1-0.1-0.1-0.1-0.2h0l0.3-0.1l-0.1-0.2l-1.2,0.3v-0.2
	h-0.2l0,0c0,0,0.3,1,0.4,1.5l0,0l-0.1,0.1c-0.2,0.2-0.3,0.5-0.3,0.7c0,0.1,0.1,0.2,0.2,0.2c0.1,0,0.2,0,0.3,0c0.1,0,0.1-0.1,0.2-0.1
	c0,0,0.1-0.1,0.1-0.1l0,0l0.5,1c0.3,0.6,0.6,1.1,0.9,1.7l0.2-0.1l-0.1-0.2l0.4-0.2l0.2,0.3l-0.3,0.2c-0.1,0-0.1,0.1-0.1,0.2
	c0,0.1,0,0.2,0.1,0.2c0.1,0.2,0.2,0.2,0.4,0.1l0.1-0.1l0,0l-0.1-0.1l0,0l-0.1,0.1c0,0-0.1,0-0.1,0c0,0,0-0.1,0-0.1c0,0,0,0,0,0
	l0.3-0.2l0.1,0.1c0,0,0.1,0,0.1,0c0,0,0,0,0,0c0,0,0.1-0.1,0.1-0.3c0-0.1,0-0.2,0-0.3c0,0-0.1-0.1-0.1,0l-0.2,0.1l-0.2-0.3l0.5-0.3
	l-0.1-0.2l-1,0.6l-0.1-0.3l1-0.6l-0.1-0.2l-1,0.6l-0.3-0.7l0.3-0.1l0,0c0,0,0.1,0,0.1,0c0,0.1,0,0.2,0,0.2l-0.1,0.1l0.2,0.1v-0.1
	c0.1-0.2,0.3-0.5,0.4-0.8l0.1-0.2l-0.2-0.1c0,0,0,0.1,0,0.1c0,0.1-0.1,0.1-0.1,0.2l-0.1,0.2l0,0.1v-0.1c-0.1-0.1-0.2-0.2-0.3-0.1
	c0,0,0,0,0,0l-0.3,0.2l-0.4-1l0.2-0.1l0.2,0.5c0,0.1,0.1,0.1,0.2,0.1c0.1,0,0.1,0,0.2,0c0.2-0.1,0.3-0.2,0.3-0.4
	c0-0.1,0.1-0.2,0.1-0.3l-0.2-0.1c0,0,0,0.1-0.1,0.2c0,0.1-0.1,0.2-0.3,0.3c0,0-0.1,0-0.1,0c0,0,0,0,0-0.1l-0.2-0.4l0.8-0.3l-0.1-0.2
	L446.6,96.1z M446.2,94.8L446.2,94.8l-0.2-0.3l0.6-0.2l0.1,0.1c0.1,0,0.1,0.1,0.1,0.2c0,0.1,0,0.2,0,0.2c0,0,0,0.1-0.1,0.1
	c0,0-0.1-0.1-0.1-0.1c-0.1-0.1-0.2-0.1-0.3,0C446.3,94.7,446.3,94.7,446.2,94.8L446.2,94.8z M446.3,96.4l-0.1,0.1c0,0-0.1,0-0.1,0
	c0,0-0.1-0.1-0.1-0.1c0-0.1,0-0.3,0.1-0.4c0.1-0.1,0.1-0.1,0.2-0.2l0.2,0.4C446.4,96.3,446.4,96.3,446.3,96.4z"/>
<path class="st0" d="M464.3,104.7l-0.1-0.1l0-1.3h0.3l-0.1-0.3c-1.7-0.1-3.4,0-5.1,0.1l0.1,0.2h0.1v0.4v0.1c0,0.1,0,0.1,0.1,0.1
	c0.1,0.1,0.2,0.1,0.4,0.2c0.1,0,0.1,0,0.2-0.1c0,0,0,0,0,0v0.3l0.3,0.2l-0.1-1.3h0.5v0.3c0,0-0.1,0.1-0.1,0.1c0-0.1-0.1-0.1-0.1-0.1
	c0,0-0.1,0.1-0.1,0.1c0,0.1,0,0.1,0.1,0.1l0.1,0.1l0.5,0.6l0.1-0.1l-0.4-0.4h0.1c0.1,0,0.2-0.1,0.2-0.2l0,0v-0.5h0.4v0.5h-0.1
	c0,0,0,0.1,0,0.1c0,0.1,0.1,0.1,0.1,0.2c0.1,0.1,0.1,0.2,0.2,0.2c0.1,0,0.1,0,0.1-0.1v-0.1h0.4v0.4l0.3,0.2v-1.3h0.3v0.4h-0.1h0
	c0,0,0,0,0,0.1c0,0.1,0.1,0.1,0.1,0.2c0,0.1,0.1,0.1,0.2,0.2c0.1,0,0.1,0,0.1-0.1v-0.1h0.5v0.4L464.3,104.7l-0.1,0H464l0.1,0.2l0,0
	h0.1h0.1c0.1,0,0.2,0.1,0.3,0.2l0.1,0.1h0.1l-0.2-0.2C464.5,105,464.4,104.9,464.3,104.7z M460.4,103.9c-0.1,0.1-0.1,0.1-0.2,0.2
	c0,0-0.1,0-0.1,0c0,0-0.1,0-0.1-0.1l0-0.6h0.5L460.4,103.9L460.4,103.9z M462.6,103.8h-0.5v-0.4h0.5V103.8z M464,103.8h-0.5v-0.4
	h0.5L464,103.8z"/>
<path class="st0" d="M470.4,105.8c0-0.1-0.1-0.1-0.1-0.2l-0.2-0.1v0.3l0,0h0.1h0.1c0.1,0.1,0.2,0.2,0.2,0.3c0,0.1,0,0.1,0.1,0.2h0.1
	l-0.1-0.3C470.5,105.9,470.4,105.8,470.4,105.8z"/>
<path class="st0" d="M467.6,103.4l0-0.2c0-0.1,0-0.1,0-0.2c-0.1-0.3-0.2-0.4-0.4-0.4h-0.1v0.3l0,0c0.1,0,0.2,0.1,0.3,0.3l0.1,0.2
	c-0.3,0-0.8-0.1-1.2-0.2l0.1,0.3h0.4l0,0c0,0,0,0.1,0,0.1c0,0-0.1,0.1-0.2,0.1c-0.1,0-0.1,0-0.2,0c0,0.1,0,0.1,0,0.2v0.1l-0.1,0.1
	c-0.1,0.1-0.2,0.1-0.4,0.1c-0.2,0-0.2-0.1-0.2-0.2c0,0,0-0.1,0.1-0.1h0.1h0.4l-0.1-0.2H466c0,0-0.1,0-0.1-0.1h0.1
	c0.2,0,0.3-0.1,0.3-0.2c0-0.1,0-0.1-0.1-0.2c-0.1-0.1-0.1-0.1-0.2-0.1c-0.2,0-0.3,0-0.4,0.2v0.1c0,0.1,0,0.1,0.1,0.2l0.1,0.1h-0.1
	c0,0-0.1,0.1-0.1,0.2c0,0.1,0,0.3,0.1,0.4c0.1,0.1,0.2,0.1,0.3,0.2c0.1,0,0.2,0,0.3,0l0.1-0.1v-0.2v0.1c0.1,0.1,0.2,0.2,0.4,0.3
	c0.1,0,0.2,0,0.3,0v0.2l0.3,0.2l0.2-1.3l0.7,0.1l0,0c0,0,0,0.1,0,0.1c0,0-0.1,0.1-0.2,0.1h-0.2c0,0.1,0,0.1,0,0.2
	c0,0.1,0,0.2,0.1,0.3c0.1,0.2,0.2,0.3,0.4,0.3c0.1,0,0.2,0,0.3,0v0.2l0.2,0.3l0.3-1.2l0.5,0.1l-0.1,0.4h-0.1c0,0-0.1,0,0,0.1
	c0,0.1,0,0.2,0.1,0.2c0.1,0.1,0.1,0.2,0.1,0.2s0.1,0,0.1,0s0,0,0,0v-0.1l0.5,0.1l-0.1,0.4l0.2,0.3l0.3-1.2l0.3,0.1l0-0.3
	C470,103.9,468.1,103.5,467.6,103.4z M466,103.4c0.1,0,0.1,0,0.1,0.1s-0.1,0.1-0.2,0.1s0,0,0,0c0,0,0-0.1,0-0.1
	C465.8,103.4,465.9,103.4,466,103.4C466,103.4,466,103.4,466,103.4L466,103.4z M467.2,104.2L467.2,104.2c-0.2,0.1-0.3,0.1-0.4,0.1
	c-0.1,0-0.2-0.1-0.2-0.1l0,0h0.1c0.1,0,0.2-0.1,0.2-0.2c0-0.1,0-0.1,0-0.2c0,0,0-0.1,0-0.1l0.4,0.1L467.2,104.2z M468.7,104.4
	l-0.1,0.1c-0.1,0-0.2,0-0.3,0c-0.1,0-0.2-0.1-0.2-0.2l0,0h0.2c0.1,0,0.2-0.1,0.2-0.2c0-0.1,0-0.1,0-0.2c0,0,0,0,0-0.1l0.4,0.1
	L468.7,104.4z M470.2,104.7l-0.5-0.1l0.1-0.4l0.5,0.1L470.2,104.7z"/>
<path class="st0" d="M458.6,105c-0.1,0-0.1-0.1-0.2-0.1l-0.2-1.3h0.3l-0.2-0.2c-1.7,0.2-3.3,0.6-4.9,1.2l0.2,0.2
	c0.3-0.2,1-0.4,1-0.4v0.2l-0.8,0.3v0.2h0.1c0.2,0,0.3,0,0.3,0.2c0,0,0,0.1,0,0.1v0.1l0,0c0,0-0.1,0-0.1,0c-0.1,0-0.1,0.1-0.1,0.2
	c0,0.1,0.1,0.1,0.1,0.1c0.1,0,0.1,0,0.2,0l0.3,0.2l0.1-0.1l-0.3-0.1l0,0c0.1-0.1,0.1-0.2,0.1-0.3c0-0.1-0.1-0.2-0.2-0.2h-0.1
	l0.4-0.1l0.2,0.6l0.3,0.1l-0.4-1.2l0.3-0.1l0.3,1l0.3,0.1c0,0-0.3-1.2-0.3-1.2c0.6-0.2,1.1-0.3,1.1-0.3v0.3l-0.7,0.2h-0.1
	c0,0,0,0.1,0,0.1c0,0.1,0.1,0.1,0.1,0.2c0.1,0.1,0.2,0.1,0.2,0.1c0,0,0.1,0,0.1,0c0,0,0-0.1,0-0.1c0,0,0-0.1,0-0.1l0,0l0.4-0.1
	l0.1,0.5l0.3,0.1l-0.2-1.3h0.4l0.1,0.4h-0.1l0,0c0,0,0,0.1,0,0.1c0,0.1,0.1,0.1,0.2,0.2c0.1,0.1,0.1,0.1,0.2,0.1
	c0.1,0,0.1,0,0.1-0.1l0,0v-0.1l0.5-0.1v0.4l0.3,0.2h-0.2l0.1,0.2h0.2c0.1,0,0.2,0.1,0.3,0.2l0.1,0.1l0-0.1l-0.2-0.2
	C458.8,105.3,458.7,105.1,458.6,105z M457.6,104.2l-0.1-0.4l0,0l0.5-0.1l0,0.4L457.6,104.2z"/>
<path class="st0" d="M460,93.1c-0.3,0.1-0.6,0.1-0.9,0.2c-0.7,0.1-1.3,0.1-2,0c-0.7,0.9-1.4,1.8-2.1,2.6l-0.5,0.7
	c-0.1,0.1-0.1,0.2-0.2,0.2c0.2,0.3,0.4,0.6,0.6,1c0.1,0.3-0.1,0.5-0.3,0.7h6.3c0.3,0.3,0.8,0.5,1.3,0.5c0.4,0,0.7-0.1,1-0.3
	c0.1-0.1,0.2-0.2,0.3-0.2c0.1,0,0.3,0,0.4,0h1.2c1.6,0,3.3,0,4.8,0c-0.1-0.2-0.3-0.3-0.4-0.4c-0.2-0.4,0.1-1,0.2-1.3l-2-3.4
	c-0.3,0-0.6,0-0.9,0c-0.5-0.1-1-0.2-1.5-0.4c-0.3-0.1-0.5-0.1-0.8-0.2c-0.6,0-1.2,0.1-1.8,0.3c-0.2-1-0.1-2.1,0.3-3
	c0.6,0,1.1-0.3,1.4-0.8c0,0.1,0.1,0.1,0.1,0.2c0.4,0.2,0.8,0.4,1.3,0.4c0.3,0,0.5,0,0.8,0c0.2,0,0.5-0.1,0.7-0.2
	c0.4-0.1,0.7-0.4,1-0.6c0.1-0.1,0.3-0.3,0.4-0.4c0.1-0.2,0.2-0.4,0.3-0.6c-0.3,0-0.6-0.1-0.9-0.2c-0.2-0.2-0.4-0.4-0.6-0.6
	c-0.2-0.3-0.4-0.6-0.7-0.9c-0.1,0-0.2-0.1-0.2-0.2c0.4-0.1,0.8-0.3,1.1-0.6c0.5-0.6,1-1.3,1.4-2.1c0.2-0.3,0.6-0.6,1-0.8
	c0-0.2-0.2-0.3-0.3-0.4c-0.5-0.2-1.1-0.2-1.5,0c-0.1,0-0.1,0.1-0.2,0.1c0.1-0.4,0.3-0.7,0.5-1c0-0.1,0.2-0.2,0.2-0.3
	s-0.2-0.2-0.3-0.2c-0.3-0.1-0.7-0.1-1,0l-0.3,0.1c-0.1,0-0.2,0.1-0.3,0.1c0.1-0.3,0.1-0.7,0.2-1c0-0.1,0.1-0.2,0.1-0.3
	c-0.2-0.1-0.3-0.1-0.5-0.1c-0.4,0-0.8,0.1-1.1,0.4c-0.1,0-0.1,0.1-0.2,0.1c0-0.5,0.1-1,0.3-1.5c-0.8-0.2-1.6,0.1-2.1,0.8
	c0,0-0.1,0.1-0.1,0.1c-0.3-0.6-0.6-1.1-1-1.7c-0.1,0.1-0.2,0.2-0.3,0.4c-0.3,0.4-0.5,0.8-0.7,1.2c-0.5-0.7-1.3-1.1-2.1-1
	c0,0.2,0.1,0.4,0.1,0.6c0,0.4-0.1,0.8-0.2,1.2c-0.4-0.4-0.9-0.7-1.4-0.7c-0.2,0-0.4,0-0.6,0.1c0,0.1,0,0.1,0,0.2
	c0.2,0.5,0.3,0.9,0.3,1.4c-0.3-0.3-0.7-0.5-1.1-0.6c-0.4-0.1-0.7,0-1,0.2c0.1,0.2,0.3,0.3,0.5,0.6c0.1,0.2,0.2,0.5,0.3,0.7
	c-0.4-0.1-0.7-0.2-1.1-0.1c-0.3,0.1-0.6,0.3-0.7,0.6c0.2,0.1,0.3,0.2,0.5,0.3c0.1,0.1,0.2,0.3,0.3,0.4c0.4,0.6,0.6,1.4,1,2
	c0.3,0.3,0.7,0.6,1.1,0.7c-0.3,0.3-0.6,0.6-0.8,0.9c-0.1,0.3-0.3,0.5-0.6,0.7c-0.1,0-0.3,0.1-0.3,0.2s0.1,0.3,0.2,0.4
	c0.1,0.2,0.3,0.4,0.5,0.6c0.3,0.3,0.7,0.5,1.1,0.6c0.3,0.1,0.7,0.1,1,0.1c0.5-0.1,1-0.2,1.4-0.4c0.1,0,0.1,0,0.2-0.1
	c0,0,0.1,0.1,0.2,0.1l0.1,0.2c0.4,0.3,0.8,0.5,1.3,0.6c-0.2,0.4-0.3,0.9-0.4,1.4c0,0.5,0,1.1,0.1,1.6C461,92.9,460.5,93,460,93.1z
	 M455,97c-0.1,0-0.1,0-0.2-0.1c1.4,0,2.9-0.2,4.3-0.5c0.6-0.1,1.3,0,1.9,0.1c0.2,0.1,0.5,0.2,0.7,0.3c0,0,0.1,0,0.1,0.1
	c0,0,0.1,0,0,0.1s-0.1,0-0.1,0c-0.4-0.2-0.9-0.4-1.4-0.4c-0.6,0-1.3,0-1.9,0.1c-0.9,0.1-1.8,0.3-2.8,0.3C455.5,97,455.2,97,455,97z
	 M459.5,96.8c0.7-0.1,1.5,0,2.1,0.4c0,0,0.1,0,0.1,0.1s-0.1,0-0.2,0c-0.4-0.2-0.9-0.3-1.3-0.3c-1.2,0-2.3,0.1-3.4,0.3
	c-0.5,0.1-1,0.1-1.5,0.1c-0.1,0-0.1,0-0.2-0.1C456.6,97.3,458,96.8,459.5,96.8L459.5,96.8z M461.3,98.3
	C461.3,98.3,461.3,98.3,461.3,98.3c-0.3,0-0.6,0-0.9,0c-1.6,0-3.5,0-5.1,0c0-0.1,0-0.1,0-0.2c0.9,0.2,1.9,0.2,2.8,0
	c0.7-0.1,1.5-0.1,2.2,0c0.3,0,0.5,0.1,0.8,0.2c0,0,0.1,0,0.1,0C461.2,98.2,461.3,98.2,461.3,98.3L461.3,98.3z M461.3,98
	c-0.2,0-0.3-0.1-0.5-0.1c-0.5-0.1-1-0.2-1.6-0.2c-0.7,0-1.3,0.1-2,0.2c-0.6,0.1-1.2,0.1-1.8,0h-0.1c0,0-0.1,0-0.1-0.1s0.1,0,0.1,0
	c0.3,0,0.6,0.1,0.9,0.1c0.3,0,0.7,0,1,0c0.3,0,0.6-0.1,1-0.2c0.3-0.1,0.7-0.1,1-0.1c0.6,0,1.1,0,1.6,0.2
	C461.1,97.8,461.2,97.9,461.3,98C461.4,97.9,461.3,97.9,461.3,98L461.3,98z M461.4,97.6c-0.6-0.2-1.3-0.4-2-0.4
	c-0.7,0-1.4,0.1-2.1,0.3c-0.7,0.1-1.5,0.1-2.2,0c1.6,0.1,3-0.4,4.5-0.4c0.6,0,1.2,0.1,1.8,0.4C461.5,97.5,461.5,97.5,461.4,97.6
	L461.4,97.6z M463,98.3c0,0.1-0.1,0.1-0.1,0.2c-0.3,0.1-0.7,0.1-1.1,0c-0.1-0.1-0.1-0.1-0.2-0.2c0-0.1,0-0.3,0.1-0.4
	c0.1-0.3,0.4-0.6,0.6-0.9l0,0l0,0c0.3,0.3,0.5,0.6,0.6,0.9C462.9,98,463,98.2,463,98.3L463,98.3z M462.7,90.3
	c-0.2,0.5-0.3,1-0.3,1.5c0,0.6,0,1.1,0.1,1.6c0,0-0.1,0-0.1,0.1c-0.1-0.1-0.2-0.1-0.4-0.2c-0.2-0.8-0.2-1.6,0-2.3
	c0-0.2,0.1-0.3,0.2-0.5c0-0.1,0.1-0.1,0.1-0.2C462.4,90.3,462.6,90.3,462.7,90.3L462.7,90.3z M462.4,89c0-0.1,0.1-0.1,0.2-0.1
	l0.2,0.1c0,0.3,0,0.6,0,0.9h-0.3C462.3,89.6,462.4,89.3,462.4,89z M463.2,97.6c0-0.1,0.1-0.1,0.1-0.1c0.5-0.3,1.1-0.4,1.7-0.4
	c1.5-0.1,2.7,0.5,4.2,0.4c0,0.1-0.1,0.1-0.1,0.1c-0.3,0.1-0.7,0.1-1,0l-0.7-0.1c-0.5-0.1-1-0.1-1.5-0.2
	C465.1,97.2,464.2,97.3,463.2,97.6C463.3,97.7,463.3,97.7,463.2,97.6L463.2,97.6z M463.3,97.9c0-0.1,0.1-0.1,0.1-0.2
	c0.4-0.2,0.8-0.3,1.3-0.3c0.8-0.1,1.6,0,2.4,0.1c0.7,0.2,1.3,0.2,2,0.2c0,0,0.1,0,0.1,0s-0.1,0.1-0.1,0.1c-0.4,0.1-0.9,0.1-1.4,0
	c-1-0.2-2-0.2-3.1-0.1c-0.4,0.1-0.8,0.1-1.2,0.3C463.5,98,463.4,98,463.3,97.9L463.3,97.9z M469.1,98.2c-1.9,0-3.8,0-5.6,0
	c0.1,0,0.1-0.1,0.2-0.1c0.5-0.1,1-0.2,1.6-0.2c0.7,0,1.4,0,2,0.1c0.3,0,0.6,0.1,1,0.1c0.3,0,0.7,0,1,0c0,0,0,0.1,0,0.1
	C469.3,98.2,469.2,98.2,469.1,98.2L469.1,98.2z M467.6,97.1c-1.1-0.3-2.2-0.3-3.3-0.2c-0.4,0.1-0.8,0.2-1.2,0.4
	c-0.1,0-0.1,0.1-0.1,0s0,0,0,0s0.1-0.1,0.1-0.1c0.2-0.1,0.4-0.2,0.6-0.3c0.3-0.1,0.7-0.2,1-0.2c1.6-0.1,2.8,0.5,4.5,0.4
	C468.7,97.3,468.2,97.2,467.6,97.1L467.6,97.1z M469.3,97c-0.2,0-0.3,0-0.5,0c-0.6,0-1.2-0.1-1.8-0.2c-0.8-0.2-1.6-0.3-2.4-0.2
	c-0.6,0-1.3,0.2-1.8,0.6c-0.1,0-0.1-0.1-0.2-0.2c0.5-0.3,1.1-0.5,1.7-0.6c0.4,0,0.8,0,1.3,0.1c0.4,0,0.8,0.1,1.1,0.2
	C467.7,96.8,468.6,96.9,469.3,97C469.5,97,469.4,97,469.3,97L469.3,97z M463,93.5c0.5-0.2,1.1-0.3,1.7-0.3c0.5,0.1,1,0.2,1.4,0.4
	c0.5,0.2,1.1,0.2,1.6,0.2c0.1,0,0.1,0.1,0.1,0.2c0.5,0.8,1,1.7,1.5,2.5c0,0.1,0.1,0.1,0.1,0.2c-0.6,0-1.2,0-1.8-0.2
	c-0.6-0.1-1.1-0.2-1.7-0.3c-0.6-0.1-1.2-0.1-1.9,0c-0.5,0.1-0.9,0.2-1.3,0.5c0,0-0.1,0.1-0.2,0.1v-0.1c0-0.1,0-0.2,0-0.3
	c0-0.8,0.1-1.5,0.1-2.3c0-0.1,0-0.3,0-0.4S462.9,93.6,463,93.5z M463.3,89.8H463c0-0.3,0-0.6,0-0.9c0.1,0,0.2,0,0.3,0
	c0,0,0,0.1,0,0.1C463.3,89.3,463.3,89.6,463.3,89.8L463.3,89.8z M463.9,89.6c-0.1,0-0.2,0.1-0.3,0.1v-0.8c0.1,0,0.2,0,0.3,0V89.6z
	 M464.4,89.2c0,0.1-0.2,0.2-0.2,0.2v-0.6c0.1,0,0.2-0.1,0.2-0.1C464.4,88.8,464.4,89.1,464.4,89.2L464.4,89.2z M465.4,89.4
	c-0.1,0-0.2-0.1-0.3-0.2c0-0.2,0-0.3,0-0.4c0.1,0,0.2,0.1,0.3,0.1L465.4,89.4z M465.9,89.6c-0.1,0-0.2,0-0.3-0.1V89
	c0.1,0,0.2,0.1,0.3,0.1V89.6z M466.5,89.7h-0.3v-0.4h0.3V89.7z M467,89.7h-0.2v-0.4h0.2C466.9,89.4,467,89.5,467,89.7L467,89.7z
	 M467.4,89.5c-0.1,0-0.1,0.1-0.2,0.1c0-0.1,0-0.2,0-0.3h0.2C467.4,89.3,467.4,89.4,467.4,89.5L467.4,89.5z M467.7,89.4
	c0-0.1,0-0.1,0-0.2l0.5-0.1C468,89.2,467.8,89.3,467.7,89.4L467.7,89.4z M467.4,87.4c0.1,0.2,0.3,0.4,0.4,0.6
	c0.2,0.2,0.4,0.4,0.7,0.6c-0.5,0.3-1.2,0.4-1.8,0.3c-0.4-0.1-0.8-0.2-1.2-0.4c-0.1,0-0.2-0.1-0.4-0.2c-0.1-0.2-0.1-0.3-0.1-0.5
	c-0.1-0.5-0.2-0.9-0.5-1.3l0,0l0,0c0.4,0,0.8,0.1,1.3,0.1c0.3,0,0.6,0,0.9,0.2C467,86.9,467.2,87.1,467.4,87.4L467.4,87.4z
	 M469.1,82.9c0.1,0,0.2,0,0.2,0c0,0.1-0.1,0.2-0.1,0.2c-0.2,0.2-0.3,0.4-0.4,0.7c-0.3,0.7-0.7,1.3-1.1,1.8c-0.2,0.2-0.4,0.3-0.7,0.4
	c-0.3,0.1-0.6,0.1-0.9,0.1c0-0.1,0.1-0.1,0.2-0.1c0.4-0.2,0.7-0.6,1-0.9c0.2-0.2,0.3-0.4,0.4-0.7c0.1-0.2,0.2-0.4,0.2-0.6
	c0-0.1,0-0.1,0.1-0.2c0.1-0.1,0.1-0.2,0.2-0.3C468.4,83.1,468.7,82.9,469.1,82.9L469.1,82.9z M467,82.2c0-0.1,0-0.2,0-0.3
	c0.1-0.1,0.3-0.2,0.4-0.3c0.3-0.1,0.5-0.2,0.8-0.1c0,0.1-0.1,0.2-0.1,0.3c-0.1,0.1-0.1,0.2-0.2,0.3c-0.1,0.2-0.2,0.4-0.2,0.7
	c-0.1,0.5-0.3,0.9-0.4,1.4c-0.2,0.4-0.5,0.8-0.8,1.1c-0.3,0.3-0.7,0.6-1.2,0.6l0,0c0.3-0.2,0.5-0.4,0.7-0.7c0.2-0.3,0.4-0.6,0.5-0.9
	c0.1-0.4,0.2-0.7,0.3-1.1C466.8,82.8,466.9,82.5,467,82.2L467,82.2z M465.5,83.9c0.1-0.4,0.2-0.9,0.1-1.4c0-0.3,0-0.7,0-1.1
	c0-0.1,0-0.2,0-0.4c0-0.1,0.1-0.2,0.2-0.2c0.1-0.1,0.2-0.1,0.3-0.2c0.1-0.1,0.2-0.1,0.3-0.2c0.1-0.1,0.3-0.1,0.4-0.1
	c0,0.3,0,0.6-0.1,0.9c-0.1,0.6-0.1,1.2-0.2,1.7c0,0.3-0.1,0.5-0.2,0.8c-0.1,0.5-0.4,0.9-0.7,1.3c-0.3,0.4-0.8,0.6-1.3,0.7
	c0.1-0.1,0.3-0.2,0.4-0.3C465.1,85,465.4,84.5,465.5,83.9L465.5,83.9z M464.8,79.5c0.2-0.1,0.3-0.2,0.5-0.2c-0.4,1,0,2.5-0.1,3.7
	c0,0.6-0.2,1.1-0.4,1.6c-0.2,0.4-0.5,0.7-0.9,0.9l-0.2,0.1c-0.1,0-0.1-0.1-0.2-0.1c0.6-0.8,0.9-1.8,0.9-2.8c0-0.8-0.1-1.7-0.4-2.4
	C464.1,80,464.4,79.7,464.8,79.5L464.8,79.5z M461.7,80.4c0.2-0.6,0.5-1.1,0.9-1.5l0,0c0.4,0.4,0.7,0.9,0.9,1.4
	c0.2,0.6,0.4,1.2,0.4,1.9c0,0.7-0.1,1.4-0.3,2c-0.1,0.4-0.3,0.8-0.6,1.1c-0.1,0.1-0.2,0.2-0.4,0.2c-0.1,0-0.3-0.1-0.4-0.2
	c-0.3-0.3-0.6-0.6-0.7-1c-0.2-0.7-0.3-1.4-0.2-2.1C461.3,81.7,461.4,81,461.7,80.4L461.7,80.4z M459.7,81c0.1-0.4,0.1-0.9,0.2-1.4
	c0-0.2,0-0.4,0-0.5c0.3,0.1,0.6,0.2,0.8,0.4c0.2,0.2,0.3,0.3,0.4,0.6c0,0.1,0.1,0.1,0.1,0.2c0,0.1-0.1,0.2-0.1,0.3
	c-0.1,0.3-0.2,0.7-0.3,1c-0.1,0.5-0.2,1-0.1,1.5c0,0.5,0.1,0.9,0.3,1.4c0.1,0.4,0.3,0.7,0.6,1c-0.3,0-0.6-0.1-0.9-0.3
	c-0.5-0.3-0.8-0.8-1-1.3c-0.1-0.3-0.2-0.6-0.2-0.9C459.5,82.3,459.5,81.6,459.7,81L459.7,81z M457.9,80.3c0.2,0,0.4,0,0.5,0.1
	c0.3,0.1,0.5,0.4,0.6,0.6c0,0.1,0.1,0.1,0.1,0.2c0,0.1,0,0.1,0,0.2c-0.1,0.4-0.1,0.9-0.1,1.3c0,0.9,0.3,1.7,0.9,2.4
	c0.3,0.3,0.6,0.5,1,0.7c-0.6,0.1-1.3-0.2-1.8-0.6c-0.3-0.4-0.6-0.8-0.8-1.2c-0.2-0.6-0.3-1.1-0.3-1.7c0-0.3,0-0.7,0-1
	c0-0.2,0-0.4-0.1-0.7C457.9,80.3,457.9,80.3,457.9,80.3L457.9,80.3z M456.2,81.3c0.1,0,0.1,0,0.2,0c0.4,0,0.7,0.2,1,0.5
	c0.1,0.1,0.2,0.2,0.2,0.3c0,0.1,0,0.3,0,0.4c0,1.1,0.4,2.2,1.2,3c0.2,0.2,0.5,0.4,0.8,0.6c0,0,0.1,0,0.1,0.1c-0.6,0-1.1-0.2-1.5-0.5
	c-0.4-0.3-0.7-0.7-0.9-1.2c-0.2-0.5-0.4-1-0.5-1.6c-0.1-0.3-0.1-0.5-0.3-0.8c-0.1-0.1-0.1-0.2-0.2-0.3
	C456.3,81.5,456.2,81.4,456.2,81.3L456.2,81.3z M456.3,84.8c-0.2-0.4-0.4-1-0.6-1.4c0,0,0-0.1-0.1-0.1c-0.1-0.1-0.2-0.2-0.3-0.3
	c-0.1-0.1-0.2-0.1-0.2-0.2c0.1-0.1,0.2-0.1,0.4-0.1c0.2,0,0.5,0,0.7,0.2c0.1,0.1,0.3,0.2,0.4,0.3c0,0.1,0,0.2,0.1,0.2
	c0.1,0.2,0.1,0.5,0.2,0.7c0.1,0.3,0.2,0.6,0.3,0.8c0.3,0.5,0.6,0.8,1.1,1.1c0,0,0.1,0,0.1,0C457.5,86.1,456.6,85.6,456.3,84.8
	L456.3,84.8z M457,88.9c-0.1-0.1-0.3-0.2-0.4-0.3c0.1,0,0.2,0,0.4,0V88.9z M457.5,89.2c-0.1,0-0.2-0.1-0.2-0.1c0-0.1,0-0.3,0-0.4
	h0.2C457.5,88.8,457.5,89,457.5,89.2L457.5,89.2z M458,89.3h-0.3c0-0.2,0-0.4,0-0.6h0.3C458,88.8,458,89.1,458,89.3L458,89.3z
	 M458.3,89.3c0-0.2,0-0.5,0-0.7h0.3c0,0.3,0,0.5,0,0.8L458.3,89.3z M459,89.2l-0.2,0.1c0-0.2,0-0.5,0-0.8c0.1,0,0.2,0,0.2-0.1l0,0
	V89.2z M459.6,89c-0.1,0-0.2,0.1-0.3,0.1v-0.7c0,0,0.2-0.1,0.2-0.1C459.6,88.5,459.5,88.8,459.6,89L459.6,89z M459.8,88.8
	c0-0.2,0-0.4,0-0.7c0.1,0,0.1,0,0.2-0.1l0,0c0,0.2,0,0.4,0,0.6S459.9,88.8,459.8,88.8L459.8,88.8z M460.1,87.2
	c-0.1,0.2-0.1,0.4-0.3,0.5c-0.4,0.3-0.9,0.4-1.4,0.5c-0.7,0.1-1.4,0.1-2-0.1c0.1,0,0.2-0.1,0.3-0.2c0.4-0.4,0.6-1,1.1-1.4
	c0.4-0.2,0.9-0.3,1.4-0.3c0.5,0,1,0,1.5,0l0,0C460.4,86.6,460.2,86.9,460.1,87.2L460.1,87.2z M460.9,89.2c-0.1-0.1-0.2-0.1-0.2-0.2
	v-0.3c0.1,0.1,0.1,0.1,0.2,0.1V89.2z M461.2,89.4c0-0.2,0-0.3,0-0.5c0.1,0,0.2,0,0.3,0c0,0.2,0,0.4,0,0.7
	C461.3,89.5,461.2,89.5,461.2,89.4L461.2,89.4z M460.5,87.5c0-0.3,0.1-0.5,0.3-0.7c0.2-0.2,0.4-0.4,0.6-0.6c0.3-0.2,0.6-0.3,0.9-0.3
	c0.3,0,0.6,0,0.9,0.1c0.4,0.1,0.7,0.3,1,0.7c0.2,0.2,0.3,0.5,0.4,0.8c0,0.4-0.1,0.7-0.5,0.9c-0.1,0.1-0.2,0.1-0.4,0.2
	c-0.4,0.1-0.8,0-1.1-0.3c-0.1,0.1-0.3,0.1-0.4,0.2c-0.2,0.1-0.3,0.1-0.5,0.1C461,88.6,460.5,88.2,460.5,87.5L460.5,87.5z
	 M461.7,89.7c0-0.2,0-0.5,0-0.7h0.3c0,0.3,0,0.5,0,0.8C462,89.8,461.8,89.8,461.7,89.7L461.7,89.7z M462.3,93.7c0,1-0.1,1.9-0.1,2.9
	c0,0-0.1,0-0.1,0c-0.2-0.1-0.4-0.2-0.6-0.3c-0.3-0.1-0.5-0.2-0.8-0.2c-0.6-0.1-1.3-0.1-1.9,0c-1.2,0.2-2.5,0.4-3.7,0.4
	c0,0,0-0.1,0-0.1c0.3-0.4,0.7-0.9,1.1-1.4s0.8-1,1.2-1.5c0.9,0.1,1.7,0,2.5-0.2c0.3-0.1,0.5-0.1,0.8-0.1
	C461.2,93.2,461.8,93.4,462.3,93.7L462.3,93.7z"/>
<path class="st0" d="M475.3,105.6c0.2-0.4,0.4-0.9,0.6-1.3c-3.2-1.4-6.5-2.4-10-2.8c-0.6-0.1-1.3-0.1-2-0.2c-0.8,0-1.8-0.1-2.6,0
	h-0.5c-1,0-1.9,0.1-2.8,0.2c-3.3,0.4-6.4,1.3-9.4,2.7c0.2,0.3,0.3,0.7,0.5,1c0.1,0.1,0.1,0.2,0.1,0.3c-0.9,0.4-1.7,0.8-2.5,1.3
	c0.8,1.4,1.6,2.9,2.4,4.4c0,0,0,0.1,0.1,0.1c1.8-0.9,3.6-1.5,5.5-2c-0.2-0.7-0.4-1.4-0.5-2.1c2.6-0.6,5.4-1,8.1-1c2.7,0,5.4,0.3,8,1
	c-0.2,0.7-0.4,1.4-0.5,2.1c1.9,0.5,3.8,1.1,5.5,2c0.8-1.5,1.6-3,2.4-4.5c-0.6-0.4-1.2-0.7-1.8-1
	C475.7,105.8,475.5,105.7,475.3,105.6z M449.5,110.4l-1.7-3.2c0.1-0.1,0.2-0.1,0.3-0.2l0,0c0.6,1.1,1.1,2.2,1.7,3.2
	C449.7,110.3,449.6,110.4,449.5,110.4z M450.2,110.1c-0.1-0.1-0.2-0.3-0.2-0.4c-0.5-0.9-1-1.9-1.5-2.9c0.1-0.1,0.2-0.1,0.4-0.2l0,0
	c0.5,1.1,1.1,2.2,1.7,3.3C450.4,110,450.3,110.1,450.2,110.1z M451.1,109.8l-0.1,0.1c-0.6-1.1-1.1-2.2-1.7-3.4
	c0.1-0.1,0.2-0.1,0.4-0.2c0.5,1.1,1.1,2.3,1.6,3.4C451.2,109.8,451.1,109.8,451.1,109.8z M451.6,109.6c-0.2-0.4-0.4-0.8-0.5-1.2
	l0.4,0.1c0.1,0.3,0.3,0.7,0.4,1L451.6,109.6z M452.3,109.4c-0.1-0.3-0.2-0.5-0.3-0.7c0.1,0,0.3,0.1,0.4,0.1c0.1,0.2,0.1,0.4,0.2,0.6
	L452.3,109.4z M453,109.1c-0.1-0.1-0.1-0.2-0.1-0.3l0.7,0.1C453.4,109,453.1,109.1,453,109.1L453,109.1z M462.3,105.6
	c-3.8,0-7.7,0.6-11.3,1.8c0-0.1-0.1-0.1-0.1-0.2c-0.4-0.9-0.9-1.7-1.2-2.6c2.8-1.2,5.7-2,8.7-2.3c0.8-0.1,1.6-0.2,2.5-0.2
	c1.5-0.1,3.1,0,4.6,0.2c0.6,0.1,1.2,0.1,1.7,0.2s1.1,0.2,1.6,0.3c2,0.4,4,1.1,5.9,1.9c-0.4,1-0.9,1.9-1.3,2.9
	C469.9,106.2,466.1,105.6,462.3,105.6z M471.6,109.1c-0.2,0-0.4-0.1-0.6-0.2c0.1,0,0.2,0,0.2,0l0.4-0.1l0,0L471.6,109.1z
	 M472.3,109.4l-0.3-0.1c0-0.2,0.1-0.4,0.2-0.6c0.1,0,0.3,0,0.4-0.1l0,0L472.3,109.4z M472.7,109.5c0.1-0.3,0.3-0.7,0.4-1l0.4-0.1
	l0,0c-0.2,0.4-0.4,0.8-0.5,1.2L472.7,109.5z M473.4,109.8c0.5-1.2,1-2.3,1.6-3.4l0.4,0.2c-0.5,1.1-1.1,2.2-1.7,3.4L473.4,109.8z
	 M476.7,107.2c-0.6,1.1-1.1,2.1-1.7,3.2c-0.1,0-0.2-0.1-0.3-0.1c0.6-1.1,1.1-2.2,1.7-3.2C476.5,107.1,476.6,107.2,476.7,107.2z
	 M474.4,110.2c-0.1,0-0.2-0.1-0.4-0.2c0.5-1,1-2.1,1.5-3.1c0-0.1,0.1-0.2,0.1-0.2l0.4,0.2C475.5,108,474.9,109.1,474.4,110.2z"/>
<g class="st2">
	<path class="st0" d="M253,127.5h-1.8l1.8-8.4l-3.2,2.6l-0.8-1.2l3.8-3h2.3L253,127.5z"/>
	<path class="st0" d="M264.3,123.9h1.2l-0.3,1.5h-1.2l-0.5,2.1h-1.8l0.5-2.1h-5.4l0.4-2.1l5.7-5.8h2.8L264.3,123.9z M263.5,118.9
		L263.5,118.9l-5,5h3.9L263.5,118.9z"/>
	<path class="st0" d="M266.7,120.5h0.9l0.3-1.6h1.7l-0.3,1.6h2.7l-0.3,1.3H269l-0.8,3.6c-0.1,0.6-0.2,0.9,0.5,0.9
		c0.9,0,1-0.7,1.2-1.5h1.5c-0.4,2.1-1.1,2.8-2.9,2.8c-1.8,0-2.3-0.4-1.9-2.2l0.8-3.6h-0.9L266.7,120.5z"/>
	<path class="st0" d="M274.7,121.6L274.7,121.6c0.6-1,1.5-1.1,2.5-1.1c1.8,0,2.2,0.8,1.9,2.5l-1,4.6h-1.7l0.9-4.4
		c0.2-1,0.1-1.4-1-1.4c-1.5,0-1.8,0.7-2.1,1.9l-0.8,3.9h-1.7l2.1-10h1.7L274.7,121.6z"/>
	<path class="st0" d="M286.5,123.2l-0.3,1.3h-6.7l0.3-1.3H286.5z"/>
	<path class="st0" d="M292.1,127.5h-1.8l1.8-8.4l-3.2,2.6l-0.8-1.2l3.8-3h2.3L292.1,127.5z"/>
	<path class="st0" d="M297.2,120.8c0.6-2.8,1.9-3.4,4.5-3.4c2.3,0,3.7,0.1,3.1,2.9h-1.8c0.3-1.3-0.2-1.3-1.6-1.3
		c-1.7,0-2,0.1-2.4,1.8l-0.3,1.6h0c0.5-0.9,1.5-1,2.4-1c2.7,0,3.5,0.3,3,2.9c-0.6,2.7-1.6,3.3-4.5,3.3c-3,0-3.7-0.5-3-3.9
		L297.2,120.8z M298.3,124.2c-0.3,1.6-0.2,1.8,1.6,1.8c1.7,0,2,0,2.3-1.6c0.3-1.4-0.1-1.5-1.7-1.5C299.1,123,298.6,123,298.3,124.2z
		"/>
	<path class="st0" d="M305.9,120.5h0.9l0.3-1.6h1.7l-0.3,1.6h2.7l-0.3,1.3h-2.7l-0.8,3.6c-0.1,0.6-0.2,0.9,0.5,0.9
		c0.9,0,1-0.7,1.2-1.5h1.5c-0.4,2.1-1.1,2.8-2.9,2.8c-1.8,0-2.3-0.4-1.9-2.2l0.8-3.6h-0.9L305.9,120.5z"/>
	<path class="st0" d="M313.9,121.6L313.9,121.6c0.6-1,1.5-1.1,2.5-1.1c1.8,0,2.2,0.8,1.9,2.5l-1,4.6h-1.7l0.9-4.4
		c0.2-1,0.1-1.4-1-1.4c-1.5,0-1.8,0.7-2.1,1.9l-0.8,3.9h-1.7l2.1-10h1.7L313.9,121.6z"/>
	<path class="st0" d="M325.7,117.5h4.8c2.8,0,3.7,1,3.2,3.7l-0.5,2.4c-0.4,2.1-1.4,3.9-4.4,3.9h-5.1L325.7,117.5z M329,125.9
		c1.3,0,1.9-1.2,2.2-2.3l0.5-2.4c0.4-1.7-0.1-2.1-1.6-2.1h-2.9l-1.4,6.7H329z"/>
	<path class="st0" d="M340.4,125.3c-0.5,2.2-1.7,2.3-3.8,2.3c-2.7,0-3.1-0.9-2.5-3.6c0.5-2.5,1.2-3.6,4-3.6c2.9,0,3.1,0.8,2.4,3.9
		h-4.8c-0.3,1.5-0.4,2,1.1,2c0.9,0,1.6,0,1.8-1H340.4z M339.1,123.3c0.3-1.4,0.1-1.5-1.3-1.5c-1.5,0-1.6,0.3-1.9,1.5H339.1z"/>
	<path class="st0" d="M347.9,124.9c-0.5,2.3-1.4,2.8-3.8,2.8c-2.6,0-3-0.7-2.4-3.6c0.5-2.5,1.1-3.6,3.9-3.6c2.1,0,3.1,0.3,2.6,2.5
		h-1.7c0.2-1.1-0.1-1.3-1.2-1.3c-1.4,0-1.6,0.5-1.9,2.3c-0.4,1.7-0.5,2.3,1,2.3c1.4,0,1.6-0.2,1.8-1.5H347.9z"/>
	<path class="st0" d="M355.3,125.3c-0.5,2.2-1.7,2.3-3.8,2.3c-2.7,0-3.1-0.9-2.5-3.6c0.5-2.5,1.2-3.6,4-3.6c2.9,0,3.1,0.8,2.4,3.9
		h-4.8c-0.3,1.5-0.4,2,1.1,2c0.9,0,1.6,0,1.8-1H355.3z M354.1,123.3c0.3-1.4,0.1-1.5-1.3-1.5c-1.5,0-1.6,0.3-1.9,1.5H354.1z"/>
	<path class="st0" d="M359.4,120.5l-0.2,1h0.1c0.6-0.9,1.6-1.1,2.4-1.1c0.9,0,1.8,0.2,1.8,1.2h0.1c0.5-1,1.5-1.2,2.5-1.2
		c1.8,0,2.3,0.6,1.9,2.3l-1,4.7h-1.7l1-4.6c0.1-0.9,0-1.2-0.9-1.2c-1.4,0-1.7,0.6-2,1.9l-0.8,4h-1.7l1-4.6c0.1-0.9,0-1.2-0.9-1.2
		c-1.4,0-1.7,0.6-2,1.9l-0.8,4h-1.7l1.5-7H359.4z"/>
	<path class="st0" d="M370.6,117.5h1.7l-0.8,3.9h0.1c0.5-0.9,1.5-1,2.3-1c2.4,0,2.4,1.3,2,3.4c-0.5,2.1-0.9,3.8-3.5,3.8
		c-1,0-1.7-0.2-1.9-1.1h-0.1l-0.2,1.1h-1.7L370.6,117.5z M371,123.8c-0.3,1.7-0.6,2.5,1.1,2.5c1.5,0,1.7-0.9,2-2.5
		c0.4-1.8,0.1-2.1-1.1-2.1C371.6,121.7,371.3,122.3,371,123.8z"/>
	<path class="st0" d="M383.2,125.3c-0.5,2.2-1.7,2.3-3.8,2.3c-2.7,0-3.1-0.9-2.5-3.6c0.5-2.5,1.2-3.6,4-3.6c2.9,0,3.1,0.8,2.4,3.9
		h-4.8c-0.3,1.5-0.4,2,1.1,2c0.9,0,1.6,0,1.8-1H383.2z M381.9,123.3c0.3-1.4,0.1-1.5-1.3-1.5c-1.5,0-1.6,0.3-1.9,1.5H381.9z"/>
	<path class="st0" d="M387.1,120.5l-0.2,0.9h0.1c0.5-0.8,1.3-1,2.1-1c1.5,0,1.7,0.9,1.4,2.2l-0.1,0.6h-1.6l0.1-0.4
		c0.1-0.7,0.2-1.1-0.6-1.1c-1,0-1.4,0.6-1.6,1.5l-0.9,4.3H384l1.5-7H387.1z"/>
</g>
<g class="st2">
	<path class="st0" d="M429.3,127.5h-1.9l2.1-10h1.9L429.3,127.5z"/>
	<path class="st0" d="M432.9,127.5H431l2.1-10h1.9L432.9,127.5z"/>
	<path class="st0" d="M438.7,127.5h-1.9l1.8-8.4h-2.9l0.3-1.6h7.8l-0.3,1.6h-2.9L438.7,127.5z"/>
	<path class="st0" d="M447.2,127.5l2.1-10h5c2,0,2.9,0.4,2.4,2.6c-0.2,1.1-0.6,1.9-1.9,2.2l0,0.1c1.4,0.2,1.4,1.1,1.2,2.4
		c-0.5,2.2-1.5,2.8-3.6,2.8H447.2z M449.5,125.9h2.6c1.1,0,1.7-0.1,2-1.3c0.2-1.1,0.1-1.4-1.1-1.4h-3L449.5,125.9z M450.4,121.7h2.8
		c1.1,0,1.4-0.3,1.6-1.4c0.2-1.1-0.2-1.1-1.1-1.1h-2.7L450.4,121.7z"/>
	<path class="st0" d="M463.9,124c-0.6,2.7-1.1,3.6-4.1,3.6c-2.9,0-3.1-0.9-2.5-3.6c0.6-2.7,1.1-3.6,4.1-3.6S464.4,121.3,463.9,124z
		 M458.9,124.1c-0.4,1.9-0.4,2.3,1.1,2.3c1.5,0,1.7-0.4,2.1-2.3c0.4-1.9,0.4-2.3-1.1-2.3C459.5,121.7,459.3,122.2,458.9,124.1z"/>
	<path class="st0" d="M467.7,120.5l-0.2,1h0.1c0.6-0.9,1.6-1.1,2.4-1.1c0.9,0,1.8,0.2,1.8,1.2h0.1c0.5-1,1.5-1.2,2.5-1.2
		c1.8,0,2.3,0.6,1.9,2.3l-1,4.7h-1.7l1-4.6c0.1-0.9,0-1.2-0.9-1.2c-1.4,0-1.7,0.6-2,1.9l-0.8,4H469l1-4.6c0.1-0.9,0-1.2-0.9-1.2
		c-1.4,0-1.7,0.6-2,1.9l-0.8,4h-1.7l1.5-7H467.7z"/>
	<path class="st0" d="M478.9,117.5h1.7l-0.8,3.9h0.1c0.5-0.9,1.5-1,2.3-1c2.4,0,2.4,1.3,2,3.4c-0.5,2.1-0.9,3.8-3.5,3.8
		c-1,0-1.7-0.2-1.9-1.1h-0.1l-0.2,1.1h-1.7L478.9,117.5z M479.3,123.8c-0.3,1.7-0.6,2.5,1.1,2.5c1.5,0,1.7-0.9,2-2.5
		c0.4-1.8,0.1-2.1-1.1-2.1C479.9,121.7,479.6,122.3,479.3,123.8z"/>
	<path class="st0" d="M489.6,126.7L489.6,126.7c-0.6,0.9-1.6,1-2.4,1c-1.6,0-2.6-0.3-2.1-2.2c0.4-1.7,1.3-2.1,3.1-2.1
		c0.9,0,1.7,0,1.9,0.8h0.1l0.2-0.9c0.2-1.1,0.2-1.5-1.2-1.5c-0.7,0-1.3,0.1-1.5,1h-1.7c0.4-2,1.9-2.1,3.5-2.1c2.2,0,3.1,0.3,2.6,2.7
		l-0.9,4.4h-1.7L489.6,126.7z M486.7,125.4c-0.2,1,0.2,1.1,1.3,1.1c0.9,0,1.6-0.1,1.8-1.1c0.2-1-0.5-1-1.3-1
		C487.6,124.4,486.9,124.4,486.7,125.4z"/>
	<path class="st0" d="M496.5,127.8c-0.7,1.6-1.3,2.8-3.3,2.8c-0.2,0-0.5,0-0.7-0.1l0.3-1.3c0.1,0,0.2,0,0.3,0c1.1,0,1.4-1,1.7-1.8
		h-0.8l-0.8-7h1.7l0.5,6h0l2.6-6h1.7L496.5,127.8z"/>
</g>
</svg>
