<svg xmlns="http://www.w3.org/2000/svg" viewBox="0 0 256.12 57"><defs><style>.cls-1{opacity:0.9;}.cls-2{fill:#fff;}</style></defs><title>tf logo</title><g id="Layer_2" data-name="Layer 2"><g id="Layer_1-2" data-name="Layer 1"><g class="cls-1"><path class="cls-2" d="M43.18.1H64.81c.32,0,.64,0,1,0a.34.34,0,0,1,.31.46,3.38,3.38,0,0,1-.16.48l-.86,2c0,.1-.09.19-.13.29A.93.93,0,0,1,64,4H45.41l-23.16,0c-.37,0-.73,0-1.09,0a1.81,1.81,0,0,0-1.89,1.51C19.13,6,19,6.5,18.84,7c-.34,1-.72,1.88-1.08,2.82a4.88,4.88,0,0,0-.18.54A.48.48,0,0,0,18,11a4.5,4.5,0,0,0,.64,0h5.07a5,5,0,0,1,1,.09,2.87,2.87,0,0,1,2.43,2.55,6.12,6.12,0,0,1-.2,2.85c-.13.43-.28.85-.44,1.27Q23.77,25.06,21,32.32L16.33,44.41,12,55.6l-.2.47a1.33,1.33,0,0,1-1.35.89H1.1a2.49,2.49,0,0,1-.77-.08A.42.42,0,0,1,0,56.33a6.58,6.58,0,0,1,.34-.83c.94-1.92,1.89-3.83,2.84-5.75L10,36,15.47,24.7l3.1-6.27a3.87,3.87,0,0,0,.25-.59.66.66,0,0,0-.37-.85,3.58,3.58,0,0,0-1.1-.33,14.55,14.55,0,0,0-1.86-.14,7.62,7.62,0,0,1-1.84-.25,4.14,4.14,0,0,1-1.83-1,3.41,3.41,0,0,1-1-3.11,4.85,4.85,0,0,1,.5-1.52c1.11-2,2.14-4.09,3.38-6a21.77,21.77,0,0,1,1.36-1.94,8,8,0,0,1,1.56-1.52,5.82,5.82,0,0,1,2.59-1A8.91,8.91,0,0,1,22.08,0c1.73.11,3.46.09,5.19.09H43.18Z"/><path class="cls-2" d="M47.15,33.74h-4A2.75,2.75,0,0,0,40.88,35l-.25.4c-1.94,3-3.84,6.08-5.88,9-1.33,1.92-2.7,3.8-4.2,5.58a21.5,21.5,0,0,1-7.26,5.71,13.54,13.54,0,0,1-4.18,1.15A41,41,0,0,1,14,57a1.2,1.2,0,0,1-.38,0,.38.38,0,0,1-.25-.46,10.78,10.78,0,0,1,.36-1c.21-.51.27-.6.44-1.05.4-1,.59-1.24,1.53-1.24H17c.62,0,1.11,0,1.67,0a7,7,0,0,0,3.95-1.27c.34-.22.67-.46,1-.71a26.91,26.91,0,0,0,4.26-4.34,38,38,0,0,0,5-8.35c2.9-6.48,5.55-13.06,8.22-19.64q1.08-2.64,2.17-5.28a5.89,5.89,0,0,1,.61-1.2A3.87,3.87,0,0,1,46,10.78a6.7,6.7,0,0,1,1.84-.26H62.45a1.33,1.33,0,0,0,1.19-.73,5.18,5.18,0,0,0,.28-.58L66,4.52l1.35-2.91c.06-.11.11-.23.17-.34A1.64,1.64,0,0,1,69.11.35c2,0,4,0,6,0a3.48,3.48,0,0,1,1.07.18A1.08,1.08,0,0,1,77,2a3.8,3.8,0,0,1-.47,1c-.5.87-1,1.74-1.51,2.61q-2.52,4.35-5,8.71a12,12,0,0,1-.77,1.18,4.51,4.51,0,0,1-4.31,1.89,20.89,20.89,0,0,0-2.37-.11l-9.75,0a7.3,7.3,0,0,0-2,.26,4.61,4.61,0,0,0-2.68,2,6.48,6.48,0,0,0-.69,1.3l-1.55,4.08c0,.12-.08.24-.11.36a.56.56,0,0,0,.54.76c.21,0,.43,0,.64,0h7.83a2.07,2.07,0,0,1,.7.08.3.3,0,0,1,.22.4,8.51,8.51,0,0,1-.34.83c-.43,1-.89,1.94-1.32,2.92-.34.76-.66,1.53-1,2.29a4,4,0,0,1-.22.47,1.23,1.23,0,0,1-1.08.68H47.15Z"/><path class="cls-2" d="M156.52,19.65a1,1,0,0,0,.43-.32,7.86,7.86,0,0,1,4.76-2.08,16.63,16.63,0,0,1,3.38.11c.64.08,1.29.15,1.93.26a3.19,3.19,0,0,1,2.38,1.72,5,5,0,0,1,.57,2.2,11,11,0,0,1-.26,2.92c-.62,2.9-1.25,5.8-1.86,8.7-.33,1.55-.65,3.11-1,4.67a4.52,4.52,0,0,1-.15.61.88.88,0,0,1-.7.61,2.75,2.75,0,0,1-.57.05c-.44,0-.88-.06-1.32-.06l-1.72.06a2.23,2.23,0,0,1-.63,0,.51.51,0,0,1-.42-.54,2.84,2.84,0,0,1,.06-.51c.61-2.83,1.23-5.65,1.84-8.48.35-1.61.71-3.21,1-4.83a4.17,4.17,0,0,0,.08-1.76,1.76,1.76,0,0,0-1.08-1.32,4.41,4.41,0,0,0-1.52-.29,11.46,11.46,0,0,0-2.74.18,4.06,4.06,0,0,0-3,2.22,11,11,0,0,0-.89,2.42c-.61,2.41-1.15,4.84-1.64,7.28-.29,1.49-.59,3-.89,4.45,0,.13-.06.26-.1.39a1.07,1.07,0,0,1-1.15.84q-.31,0-.63,0a13,13,0,0,0-2.07,0q-.37,0-.75,0a2.34,2.34,0,0,1-.45-.07.45.45,0,0,1-.35-.47,2.61,2.61,0,0,1,.08-.56l1-4.55c.67-3.09,1.33-6.17,2-9.26q1.14-5.34,2.3-10.67c.29-1.38.63-2.76.82-4.17a1.63,1.63,0,0,1,.14-.49.86.86,0,0,1,.79-.57H155a19.56,19.56,0,0,0,2.76,0H158c.52.07.69.28.69.81a4.27,4.27,0,0,1-.17,1.07c-.62,2.9-1.26,5.8-1.88,8.7C156.62,19.08,156.58,19.35,156.52,19.65Z"/><path class="cls-2" d="M115.47,29.24H109a1,1,0,0,0-1.09.91c0,.23-.08.45-.11.68a13.5,13.5,0,0,0-.15,2,4.06,4.06,0,0,0,.13.85,1.59,1.59,0,0,0,.93,1.09,4.38,4.38,0,0,0,1.28.32,18.85,18.85,0,0,0,4.18-.13,3.46,3.46,0,0,0,.78-.21,2.5,2.5,0,0,0,1.55-1.51c.07-.18.12-.37.2-.54a1,1,0,0,1,.77-.63,2.68,2.68,0,0,1,.63,0l1.09,0A16.16,16.16,0,0,0,121,32a1.75,1.75,0,0,1,.68.06.46.46,0,0,1,.35.47,1.81,1.81,0,0,1-.06.57,9.92,9.92,0,0,1-1.34,3,6,6,0,0,1-2.83,2.27,8.94,8.94,0,0,1-2.33.58,41.87,41.87,0,0,1-6.43.25,14.92,14.92,0,0,1-3.5-.6,4.66,4.66,0,0,1-1.68-.84,3.94,3.94,0,0,1-1.52-3.09,27.25,27.25,0,0,1,1-8.24,31.1,31.1,0,0,1,1.5-4.22,7.67,7.67,0,0,1,5.33-4.51,13.88,13.88,0,0,1,2.49-.39,35.26,35.26,0,0,1,4.48-.08,15,15,0,0,1,3.12.44A6.91,6.91,0,0,1,121,18a4,4,0,0,1,2.59,3,7.26,7.26,0,0,1,.15,1.14,16.11,16.11,0,0,1-.29,3.6c-.15.85-.29,1.7-.43,2.55,0,0,0,.07,0,.11-.14.7-.38.9-1.1.9h-6.44Zm-2.06-3.37h3.16a8.76,8.76,0,0,0,1-.07.91.91,0,0,0,.85-.85,9.35,9.35,0,0,0,.08-1.83c-.06-1-.34-1.35-1.32-1.6a12.15,12.15,0,0,0-5.3-.06,3.13,3.13,0,0,0-1.9,1.09,5.23,5.23,0,0,0-1,2.7.48.48,0,0,0,.43.58,3.56,3.56,0,0,0,.57,0Z"/><path class="cls-2" d="M199.65,29.25c-2.09,0-4.18,0-6.26,0a4.47,4.47,0,0,0-.52,0,.79.79,0,0,0-.71.59,2,2,0,0,0-.09.33c-.11.64-.22,1.28-.31,1.93a4,4,0,0,0,.05,1.37,1.79,1.79,0,0,0,1.2,1.36,5.59,5.59,0,0,0,1.29.27,14.5,14.5,0,0,0,4-.14,3.58,3.58,0,0,0,1.15-.36,2.4,2.4,0,0,0,1.13-1.26c0-.14.09-.29.15-.43a1.28,1.28,0,0,1,1.21-.9,7.3,7.3,0,0,1,.81,0,12.2,12.2,0,0,0,1.6,0,8.84,8.84,0,0,1,1.15,0c.6,0,.8.3.68.87a7.92,7.92,0,0,1-2.07,4,7.1,7.1,0,0,1-3.64,1.95,8.64,8.64,0,0,1-1.42.19,50.13,50.13,0,0,1-5.75.15,15.38,15.38,0,0,1-3.62-.59,4.42,4.42,0,0,1-2.28-1.46,3.74,3.74,0,0,1-.89-2.44,35.05,35.05,0,0,1,.24-4.58A27.42,27.42,0,0,1,187.91,25a25.29,25.29,0,0,1,1.47-3.43A7.22,7.22,0,0,1,194,17.85a15.9,15.9,0,0,1,2.66-.45,30.9,30.9,0,0,1,4.3-.13,17.64,17.64,0,0,1,3.08.38,6.22,6.22,0,0,1,1.62.56,3.66,3.66,0,0,1,1.91,2.27,8.59,8.59,0,0,1,.29,3.07,37.43,37.43,0,0,1-.75,4.82,2.38,2.38,0,0,1-.11.38.7.7,0,0,1-.65.49h-6.73Zm-1.89-3.38h4a.77.77,0,0,0,.79-.81c0-.38.08-.76.11-1.14s0-.65,0-1a1.37,1.37,0,0,0-.89-1.29,3,3,0,0,0-.66-.2,12.56,12.56,0,0,0-4.28-.11,6.4,6.4,0,0,0-1.34.33,3.33,3.33,0,0,0-1.86,1.62,5.51,5.51,0,0,0-.51,1.69,1.29,1.29,0,0,0,0,.34.5.5,0,0,0,.35.48,1.66,1.66,0,0,0,.63.08Z"/><path class="cls-2" d="M97.09,8.27h10.75a4.56,4.56,0,0,1,.64,0A.54.54,0,0,1,109,9a2.46,2.46,0,0,1-.11.45,14.18,14.18,0,0,0-.67,3,2.7,2.7,0,0,1,0,.28.91.91,0,0,1-.8.79,2.94,2.94,0,0,1-.51.05h-6.56c-.21,0-.42,0-.63,0a.78.78,0,0,0-.71.5,2.78,2.78,0,0,0-.19.6q-.81,3.83-1.61,7.65c-.44,2-.87,4.08-1.31,6.12-.59,2.79-1.2,5.58-1.8,8.36-.08.38-.16.76-.26,1.12-.25.91-.57,1.16-1.51,1.18-.5,0-1,0-1.5,0S89.57,39,89,39h-.58c-.58,0-.8-.29-.71-.85,0-.11,0-.22.07-.34.36-1.62.72-3.25,1.07-4.88.72-3.31,1.45-6.62,2.16-9.93.54-2.53,1.06-5.06,1.59-7.59.08-.35.17-.71.26-1.06a1.86,1.86,0,0,0,.07-.34.35.35,0,0,0-.31-.41,3.64,3.64,0,0,0-.57,0l-3.22,0-3.56,0a2.31,2.31,0,0,1-.69-.06.56.56,0,0,1-.44-.64,4.31,4.31,0,0,1,.15-.62,15.09,15.09,0,0,0,.63-2.91A1.87,1.87,0,0,1,85,9a.88.88,0,0,1,.86-.71c.25,0,.5,0,.75,0H97.09Z"/><path class="cls-2" d="M217.62,39.3c-1.53,0-3,0-4.36-.2a5.28,5.28,0,0,1-2-.55A4.19,4.19,0,0,1,209,35.21a5.56,5.56,0,0,1,.29-2.43,1,1,0,0,1,1-.75h3.56l.23,0a.57.57,0,0,1,.55.56,9.24,9.24,0,0,1,.1.92,4.68,4.68,0,0,0,.14.9,1.24,1.24,0,0,0,1.12,1,10.67,10.67,0,0,0,1.26.09,9.32,9.32,0,0,0,1.49-.05,8.82,8.82,0,0,1,1.15,0,6.17,6.17,0,0,0,1.71-.16,3,3,0,0,0,2.28-2.13,4.17,4.17,0,0,0,.16-1.31,1.46,1.46,0,0,0-1.13-1.48,7.1,7.1,0,0,0-1.59-.23c-1-.06-2-.08-3-.15-1.23-.09-2.45-.13-3.67-.33a7.48,7.48,0,0,1-2-.57A2.69,2.69,0,0,1,211,26.9a9.26,9.26,0,0,1,.06-2.41,11.56,11.56,0,0,1,.9-3.25,5.9,5.9,0,0,1,2.62-2.95,6.59,6.59,0,0,1,2.07-.66,29.83,29.83,0,0,1,10.64,0,4.78,4.78,0,0,1,1.7.66A3.56,3.56,0,0,1,230.6,21a8.24,8.24,0,0,1,0,1.49,2.57,2.57,0,0,1-.08.4.81.81,0,0,1-.71.59,2.61,2.61,0,0,1-.4,0h-3a2.86,2.86,0,0,1-.51,0,.79.79,0,0,1-.73-.76,3.74,3.74,0,0,1,0-.58.82.82,0,0,0-.44-.81,1.56,1.56,0,0,0-.59-.22,13.18,13.18,0,0,0-3.55-.19c-.63.07-1.25.16-1.87.27a2.45,2.45,0,0,0-1.59,1,3.24,3.24,0,0,0-.71,2.08,1.28,1.28,0,0,0,1,1.3,2.66,2.66,0,0,0,.39.07q1.6.13,3.21.24c1.26.09,2.53.14,3.79.23a8.17,8.17,0,0,1,2.13.45,4.74,4.74,0,0,1,.88.42,3.08,3.08,0,0,1,1.35,1.66,4,4,0,0,1,.25,1.29,11.71,11.71,0,0,1-.8,4.61,6.69,6.69,0,0,1-4.09,4,10,10,0,0,1-2.29.51,36.89,36.89,0,0,1-4.07.24Z"/><path class="cls-2" d="M138.56,17.28c.63,0,1.26,0,1.89,0a12.11,12.11,0,0,1,3.33.57,5.21,5.21,0,0,1,1.16.5,3.37,3.37,0,0,1,1.67,2.3,5.54,5.54,0,0,1,.13,1.14c0,.58,0,1.15,0,1.73a2.27,2.27,0,0,1-.11.73,1,1,0,0,1-.75.72,3.49,3.49,0,0,1-.85.12h-2.82a.73.73,0,0,1-.78-.74c0-.25-.06-.49-.08-.74s0-.35,0-.52A1.57,1.57,0,0,0,140,21.62a10.54,10.54,0,0,0-2.85-.34,8.65,8.65,0,0,0-2.14.37,3.46,3.46,0,0,0-2.25,2.07,8.06,8.06,0,0,0-.33,1c-.55,2.15-1.06,4.31-1.41,6.5a9.3,9.3,0,0,0-.17,1.83,1.84,1.84,0,0,0,1.36,1.85l.38.11a9.28,9.28,0,0,0,2.52.16c.57,0,1.14-.06,1.71-.15a2.91,2.91,0,0,0,2.27-1.57,5.77,5.77,0,0,0,.41-1.07c.1-.35.22-.69.35-1a.89.89,0,0,1,.76-.62,4.36,4.36,0,0,1,.62-.07h3.11a1.5,1.5,0,0,1,.51.07.42.42,0,0,1,.3.43,1.38,1.38,0,0,1-.08.45q-.16.53-.3,1.05a10.78,10.78,0,0,1-.84,2.26,7.3,7.3,0,0,1-4.87,3.89,12.48,12.48,0,0,1-2.44.35c-1.37.09-2.75.14-4.13.11a15.45,15.45,0,0,1-3.52-.47,5.68,5.68,0,0,1-1.34-.5,3.7,3.7,0,0,1-1.92-2.52,3.78,3.78,0,0,1-.11-.74,25.3,25.3,0,0,1,.12-4.08,29.67,29.67,0,0,1,1.42-6.08c.32-.92.67-1.83,1.06-2.73a7.28,7.28,0,0,1,4.3-4.07,13.65,13.65,0,0,1,3-.67A22.89,22.89,0,0,1,138.56,17.28Z"/><path class="cls-2" d="M245.59,17.52h3a1.94,1.94,0,0,1,.63.07.42.42,0,0,1,.33.52.94.94,0,0,1-.06.28,7.23,7.23,0,0,0-.42,1.37c-.08.29-.15.59-.25.88a1.08,1.08,0,0,1-1.18.89c-.38,0-.76,0-1.15,0h-4.2a7.29,7.29,0,0,0-1,.09,1,1,0,0,0-.85.67,5,5,0,0,0-.2.66l-1.14,5.45c-.33,1.64-.65,3.27-1,4.9a3.09,3.09,0,0,0-.07.74.91.91,0,0,0,.69.94,3.31,3.31,0,0,0,1.36.17,2.56,2.56,0,0,0,2.27-1.6,11.93,11.93,0,0,0,.41-1.14c.12-.34.23-.69.36-1a1.05,1.05,0,0,1,.9-.7,3.68,3.68,0,0,1,.57-.06l2.3,0c.75,0,1,.23.78,1a16.24,16.24,0,0,1-1.5,4.33,5.87,5.87,0,0,1-3.84,3,14.15,14.15,0,0,1-4,.46,15.9,15.9,0,0,1-3.29-.46,4.21,4.21,0,0,1-.91-.36,3.05,3.05,0,0,1-1.63-2.24,4.46,4.46,0,0,1,.05-1.82q.69-3.47,1.41-6.92c.33-1.6.68-3.19,1-4.78a2.57,2.57,0,0,0,0-.4c0-.55-.22-.8-.79-.81a2.73,2.73,0,0,0-.57,0,1.37,1.37,0,0,1-.57,0,.56.56,0,0,1-.46-.58,1.28,1.28,0,0,1,.07-.39,6.17,6.17,0,0,0,.27-1.41,2.55,2.55,0,0,1,.27-.93,1.21,1.21,0,0,1,1.14-.74,7.14,7.14,0,0,1,.8,0,.85.85,0,0,0,1.05-.74c.12-.48.2-1,.3-1.46s.17-1,.26-1.53a2.83,2.83,0,0,1,.13-.5.85.85,0,0,1,.76-.61h4a.57.57,0,0,1,.6.77c-.19,1-.4,1.91-.6,2.86,0,.17-.09.34-.12.51a.54.54,0,0,0,.51.69,4.35,4.35,0,0,0,.51,0h3Z"/><path class="cls-2" d="M186.41,8.3h2.16c.55.06.73.28.66.85-.06.41-.14.83-.23,1.24s-.22.89-.34,1.34-.24.6-.75.6-1.22.05-1.83.1a4.66,4.66,0,0,0-1.18.23,2.41,2.41,0,0,0-1.49,1.27,6.38,6.38,0,0,0-.42,1.13c-.15.51-.29,1-.43,1.55,0,.05,0,.11,0,.17-.08.5.07.7.6.73h3.28c.13,0,.27,0,.4,0,.56,0,.74.21.66.76a12.45,12.45,0,0,1-.47,2.18,1.35,1.35,0,0,1-1.14,1,4.48,4.48,0,0,1-.63.06c-.65,0-1.3,0-1.95,0a8.76,8.76,0,0,0-1,.08,1,1,0,0,0-.88.71,11.33,11.33,0,0,0-.32,1.4c-.44,2.14-.86,4.28-1.31,6.41-.4,1.91-.82,3.82-1.24,5.73-.16.76-.34,1.53-.51,2.29,0,.08,0,.15,0,.23a.83.83,0,0,1-.86.7h-.29c-1.07-.05-2.14,0-3.21,0a1.82,1.82,0,0,1-.57,0c-.29-.08-.4-.2-.4-.48a2.7,2.7,0,0,1,.07-.63c.77-3.59,1.56-7.18,2.34-10.77.33-1.49.65-3,1-4.48a2.44,2.44,0,0,0,.07-.46.57.57,0,0,0-.63-.7c-.13,0-.26,0-.4,0-.38,0-.76,0-1.15,0a.52.52,0,0,1-.54-.65,1.37,1.37,0,0,1,0-.28c.17-.79.33-1.57.5-2.36.11-.51.29-.69.82-.72s.8,0,1.2,0a3.72,3.72,0,0,0,.57-.08.82.82,0,0,0,.66-.57q.12-.34.21-.72a27.4,27.4,0,0,1,1.14-3.85,5.66,5.66,0,0,1,3.27-3.35,8,8,0,0,1,1.37-.41,10.68,10.68,0,0,1,2.46-.22A3.66,3.66,0,0,0,186.41,8.3Z"/><path class="cls-2" d="M186.61,56.15h-8.43l.47-2.22c.53-2.47,1.14-2.88,4.54-3.64,1.91-.42,2-.4,2.26-1.49s-.1-1.2-1.24-1.18c-1.29,0-1.52.1-1.77,1.24l-.12.52h-2.7l.11-.52c.62-2.91,2.24-3.46,5-3.46,2.51,0,4.12.35,3.49,3.36-.51,2.39-1.31,2.84-3.67,3.45s-2.83.29-3.14,1.72h5.71Z"/><path class="cls-2" d="M198.6,49.14l-.71,3.36c-.77,3.6-3,3.74-5.24,3.74s-4.41-.14-3.64-3.74l.71-3.36c.77-3.6,3-3.74,5.23-3.74S199.36,45.54,198.6,49.14Zm-6.28.46L191.8,52c-.39,1.82-.06,1.85,1.35,1.85s1.73,0,2.12-1.85l.52-2.44c.39-1.83.07-1.85-1.33-1.85S192.71,47.77,192.32,49.6Z"/><path class="cls-2" d="M205.72,56.15h-2.84L204.61,48l-3.3,2.52-1.22-1.82,4.56-3.22H208Z"/><path class="cls-2" d="M209.43,53.21a2.81,2.81,0,0,1,2.46-2.46l0-.1c-1.23-.33-1.51-1.08-1.21-2.43.55-2.61,2.65-2.82,4.74-2.82,2.29,0,4.14.2,3.55,2.94a2.49,2.49,0,0,1-2.12,2.31v.1c1.34.18,1.52,1.19,1.25,2.46-.6,2.82-2.59,3-5,3S208.85,56,209.43,53.21Zm2.78-.31c-.2.92.14,1.12,1.36,1.12,1.6,0,1.71-.23,1.91-1.17s.06-1.09-1.42-1.09C212.75,51.76,212.42,51.89,212.21,52.9Zm4-4.31c.16-.74.12-1-1.26-1-1.17,0-1.47.11-1.67,1.06s.17,1,1.21,1C215.72,49.7,216,49.58,216.23,48.59Z"/><path class="cls-2" d="M223.22,51.06l-.5,2.33h-3.87l.5-2.33Z"/><path class="cls-2" d="M230.07,56.15h-2.84L229,48l-3.3,2.52-1.22-1.82L229,45.48h3.32Z"/><path class="cls-2" d="M236.59,52.9c-.23,1.06.18,1.12,1.23,1.12,1.3,0,1.7-.06,2-1.48l.35-1.69h0A2,2,0,0,1,238,52c-2.5,0-3.75-.29-3.17-3.06.64-3,2.12-3.5,4.85-3.5,3.5,0,4.22.71,3.46,4.31l-.57,2.67c-.7,3.3-2.11,3.86-5.19,3.86-2.21,0-4.17-.11-3.58-2.89l.1-.45Zm4-4.1c.21-1,.08-1.18-1.11-1.18-1.52,0-1.75.07-2,1.24-.19.89.28.88,1.53.88C240.11,49.74,240.44,49.64,240.63,48.8Z"/><path class="cls-2" d="M248,8.86h-.87V5.07h-1.33V4.33h3.53v.74H248Z"/><path class="cls-2" d="M253.87,8.86h-.78l-1.44-3.8h0l.07,3.8h-.87V4.33h1.4l1.23,3.37h0l1.21-3.37h1.42V8.86h-.87L255.32,5h0Z"/></g></g></g></svg>