<?xml version="1.0" encoding="utf-8"?>
<!-- Generator: Adobe Illustrator 21.1.0, SVG Export Plug-In . SVG Version: 6.00 Build 0)  -->
<svg version="1.1" id="logos" xmlns="http://www.w3.org/2000/svg" xmlns:xlink="http://www.w3.org/1999/xlink" x="0px" y="0px"
	 viewBox="0 0 76 76.7" style="enable-background:new 0 0 76 76.7;" xml:space="preserve">
<style type="text/css">
	.st0{fill:#007DC5;}
</style>
<g>
	<g>
		<path class="st0" d="M36.7,52.3c-10.7,1-21.8-0.6-23.4-8.9c-0.8-4.1,1.1-8.5,3.6-11.2v-1.4c-4.5,3.9-6.9,8.9-5.5,14.8
			c1.8,7.5,11.3,11.8,25.9,10.4c5.8-0.6,13.3-2.4,18.6-5.3v-4.1C51.1,49.3,43.2,51.7,36.7,52.3z M64.8,30.6
			c-2.5-12.4-26.5-13.1-42-3.7v1c15.4-7.9,37.4-7.9,39.4,3.5c0.7,3.8-1.5,7.7-5.2,9.9v3C61.5,42.7,66.1,37.3,64.8,30.6z M55,44.2
			c-2.1-0.2-2.8-1.5-2.8-2.9V28.8H55V44.2z M21.7,44.5c-2.1-0.2-2.8-1.5-2.8-2.9l0-8.1h2.8V44.5z M21.7,29.2v2.7h-2.8v-2.7H21.7z
			 M38.4,44.3c-2.3,0-3.2-1.6-3.2-3.1V30.4H38v3h2.1v2.2H38V41c0,0.6,0.3,1,1,1h1.1v2.3H38.4 M43.6,39.7c0,1.4,0.9,2.5,2.5,2.5
			c1.2,0,1.8-0.3,2.5-1l1.7,1.6c-1.1,1.1-2.2,1.7-4.3,1.7c-2.7,0-5.2-1.4-5.2-5.7c0-3.6,2.2-5.7,5.1-5.7c3,0,4.7,2.4,4.7,5.5v1H43.6
			 M45.8,35.5c-0.9,0-1.7,0.5-2,1.2c-0.2,0.4-0.2,0.7-0.3,1.2h4.3C47.8,36.6,47.2,35.5,45.8,35.5z M26.9,35.6v8.7h-2.8v-11l5.7,0
			c2.4,0,3.3,1.7,3.3,3.3v7.7h-2.8v-7.7c0-0.7-0.3-1.1-1.2-1.1H26.9z"/>
		<path class="st0" d="M58,31.1c-0.6,0-1.1-0.5-1.1-1.1c0-0.6,0.5-1.1,1.1-1.1c0.6,0,1.1,0.5,1.1,1.1C59.1,30.6,58.6,31.1,58,31.1z
			 M58,29c-0.5,0-0.9,0.4-0.9,0.9c0,0.5,0.4,0.9,0.9,0.9c0.5,0,0.9-0.4,0.9-0.9C58.9,29.4,58.5,29,58,29z M58.5,30.6h-0.2
			c0,0,0,0,0,0L58,30.1c0,0,0,0,0,0c0,0,0,0-0.1,0c0,0,0,0,0,0v0.5c0,0,0,0.1-0.1,0.1h-0.2c0,0,0,0,0-0.1v-1.2c0-0.1,0-0.1,0.1-0.1
			c0.1,0,0.2,0,0.3,0c0.3,0,0.6,0.1,0.6,0.4v0c0,0.2-0.1,0.3-0.3,0.4L58.5,30.6C58.6,30.5,58.6,30.6,58.5,30.6
			C58.6,30.6,58.5,30.6,58.5,30.6z M58.2,29.7c0-0.1-0.1-0.2-0.3-0.2c0,0-0.1,0-0.1,0c0,0,0,0,0,0v0.4c0,0,0.2,0,0.2,0
			C58.2,29.9,58.2,29.8,58.2,29.7L58.2,29.7z"/>
	</g>
</g>
</svg>
