<svg xmlns="http://www.w3.org/2000/svg" viewBox="0 0 152 152"><defs><style>.cls-1{fill:none;}</style></defs><title>152X152</title><g id="Layer_2" data-name="Layer 2"><g id="Layer_1-2" data-name="Layer 1"><path d="M85.06,27h37.15c.55,0,1.11,0,1.65.06a.57.57,0,0,1,.54.78,4.9,4.9,0,0,1-.29.84c-.48,1.15-1,2.29-1.47,3.44-.07.17-.15.33-.23.5a1.55,1.55,0,0,1-1.55,1h-32l-39.8,0c-.63,0-1.25,0-1.87,0A3.11,3.11,0,0,0,44,36.22c-.24.89-.43,1.79-.74,2.65-.58,1.63-1.23,3.22-1.85,4.84a5.11,5.11,0,0,0-.32.93.82.82,0,0,0,.79,1.08,6.7,6.7,0,0,0,1.1.05h8.71a10.34,10.34,0,0,1,1.75.15A5,5,0,0,1,57.6,50.3a10.3,10.3,0,0,1-.35,4.9c-.21.74-.47,1.46-.75,2.18l-9.6,25q-4,10.38-8,20.77-3.7,9.61-7.42,19.21c-.1.28-.22.55-.34.82a2.33,2.33,0,0,1-2.31,1.54h-.44l-15.66,0a3.64,3.64,0,0,1-1.31-.13.71.71,0,0,1-.53-.94,9.2,9.2,0,0,1,.58-1.42q2.43-5,4.87-9.89Q22.17,100.51,28,88.67q4.75-9.69,9.49-19.4c1.76-3.59,3.55-7.18,5.32-10.77a6,6,0,0,0,.43-1A1.15,1.15,0,0,0,42.56,56a6.14,6.14,0,0,0-1.89-.55,22.72,22.72,0,0,0-3.19-.24,12.94,12.94,0,0,1-3.15-.44,7,7,0,0,1-3.15-1.74,5.84,5.84,0,0,1-1.7-5.34,7.74,7.74,0,0,1,.86-2.6c1.9-3.48,3.67-7,5.79-10.39a39.08,39.08,0,0,1,2.35-3.33,13.53,13.53,0,0,1,2.68-2.61A10,10,0,0,1,45.61,27a15.47,15.47,0,0,1,3.19-.12c3,.19,6,.16,8.92.17q13.66,0,27.34,0Z"/><path d="M91.87,84.8H85a4.68,4.68,0,0,0-3.93,2.14l-.45.69c-3.32,5.2-6.59,10.43-10.09,15.52-2.28,3.29-4.63,6.53-7.22,9.6a36.78,36.78,0,0,1-12.47,9.8,23,23,0,0,1-7.18,2,72.66,72.66,0,0,1-8.73.21,2.37,2.37,0,0,1-.65-.09.66.66,0,0,1-.43-.79,18.29,18.29,0,0,1,.62-1.81c.35-.88.46-1,.76-1.8.68-1.76,1-2.14,2.63-2.14h2.16c1.07,0,1.91,0,2.87,0a11.91,11.91,0,0,0,6.78-2.18,18.65,18.65,0,0,0,1.7-1.21,47,47,0,0,0,7.33-7.45,65.75,65.75,0,0,0,8.55-14.36c5-11.13,9.54-22.44,14.13-33.73q1.85-4.55,3.71-9.08a10,10,0,0,1,1.06-2.05A6.72,6.72,0,0,1,90,45.35a11.57,11.57,0,0,1,3.15-.44h23.16c.62,0,1.25,0,1.87,0a2.32,2.32,0,0,0,2.06-1.26c.18-.31.32-.66.47-1l3.62-8c.76-1.67,1.54-3.33,2.31-5,.1-.2.19-.4.3-.59a2.82,2.82,0,0,1,2.69-1.58c3.45,0,6.9,0,10.36,0a5.22,5.22,0,0,1,1.84.3,1.85,1.85,0,0,1,1.29,2.43,7,7,0,0,1-.8,1.81l-2.6,4.49q-4.33,7.47-8.69,15a19,19,0,0,1-1.32,2,7.71,7.71,0,0,1-7.4,3.24,34.55,34.55,0,0,0-4.07-.18l-16.75.06a13.23,13.23,0,0,0-3.38.45,8,8,0,0,0-4.62,3.36,12.25,12.25,0,0,0-1.17,2.24c-.9,2.33-1.78,4.67-2.67,7-.07.21-.14.42-.19.64a1,1,0,0,0,.93,1.29,8.15,8.15,0,0,0,1.1,0l9.16,0h4.3a3.71,3.71,0,0,1,1.19.15.51.51,0,0,1,.38.68c-.16.48-.36,1-.57,1.43-.76,1.67-1.53,3.34-2.28,5-.59,1.31-1.14,2.63-1.71,4a8.16,8.16,0,0,1-.36.8,2.15,2.15,0,0,1-1.87,1.17H91.87Z"/><rect class="cls-1" width="152" height="152"/></g></g></svg>