<?xml version="1.0" encoding="utf-8"?>
<!-- Generator: Adobe Illustrator 22.1.0, SVG Export Plug-In . SVG Version: 6.00 Build 0)  -->
<svg version="1.1" id="Capa_1" xmlns="http://www.w3.org/2000/svg" xmlns:xlink="http://www.w3.org/1999/xlink" x="0px" y="0px"
	 viewBox="0 0 480 480" style="enable-background:new 0 0 480 480;" xml:space="preserve">
<style type="text/css">
	.st0{fill:#FFFFFF;}
</style>
<g>
	<g>
		<path class="st0" d="M448,24H80c-17.7,0-32,14.3-32,32v256H8c-4.4,0-8,3.6-8,8c0,17.7,14.3,32,32,32h232v96c0,4.4,3.6,8,8,8
			c2.1,0,4.2-0.8,5.7-2.3l42.3-42.3l42.3,42.3c1.5,1.5,3.5,2.3,5.7,2.3c1.1,0,2.1-0.2,3.1-0.6c3-1.2,4.9-4.2,4.9-7.4v-96h24
			c17.7,0,32-14.3,32-32V64h40c4.4,0,8-3.6,8-8C480,38.3,465.7,24,448,24z M416,56v256h-32v16h29.8c-2.9,4.9-8.1,8-13.8,8h-24v-8
			h-16v100.7l-34.3-34.3c-3.1-3.1-8.2-3.1-11.3,0L280,428.7V328h-16v8H32c-5.7,0-11-3.1-13.8-8H56h200v-16H64V56c0-8.8,7.2-16,16-16
			h340.4C417.6,44.8,416,50.4,416,56z M434.2,48c4.4-7.6,14.2-10.3,21.9-5.8c2.4,1.4,4.4,3.4,5.8,5.8H434.2z"/>
	</g>
</g>
<g>
	<g>
		<path class="st0" d="M395.4,274.4L385.2,256l10.3-18.3c2.2-3.9,0.8-8.7-3-10.9c-0.2-0.1-0.4-0.2-0.6-0.3l-19.1-8.7l-2.5-20.9
			c-0.5-4.4-4.5-7.5-8.9-7c-0.2,0-0.4,0.1-0.6,0.1l-20.6,4.1l-14.3-15.4c-3.2-3.2-8.4-3.3-11.7-0.1c0,0-0.1,0.1-0.1,0.1L299.9,194
			l-20.6-4.1c-4.3-0.9-8.5,2-9.4,6.3c0,0.2-0.1,0.4-0.1,0.6l-2.5,20.9l-19.1,8.8c-4,1.8-5.8,6.6-3.9,10.6c0.1,0.2,0.2,0.4,0.3,0.6
			l10.3,18.3l-10.3,18.3c-2.2,3.9-0.8,8.7,3,10.9c0.2,0.1,0.4,0.2,0.6,0.3l19.1,8.8l2.5,20.9c0.5,4.4,4.5,7.5,8.9,7
			c0.2,0,0.4-0.1,0.6-0.1l20.6-4.1l14.3,15.4c3,3.2,8.1,3.4,11.3,0.4c0.2-0.1,0.3-0.3,0.4-0.4l14.3-15.4l20.6,4.1
			c2.2,0.4,4.5-0.1,6.3-1.4c1.8-1.3,2.9-3.3,3.2-5.5l2.5-20.9l19.1-8.8c4-1.8,5.8-6.6,3.9-10.6C395.6,274.8,395.5,274.6,395.4,274.4
			z M369,259.9l8.2,14.7l-15.3,7c-2.5,1.2-4.3,3.6-4.6,6.3l-2,16.7l-16.5-3.3c-2.7-0.6-5.5,0.3-7.4,2.4L320,316.2l-11.4-12.4
			c-1.5-1.6-3.6-2.6-5.9-2.6c-0.5,0-1,0.1-1.6,0.2l-16.5,3.3l-2-16.7c-0.3-2.8-2.1-5.2-4.6-6.3l-15.3-7l8.2-14.7
			c1.4-2.4,1.4-5.4,0-7.8v0l-8.2-14.7l15.3-7c2.5-1.2,4.3-3.6,4.6-6.3l2-16.7l16.5,3.3c2.7,0.6,5.5-0.4,7.4-2.4l11.4-12.4l11.4,12.4
			c1.9,2.1,4.7,3,7.4,2.4l16.5-3.3l2,16.7c0.3,2.8,2.1,5.2,4.6,6.3l15.3,7l-8.2,14.7C367.7,254.5,367.7,257.5,369,259.9z"/>
	</g>
</g>
<g>
	<g>
		<path class="st0" d="M320,216c-22.1,0-40,17.9-40,40c0,22.1,17.9,40,40,40c22.1,0,40-17.9,40-40S342.1,216,320,216z M320,280
			c-13.3,0-24-10.7-24-24s10.7-24,24-24s24,10.7,24,24S333.3,280,320,280z"/>
	</g>
</g>
<g>
	<g>
		<rect x="176" y="72" class="st0" width="128" height="16"/>
	</g>
</g>
<g>
	<g>
		<rect x="96" y="120" class="st0" width="288" height="16"/>
	</g>
</g>
<g>
	<g>
		<rect x="96" y="152" class="st0" width="288" height="16"/>
	</g>
</g>
<g>
	<g>
		<rect x="104" y="256" class="st0" width="104" height="16"/>
	</g>
</g>
</svg>
