<?xml version="1.0" encoding="utf-8"?>
<!-- Generator: Adobe Illustrator 22.1.0, SVG Export Plug-In . SVG Version: 6.00 Build 0)  -->
<svg version="1.1" id="Capa_1" xmlns="http://www.w3.org/2000/svg" xmlns:xlink="http://www.w3.org/1999/xlink" x="0px" y="0px"
	 viewBox="0 0 56 56" style="enable-background:new 0 0 56 56;" xml:space="preserve">
<style type="text/css">
	.st0{fill:#FFFFFF;}
</style>
<g>
	<g>
		<path class="st0" d="M12,24c3.3,0,6-2.7,6-6s-2.7-6-6-6s-6,2.7-6,6S8.7,24,12,24z M12,14c2.2,0,4,1.8,4,4s-1.8,4-4,4s-4-1.8-4-4
			S9.8,14,12,14z"/>
		<path class="st0" d="M44,24c3.3,0,6-2.7,6-6s-2.7-6-6-6s-6,2.7-6,6S40.7,24,44,24z M44,14c2.2,0,4,1.8,4,4s-1.8,4-4,4s-4-1.8-4-4
			S41.8,14,44,14z"/>
		<path class="st0" d="M54,26v13c0,1.7-1.3,3-3,3V31c0-2.8-2.2-5-5-5h-5c-0.6,0-1,0.4-1,1v4v1v1h-8c-0.6,0-1,0.4-1,1v3h-6v-3
			c0-0.6-0.4-1-1-1h-8v-1v-1v-4c0-0.6-0.4-1-1-1h-5c-2.8,0-5,2.2-5,5v11c-1.7,0-3-1.3-3-3V26H0v13c0,2,1.2,3.8,3,4.6V56h2V44h1h1h8
			v11c0,0.6,0.4,1,1,1h3h1h1v-1V40v-1h3h8h3v1v15v1h1h1h3c0.6,0,1-0.4,1-1V44h8h1h1v12h2V43.6c1.8-0.8,3-2.5,3-4.6V26H54z M20,37h-2
			h-6v-6h-2v7c0,0.6,0.4,1,1,1h7c0.6,0,1,0.4,1,1v14h-2V43c0-0.6-0.4-1-1-1H7V31c0-1.7,1.3-3,3-3h4v3v1v2c0,0.6,0.4,1,1,1h8v2H20z
			 M40,42c-0.6,0-1,0.4-1,1v11h-2V40c0-0.6,0.4-1,1-1h7c0.6,0,1-0.4,1-1v-7h-2v6h-6h-2h-3v-2h8c0.6,0,1-0.4,1-1v-2v-1v-3h4
			c1.7,0,3,1.3,3,3v11H40z"/>
		<path class="st0" d="M19,10v3c0,0.4,0.3,0.8,0.7,0.9c0.1,0,0.2,0.1,0.3,0.1c0.3,0,0.6-0.1,0.8-0.4l2.7-3.6H31c1.7,0,3-1.3,3-3V3
			c0-1.7-1.3-3-3-3H19c-1.7,0-3,1.3-3,3v4C16,8.7,17.3,10,19,10z M18,3c0-0.6,0.4-1,1-1h12c0.6,0,1,0.4,1,1v4c0,0.6-0.4,1-1,1h-8
			c-0.3,0-0.6,0.1-0.8,0.4L21,10V9c0-0.6-0.4-1-1-1h-1c-0.6,0-1-0.4-1-1V3z"/>
		<rect x="20" y="4" class="st0" width="10" height="2"/>
		<rect x="27" y="25" class="st0" width="6" height="2"/>
		<path class="st0" d="M26,21c-1.7,0-3,1.3-3,3v4c0,1.7,1.3,3,3,3h8c1.7,0,3-1.3,3-3v-0.7l1.8-2.7c0.2-0.3,0.2-0.7,0-1
			C38.7,23.2,38.4,23,38,23h-1.2c-0.4-1.2-1.5-2-2.8-2H26z M35,24c0,0.6,0.4,1,1,1h0.1l-1,1.4C35.1,26.6,35,26.8,35,27v1
			c0,0.6-0.4,1-1,1h-8c-0.6,0-1-0.4-1-1v-4c0-0.6,0.4-1,1-1h8C34.6,23,35,23.4,35,24z"/>
		<rect x="23" y="16" class="st0" width="2" height="2"/>
		<rect x="27" y="16" class="st0" width="2" height="2"/>
		<rect x="31" y="16" class="st0" width="2" height="2"/>
	</g>
</g>
</svg>
