<?xml version="1.0" encoding="utf-8"?>
<!-- Generator: Adobe Illustrator 22.1.0, SVG Export Plug-In . SVG Version: 6.00 Build 0)  -->
<svg version="1.1" id="Capa_1" xmlns="http://www.w3.org/2000/svg" xmlns:xlink="http://www.w3.org/1999/xlink" x="0px" y="0px"
	 viewBox="0 0 480 480" style="enable-background:new 0 0 480 480;" xml:space="preserve">
<style type="text/css">
	.st0{fill:#FFFFFF;}
</style>
<g>
	<g>
		<path class="st0" d="M333.9,384h-72v-64c0-22.1-17.9-40-40-40h-48v-43.9l108.6-77.6c1.8-1.2,2.9-3.1,3.3-5.3
			c0.3-2.1-0.2-4.3-1.5-6l-24-32c-2.6-3.4-7.4-4.2-11-1.8l-82,56.7c14.5-27.3,4.1-61.2-23.2-75.7c-27.3-14.5-61.2-4.1-75.7,23.2
			c-11.7,22-7.4,49,10.4,66.3h-8.9c-2.3,0-4.4,1-5.9,2.6l-51.7,57.4c-14.2,15.9-13.5,40,1.6,55l42.3,42.6c1.7,1.7,4,2.5,6.3,2.3
			c2.4-0.2,4.5-1.4,5.9-3.4l9.4-13.4V472c0,4.4,3.6,8,8,8h48c4.4,0,8-3.6,8-8V344h56v40h-24c-4.4,0-8,3.6-8,8v80c0,4.4,3.6,8,8,8
			h160c4.4,0,8-3.6,8-8v-80C341.9,387.6,338.3,384,333.9,384z M77.9,144c0-22.1,17.9-40,40-40s40,17.9,40,40s-17.9,40-40,40
			S77.9,166.1,77.9,144z M136.9,200l-11,22.1l-11-22.1H136.9z M77.9,285.7L65.1,272l12.8-12.8V285.7z M133.9,328c-4.4,0-8,3.6-8,8
			v128h-32V240c0-3.2-2-6.1-5-7.4c-3-1.3-6.4-0.6-8.7,1.7l-32,32c-3,3.1-3,8.1,0,11.2l26.2,27.3l-13.5,18.9L25,288
			c-9.1-9-9.5-23.7-0.9-33.2L73.5,200h23.4l21.8,43.6c2,3.9,6.8,5.5,10.8,3.5c1.5-0.8,2.7-2,3.5-3.5l23.1-46.2l96-66.5l14.5,19.3
			l-105.4,75.3c-2.1,1.5-3.3,3.9-3.4,6.5v56c0,4.4,3.6,8,8,8h56c13.3,0,24,10.7,24,24v64h-32v-48c0-4.4-3.6-8-8-8H133.9z M325.9,464
			h-144v-64h144V464z"/>
	</g>
</g>
<g>
	<g>
		<path class="st0" d="M469.9,64c-30.9,0-56-25.1-56-56c0-4.4-3.6-8-8-8s-8,3.6-8,8c0,30.9-25.1,56-56,56c-4.4,0-8,3.6-8,8
			s3.6,8,8,8c30.9,0,56,25.1,56,56c0,4.4,3.6,8,8,8s8-3.6,8-8c0-30.9,25.1-56,56-56c4.4,0,8-3.6,8-8S474.3,64,469.9,64z M405.9,103
			c-6.9-13.3-17.7-24.1-31-31c13.3-6.9,24.1-17.7,31-31c6.9,13.3,17.7,24.1,31,31C423.6,78.9,412.8,89.7,405.9,103z"/>
	</g>
</g>
<g>
	<g>
		
			<rect x="251.3" y="208" transform="matrix(0.8064 -0.5913 0.5913 0.8064 -76.4581 198.3846)" class="st0" width="27" height="16"/>
	</g>
</g>
<g>
	<g>
		
			<rect x="284.3" y="157.3" transform="matrix(0.8062 -0.5916 0.5916 0.8062 -33.1022 229.5976)" class="st0" width="99.2" height="16"/>
	</g>
</g>
<g>
	<g>
		<rect x="289" y="104" transform="matrix(0.832 -0.5547 0.5547 0.832 -8.7284 195.1323)" class="st0" width="57.7" height="16"/>
	</g>
</g>
</svg>
