<?xml version="1.0" encoding="utf-8"?>
<!-- Generator: Adobe Illustrator 22.1.0, SVG Export Plug-In . SVG Version: 6.00 Build 0)  -->
<svg version="1.1" id="Capa_1" xmlns="http://www.w3.org/2000/svg" xmlns:xlink="http://www.w3.org/1999/xlink" x="0px" y="0px"
	 viewBox="0 0 480 480" style="enable-background:new 0 0 480 480;" xml:space="preserve">
<style type="text/css">
	.st0{fill:#FFFFFF;}
</style>
<g>
	<g>
		<path class="st0" d="M432,328c-18.7,0-34.8,13-38.9,31.1c-15.4-9.5-34.8-9.5-50.1,0c-4.8-21.5-26.2-35-47.7-30.2
			c-15,3.4-26.8,15.1-30.2,30.2c-15.4-9.5-34.8-9.5-50.1,0c-4.8-21.5-26.2-35-47.7-30.2c-15,3.4-26.8,15.1-30.2,30.2
			c-15.4-9.5-34.8-9.5-50.1,0c-5.1-21.5-26.6-34.8-48.1-29.8C20.9,333.6,8.1,349.6,8,368c0,4.4,3.6,8,8,8s8-3.6,8-8
			c0-13.3,10.7-24,24-24s24,10.7,24,24c0,1.4,0.4,2.7,1.2,3.9c-13.7,18.8-11.9,44.8,4.4,61.5c-3,1.1-5.7,2.9-7.8,5.3
			c-3.7,4.1-5.7,9.5-5.7,15V472c0,4.4,3.6,8,8,8s8-3.6,8-8v-18.3c0-1.6,0.5-3.1,1.6-4.3c0.7-0.8,1.8-1.3,2.9-1.4h55.2
			c1.1,0,2.1,0.5,2.9,1.4c1,1.2,1.6,2.7,1.6,4.3V472c0,4.4,3.6,8,8,8s8-3.6,8-8v-18.3c0-5.5-2-10.9-5.7-15c-2.2-2.4-4.9-4.2-7.8-5.3
			c16.3-16.7,18.1-42.6,4.4-61.5c0.7-1.2,1.1-2.5,1.1-3.9c0-13.3,10.7-24,24-24s24,10.7,24,24c0,1.4,0.4,2.7,1.2,3.9
			c-13.7,18.8-11.9,44.8,4.4,61.5c-3,1.1-5.7,2.9-7.8,5.3c-3.7,4.1-5.7,9.5-5.7,15V472c0,4.4,3.6,8,8,8s8-3.6,8-8v-18.3
			c0-1.6,0.5-3.1,1.6-4.3c0.7-0.8,1.8-1.3,2.9-1.4h55.2c1.1,0,2.1,0.5,2.9,1.4c1,1.2,1.6,2.7,1.6,4.3V472c0,4.4,3.6,8,8,8s8-3.6,8-8
			v-18.3c0-5.5-2-10.9-5.7-15c-2.2-2.4-4.9-4.2-7.8-5.3c16.3-16.7,18.1-42.6,4.4-61.5c0.7-1.2,1.1-2.5,1.1-3.9c0-13.3,10.7-24,24-24
			s24,10.7,24,24c0,1.4,0.4,2.7,1.2,3.9c-13.7,18.8-11.9,44.8,4.4,61.5c-3,1.1-5.7,2.9-7.8,5.3c-3.7,4.1-5.7,9.5-5.7,15V472
			c0,4.4,3.6,8,8,8s8-3.6,8-8v-18.3c0-1.6,0.5-3.1,1.6-4.3c0.7-0.8,1.8-1.3,2.9-1.4h55.2c1.1,0,2.1,0.5,2.9,1.4
			c1,1.2,1.6,2.7,1.6,4.3V472c0,4.4,3.6,8,8,8s8-3.6,8-8v-18.3c0-5.5-2-10.9-5.7-15c-2.2-2.4-4.9-4.2-7.8-5.3
			c16.3-16.7,18.1-42.6,4.4-61.5c0.7-1.2,1.1-2.5,1.1-3.9c0-13.3,10.7-24,24-24s24,10.7,24,24c0,4.4,3.6,8,8,8s8-3.6,8-8
			C472,345.9,454.1,328,432,328z M112,432c-17.7,0-32-14.3-32-32s14.3-32,32-32s32,14.3,32,32S129.7,432,112,432z M240,432
			c-17.7,0-32-14.3-32-32s14.3-32,32-32s32,14.3,32,32S257.7,432,240,432z M368,432c-17.7,0-32-14.3-32-32s14.3-32,32-32
			s32,14.3,32,32S385.7,432,368,432z"/>
	</g>
</g>
<g>
	<g>
		<path class="st0" d="M112,272c-22.1,0-40,17.9-40,40c0,4.4,3.6,8,8,8s8-3.6,8-8c0-13.3,10.7-24,24-24s24,10.7,24,24
			c0,4.4,3.6,8,8,8s8-3.6,8-8C152,289.9,134.1,272,112,272z"/>
	</g>
</g>
<g>
	<g>
		<path class="st0" d="M240,272c-22.1,0-40,17.9-40,40c0,4.4,3.6,8,8,8s8-3.6,8-8c0-13.3,10.7-24,24-24s24,10.7,24,24
			c0,4.4,3.6,8,8,8s8-3.6,8-8C280,289.9,262.1,272,240,272z"/>
	</g>
</g>
<g>
	<g>
		<path class="st0" d="M368,272c-22.1,0-40,17.9-40,40c0,4.4,3.6,8,8,8s8-3.6,8-8c0-13.3,10.7-24,24-24s24,10.7,24,24
			c0,4.4,3.6,8,8,8s8-3.6,8-8C408,289.9,390.1,272,368,272z"/>
	</g>
</g>
<g>
	<g>
		<path class="st0" d="M472,40h-5.2c-0.3-0.6-0.7-1.2-1.1-1.7L443.3,16H472c4.4,0,8-3.6,8-8s-3.6-8-8-8H8C3.6,0,0,3.6,0,8s3.6,8,8,8
			h12.7l24,24H8c-4.4,0-8,3.6-8,8s3.6,8,8,8h8v28c-11.7,12.5-11.4,32.1,0.8,44.3l15.6,15.6c3.1,3.1,8.2,3.1,11.3,0l33.9-33.9
			c3.1-3.1,3.1-8.2,0-11.3L62,83c-7.8-7.9-19.3-11.1-30-8.4V56h200v19.3c-5.5,1.3-10.6,4-14.6,8c-6,6-9.3,14.1-9.4,22.6V128
			c0,4.4,3.6,8,8,8h48c4.4,0,8-3.6,8-8v-22.1c0-8.5-3.4-16.6-9.4-22.6c-4-4-9.1-6.7-14.6-8V56h200v18.6c-10.8-2.7-22.2,0.5-30.1,8.4
			l-15.6,15.6c-3.1,3.1-3.1,8.2,0,11.3l33.9,33.9c3.1,3.1,8.2,3.1,11.3,0l15.6-15.6c12.2-12.1,12.6-31.7,0.8-44.3V56h8
			c4.4,0,8-3.6,8-8S476.4,40,472,40z M39.4,89.7c4.2,0,8.3,1.7,11.3,4.7l9.9,9.9l-22.6,22.6l-9.9-9.9c-6.2-6.2-6.2-16.4,0-22.6
			C31.1,91.3,35.2,89.7,39.4,89.7z M43.3,16h41.4L64,36.7L43.3,16z M83.3,40L104,19.3L124.7,40H83.3z M123.3,16h41.4L144,36.7
			L123.3,16z M163.3,40L184,19.3L204.7,40H163.3z M224,36.7L203.3,16h41.4L224,36.7z M251.3,94.6c3,3,4.7,7.1,4.7,11.3V120h-32
			v-14.1c0-8.8,7.2-16,16-16C244.2,89.9,248.3,91.6,251.3,94.6z M243.3,40L264,19.3L284.7,40H243.3z M283.3,16h41.4L304,36.7
			L283.3,16z M323.3,40L344,19.3L364.7,40H323.3z M363.3,16h41.4L384,36.7L363.3,16z M403.3,40L424,19.3L444.7,40H403.3z
			 M456.6,105.7c0,4.2-1.7,8.3-4.7,11.3l-9.9,9.9l-22.6-22.6l9.9-9.9c6.2-6.2,16.4-6.2,22.6,0C454.9,97.3,456.6,101.4,456.6,105.7
			L456.6,105.7z"/>
	</g>
</g>
<g>
	<g>
		<path class="st0" d="M472,240H8c-4.4,0-8,3.6-8,8s3.6,8,8,8h464c4.4,0,8-3.6,8-8S476.4,240,472,240z"/>
	</g>
</g>
</svg>
