<svg xmlns="http://www.w3.org/2000/svg" viewBox="0 0 386.3 657.12"><defs><style>.cls-1{fill:#161616;}.cls-2{fill:#333;}.cls-3{fill:#1e1e1e;}</style></defs><title>Front Right</title><g id="Layer_2" data-name="Layer 2"><g id="RF"><path class="cls-1" d="M385,234.79c-.29-14.92-4.2-24.19-7.67-34.83,0-64-8.57-80.12-9.88-82.21l0,0,.05,0-.09,0-.09-.13h0l-.09.07-.29-.12-.65-.25c-9.36-3.7-17.41-8.36-26.35-12.66h0l-.79-.39a27.86,27.86,0,0,0,8.33-2.14c6.73-3.13,7-5,7-5a19.59,19.59,0,0,0,5.09-8.92c1.69-7-2-13.72-3.44-20.41-1.13-5.21-1.5-10.53-2.43-15.77a111.57,111.57,0,0,0-12.52-35.83c-2-3.47-3.86-7.32-7-9.93a10,10,0,0,0-4.5-2.35A5.15,5.15,0,0,0,325,5.23c-.44-3.05-3.71-5.07-6.83-5.21-6.29-.29-12.72,2.93-17.9,6.16-6.39,4-12.92,9.57-15.89,16.57a45.65,45.65,0,0,0-2.32,8c-3.41,15.48-5.73,31.18-8,46.85-.8,5.41-1.55,11.16.75,16.13a16.34,16.34,0,0,0,4.65,5.77,14.15,14.15,0,0,0,1.53,1.11h0a23.23,23.23,0,0,0,4.22,2.21,30.93,30.93,0,0,0,3.25,1.08c.45.14.93.26,1.42.39-3.41,1.47-6.76,3.08-10.14,4.63-6.34,2.91-13.28,4.36-19.65,7.36h0l-.06.07s-.06.09-.09.16c-1.31,2.08-9.88,18.18-9.88,82.21-3.55,10.88-7.56,20.34-7.68,35.87l-1.85-.43s.47,3.34.87,12.73a8.52,8.52,0,0,0,4.58,1.74c-.09,2.53-.18,5.05-.24,7.57-.34,13.24-.42,26.51.27,39.74.11,2.25.25,4.5.47,6.75,1.27,13.14-.13,24.27,16,38.1.56,3.36,1.16,6.72,1.79,10.1,6.21,33-1.56,68.35-1.56,68.35l21.55,0h0v.05h0v.06h0a43.64,43.64,0,0,1,.63,7.46h0v.58c0,.39,0,.79,0,1.21,0,1.23-.14,2.55-.32,3.9,0,.39-.11.79-.2,1.2s-.17.84-.28,1.29c-.22.88-.48,1.83-.78,2.84-.47,1.63-1,3.44-1.61,5.5-.28,1-.58,2.11-.86,3.26a97.22,97.22,0,0,0-2,10,108.14,108.14,0,0,0-.95,11.24c-.09,2.79-.09,5.79,0,9,.58,15.88,5.08,40.52,8.73,58.91-1.37,3.34.08,2.77,1,4.72.16.8.31,1.57.47,2.33,0,2.23-1.85,2.25-.65,4.24.85,1.41,1.69,1.88,2.05,2.63.06.32.13.63.19.93a5.32,5.32,0,0,1-.18,1.16c-.68,2.62-.79,4.28,1.63,6.17s2,2.88,3.53,3.77c1,.61,1.22-.29,1.78-1.16-1.26,7-5.59,27.1-7.07,34.22-.24,1.16-1.39,4.62-1.1,6.86a14.33,14.33,0,0,0-2.3,2.06A17.51,17.51,0,0,0,282,612c-.19,1-.36,3.12.47,4.14h21.05a10.6,10.6,0,0,0,7.28-6.9l0-.07a43.1,43.1,0,0,0,1.54-5.75,46.36,46.36,0,0,0,1.54,5.75l0,.07a10.6,10.6,0,0,0,7.28,6.9h21c.84-1,.67-3.09.48-4.14a17.51,17.51,0,0,0-3.93-8.2,14.39,14.39,0,0,0-2.31-2.06c.3-2.24-.85-5.7-1.09-6.86-1.48-7.12-5.81-27.23-7.08-34.22.57.87.77,1.77,1.78,1.16,1.51-.89,1.12-1.89,3.54-3.77s2.3-3.55,1.63-6.17a4.77,4.77,0,0,1-.18-1.16c.06-.3.13-.61.19-.93.36-.75,1.19-1.22,2-2.63,1.21-2-.6-2-.64-4.24.15-.76.31-1.53.47-2.33.87-2,2.32-1.38.95-4.72,3.65-18.39,8.15-43,8.73-58.91a120.39,120.39,0,0,0-.33-15c-.11-1.25-.23-2.45-.37-3.6-.07-.58-.15-1.14-.22-1.7s-.19-1.27-.29-1.89c-.16-1-.32-1.91-.49-2.82s-.39-1.93-.59-2.83c-.12-.54-.24-1.07-.37-1.59-.3-1.27-.62-2.47-.93-3.6-1.35-4.89-2.64-8.46-3-11.36a43,43,0,0,1-.34-5.69,41.15,41.15,0,0,1,.63-7.33v-.14h0v0H317.23s0,.17,0,.5v3.72c0,1,0,2.05,0,3.28h0v4.41c0,1.37,0,2.84,0,4.39v8.36c0,1.19,0,2.41,0,3.65,0,1.86,0,3.77,0,5.73,0,1.3,0,2.62,0,3.95s0,2.68,0,4c0,2,0,4.1,0,6.16,0,.69,0,1.39,0,2.08,0,2.07,0,4.15,0,6.22,0,4.15.07,8.27.12,12.26.15,12,.38,22.77.73,29.67v0c.11,2.08.09,4.18,0,6.26v0q-.06,2.39-.18,4.77c0,.45-.06.9-.08,1.35-.07,1.18-.14,2.37-.23,3.55,0,.45-.06.89-.1,1.34-.1,1.26-.2,2.52-.32,3.78l-.09,1c-.14,1.55-.3,3.11-.47,4.66v0c-.14,1.07-1.2,1.71-1.24,3.22s.68,1.65.28,2.78-1.05,2.1-.43,2.82-.33,2.2-1.38,3.49.64,1.69,1,1.79c-.66,4.56-1.78,9.24-2.06,13.86-.15,1-.36,2.26-.57,3.49-.25-1.57-.51-3.2-.63-4.13l-.06-.75v0h0c-.4-4.16-1.36-8.36-1.95-12.46.37-.1,1.95-.64,1-1.79s-2-2.78-1.38-3.49,0-1.7-.44-2.82.34-1.25.29-2.78-1.09-2.15-1.24-3.21c-.17-1.57-.34-3.14-.49-4.72,0-.31-.05-.62-.08-.93-.12-1.26-.22-2.53-.32-3.8,0-.44-.07-.88-.1-1.32-.09-1.19-.16-2.38-.23-3.57,0-.44-.06-.89-.08-1.34-.08-1.59-.15-3.19-.19-4.79s-.06-3.14,0-4.72c0-.52,0-1,.06-1.57.15-2.87.27-6.43.38-10.46,0-1.34.07-2.74.1-4.18.08-3.47.14-7.2.2-11.09,0-.65,0-1.3,0-2,.06-4.6.11-9.4.15-14.24s.06-9.71.08-14.46c0-1.36,0-2.7,0-4,0-2.66,0-5.28,0-7.8v-3.72c0-1.22,0-2.41,0-3.57v-5c0-1.6,0-3.12,0-4.55V430c0-1.1,0-2.12,0-3.07h0c0-1.54,0-2.87,0-4v-1.15c0-.91,0-1.58,0-2v-.43l55.63,0a123.89,123.89,0,0,1,.64-22.45c.86-6.26,1.84-31.44,2.59-56.14,14.64-13.26,13.36-24.11,14.59-36.86.22-2.25.35-4.5.47-6.74.68-13.23.61-26.51.27-39.75q-.11-3.85-.25-7.72l0-.83a20.2,20.2,0,0,0,2.16-.52l.83-.19a.45.45,0,0,0,0-.11,5.27,5.27,0,0,0,1.73-1.06c.4-9.39.19-12.63.19-12.63ZM258.81,295.21c0-.1,0-.38,0-.83,0,1-.08,2.09-.1,3.13-2.76-4.49-2.35-15.1-1.2-20.24q3.21-14.37,5.9-28.84l3.37-.38c.61-.07,1.16-.13,1.64-.2C260.5,270.47,258.82,287.74,258.81,295.21ZM280,194.9c-.46,9-2.42,24.18-9,45.57l.14-4,.05-1.36L272.45,201l3.72-23.74c.67,1.28,1.34,2.56,2,3.85C278.87,182.73,280.23,186.9,280,194.9ZM368.2,299.18c-.12.17-.26.35-.39.54l-.2.28-.23.32,0,0c0-2.18.09-4.15.12-5.87A121.07,121.07,0,0,0,362,256.72c-.77-2.59-1.48-5.1-2.15-7.55,1.1.13,2.42.26,3.92.36,1.82,9.67,3.77,19.32,5.92,28.93C370.9,283.79,371.31,295,368.2,299.18Z"/><path class="cls-2" d="M299.29,282.83l-1.74-.49.46-.86-1.28-1.35L297,279l-2.08-.25c-.65-9.82-1.46-19.64-2-29.47-.42-8.09-3.53-15-6.81-22-1.57-3.38-3.12-6.65-3.19-10.54,0-1-.26-2.09-.31-3.1-.93-2.53-.66-5.08-.62-7.74.18-10.42-1.82-20.68-3.77-30.88a11,11,0,0,0-1.43-3.85c0-2.49,0-5,.05-7.48.08-2,.08-3.95,0-5.89-.28-8.66-2.43-16.84-7.82-24.08-4.28-5.73-9.75-9.68-17.18-10.21-4.46-2-9.07-3.74-13.42-6.08-5.67-3-11.52-5.74-16.94-9.27a11.38,11.38,0,0,1-3.12-2.72c-.08.15-.18.34-.29.57a5.77,5.77,0,0,1-.78-2.87c-.44-4.23-.64-8.47-.76-12.72a30,30,0,0,0,1.74-3.71h.21a79,79,0,0,0,2.78-8.06,1.43,1.43,0,0,1,.94-1.05,4,4,0,0,0,2.18-1.82,21.31,21.31,0,0,1,3.28-4.7,5.35,5.35,0,0,0,.76-1.29,22.13,22.13,0,0,0,2.08-9.48c0-2.15-.26-4-2.74-4.67,0,0-.08-.13-.12-.2a.28.28,0,0,1-.12-.16,4.52,4.52,0,0,0-1.68.17l-.78.19c.51-1.34,1.07-2.68,1.69-3.93a42.36,42.36,0,0,1,3.08-5.55S234.16,11,213.17,16.52c0,0-16.67-16.66-44.26-.25a.8.8,0,0,1-.15,0v.06a78.28,78.28,0,0,0-7.45,5.1,9,9,0,0,1,2,3.25l-.17,0v.1h.22c1.55,3.56,3.45,10.6,3.79,24,0,0,1,3.39,1.92,6.89a2.27,2.27,0,0,1-.25-.06,6,6,0,0,0-2.35-.37.33.33,0,0,1-.15.16c-.1.11-.19.28-.31.31-1.62.35-2.18,1.53-2.43,3a13.86,13.86,0,0,0,.05,2.88c.16,4.22,1.26,8.1,4.27,11.25a6,6,0,0,1,1.16,1.85,5.18,5.18,0,0,0,2.83,2.89,1.23,1.23,0,0,1,.83.87c.73,3.14,2.25,6,2.94,9.19.26.5.41.81.55,1.08-.12,3.83-1.24,7.58-1.18,11.45a11.83,11.83,0,0,1-1,5.34l-.36-.46a10.6,10.6,0,0,1-4.46,4.1c-9,4.8-17.72,10.13-27.46,13.38a1.72,1.72,0,0,0-1.08,1c-5.74.28-10.5,2.88-14.57,6.69A30.1,30.1,0,0,0,119,141.45c-2,5.05-3.61,10.1-3.53,15.58l-.12.85a16.82,16.82,0,0,0-.2,4.19c0,.55,0,1.11.08,1.66l0,7.82c-1.35,3.72-3.12,13.59-4,21.22l-.17.07q.06.32.09.63c-.3,2.53-.49,4.77-.53,6.41a11.5,11.5,0,0,0,0,2.81c-.38,3-2.16,18.63-2.34,18.67.2,2.76-5,11.36-5.27,13.08l-.89,1.6c0,.27,0,.54.08.82l-1.32,1c.14,2-1.12,3.67-1.25,5.54-.6,9.06-1.17,18.12-1.92,27.18l-.32-.11-1,1.21,0,.93-1,.6.89,1.57-.94.28,1.92,1.44c0,.26,0,.52-.07.78-1,10.19-.91,20.47-1.32,30.71a9.38,9.38,0,0,1-.77,4.15,10.44,10.44,0,0,0-.92,7,21.88,21.88,0,0,1,.14,5.48c-.32,4.07-.67,8.14-1,12.2a13.06,13.06,0,0,0,.53,5.92,2.89,2.89,0,0,1,.51,2.11l0,.21c-.13,2,1.19,3.56,1.57,5.45,1.31,6.67,3.51,12.95,9.12,17.42a8.88,8.88,0,0,1,1.38,1.75,59.67,59.67,0,0,0,9,9.64c1-2.34.32-4.38-.31-6.3-1.34-4.13-3.54-7.87-5.56-11.68-2.22-4.2-1.78-10.17.92-13.21a18.38,18.38,0,0,1,2.77,6.35c.52,2.3.89,4.64,1.37,7,.41,2,.56,4.14,2.41,5.58.6.47,1.07,1.14,1.92.79s.57-1.27.66-2c.81-6.09-.61-12.15-.47-18.18.17-7.26-2.85-13.33-5.42-19.7-1.28-3.18-3.47-6.33-2.6-9.93.52-2.18.9-4.38,1.39-6.56A168.4,168.4,0,0,1,119,289.29l.15-.4a11,11,0,0,0,3.53-1.36l-.88-1.57.93-.29,0-1.85,1-.6-1.5-1.9-.21-.09c2.14-4.35,4.54-8.68,6.23-13.07a50.35,50.35,0,0,0,2.17-8.06c1.23-6.87-.11-12.6,0-19.51a43.16,43.16,0,0,1,1.24-8.67c1.71-7.59,9.19-31.76,9.6-35.94a.89.89,0,0,1,.93-.93c.46,0,.93-.13,1.16.17.21,1.22.49,2.43.82,3.63a10.09,10.09,0,0,0,.5,2.71c1.52,5,2.8,10.19,4.34,15.18.69,2.26,1.48,4.45,2.18,6.65a42.27,42.27,0,0,1,1.9,10.5c0,6.8,0,13.61.08,20.42,0,5-.82,9.92-.58,14.89a29.87,29.87,0,0,0,.53,5.31,19.11,19.11,0,0,1-.94,3.54c-1.24,4.54-9.38,20.7-10,25.42a7.32,7.32,0,0,0,2.78.43c-.22,1.42-.42,2.84-.66,4.23-1,5.7-1.89,11.45-2.45,17.22-.39,4-1.22,8.06-.94,12.16h0c.08,4.74-1.74,9.29-1.35,14.06a2.45,2.45,0,0,0-.23.71c-.13,12.55-1.32,25.07,1.12,37.64,1.85,9.5,2.42,19.25,4.74,28.72,1.25,5.08,2.53,10.18,4,15.19a61.27,61.27,0,0,1,2.32,22.46c-.38,4.67-.68,9.4.33,14,.75,3.35.4,6.43.05,9.76-.94,8.88-3.21,17.54-4,26.43-.36,4-2.06,8-1.07,12.1,1.65,6.88,1.61,14,3.35,20.9.82,3.22.69,6.7,1.67,9.85,2.38,7.63,3.58,15.5,5.26,23.27,1.09,5,1,10.28,2.43,15.28a4.25,4.25,0,0,1-.31,2.43c-1.43,4.72-2.72,9.44-.67,14.37a22.37,22.37,0,0,1,1,2.23,3,3,0,0,1,.12,1.28c-2.38,4.34-4.24,9-7,13.05,0,1.1-.21,2-1.58,1.92l0,0c-1.86.62-2.41,1.9-1.58,3.6.55,1.15.83,2.48,1.83,3.4h33.28c2.3-3,2.29-4.23-.05-7.51-1.39-2-1.79-4.36-2.16-6.57-.61-3.6-1.08-7.23-1.74-10.82-.33-1.8-.7-3.59-1.17-5.37a6.15,6.15,0,0,1,.15-4.19,8.55,8.55,0,0,0,0-6.92c-2.12-6-1.49-12.36-1.53-18.61a106.62,106.62,0,0,1,1.72-22.17c1.22-5.86,1.39-11.89,3.24-17.63a22.57,22.57,0,0,0,.68-4.44c.79-7,3.4-13.89,2-21-1.27-6.18-1.61-12.49-3.22-18.63a40.35,40.35,0,0,1,.3-22.45c1.23-4,.61-8.28.76-12.44.37-11.09.14-22.22.95-33.27a70.9,70.9,0,0,1,3-16c1-3.3,1.2-6.89,1.64-10.36,1-7.75,1.74-15.53,2-23.33.24-6.33,1.12-12.58,1.95-18.84h6.06c1.23,3.86,1.05,7.91,1.48,11.86s0,8.25.79,12.23c1.15,6,.56,12.15,1.72,18.06,1.12,5.69,2.1,11.43,3.41,17.1a77.62,77.62,0,0,1,1.66,15.91c.12,5.84-.38,11.73.21,17.51,1,9.6,0,19.4,2.48,28.79,1.76,6.57-.88,12.53-1.83,18.66-1.15,7.41-2.58,14.74-2.32,22.27.25,7.36,2,14.49,3.18,21.71.9,5.67,2,11.31,3,17,1.78,10.18,1.73,20.35,1.49,30.59-.07,3-1.12,5.69-2,8.45a6,6,0,0,0-.31,3.44c1.29,4.51.54,8.86-.54,13.21-.15.59-.3,1.19-.46,1.78a39.37,39.37,0,0,0-.84,5.18c-.45,3.72-.77,7.52-3.31,10.52-2,2.36-.51,4.28.43,6.32l33.48,0c.43-.49.88-1,1.29-1.47a3.72,3.72,0,0,0-1.19-5.65l-.36-.84-.71-1c-2.8-3.69-4.65-7.9-6.59-12.07a12,12,0,0,1-.08-1.46,16.85,16.85,0,0,1,1.61-7,3.77,3.77,0,0,0,.19-3.11,23.44,23.44,0,0,1-1.72-11.22c.44-4.55,1.46-9,2.1-13.53a121.74,121.74,0,0,1,3.5-17.29c1.71-5.83,2.4-11.85,3.6-17.77.75-3.67.88-7.46,1.67-11.12a59.58,59.58,0,0,0,1.27-14.1c-.09-4.1-1.59-7.9-1.92-11.93a54.49,54.49,0,0,0-1.37-10.07,56.62,56.62,0,0,1-1.76-19.29c.34-4.5.93-9,.29-13.49-1.34-9.4.54-18.46,3.24-27.28a197,197,0,0,0,5.55-22.63c.6-3.28.64-6.65,1.2-9.93,1.25-7.4,2.53-14.78,2.63-22.31a239.42,239.42,0,0,0-.77-25,103.94,103.94,0,0,0-1-13.42h0c.81-1.86-.28-3.52-.51-5.29-.93-7.07-1.48-14.17-2.59-21.24-.75-4.84-1.72-9.61-2.89-14.34l.76-.24a133.35,133.35,0,0,1-4.71-12.72c-.81-2.91-1.12-9-1.27-13a7.89,7.89,0,0,0-.09-2.32c0-.66-.05-1.13-.07-1.31-.49-4-.26-8.13-1.23-12.11,0-.73,0-1.47,0-2.2V247.5c.16-10.06,1-20,4.55-29.83a81.61,81.61,0,0,0,3-11.72c.52-2,1-4,1.41-5.95.19-.91.42-1.82.68-2.73a5.48,5.48,0,0,0,1.7-2.53c1.38,4.87,2.65,8.15,3.92,11.71l2.25,8c.45,1.61.87,3.22,1.28,4.83a96.16,96.16,0,0,0,2.77,12.69,15.88,15.88,0,0,1,.93,6.5c-.52,5,.9,9.69.84,14.68,0,2.58-.78,6.07.09,8.55,2.35,6.73,4.84,13.82,7.44,20.45a24.86,24.86,0,0,0,2.73,4.65,27.09,27.09,0,0,1-3.21,1.85l.18,1.53.64.68-.25,1.09,1.74.48-.46.87s1.44-.22,3.55-.51a138.87,138.87,0,0,1,4.53,16.87c.2,1.06.64,2.08.87,3.1.69,3.06,1.94,6.23.71,9.32-1,2.47-1.69,5.06-2.86,7.43-2.93,5.89-5,11.92-4.48,18.65.12,1.63-.43,3.31-.43,5s-1.37,3.2-.86,4.83c.75,2.38.49,4.79.73,7.18.09.91-.64,2.32.65,2.62s2.2-.92,2.75-2.1c.21-.45.34-.94.53-1.4,1.93-4.7,1.26-10.12,4.05-14.59.37-.59.22-1.76,1.17-1.66s.84,1.14,1,1.84c1.62,6,.08,11.41-3,16.64a26.66,26.66,0,0,0-3.9,10.11c-.11.86-.47,2.13.54,2.45.84.26,1.54-.78,2.15-1.47,2.88-3.21,5.89-6.33,8.63-9.66,1.53-1.85,3.72-3.36,4.66-5.41A79.38,79.38,0,0,0,297,348.1a.42.42,0,0,0,0-.31,6,6,0,0,1,.94-4.19.61.61,0,0,0,.05-.4c0-1.34-.23-2.76,1.22-3.61.37-4.95-1-9.73-1.49-14.58-.39-3.53.77-7,.06-10.47a81.83,81.83,0,0,1-2-15.05c-.06-3.66-.2-7.32-.39-11a12.72,12.72,0,0,1,1.09-.94C298.54,286.09,299.29,282.83,299.29,282.83Z"/><path class="cls-3" d="M99.64,146.12l0,0,.9-1.09.1-.13.12-.14,1-.21c.45-.09.9-.18,1.35-.29h0a21,21,0,0,0,3.85-1.32c6.73-3.13,7-5,7-5A19.48,19.48,0,0,0,119.1,129c1.7-7-2-13.72-3.43-20.41-1.13-5.2-1.5-10.53-2.43-15.77A111.75,111.75,0,0,0,100.72,57c-2-3.47-3.86-7.33-7-9.94a9.85,9.85,0,0,0-4.5-2.34,5.12,5.12,0,0,0-4.71,1.39c-.45-3.05-3.71-5.07-6.83-5.21-6.29-.29-12.72,2.93-17.9,6.16-6.39,4-12.92,9.57-15.89,16.58a45.33,45.33,0,0,0-2.33,8c-3.4,15.48-5.72,31.18-8,46.86-.8,5.4-1.55,11.15.75,16.12A16.16,16.16,0,0,0,39,140.41a12.91,12.91,0,0,0,1.52,1.11h0a23.65,23.65,0,0,0,4.23,2.21A31,31,0,0,0,48,144.83l.24.07-1.28.47.43.51-12.28,4.19.89,1.52-.46.17-.7.26-1.2.42-.62.21h0a121.84,121.84,0,0,0-12.71,4.68h0l-.15.23c-1.31,2.08-9.88,18.18-9.88,82.21-3.55,10.89-7.56,20.35-7.68,35.9L0,275.17s.41,3.06.81,12.45c.92.92,2.86,1.57,5.34,2q-.14,3.81-.24,7.61c-.33,13.24-.41,26.51.27,39.74.12,2.25.26,4.5.47,6.75,1.25,13-.08,24,15.34,37.52h0c.07.38.17.77.25,1.16.66,3.17,1.39,6.35,2.2,9.52l.39,1.52v0c.12.5.25,1,.37,1.49l0,.14c.11.46.23.91.34,1.37,0,.1.05.2.08.29.09.4.19.8.29,1.21l.12.45c.09.36.18.72.26,1.08l.1.37c.09.39.18.77.28,1.16,0,.13.06.27.1.4.09.37.17.73.26,1.1,0,.15.08.3.11.45.09.36.18.72.26,1.08l.11.45c.08.34.17.68.25,1,0,.18.08.37.13.55l.24,1c0,.15.07.31.11.46l.24,1,.12.5.24,1,.1.44c.09.36.17.72.26,1.08l.09.4c.08.37.17.75.26,1.12,0,.12,0,.24.08.36.09.37.17.74.26,1.1L30,415c.09.38.17.76.26,1.14l.06.28c.1.42.19.84.29,1.25,0,.07,0,.13,0,.2.1.41.19.82.28,1.24l.06.24.3,1.33,0,.07.3,1.38,0,.07.42,1.9c.07.3.14.6.2.9s.15.67.22,1,.13.59.2.88l.21,1c.06.28.13.56.19.84s.15.69.22,1,.11.52.17.77.15.7.22,1,.11.49.16.73.15.71.23,1.05.1.5.16.75l.21,1c.05.26.11.52.16.77s.13.62.2.92.1.52.16.78l.18.87c.06.26.11.51.16.76l.2.91c0,.22.09.44.13.66s.13.61.19.92.09.41.14.62.13.63.19.94l.12.56.18.88.12.59c.06.28.11.54.17.8l.12.62.15.7c0,.21.08.43.13.64l.21,1.06c0,.06,0,.12,0,.17.06.31.12.6.18.89l.11.57c.07.33.14.66.2,1l0,.1c.07.34.14.68.2,1l.06.29.15.75,0,.23.15.79,0,.08c0,.27.11.54.16.79,0,.08,0,.15,0,.23l.12.61,0,.17c0,.21.08.4.11.59l0,.17c0,.17.07.34.1.49s0,.13,0,.2,0,.25.07.37l0,.21q0,.17.06.3l0,.21.06.28v.07l0,.19,0,.19v0l0,.17h4.82v0l0,.07v.05a45.26,45.26,0,0,1,.63,7.51,44.9,44.9,0,0,1-.35,5.69c-.94,7.23-7.55,18.56-6.61,44.35.91,24.65,16.74,72,18.69,82.69-1,5.81-5.7,27.73-7.26,35.23-.24,1.16-1.39,4.62-1.09,6.86a13.92,13.92,0,0,0-2.3,2.06,17.44,17.44,0,0,0-3.94,8.2c-.19,1-.35,3.12.48,4.14h21a10.62,10.62,0,0,0,7.28-6.9l0-.07a43.1,43.1,0,0,0,1.54-5.75,43.1,43.1,0,0,0,1.54,5.75l0,.07a10.62,10.62,0,0,0,7.28,6.9h21c.83-1,.67-3.09.48-4.14a17.44,17.44,0,0,0-3.94-8.2,13.92,13.92,0,0,0-2.3-2.06c.29-2.24-.85-5.7-1.09-6.86-1.57-7.5-6.29-29.42-7.26-35.23,1.95-10.72,17.78-58,18.68-82.69,1-25.79-5.66-37.12-6.6-44.35a43.12,43.12,0,0,1-.35-5.69c0-.56,0-1.11,0-1.63a41.06,41.06,0,0,1,.6-5.92l6.46,0a123.89,123.89,0,0,1,.64-22.45c1-7.23,9.23-39.75,14.79-67.58,1.9-1,2.15-2,2.46-4.35.43-3.25,3.91-6.51,3.91-6.51-.54,2.27,2.24,7.54.55,12.75-.61,1.88-5.79,6.44-7.3,9.77-1.25,2.72-.16,4.15-.16,4.15,20.16-15.29,18.45-27.07,19.81-41.17.21-2.25.35-4.5.47-6.75.68-13.23.6-26.5.26-39.74q-.09-3.79-.24-7.61c2.49-.46,4.43-1.11,5.35-2,.4-9.39.81-12.45.81-12.45l-2.55.51c-.12-15.55-4.14-25-7.69-35.9,0-64-8.56-80.13-9.87-82.21l-.15-.23v0c-4.31-1.63-8.61-3.44-12.89-5.33l1.81-2.1-14.27-5.26-1,1.26,0,.05M29.56,290.88c-.21.48-.42,1-.62,1.45-.11.27-.23.53-.34.8l-.51,1.22-.3.72L27,297a124.74,124.74,0,0,0-8.62,40.28c-2.06-5-1.62-14.29-.57-19,2.06-9.18,3.93-18.4,5.68-27.64,2.37,0,4.52-.09,6.24-.16C29.67,290.61,29.61,290.74,29.56,290.88Zm13.15-43.06c-.13.9-.29,1.79-.47,2.69-.08.42-.18.83-.27,1.25s-.2.93-.31,1.39-.24,1-.37,1.44-.2.78-.31,1.16-.29,1-.44,1.52-.35,1.17-.54,1.75c-.28.9-.6,1.79-.91,2.67l-.6,1.61c-.27.7-.55,1.4-.84,2.08-.12.28-.22.56-.34.83l0,0h0c-.13.3-.28.59-.42.89h0l-.52,1.09c-.25.5-.5,1-.76,1.48s-.4.73-.6,1.09-.51.89-.78,1.33-.65,1.05-1,1.57L33,274h0c0,.06-.07.11-.1.16l-.08.11-.29.39-.7.93-.16.21h0l-.21.27,1.22-34,3.73-23.74c1.29,2.47,2.59,4.93,3.71,7.46a.41.41,0,0,0,.07.11,33.45,33.45,0,0,1,2.92,10.47A47.57,47.57,0,0,1,42.71,247.82ZM78.47,565.11a316.08,316.08,0,0,1-3.17,34.06c-.64,4.71-1.84,9.57-2.13,14.36-.16,1-.37,2.26-.57,3.49-.26-1.57-.52-3.2-.64-4.13,0-.25,0-.5,0-.75v0h0c-.41-4.33-1.44-8.71-2-13a313.56,313.56,0,0,1-3.17-34.06c-.06-2.09-.07-4.19,0-6.29,1-19.75,1-71.5,1-90.92,0-1,0-2,0-2.85v-2.54c0-.11,0-.22,0-.32v-2h9.8v.51c0,.32,0,.77,0,1.35v3c0,.86,0,1.81,0,2.85,0,19.42,0,71.17,1,90.92C78.54,560.92,78.53,563,78.47,565.11Zm34.29-300.84A54.52,54.52,0,0,1,109,247.82a4.7,4.7,0,0,0,0-.79c-.11-2.57-.41-10.1-.41-11.7,0-.1,0-.2,0-.31,0-.29.15-2.41.23-3.25l.09-.61c.05-.45.12-.9.2-1.34,0-.18.06-.36.1-.53l.12-.62c.05-.23.11-.46.16-.69l.12-.49c.1-.38.21-.75.33-1.12,0-.12.08-.24.11-.35.1-.3.21-.59.32-.88,0-.12.09-.24.13-.35.16-.39.32-.77.5-1.15l.19-.39c.39-.78.8-1.53,1.24-2.27l3.49,22.29,1,28.8A47.33,47.33,0,0,1,112.76,264.27Zm16.47,76-.4.54-.2.28-.23.32-.27.39L128,342l-.33.48a1.64,1.64,0,0,1-.14.22l-.32.49c.33-2.93.53-5.54.57-7.74a120.5,120.5,0,0,0-5-36.12h0c-.3-1-.61-2-.93-3,0-.08,0-.16-.08-.25-.33-1-.67-2.06-1-3.08-.14-.42-.28-.83-.43-1.24,1.42,0,3,.08,4.75.1,1.75,9.24,3.62,18.46,5.68,27.64C131.93,324.84,132.34,336.07,129.23,340.24Z"/></g></g></svg>