<svg xmlns="http://www.w3.org/2000/svg" viewBox="0 0 437.06 678.12"><defs><style>.cls-1{fill:#161616;}.cls-2{fill:#2d2d2d;}.cls-3{fill:#1e1e1e;}</style></defs><title>Front Left</title><g id="Layer_2" data-name="Layer 2"><g id="LF"><path class="cls-1" d="M293.73,234.79c-.29-14.92-4.2-24.19-7.67-34.83,0-64-8.57-80.12-9.88-82.21,0,0,0,0,0,0l0,0-.09,0c0-.07-.08-.11-.09-.13h0l-.09.07-.29-.12-.65-.25c-9.35-3.7-17.4-8.36-26.35-12.66h0l-.79-.39a28,28,0,0,0,8.34-2.14c6.73-3.13,7-5,7-5a19.59,19.59,0,0,0,5.09-8.92c1.7-7-2-13.72-3.44-20.41-1.12-5.21-1.5-10.53-2.43-15.77a111.57,111.57,0,0,0-12.52-35.83c-2-3.47-3.86-7.32-7-9.93a9.94,9.94,0,0,0-4.49-2.35,5.15,5.15,0,0,0-4.71,1.4C233.29,2.18,230,.16,226.9,0,220.62-.27,214.19,3,209,6.18c-6.39,4-12.91,9.57-15.88,16.57a45.68,45.68,0,0,0-2.33,8c-3.41,15.48-5.72,31.18-8,46.85-.79,5.41-1.54,11.16.75,16.13a16.45,16.45,0,0,0,4.65,5.77,14.15,14.15,0,0,0,1.53,1.11h0a23.56,23.56,0,0,0,4.22,2.21,31.1,31.1,0,0,0,3.26,1.08c.45.14.93.26,1.41.39-3.41,1.47-6.76,3.08-10.14,4.63-6.34,2.91-13.28,4.36-19.65,7.36h0a.25.25,0,0,0-.05.07l-.1.16c-1.31,2.08-9.88,18.18-9.88,82.21-3.55,10.88-7.56,20.34-7.68,35.87-1.16-.26-1.84-.43-1.84-.43s.46,3.34.86,12.73a8.52,8.52,0,0,0,4.58,1.74q-.14,3.8-.24,7.57c-.34,13.24-.41,26.51.27,39.74.12,2.25.25,4.5.47,6.75,1.27,13.14-.13,24.27,16,38.1.55,3.36,1.15,6.72,1.79,10.1,6.21,33-1.56,68.35-1.56,68.35l21.54,0h0v.05h0v.06h0a44.1,44.1,0,0,1,.62,7.46h0c0,.19,0,.38,0,.58,0,.39,0,.79,0,1.21-.05,1.23-.15,2.55-.32,3.9-.05.39-.12.79-.2,1.2s-.18.84-.29,1.29c-.21.88-.48,1.83-.77,2.84-.48,1.63-1,3.44-1.61,5.5-.29,1-.58,2.11-.87,3.26a94.79,94.79,0,0,0-1.94,10,102.9,102.9,0,0,0-.95,11.24c-.1,2.79-.1,5.79,0,9,.58,15.88,5.09,40.52,8.73,58.91-1.37,3.34.09,2.77.95,4.72.16.8.32,1.57.47,2.33,0,2.23-1.85,2.25-.64,4.24.85,1.41,1.68,1.88,2,2.63.07.32.13.63.19.93a4.77,4.77,0,0,1-.18,1.16c-.67,2.62-.79,4.28,1.63,6.17s2,2.88,3.54,3.77c1,.61,1.21-.29,1.78-1.16-1.27,7-5.6,27.1-7.08,34.22-.24,1.16-1.39,4.62-1.09,6.86a13.92,13.92,0,0,0-2.3,2.06,17.44,17.44,0,0,0-3.94,8.2c-.19,1-.36,3.12.48,4.14h21a10.61,10.61,0,0,0,7.27-6.9l0-.07a44.67,44.67,0,0,0,1.54-5.75,43.1,43.1,0,0,0,1.54,5.75l0,.07a10.6,10.6,0,0,0,7.28,6.9H251c.83-1,.66-3.09.47-4.14a17.51,17.51,0,0,0-3.93-8.2,13.92,13.92,0,0,0-2.3-2.06c.29-2.24-.85-5.7-1.1-6.86-1.48-7.12-5.81-27.23-7.07-34.22.56.87.76,1.77,1.78,1.16,1.5-.89,1.11-1.89,3.54-3.77s2.3-3.55,1.62-6.17a5.32,5.32,0,0,1-.18-1.16c.07-.3.13-.61.19-.93.37-.75,1.2-1.22,2.05-2.63,1.2-2-.6-2-.65-4.24.16-.76.31-1.53.47-2.33.87-2,2.32-1.38,1-4.72,3.65-18.39,8.15-43,8.73-58.91a122.53,122.53,0,0,0-.32-15c-.11-1.25-.24-2.45-.38-3.6-.07-.58-.14-1.14-.22-1.7s-.19-1.27-.29-1.89c-.15-1-.32-1.91-.49-2.82s-.38-1.93-.59-2.83l-.36-1.59c-.31-1.27-.62-2.47-.94-3.6-1.34-4.89-2.63-8.46-3-11.36a41.47,41.47,0,0,1-.35-5.69,42.21,42.21,0,0,1,.63-7.33v-.06l0-.08h0v0H226v.5c0,.3,0,.74,0,1.31v2.41c0,1,0,2.05,0,3.28h0v.6c0,.78,0,1.6,0,2.47v5.73c0,2.58,0,5.38,0,8.36v3.65c0,1.86,0,3.77,0,5.73,0,1.3,0,2.62,0,3.95s0,2.68,0,4c0,2,0,4.1,0,6.16,0,.69,0,1.39,0,2.08,0,2.07,0,4.15,0,6.22,0,4.15.07,8.27.12,12.26.15,12,.38,22.77.73,29.67v0c.11,2.08.09,4.18,0,6.26v0c0,1.59-.11,3.18-.19,4.77,0,.45,0,.9-.08,1.35-.06,1.18-.14,2.37-.22,3.55,0,.45-.07.89-.11,1.34-.09,1.26-.2,2.52-.32,3.78,0,.32-.05.63-.08,1-.15,1.55-.31,3.11-.48,4.66v0c-.14,1.07-1.2,1.71-1.25,3.22s.69,1.65.29,2.78-1.06,2.1-.43,2.82-.34,2.2-1.39,3.49.65,1.69,1,1.79c-.65,4.56-1.78,9.24-2.06,13.86-.15,1-.36,2.26-.56,3.49-.26-1.57-.52-3.2-.64-4.13,0-.25,0-.5-.06-.75v0h0c-.39-4.16-1.36-8.36-1.95-12.46.37-.1,1.95-.64,1-1.79s-2-2.78-1.39-3.49,0-1.7-.43-2.82.33-1.25.28-2.78-1.09-2.15-1.24-3.21c-.17-1.57-.33-3.14-.48-4.72l-.09-.93c-.11-1.26-.22-2.53-.32-3.8,0-.44-.07-.88-.1-1.32-.09-1.19-.16-2.38-.23-3.57,0-.44,0-.89-.08-1.34-.08-1.59-.14-3.19-.18-4.79s-.06-3.14,0-4.72l.06-1.57c.15-2.87.28-6.43.38-10.46,0-1.34.07-2.74.1-4.18.08-3.47.14-7.2.2-11.09l0-2c.06-4.6.11-9.4.14-14.24s.07-9.71.09-14.46c0-1.36,0-2.7,0-4,0-2.66,0-5.28,0-7.8,0-1.27,0-2.51,0-3.72V432.72c0-1,0-1.87,0-2.75V426.9h0c0-1.54,0-2.87,0-4,0-.39,0-.75,0-1.08v-2.5l55.63,0a122.86,122.86,0,0,1,.64-22.45c.86-6.26,1.83-31.44,2.59-56.14,14.64-13.26,13.35-24.11,14.58-36.86.22-2.25.36-4.5.47-6.74.69-13.23.61-26.51.27-39.75q-.11-3.85-.24-7.72c0-.28,0-.55,0-.83a20.41,20.41,0,0,0,2.17-.52l.83-.19a.37.37,0,0,1,0-.11,5.33,5.33,0,0,0,1.72-1.06c.4-9.39.19-12.63.19-12.63ZM167.58,295.21c0-.1,0-.38,0-.83,0,1-.08,2.09-.11,3.13-2.76-4.49-2.35-15.1-1.2-20.24,2.15-9.58,4.09-19.2,5.91-28.84l3.36-.38c.61-.07,1.16-.13,1.65-.2C169.27,270.47,167.59,287.74,167.58,295.21ZM188.81,194.9c-.45,9-2.41,24.18-9,45.57l.15-4,.05-1.36L181.22,201l3.72-23.74c.67,1.28,1.35,2.56,2,3.85C187.64,182.73,189,186.9,188.81,194.9ZM277,299.18l-.4.54-.2.28-.23.32,0,0c.05-2.18.09-4.15.12-5.87a120.77,120.77,0,0,0-5.45-37.77c-.77-2.59-1.48-5.1-2.14-7.55,1.09.13,2.42.26,3.91.36,1.82,9.67,3.77,19.32,5.92,28.93C279.68,283.79,280.08,295,277,299.18Z"/><path class="cls-2" d="M437.06,330.83l-1.74-.49.46-.86-1.27-1.35.24-1.09-2.08-.25c-.64-9.82-1.46-19.64-2-29.47-.41-8.09-3.52-15-6.8-22-1.58-3.38-3.13-6.65-3.19-10.54,0-1-.27-2.09-.31-3.1-.93-2.53-.67-5.08-.62-7.74C420,243.49,418,233.23,416,223a11.21,11.21,0,0,0-1.44-3.85q0-3.74.05-7.48c.09-2,.09-3.95,0-5.89-.28-8.66-2.43-16.84-7.82-24.08-4.28-5.73-9.75-9.68-17.18-10.21-4.46-2.05-9.07-3.74-13.41-6.08-5.67-3.05-11.53-5.74-16.94-9.27a11.42,11.42,0,0,1-3.13-2.72c-.08.15-.18.34-.29.57a5.77,5.77,0,0,1-.78-2.87c-.44-4.23-.64-8.47-.76-12.72a28.62,28.62,0,0,0,1.74-3.71h.22a79,79,0,0,0,2.77-8.06,1.47,1.47,0,0,1,.94-1.05,4,4,0,0,0,2.18-1.82,21.31,21.31,0,0,1,3.28-4.7,5,5,0,0,0,.76-1.29,22.13,22.13,0,0,0,2.08-9.48c0-2.15-.26-4-2.73-4.67-.06,0-.08-.13-.12-.2a.26.26,0,0,1-.13-.16,4.55,4.55,0,0,0-1.68.17l-.77.19c.51-1.34,1.07-2.68,1.68-3.93a41.21,41.21,0,0,1,3.09-5.55S371.93,59,350.94,64.52c0,0-16.67-16.66-44.25-.25l-.16,0v.06a78.36,78.36,0,0,0-7.46,5.1,8.87,8.87,0,0,1,2.05,3.25l-.18,0,0,.1h.21c1.56,3.56,3.45,10.6,3.8,24,0,0,1,3.39,1.92,6.89l-.26-.06a6,6,0,0,0-2.34-.37.46.46,0,0,1-.15.16c-.11.11-.2.28-.32.31-1.61.35-2.18,1.53-2.42,3a14.58,14.58,0,0,0,0,2.88c.16,4.22,1.26,8.1,4.28,11.25a6.19,6.19,0,0,1,1.15,1.85,5.21,5.21,0,0,0,2.83,2.89,1.22,1.22,0,0,1,.83.87c.73,3.14,2.25,6,2.94,9.19.26.5.42.81.55,1.08-.12,3.83-1.24,7.58-1.17,11.45a12,12,0,0,1-1,5.34l-.35-.46a10.69,10.69,0,0,1-4.47,4.1c-9,4.8-17.71,10.13-27.46,13.38a1.68,1.68,0,0,0-1.07,1c-5.75.28-10.51,2.88-14.58,6.69a30.1,30.1,0,0,0-7.16,11.22c-2,5.05-3.6,10.1-3.53,15.58l-.12.85a17.83,17.83,0,0,0-.2,4.19c0,.55,0,1.11.09,1.66q0,3.92,0,7.82c-1.34,3.72-3.12,13.59-4,21.22l-.17.07c0,.21.06.42.08.63-.29,2.53-.48,4.77-.52,6.41a11.5,11.5,0,0,0,0,2.81c-.37,3-2.15,18.63-2.33,18.67.19,2.76-5,11.36-5.28,13.08l-.88,1.6c0,.27.05.54.07.82l-1.31,1c.13,2-1.13,3.67-1.25,5.54-.61,9.06-1.17,18.12-1.92,27.18l-.32-.11-1,1.21,0,.93-.95.6.89,1.57-.94.28,1.93,1.44c0,.26,0,.52-.07.78-1,10.19-.91,20.47-1.33,30.71a9.24,9.24,0,0,1-.77,4.15,10.56,10.56,0,0,0-.92,7,21.42,21.42,0,0,1,.14,5.48c-.31,4.07-.67,8.14-1,12.2a12.93,12.93,0,0,0,.54,5.92,2.93,2.93,0,0,1,.5,2.11l0,.21c-.14,2,1.19,3.56,1.56,5.45,1.31,6.67,3.51,12.95,9.12,17.42a8.92,8.92,0,0,1,1.39,1.75,59.61,59.61,0,0,0,8.94,9.64c1-2.34.32-4.38-.31-6.3-1.33-4.13-3.54-7.87-5.55-11.68-2.22-4.2-1.79-10.17.91-13.21a18.19,18.19,0,0,1,2.77,6.35c.53,2.3.89,4.64,1.37,7,.41,2,.56,4.14,2.41,5.58.6.47,1.07,1.14,1.92.79s.57-1.27.66-2c.81-6.09-.6-12.15-.46-18.18.16-7.26-2.86-13.33-5.42-19.7-1.28-3.18-3.47-6.33-2.61-9.93.53-2.18.9-4.38,1.4-6.56a166.85,166.85,0,0,1,6.45-22.18l.15-.4a11.11,11.11,0,0,0,3.54-1.36l-.89-1.57.94-.29.05-1.85.94-.6-1.5-1.9-.21-.09c2.14-4.35,4.55-8.68,6.24-13.07a50.35,50.35,0,0,0,2.17-8.06c1.22-6.87-.12-12.6,0-19.51a42.43,42.43,0,0,1,1.23-8.67c1.72-7.59,9.19-31.76,9.61-35.94a.89.89,0,0,1,.93-.93c.45,0,.92-.13,1.15.17.22,1.22.5,2.43.82,3.63a10.51,10.51,0,0,0,.5,2.71c1.53,5,2.8,10.19,4.34,15.18.7,2.26,1.48,4.45,2.18,6.65a41.81,41.81,0,0,1,1.9,10.5c0,6.8,0,13.61.08,20.42,0,5-.82,9.92-.58,14.89a29.87,29.87,0,0,0,.53,5.31,19.89,19.89,0,0,1-.93,3.54c-1.24,4.54-9.39,20.7-10,25.42a7.24,7.24,0,0,0,2.77.43c-.22,1.42-.42,2.84-.66,4.23-1,5.7-1.89,11.45-2.45,17.22-.39,4-1.22,8.06-.94,12.16h0c.08,4.74-1.75,9.29-1.35,14.06a2.21,2.21,0,0,0-.24.71c-.12,12.55-1.31,25.07,1.13,37.64,1.84,9.5,2.41,19.25,4.74,28.72,1.25,5.08,2.52,10.18,4,15.19a61.27,61.27,0,0,1,2.33,22.46c-.39,4.67-.69,9.4.33,14,.75,3.35.4,6.43,0,9.76-.95,8.88-3.22,17.54-4,26.43-.35,4-2.06,8-1.07,12.1,1.66,6.88,1.61,14,3.35,20.9.82,3.22.69,6.7,1.67,9.85,2.38,7.63,3.59,15.5,5.26,23.27,1.09,5,1,10.28,2.43,15.28a4.32,4.32,0,0,1-.3,2.43c-1.44,4.72-2.72,9.44-.67,14.37.3.74.77,1.45,1,2.23a3,3,0,0,1,.11,1.28c-2.38,4.34-4.23,9-7,13.05,0,1.1-.22,2-1.58,1.92l0,0c-1.86.62-2.41,1.9-1.59,3.6.56,1.15.83,2.48,1.84,3.4h33.28c2.29-3,2.28-4.23,0-7.51-1.4-2-1.79-4.36-2.17-6.57-.61-3.6-1.07-7.23-1.73-10.82-.33-1.8-.71-3.59-1.18-5.37a6.15,6.15,0,0,1,.15-4.19,8.55,8.55,0,0,0,0-6.92c-2.13-6-1.5-12.36-1.54-18.61a106,106,0,0,1,1.73-22.17c1.21-5.86,1.39-11.89,3.23-17.63a22.57,22.57,0,0,0,.69-4.44c.79-7,3.39-13.89,1.94-21-1.26-6.18-1.61-12.49-3.21-18.63a40.16,40.16,0,0,1,.3-22.45c1.23-4,.61-8.28.75-12.44.37-11.09.15-22.22.95-33.27a72,72,0,0,1,3-16c1-3.3,1.2-6.89,1.64-10.36,1-7.75,1.74-15.53,2-23.33.23-6.33,1.12-12.58,1.94-18.84h6.06c1.24,3.86,1.06,7.91,1.48,11.86s0,8.25.8,12.23c1.14,6,.55,12.15,1.71,18.06,1.12,5.69,2.1,11.43,3.41,17.1A76.93,76.93,0,0,1,346,472.72c.12,5.84-.38,11.73.21,17.51,1,9.6,0,19.4,2.48,28.79,1.76,6.57-.87,12.53-1.83,18.66-1.15,7.41-2.58,14.74-2.32,22.27.26,7.36,2,14.49,3.18,21.71.91,5.67,2,11.31,3,17,1.79,10.18,1.73,20.35,1.49,30.59-.07,3-1.12,5.69-2,8.45a5.89,5.89,0,0,0-.3,3.44c1.28,4.51.53,8.86-.55,13.21-.14.59-.3,1.19-.45,1.78a39.39,39.39,0,0,0-.85,5.18c-.45,3.72-.76,7.52-3.31,10.52-2,2.36-.51,4.28.43,6.32l33.49,0c.43-.49.87-1,1.28-1.47A3.72,3.72,0,0,0,378.7,671l-.37-.84-.7-1c-2.81-3.69-4.66-7.9-6.6-12.07a14.44,14.44,0,0,1-.08-1.46,17,17,0,0,1,1.61-7,3.73,3.73,0,0,0,.19-3.11A23.57,23.57,0,0,1,371,634.29c.44-4.55,1.46-9,2.1-13.53a123.15,123.15,0,0,1,3.5-17.29c1.72-5.83,2.4-11.85,3.6-17.77.75-3.67.89-7.46,1.67-11.12a59.58,59.58,0,0,0,1.27-14.1c-.09-4.1-1.59-7.9-1.91-11.93a55.36,55.36,0,0,0-1.38-10.07,56.87,56.87,0,0,1-1.76-19.29c.34-4.5.94-9,.3-13.49-1.35-9.4.53-18.46,3.23-27.28a199.16,199.16,0,0,0,5.56-22.63c.59-3.28.63-6.65,1.19-9.93,1.26-7.4,2.53-14.78,2.63-22.31a242.19,242.19,0,0,0-.76-25,105.76,105.76,0,0,0-1-13.42h0c.81-1.86-.27-3.52-.5-5.29-.93-7.07-1.49-14.17-2.59-21.24-.76-4.84-1.73-9.61-2.9-14.34L384,344a130.69,130.69,0,0,1-4.71-12.72c-.81-2.91-1.12-9-1.28-13A7.56,7.56,0,0,0,378,316c0-.66,0-1.13-.07-1.31-.49-4-.26-8.13-1.23-12.11,0-.73,0-1.47,0-2.2,0-1.64,0-3.28,0-4.91.16-10.06,1-20,4.55-29.83a80.32,80.32,0,0,0,3-11.72c.52-2,1-4,1.41-5.95.19-.91.43-1.82.68-2.73a5.4,5.4,0,0,0,1.7-2.53c1.38,4.87,2.66,8.15,3.92,11.71q1.13,4,2.25,7.95c.45,1.61.87,3.22,1.28,4.83a96.18,96.18,0,0,0,2.78,12.69,15.88,15.88,0,0,1,.93,6.5c-.52,5,.9,9.69.84,14.68,0,2.58-.78,6.07.08,8.55,2.36,6.73,4.85,13.82,7.44,20.45a24.86,24.86,0,0,0,2.73,4.65,27.46,27.46,0,0,1-3.2,1.85l.18,1.53.63.68-.24,1.09,1.74.48-.46.87s1.43-.22,3.54-.51A135.31,135.31,0,0,1,417,357.61c.21,1.06.64,2.08.87,3.1.69,3.06,1.94,6.23.71,9.32-1,2.47-1.68,5.06-2.86,7.43-2.93,5.89-5,11.92-4.48,18.65.13,1.63-.43,3.31-.42,5s-1.37,3.2-.86,4.83c.74,2.38.48,4.79.72,7.18.09.91-.64,2.32.66,2.62s2.19-.92,2.75-2.1c.21-.45.34-.94.53-1.4,1.93-4.7,1.26-10.12,4-14.59.37-.59.23-1.76,1.17-1.66s.84,1.14,1,1.84c1.63,6,.08,11.41-3,16.64A26.52,26.52,0,0,0,414,424.55c-.1.86-.47,2.13.55,2.45.83.26,1.53-.78,2.15-1.47,2.88-3.21,5.88-6.33,8.62-9.66,1.53-1.85,3.72-3.36,4.67-5.41a79.35,79.35,0,0,0,4.78-14.36.42.42,0,0,0,0-.31,6,6,0,0,1,.94-4.19.55.55,0,0,0,.06-.4c0-1.34-.24-2.76,1.21-3.61.38-4.95-.95-9.73-1.49-14.58-.39-3.53.77-7,.06-10.47a81.83,81.83,0,0,1-2-15.05c-.06-3.66-.2-7.32-.38-11a11.35,11.35,0,0,1,1.09-.94C436.32,334.09,437.06,330.83,437.06,330.83Z"/><path class="cls-3" d="M212.19,333.13c-.7-8-.67-10.89-.67-10.89s-1.55.6-3.92,1.42c-1.71-18.54-4.92-49.49-5.37-58.34-.42-8.09-3.53-15-6.81-22-1.58-3.38-3.13-6.65-3.19-10.54,0-1-.27-2.09-.31-3.1-.93-2.53-.66-5.08-.62-7.74.14-8.39-1.13-16.67-2.64-24.9a14,14,0,0,1,.81-2.53c.47-.95-1.38-2.67-2.13-4.9-.09-.74-.19-1.64-.3-2.57.07-1.69.49-3.54.68-5.54.15-1.63-.73-3.43-1.52-5.36,0-.77,0-1.54-.07-2.3a53,53,0,0,0-.47-5.68c.37-4.18-2.5-9.36-3.25-12.15-.84-3.12-3-5.32-2.61-7.15s.47-3.8-1.75-4.87a106.93,106.93,0,0,0-10.75-3.08,21,21,0,0,0-4.94-1.24l-1.88-.46,0,0c-4.27-1.92-8.64-3.56-12.78-5.79-2.48-1.34-5-2.61-7.5-3.9-1-.73-1.9-1.44-2.76-2.12l-.53-.78c-1.23-1-2.68-2.19-4.05-3.29l-4.75-3.81a4.68,4.68,0,0,0-.56-.45h0a29.06,29.06,0,0,0-2.52-1.57,60.36,60.36,0,0,1-.4-8.77,19.08,19.08,0,0,0,.93-2.07c.1-.27.19-.54.26-.8s.1-.42.14-.61l-.41.54a27.44,27.44,0,0,0,1.47-3.2l.12-.17a77.5,77.5,0,0,0,2.84-8,1.47,1.47,0,0,1,.94-1,4,4,0,0,0,2.18-1.82,21.08,21.08,0,0,1,3.28-4.7,5.22,5.22,0,0,0,.76-1.29,22.15,22.15,0,0,0,2.08-9.49c0-2.14-.26-4-2.74-4.66-.05,0-.08-.13-.12-.2a.28.28,0,0,1-.12-.16,4.52,4.52,0,0,0-1.68.17l-.1,0c.48-1.24,1-2.46,1.56-3.61a43.53,43.53,0,0,1,3.09-5.55S143.45,27,122.46,32.52c0,0-16.59-16.58-44.06-.36l-.78.13.6,0a77.14,77.14,0,0,0-7.62,5.19,8.75,8.75,0,0,1,2,3.14l-.56.14.61,0c1.56,3.53,3.5,10.57,3.85,24.13,0,0,1,3.37,1.91,6.86a4.64,4.64,0,0,1-.8-.19,6,6,0,0,0-2.34-.37h0a.41.41,0,0,1-.16.16c-.1.11-.19.28-.31.31-1.62.35-2.18,1.53-2.42,3a13.2,13.2,0,0,0,0,2.88c.16,4.22,1.26,8.1,4.28,11.25a6.19,6.19,0,0,1,1.15,1.85,5.18,5.18,0,0,0,2.83,2.89,1.22,1.22,0,0,1,.83.87c.73,3.14,2.25,6,2.94,9.19,1,1.8.6,1.22,1,1.8.16.25.32.5.47.75a24.48,24.48,0,0,1-.12,10.14,17.1,17.1,0,0,1-1,3.47c-.55.3-1.1.62-1.64,1,.07-.15.13-.31.2-.45s-.4.38-1.11,1-1.62,1.08-2.4,1.67a58,58,0,0,0-5.24,3.76c-.24.37-.53.78-.83,1.21-7.32,4-14.61,8.07-22.58,10.73,0,0-15.36,3.71-17.58,4.78s-2.11,3-1.74,4.87-1.78,4-2.62,7.16v0c-.3.67-.59,1.34-.87,2-2,5.05-3.6,10.1-3.53,15.58,0,.29-.08.57-.11.85a16.82,16.82,0,0,0-.2,4.19c0,.55,0,1.11.08,1.66v2.11a6.61,6.61,0,0,0-.33,2.37,15.85,15.85,0,0,1,.17,3.86c-.18.55-.37,1.22-.56,2h0c-.79,2.22-2.3,3.72-1.83,4.67a10.52,10.52,0,0,1,.37,2.11c-.72,3.85-1.38,8.17-1.84,12l-.17.07c0,.21.06.42.08.63-.29,2.53-.48,4.77-.52,6.41a11,11,0,0,0,.05,2.81c-.38,3-2.16,18.63-2.34,18.67.2,2.76-5,11.36-5.27,13.08l-.89,1.6c0,.27.05.54.07.82l-1.31,1c.14,2-1.13,3.67-1.25,5.54-.63,9.33-4.06,43.07-5.69,59.51-2-.42-3.26-.73-3.26-.73S.4,321,.74,329a5.94,5.94,0,0,0,2.9,1.3,11.46,11.46,0,0,0-.08,4.81,21.42,21.42,0,0,1,.14,5.48c-.31,4.07-.66,8.14-1,12.2a13.07,13.07,0,0,0,.54,5.92,2.89,2.89,0,0,1,.51,2.11l0,.21c-.14,2,1.19,3.56,1.56,5.45,1.31,6.67,3.51,12.95,9.12,17.42a8.92,8.92,0,0,1,1.39,1.75,59.23,59.23,0,0,0,9,9.64c1-2.34.31-4.38-.31-6.3-1.34-4.13-3.54-7.87-5.56-11.68-2.22-4.2-1.79-10.17.91-13.21a18.21,18.21,0,0,1,2.78,6.35c.52,2.3.89,4.64,1.36,7,.42,2,.56,4.14,2.41,5.58.61.47,1.07,1.14,1.93.79s.56-1.27.66-2c.81-6.09-.61-12.15-.47-18.18.17-7.26-2.86-13.33-5.42-19.7-1.28-3.18-3.47-6.33-2.61-9.93.32-1.29.58-2.6.84-3.9,2.77-.32,4.69-.62,4.69-.62L26.3,320a5.53,5.53,0,0,1-.95.38C29.2,309,35.57,289.27,37.54,284.16a50.35,50.35,0,0,0,2.17-8.06c1.22-6.87-.12-12.6,0-19.51a30.68,30.68,0,0,1,.28-3.43c.52-.41,1.08-.81,1.61-1.2,1.43-1-.08-3.87-.19-6,.14-.57.3-1.18.48-1.84,1-1.94,2.86-4.5,3.14-6.45a23.89,23.89,0,0,0,0-4.89c2.53-8.89,5.25-18.37,5.5-20.84a.89.89,0,0,1,.93-.93l.54,0c.77,3,1.51,6,2.2,8.79,1.46,6,2.71,11.52,3.6,16.15h0c.45,2.31.8,4.4,1,6.21,0,0-.93,4.56-2.25,11.4v.05c-1.45,7.48-3.36,17.68-5.06,27.65l0,.11c-.81,4.76-1.57,9.48-2.2,13.81,0,0-2,9.51-4.15,21.25v.11c-.79,4.3-1.59,8.89-2.32,13.43v0c-1.81,11.31-3.17,22.27-2.66,27.37.22,2.25,3.88,4.14,8.84,5.77a21.15,21.15,0,0,0-.16,4.43,2.48,2.48,0,0,0-.24.71c-.12,12.55-1.31,25.07,1.13,37.64,1.85,9.5,2.42,19.25,4.74,28.72,1.25,5.08,2.52,10.18,4,15.19a61.48,61.48,0,0,1,2.32,22.46c-.39,4.67-.69,9.4.33,14,.75,3.35.4,6.43.05,9.76-.94,8.88-3.21,17.54-4,26.43-.36,4-2.06,8-1.07,12.1,1.65,6.88,1.6,14,3.35,20.9.81,3.22.68,6.7,1.67,9.85,2.38,7.63,3.58,15.5,5.26,23.27,1.08,5,1,10.28,2.42,15.28a4.24,4.24,0,0,1-.3,2.43c-1.44,4.72-2.72,9.44-.67,14.37a22.37,22.37,0,0,1,1,2.23,3,3,0,0,1,.12,1.28c-2.38,4.34-4.24,9-7,13.05,0,1.1-.21,2-1.58,1.92l0,0c-1.86.62-2.41,1.9-1.59,3.6.56,1.15.83,2.48,1.84,3.4H93.86c2.29-3,2.28-4.23,0-7.51-1.4-2-1.79-4.36-2.16-6.57-.61-3.6-1.08-7.23-1.74-10.82-.33-1.8-.71-3.59-1.18-5.37a6.21,6.21,0,0,1,.16-4.19,8.59,8.59,0,0,0,0-6.92c-2.12-6-1.49-12.36-1.53-18.61a105.27,105.27,0,0,1,1.72-22.17c1.22-5.86,2.07-11.89,3.92-17.63a23.34,23.34,0,0,0,.69-4.44c.78-7,3.39-13.89,1.94-21-1.27-6.18-1.61-12.49-3.22-18.63a40.35,40.35,0,0,1,.3-22.45c1.23-4,.62-8.28.76-12.44.37-11.09.15-22.22,1-33.27a71.46,71.46,0,0,1,3-16c1-3.3,1.2-6.89,1.64-10.36,1-7.75,1.74-15.53,2-23.33.24-6.33,1.12-12.58,2-18.84h4c1.24,3.86,1.06,7.91,1.49,11.86s0,8.25.79,12.23c1.15,6,.55,12.15,1.72,18.06,1.11,5.69,2.09,11.43,3.41,17.1a77.62,77.62,0,0,1,1.66,15.91c.11,5.84,1,11.73,1.57,17.51,1,9.6-.71,19.4,1.8,28.79,1.76,6.57-.88,12.53-1.83,18.66A116.9,116.9,0,0,0,116,528c.25,7.36,2,14.49,3.17,21.71.91,5.67,2,11.31,3,17,1.78,10.18,1.73,20.35,1.48,30.59-.07,3-1.12,5.69-2,8.45a5.81,5.81,0,0,0-.31,3.44c1.28,4.51.53,8.86-.54,13.21l-.46,1.78a41.12,41.12,0,0,0-.85,5.18c-.45,3.72-.76,7.52-3.31,10.52-2,2.36-.51,4.28.44,6.32l33.48,0c.43-.49.88-1,1.29-1.47a3.73,3.73,0,0,0-1.19-5.65l-.36-.84-.71-1c-2.81-3.69-4.65-7.9-6.6-12.07a14.44,14.44,0,0,1-.08-1.46,17.17,17.17,0,0,1,1.61-7,3.73,3.73,0,0,0,.19-3.11,23.69,23.69,0,0,1-1.72-11.22c.44-4.55,1.46-9,2.11-13.53a121.72,121.72,0,0,1,3.49-17.29c1.72-5.83,2.41-11.85,3.61-17.77.74-3.67.88-7.46,1.67-11.12a60.64,60.64,0,0,0,1.27-14.1c-.09-4.1-1.6-7.9-1.92-11.93a55.36,55.36,0,0,0-1.38-10.07,56.61,56.61,0,0,1-1.75-19.29c.33-4.5.93-9,.29-13.49-1.35-9.4.53-18.46,3.23-27.28a195,195,0,0,0,5.56-22.63c.59-3.28.64-6.65,1.19-9.93,1.26-7.4,2.53-14.78,2.63-22.31a236.69,236.69,0,0,0-.76-25c0-.71,0-1.42-.07-2.13,6-1.78,10.75-3.89,11-6.45,1.28-12.75-9.15-62.18-9.15-62.18-3.18-21.74-9.55-53-9.55-53,.93-6.77,3.37-17.49,6.38-29.28.76,2.45,1.49,4.5,2.22,6.5a12.67,12.67,0,0,0,.17,3.4,8.18,8.18,0,0,0,1.83,3c.37,1.33.75,2.66,1.12,4q.67,2.41,1.29,4.84l.12.66a1.76,1.76,0,0,0,.21,1.17,77.81,77.81,0,0,0,2.44,10.85,15.88,15.88,0,0,1,.93,6.5c-.52,5,.9,9.69.84,14.68,0,2.58-.78,6.07.09,8.55,2.35,6.73,4.84,13.82,7.43,20.45.85,2.16,6,19.42,9.18,29.83a8.43,8.43,0,0,1-2.6-.44l1.56,9.35s1.28,0,3.25,0a7,7,0,0,1-.35,1.16c-1,2.47-1.69,5.06-2.87,7.43-2.92,5.89-5,11.92-4.48,18.65.13,1.63-.42,3.31-.42,5s-1.37,3.2-.86,4.83c.74,2.38.48,4.79.72,7.18.1.91-.63,2.32.66,2.62s2.2-.92,2.75-2.1c.21-.45.34-.94.53-1.4,1.93-4.7,1.26-10.12,4-14.59.37-.59.23-1.76,1.17-1.66s.85,1.14,1,1.84c1.62,6,.07,11.41-3,16.64a26.34,26.34,0,0,0-3.9,10.11c-.11.86-.48,2.13.54,2.45.83.26,1.53-.78,2.15-1.47,2.88-3.21,5.88-6.33,8.62-9.66,1.53-1.85,3.72-3.36,4.67-5.41a79.35,79.35,0,0,0,4.78-14.36.34.34,0,0,0,0-.31,6,6,0,0,1,.95-4.19.61.61,0,0,0,.05-.4c0-1.34-.24-2.76,1.21-3.61.38-4.95-.95-9.73-1.48-14.58a25.2,25.2,0,0,1,.13-5.14,8.33,8.33,0,0,0,1.42-.29c0-.15,0-.32,0-.48A7.24,7.24,0,0,0,212.19,333.13Z"/></g></g></svg>