<svg xmlns="http://www.w3.org/2000/svg" viewBox="0 0 210 60"><defs><style>.cls-1{fill:#db3236;}.cls-2{fill:#fff;}</style></defs><title>google</title><g id="Layer_2" data-name="Layer 2"><g id="Layer_1-2" data-name="Layer 1"><path class="cls-1" d="M118.8,27a2.28,2.28,0,0,0-2,1,5.38,5.38,0,0,0-.73,3.1A4.79,4.79,0,0,0,116.8,34a2.29,2.29,0,0,0,2,1,2.45,2.45,0,0,0,2.31-1.21V28.21A2.45,2.45,0,0,0,118.8,27Z"/><path class="cls-1" d="M0,0V60H210V0ZM69,40.78c-4.34,5.58-12.35,7.22-18.86,5a17.49,17.49,0,0,1-11.8-16.54c-.34-9,7.56-17.36,16.59-17.47a17.54,17.54,0,0,1,12.57,4.31c-1.43,1.58-2.89,3.13-4.44,4.58-3.07-1.86-6.76-3.28-10.34-2a11,11,0,1,0,7.44,20.79,9.63,9.63,0,0,0,5.68-6.62c-3.34-.07-6.68,0-10-.12,0-2,0-4,0-5.95,5.57,0,11.15,0,16.73,0C72.88,31.66,72.16,36.87,69,40.78ZM95.7,26a9.75,9.75,0,0,0,2.56,1.09,11.06,11.06,0,0,1,4.54,2.33,4.64,4.64,0,0,1,1.42,3.46,4.27,4.27,0,0,1-1.74,3.61,7.62,7.62,0,0,1-4.68,1.31,9,9,0,0,1-3.73-.75A5.89,5.89,0,0,1,91.51,35a5.26,5.26,0,0,1-.89-3h3.67q0,2.93,3.51,2.93a3.45,3.45,0,0,0,2-.53,1.7,1.7,0,0,0,.73-1.48,1.87,1.87,0,0,0-.73-1.59,9.55,9.55,0,0,0-2.63-1.17,18.41,18.41,0,0,1-3-1.21c-2-1.08-3-2.55-3-4.39A4.26,4.26,0,0,1,92,22a5.22,5.22,0,0,1,2.33-1.76,8.59,8.59,0,0,1,3.4-.64,8,8,0,0,1,3.39.69,5.37,5.37,0,0,1,2.3,1.94,5.08,5.08,0,0,1,.82,2.85h-3.65a2.36,2.36,0,0,0-.77-1.89,3.13,3.13,0,0,0-2.15-.68,3.34,3.34,0,0,0-2.08.57,1.77,1.77,0,0,0-.74,1.49A1.71,1.71,0,0,0,95.7,26Zm14.48,11.55h-3.53V24.39h3.53Zm-.34-15.26a2.26,2.26,0,0,1-2.86,0,1.87,1.87,0,0,1,0-2.62,2,2,0,0,1,1.44-.51,2,2,0,0,1,1.44.51,1.7,1.7,0,0,1,.54,1.3A1.76,1.76,0,0,1,109.84,22.3Zm14.77,14.83a5.64,5.64,0,0,1-.79,3,5.06,5.06,0,0,1-2.21,1.95,7.72,7.72,0,0,1-3.34.67,7.16,7.16,0,0,1-2.82-.58,4.92,4.92,0,0,1-2.08-1.49l1.56-2.14A4.12,4.12,0,0,0,118.12,40a3,3,0,0,0,2.18-.75,2.81,2.81,0,0,0,.78-2.12v-.71a4.08,4.08,0,0,1-3.21,1.38A4.66,4.66,0,0,1,114,36,7.71,7.71,0,0,1,112.56,31v-.15A7.72,7.72,0,0,1,114,26a4.66,4.66,0,0,1,3.89-1.85,4.09,4.09,0,0,1,3.37,1.48l.15-1.24h3.19Zm14,.43h-3.52V29.14a2.27,2.27,0,0,0-.49-1.63A2.2,2.2,0,0,0,133,27a2.43,2.43,0,0,0-2.23,1.26v9.29h-3.51V24.39h3.31l.11,1.52a4.58,4.58,0,0,1,3.78-1.76,3.82,3.82,0,0,1,3.12,1.23,5.75,5.75,0,0,1,1.05,3.67Zm12.59,0h-3.53V24.39h3.53Zm-.34-15.26a2.26,2.26,0,0,1-2.86,0,1.87,1.87,0,0,1,0-2.62,2,2,0,0,1,1.44-.51,2,2,0,0,1,1.44.51,1.87,1.87,0,0,1,0,2.62Zm14.53,15.26h-3.52V29.14a2.32,2.32,0,0,0-.48-1.63,2.23,2.23,0,0,0-1.62-.5,2.43,2.43,0,0,0-2.23,1.26v9.29H154V24.39h3.31l.11,1.52a4.59,4.59,0,0,1,3.79-1.76,3.83,3.83,0,0,1,3.12,1.23,5.69,5.69,0,0,1,1,3.67Z"/><path class="cls-2" d="M55.8,26.77c0,2,0,4,0,5.95,3.34.09,6.68.05,10,.12a9.63,9.63,0,0,1-5.68,6.62,11,11,0,1,1-7.44-20.79c3.58-1.26,7.27.16,10.34,2,1.55-1.45,3-3,4.44-4.58A17.54,17.54,0,0,0,54.92,11.8c-9,.11-16.93,8.45-16.59,17.47a17.49,17.49,0,0,0,11.8,16.54c6.51,2.19,14.52.55,18.86-5,3.17-3.91,3.89-9.12,3.54-14C67,26.74,61.37,26.76,55.8,26.77Z"/><path class="cls-2" d="M95.57,23.07a3.34,3.34,0,0,1,2.08-.57,3.13,3.13,0,0,1,2.15.68,2.36,2.36,0,0,1,.77,1.89h3.65a5.08,5.08,0,0,0-.82-2.85,5.37,5.37,0,0,0-2.3-1.94,8,8,0,0,0-3.39-.69,8.59,8.59,0,0,0-3.4.64A5.22,5.22,0,0,0,92,22a4.26,4.26,0,0,0-.81,2.56c0,1.84,1,3.31,3,4.39a18.41,18.41,0,0,0,3,1.21,9.55,9.55,0,0,1,2.63,1.17,1.87,1.87,0,0,1,.73,1.59,1.7,1.7,0,0,1-.73,1.48,3.45,3.45,0,0,1-2,.53q-3.51,0-3.51-2.93H90.62a5.26,5.26,0,0,0,.89,3,5.89,5.89,0,0,0,2.56,2.05,9,9,0,0,0,3.73.75,7.62,7.62,0,0,0,4.68-1.31,4.27,4.27,0,0,0,1.74-3.61,4.64,4.64,0,0,0-1.42-3.46,11.06,11.06,0,0,0-4.54-2.33A9.75,9.75,0,0,1,95.7,26a1.71,1.71,0,0,1-.87-1.45A1.77,1.77,0,0,1,95.57,23.07Z"/><rect class="cls-2" x="106.65" y="24.39" width="3.53" height="13.17"/><path class="cls-2" d="M108.41,19.17a2,2,0,0,0-1.44.51,1.87,1.87,0,0,0,0,2.62,2.26,2.26,0,0,0,2.86,0,1.76,1.76,0,0,0,.55-1.32,1.7,1.7,0,0,0-.54-1.3A2,2,0,0,0,108.41,19.17Z"/><path class="cls-2" d="M121.27,25.63a4.09,4.09,0,0,0-3.37-1.48A4.66,4.66,0,0,0,114,26a7.72,7.72,0,0,0-1.45,4.88V31A7.71,7.71,0,0,0,114,36a4.66,4.66,0,0,0,3.84,1.86,4.08,4.08,0,0,0,3.21-1.38v.71a2.81,2.81,0,0,1-.78,2.12,3,3,0,0,1-2.18.75,4.12,4.12,0,0,1-3.19-1.47l-1.56,2.14a4.92,4.92,0,0,0,2.08,1.49,7.16,7.16,0,0,0,2.82.58,7.72,7.72,0,0,0,3.34-.67,5.06,5.06,0,0,0,2.21-1.95,5.64,5.64,0,0,0,.79-3V24.39h-3.19Zm-.19,8.13A2.45,2.45,0,0,1,118.77,35a2.29,2.29,0,0,1-2-1,4.79,4.79,0,0,1-.72-2.81,5.38,5.38,0,0,1,.73-3.1,2.28,2.28,0,0,1,2-1,2.45,2.45,0,0,1,2.28,1.2Z"/><path class="cls-2" d="M134.44,24.15a4.58,4.58,0,0,0-3.78,1.76l-.11-1.52h-3.31V37.56h3.51V28.27A2.43,2.43,0,0,1,133,27a2.2,2.2,0,0,1,1.62.5,2.27,2.27,0,0,1,.49,1.63v8.42h3.52V29.05a5.75,5.75,0,0,0-1.05-3.67A3.82,3.82,0,0,0,134.44,24.15Z"/><path class="cls-2" d="M149.43,19.17a2,2,0,0,0-1.44.51,1.87,1.87,0,0,0,0,2.62,2.26,2.26,0,0,0,2.86,0,1.87,1.87,0,0,0,0-2.62A2,2,0,0,0,149.43,19.17Z"/><rect class="cls-2" x="147.67" y="24.39" width="3.53" height="13.17"/><path class="cls-2" d="M161.23,24.15a4.59,4.59,0,0,0-3.79,1.76l-.11-1.52H154V37.56h3.52V28.27A2.43,2.43,0,0,1,159.77,27a2.23,2.23,0,0,1,1.62.5,2.32,2.32,0,0,1,.48,1.63v8.42h3.52V29.05a5.69,5.69,0,0,0-1-3.67A3.83,3.83,0,0,0,161.23,24.15Z"/></g></g></svg>