<?xml version="1.0" encoding="utf-8"?>
<!-- Generator: Adobe Illustrator 22.1.0, SVG Export Plug-In . SVG Version: 6.00 Build 0)  -->
<svg version="1.1" id="Layer_1" xmlns="http://www.w3.org/2000/svg" xmlns:xlink="http://www.w3.org/1999/xlink" x="0px" y="0px"
	 viewBox="0 0 512 512" style="enable-background:new 0 0 512 512;" xml:space="preserve">
<style type="text/css">
	.st0{fill:#FFFFFF;}
</style>
<g>
	<g>
		<g>
			<path class="st0" d="M437,154c-48.4-48.4-112.6-75-181-75s-132.7,26.6-181,75C26.6,202.3,0,266.6,0,335v87.1
				c0,6,4.9,10.9,10.9,10.9h490.2c6,0,10.9-4.9,10.9-10.9V335C512,266.6,485.4,202.3,437,154z M207.2,411.2h-49V302.3h49V411.2z
				 M441.2,411.2H229V291.4c0-6-4.9-10.9-10.9-10.9h-70.8c-6,0-10.9,4.9-10.9,10.9v119.8H70.8V335c0-44.2,15.6-84.9,41.5-116.7
				h175.5c6,0,10.9-4.9,10.9-10.9s-4.9-10.9-10.9-10.9H133.2c32.7-29,75.7-46.7,122.8-46.7c102.1,0,185.2,83.1,185.2,185.2
				L441.2,411.2L441.2,411.2z M490.2,411.2H463V335c0-114.1-92.9-207-207-207c-62.7,0-119,28.1-157,72.3c-0.1,0.1-0.1,0.2-0.2,0.2
				C67.8,236.7,49,283.7,49,335v76.3H21.8V335c0-129.1,105.1-234.2,234.2-234.2S490.2,205.8,490.2,335V411.2z"/>
			<path class="st0" d="M287.8,262.5c-6,0-10.9,4.9-10.9,10.9v76.3c0,6,4.9,10.9,10.9,10.9h96.8c6,0,10.9-4.9,10.9-10.9v-76.3
				c0-6-4.9-10.9-10.9-10.9L287.8,262.5L287.8,262.5z M373.7,338.8h-75v-54.5h75V338.8z"/>
			<path class="st0" d="M333,218.2h18.2c6,0,10.9-4.9,10.9-10.9s-4.9-10.9-10.9-10.9H333c-6,0-10.9,4.9-10.9,10.9
				S326.9,218.2,333,218.2z"/>
		</g>
	</g>
</g>
</svg>
