<svg xmlns="http://www.w3.org/2000/svg" xmlns:xlink="http://www.w3.org/1999/xlink" viewBox="0 0 181.98 182.53"><defs><style>.cls-1{opacity:0.9;}.cls-2{fill:url(#radial-gradient);}.cls-3{fill:#fff;}</style><radialGradient id="radial-gradient" cx="53.31" cy="196.67" r="241.16" gradientUnits="userSpaceOnUse"><stop offset="0.1" stop-color="#ffd879"/><stop offset="0.15" stop-color="#fccb76"/><stop offset="0.26" stop-color="#f5aa6c"/><stop offset="0.4" stop-color="#e9755e"/><stop offset="0.45" stop-color="#e45f58"/><stop offset="0.68" stop-color="#d22a9c"/><stop offset="1" stop-color="#6968df"/></radialGradient></defs><title>Instagram</title><g id="Layer_2" data-name="Layer 2"><g id="Layer_5" data-name="Layer 5"><g class="cls-1"><path class="cls-2" d="M182,182H37.4c-20.64,0-37.4.58-37.4.58L0,0H182Z"/><path class="cls-3" d="M117.33,23.18H64.67A42.27,42.27,0,0,0,22.39,65.46v52.66a42.27,42.27,0,0,0,42.28,42.27h52.67a42.26,42.26,0,0,0,42.27-42.27V65.46A42.28,42.28,0,0,0,117.33,23.18Zm29.11,89.88a34.16,34.16,0,0,1-34.16,34.17H69.73a34.17,34.17,0,0,1-34.17-34.17V70.51A34.18,34.18,0,0,1,69.73,36.34h42.55A34.16,34.16,0,0,1,146.44,70.5Z"/><path class="cls-3" d="M91,55.93a36.14,36.14,0,1,0,38,38A36.3,36.3,0,0,0,91,55.93ZM94.6,113.7a21.75,21.75,0,1,1,19.92-19.92A21.76,21.76,0,0,1,94.6,113.7Z"/><path class="cls-3" d="M135.55,53.76A9.2,9.2,0,1,1,128,46.25,9.21,9.21,0,0,1,135.55,53.76Z"/></g></g></g></svg>