<svg xmlns="http://www.w3.org/2000/svg" viewBox="0 0 186.77 774.81"><defs><style>.cls-1{fill:none;}.cls-2{fill:#16120e;}.cls-3{fill:#35526e;}.cls-4{fill:#d99975;}.cls-5{fill:#c3896e;}.cls-6{fill:#243d56;}.cls-7{fill:#2b4462;}.cls-8{fill:#123347;}.cls-9{fill:#233a51;}.cls-10{fill:#cccbca;}.cls-11{fill:#2f4960;}.cls-12{fill:#fff;}.cls-13{fill:#f79a78;}.cls-14{fill:#4b5157;}.cls-15{fill:#96684f;}.cls-16{fill:#71c058;}.cls-17{fill:#415fab;}.cls-18{fill:#23160e;}.cls-19{fill:#481816;}.cls-20{fill:#1f150c;}.cls-21{fill:#cd534a;}.cls-22{fill:#f2e0d1;}</style></defs><title>Pro Bandi</title><g id="Layer_2" data-name="Layer 2"><g id="Layer_1-2" data-name="Layer 1"><path class="cls-1" d="M136.93,259.21l0-.17c0,.23,0,.47,0,.7C136.94,259.59,136.94,259.41,136.93,259.21Z"/><path class="cls-1" d="M141.78,280.87a59,59,0,0,0,5.16,9.81l-1.3-36.2-4.39-28q-.84,1.4-1.56,2.85l-.24.49c-.23.48-.43,1-.63,1.45-.06.14-.11.29-.17.44-.14.36-.27.73-.39,1.1l-.15.44c-.15.47-.28.94-.41,1.41l-.15.63c-.07.28-.13.57-.2.85s-.11.52-.16.78l-.12.67c-.09.56-.18,1.13-.26,1.69,0,.25-.07.51-.1.76-.1,1.06-.26,3.72-.29,4.1,0,.13,0,.26,0,.38,0,2,.37,11.48.52,14.72a5.88,5.88,0,0,1,0,1A68.4,68.4,0,0,0,141.78,280.87Z"/><path class="cls-1" d="M39.59,295.67l.27-.33h0l.19-.26c.3-.39.6-.78.88-1.18a5.72,5.72,0,0,0,.37-.49l.1-.13.13-.2h0c.08-.11.15-.23.22-.34.44-.65.86-1.31,1.27-2s.66-1.11,1-1.67.52-.91.76-1.37c.32-.61.64-1.23,1-1.86.22-.46.44-.91.65-1.38h0c.17-.38.36-.75.52-1.13h0l0,0c.46-1.07.91-2.15,1.32-3.23q1.11-2.85,2.06-5.81c.24-.73.46-1.47.68-2.21s.38-1.26.56-1.9l.39-1.46c.15-.61.31-1.21.46-1.82s.26-1.16.39-1.74.23-1,.34-1.58c.22-1.12.42-2.24.59-3.37a60.35,60.35,0,0,0,.55-14.45,42,42,0,0,0-3.69-13.16.64.64,0,0,0-.08-.14c-1.4-3.18-3-6.28-4.67-9.38l-4.68,29.85Z"/><path class="cls-1" d="M22.4,348.78c-1.33,5.92-1.88,17.62.71,23.89A156.68,156.68,0,0,1,34,322c.33-.8.66-1.61,1-2.42.12-.3.25-.6.37-.91l.64-1.53.42-1,.78-1.83c.07-.17.14-.34.22-.51-2.16.09-4.87.17-7.85.2Q26.24,331.45,22.4,348.78Z"/><path class="cls-1" d="M153.11,320.89c0,.1.06.21.1.31.4,1.27.79,2.53,1.16,3.8h0a151.89,151.89,0,0,1,6.23,45.41c0,2.77-.3,6.05-.72,9.74l.4-.62.18-.27.41-.61.23-.34.34-.49.29-.41.25-.35.5-.68c3.91-5.24,3.4-19.35,1.89-26.05q-3.87-17.32-7.13-34.76c-2.17,0-4.19-.07-6-.13l.54,1.56C152.26,318.3,152.69,319.59,153.11,320.89Z"/><path class="cls-1" d="M23.89,415.07a10.81,10.81,0,0,0,1.9,2.83c-.74-4.56-1.34-9.13-1.81-13.68C23.34,407.34,22.64,411.22,23.89,415.07Z"/><path class="cls-2" d="M64,80.23c-.14-.44-.27-.88-.4-1.32a.36.36,0,0,1,0,.11,3.58,3.58,0,0,0-.09-.35c-.2-.71-.38-1.43-.54-2.15l-.09-.43,0-.14c0,1.4.08,2.8.13,4.2a2.3,2.3,0,0,1,.26,0A2,2,0,0,1,64,80.23Z"/><path class="cls-2" d="M60.3,130.7l.3.09h0Z"/><path class="cls-2" d="M49,125.15a16.7,16.7,0,0,0,1.92,1.39,49.78,49.78,0,0,1-1.55-10.62Q49.05,120.53,49,125.15Z"/><path class="cls-2" d="M61.54,130.44l2.68-1a69.12,69.12,0,0,1-4.31-16.14C58.93,119.06,59.83,124.82,61.54,130.44Z"/><path class="cls-2" d="M141.11,124.08a29.73,29.73,0,0,1-5.26,3.54c-.44.23-.88.45-1.33.65,8.46-3.94,8.83-6.26,8.83-6.26.29-3.15.47-6.31.65-9.46A54,54,0,0,1,141.11,124.08Z"/><path class="cls-2" d="M110.41,99.68,106,102.53l.22,3,0,0c.48,7.53,1.2,15.72,2.1,17.58l2.39,1.27.63.37.23-.21,3.9,1.37a151.54,151.54,0,0,0,5.67-21.12c.7-3.22,1.4-6.43,2.09-9.65,1.16-5.35,1.21-10.72,1.87-16.15.09-.76.18-1.52.26-2.28A39.24,39.24,0,0,1,110.41,99.68Z"/><path class="cls-2" d="M136.62,109.38a42.36,42.36,0,0,1-7,20.55,27.16,27.16,0,0,0,4.85-1.66A61,61,0,0,0,136.62,109.38Z"/><path class="cls-2" d="M126.71,130.57c1-.17,1.94-.38,2.91-.62-1,.23-1.9.41-2.87.58Z"/><path class="cls-2" d="M79.49,120.8c.92-2.44,1.58-9.46,2-16l.18-2.81L78,99.67a39.23,39.23,0,0,1-13-16.56,2,2,0,0,1-1.64,1l-.26,0c0,1.16.11,2.31.17,3.47.73,13.49,2.43,27,7.6,39.42l2.86-1,2.58-1.19A9.93,9.93,0,0,0,79.49,120.8Z"/><path class="cls-3" d="M90.41,718.23h0v0Z"/><path class="cls-4" d="M62.05,758.87c1.54,1,18,1.14,21.83-3.07,3.36-3.66,3.6-6.16,4.51-10.92a124.85,124.85,0,0,0,2.16-18.69c0-1,.06-2.05.08-3.07,0-1.3,0-2.61-.15-3.91,0-.32,0-.64-.07-1v0c-.52-5.44-1.83-10.94-2.55-16.29-1.92-14.18-3.62-28.5-4-42.82-.07-2.64-.09-5.28,0-7.91,1.27-24.83,1.26-89.9,1.21-114.32H56.67a54.13,54.13,0,0,1-.43,7.16c-1.19,9.09-9.49,23.33-8.31,55.75,1.14,31,21.05,90.5,23.49,104-1.22,7.31-7.15,34.86-9.12,44.29-.3,1.46-1.74,5.81-1.37,8.62A2.87,2.87,0,0,0,62.05,758.87Z"/><path class="cls-5" d="M85.12,533.33c0-1.07,0-2,0-2.82v-2.62c0-.42,0-.64,0-.64H55.84v.06l0,.09v.06a54.42,54.42,0,0,1,.79,9.44H85.13C85.13,535.59,85.13,534.4,85.12,533.33Z"/><path class="cls-3" d="M120.49,758.87c-1.54,1-18,1.14-21.83-3.07-3.36-3.66-3.6-6.16-4.52-10.92A126.16,126.16,0,0,1,92,726.19c0-1-.07-2.05-.09-3.07s0-2.08.09-3.12c-.19,1.24-.45,2.85-.71,4.39-.32-2-.65-4-.8-5.18.1,1.3.17,2.61.15,3.91,0,1,0,2-.08,3.07a124.85,124.85,0,0,1-2.16,18.69c-.91,4.76-1.15,7.26-4.51,10.92C80,760,63.59,759.87,62.05,758.87a2.87,2.87,0,0,1-1.12-2.17,18.12,18.12,0,0,0-2.9,2.59,22.12,22.12,0,0,0-4.94,10.31c-.24,1.33-.45,3.93.6,5.21H80.15a13.34,13.34,0,0,0,9.15-8.67l0-.09a56,56,0,0,0,1.94-7.23,55.88,55.88,0,0,0,1.93,7.23l0,.09a13.36,13.36,0,0,0,9.15,8.67h26.47c1.05-1.28.84-3.88.6-5.21a22,22,0,0,0-4.95-10.31,18.49,18.49,0,0,0-2.89-2.59A2.91,2.91,0,0,1,120.49,758.87Z"/><path class="cls-4" d="M125.86,536.9H97.4c-.05,24.42-.06,89.49,1.22,114.32.13,2.63.11,5.27,0,7.91-.37,14.32-2.06,28.64-4,42.82-.8,5.92-2.31,12-2.68,18-.06,1-.1,2.08-.09,3.12s0,2,.09,3.07a126.16,126.16,0,0,0,2.15,18.69c.92,4.76,1.16,7.26,4.52,10.92,3.86,4.21,20.29,4.07,21.83,3.07a2.91,2.91,0,0,0,1.12-2.17c.37-2.81-1.07-7.16-1.38-8.62-2-9.43-7.9-37-9.12-44.29,2.45-13.48,22.36-73,23.49-104,1.19-32.42-7.12-46.66-8.3-55.75A52.58,52.58,0,0,1,125.86,536.9Z"/><path class="cls-5" d="M125.9,534.86a51.63,51.63,0,0,1,.79-7.61H97.43v.64c0,.4,0,1,0,1.69v.93c0,.8,0,1.75,0,2.82s0,2.26,0,3.57h28.46C125.86,536.19,125.88,535.51,125.9,534.86Z"/><path class="cls-6" d="M134.79,527.45a154.88,154.88,0,0,1,.8-28.23c1.25-9.09,11.6-50,18.59-85a25,25,0,0,1-3.57,1.39l-.49.15s.7-4.39,2.34-15.93a48.94,48.94,0,0,1,5.47-16.37l0,0c.16-.3.33-.59.49-.88l.33-.59c.33-.57.66-1.11,1-1.62a1.4,1.4,0,0,1,.1-.16l.07-.12c.42-3.69.67-7,.72-9.74A151.89,151.89,0,0,0,154.37,325c-25,6.39-51.23,8.34-76.74,4.75A172.85,172.85,0,0,1,51.56,324c-1.79-.55-8.59,26.47-9.1,28.8a193.91,193.91,0,0,0-3.83,58.5c2.48,27,9.24,54.05,23.68,77.24,6,9.56,13.43,16.2,20.73,24.45a83.64,83.64,0,0,0,16.37,14.25"/><path class="cls-7" d="M25.79,417.9h0c-.74-4.56-1.34-9.13-1.81-13.68h0C24.45,408.77,25.05,413.34,25.79,417.9Z"/><path class="cls-7" d="M28,429.44c.83,4,1.74,8,2.77,12,.16.64.32,1.27.49,1.91-.17-.64-.33-1.27-.49-1.91C29.71,437.43,28.79,433.43,28,429.44Z"/><path class="cls-8" d="M83,513c-7.3-8.25-14.78-14.89-20.73-24.45-14.44-23.19-21.2-50.24-23.68-77.24a193.91,193.91,0,0,1,3.83-58.5c.51-2.33,7.31-29.35,9.1-28.8a172.85,172.85,0,0,0,26.07,5.75c25.51,3.59,51.77,1.64,76.74-4.75h0c-.37-1.27-.76-2.53-1.16-3.8,0-.1-.07-.21-.1-.31-.42-1.3-.85-2.59-1.3-3.88l-.54-1.56c-4.11-.13-6.88-.31-6.88-.31l-1.6-6.5a177.18,177.18,0,0,1-36.23,6.92c-11.22-15-11.28-38.29-11.28-38.29a93.36,93.36,0,0,1-8.83,38.79,166.63,166.63,0,0,1-28.32-3.41h0c-.85-.18-1.68-.36-2.48-.55l-.16,0h-.07l-1.15-.27-1-.24-.18-.05-.12,0h-.07l-1.34-.34L51,311l-.33-.09-.19-.05-1.37-.37-.32-.08-.3-.08-.31-.09-1.38-.4-.14,0h0l-.16-.05-.5-.15c-.78-.23-1.54-.47-2.27-.7h0l-.07,0-1.17,4.75s-2,.12-5,.24c-.08.17-.15.34-.22.51l-.78,1.83-.42,1-.64,1.53c-.12.31-.25.61-.37.91-.34.81-.67,1.62-1,2.42a156.68,156.68,0,0,0-10.84,50.65,10.35,10.35,0,0,0,1.18,2.17l.5.68.25.34c.09.14.19.27.29.41l.34.49.23.34.41.61.18.27c.16.24.31.48.47.74,0,0,.07.11.11.17.32.5.64,1.05,1,1.61.11.2.22.4.34.6l.49.88,0,0a49,49,0,0,1,5.47,16.37c1.64,11.54,2.34,15.94,2.34,15.94l-.48-.16c-5.77-1.87-6.15-2.88-6.68-6.86S24.58,399,24.58,399c.28,1.17-.15,3-.6,5.18.47,4.55,1.07,9.12,1.81,13.68,2.3,2.77,5.93,6.49,7.28,9.45,1.56,3.43.2,5.22.2,5.22-2.06-1.56-3.92-3.08-5.63-4.59.1.49.22,1,.32,1.46.83,4,1.75,8,2.77,12,.16.64.32,1.27.49,1.91v0c.15.62.31,1.25.47,1.88l0,.17c.15.57.29,1.15.44,1.72l.09.37c.12.51.25,1,.37,1.51l.15.57.33,1.36.12.47c.12.48.23,1,.35,1.45,0,.17.09.34.13.51l.33,1.38c.05.19.09.38.14.57l.33,1.35c0,.19.09.38.13.57.11.43.21.86.31,1.29.06.23.11.45.17.68l.3,1.26c0,.19.09.39.13.58.11.43.21.86.31,1.29L36,463l.3,1.29c0,.18.09.37.13.55.11.45.21.91.32,1.36,0,.17.08.33.11.5l.33,1.41c0,.15.07.3.11.45.1.47.21.93.32,1.39,0,.17.08.34.11.51l.33,1.44c0,.11.06.23.08.34l.36,1.58.06.25c.12.52.23,1,.35,1.55l.07.31c.13.56.25,1.12.38,1.68l0,.09.39,1.72,0,.1c.18.8.35,1.59.53,2.38.08.38.17.76.25,1.14s.19.84.28,1.26l.24,1.1.27,1.24c.08.36.16.71.23,1.06s.19.86.28,1.29l.21,1c.1.44.19.88.29,1.31s.13.62.2.92.19.89.28,1.32.14.63.2.94.18.82.26,1.22l.21,1c.08.38.17.77.25,1.15s.13.65.2,1,.16.74.23,1.1l.21.95.24,1.16c0,.27.11.54.17.81l.24,1.16c.06.26.11.53.16.79s.17.78.25,1.17l.15.72c.07.37.15.74.23,1.1l.15.75.21,1c.05.26.1.53.16.78l.18.88c0,.27.11.54.16.8l.27,1.34,0,.21c.07.38.15.75.22,1.12l.15.71c.08.42.16.83.25,1.24l0,.11c.09.44.17.87.25,1.28,0,.12.05.24.08.37.06.31.13.63.19.93l0,.29c.07.34.14.68.2,1l0,.1c.07.34.14.67.2,1l0,.29c.06.26.11.52.16.77,0,.08,0,.15,0,.22l.15.74a1.55,1.55,0,0,0,0,.21l.12.62,0,.24.09.47,0,.27c0,.13,0,.25.07.37l0,.26c0,.13.05.25.07.36l0,.08,0,.25,0,.24v0c0,.08,0,.16,0,.21H99.41A83.64,83.64,0,0,1,83,513Z"/><path class="cls-3" d="M136.41,244.15v.34c0-.12,0-.25,0-.38Z"/><path class="cls-3" d="M139.45,229.79c-.23.48-.43,1-.63,1.45.2-.49.4-1,.63-1.45Z"/><path class="cls-3" d="M46.91,283.32a.61.61,0,0,1,.05-.12,88.81,88.81,0,0,0,3.33-8.92q-.95,3-2.06,5.81C47.82,281.17,47.37,282.25,46.91,283.32Z"/><path class="cls-3" d="M53.7,260.2c1.1-6,1.7-12.42.09-17.86A35.92,35.92,0,0,0,52,235.46a19.56,19.56,0,0,0-1.4-2.87,42,42,0,0,1,3.69,13.16A60.35,60.35,0,0,1,53.7,260.2Z"/><path class="cls-3" d="M45.22,139.2l-.59.22.59-.21Z"/><path class="cls-3" d="M136.77,239.6a2.27,2.27,0,0,0-.06.41c0-.25.07-.51.1-.76C136.8,239.37,136.78,239.48,136.77,239.6Z"/><path class="cls-3" d="M43.55,308.83l.07,0-.07,0Z"/><path class="cls-9" d="M74.82,168.11l-8.45,4.28.42.73-2.23,1,29.81,47.63h0l25.37-46.31-2.28-1.6.08-.17-7-5.33,15.43.07,23.11-25c-1.41-.62-2.81-1.27-4.21-1.91l.24-.28,2.27-2.65L129.41,132l-1.25,1.58,0,.07L105.61,162l-3.18-4.88h0l-.05-.09L92.73,194.2,82,158.71,79.85,162,57.73,134.14h0l-.9-1.14,2.73-.94,0,0L44.09,137.3l1.13,1.9h0l-.59.21-.87.32-1.51.53-.78.27h0L56.6,164.36Z"/><polygon class="cls-10" points="102.38 157.04 102.43 157.13 102.43 157.13 102.38 157.04 102.38 157.04"/><path class="cls-4" d="M33.07,427.35c-1.35-3-5-6.68-7.28-9.45h0a10.81,10.81,0,0,1-1.9-2.83c-1.25-3.85-.55-7.73.09-10.85h0c.45-2.19.88-4,.6-5.18,0,0,4.37,4.09,4.91,8.19s.91,5,6.68,6.86l.48.16s-.7-4.4-2.34-15.94a49,49,0,0,0-5.47-16.37,47.65,47.65,0,0,1-5.79-7.9c-.67-1.08-1.37-2.28-2.1-3.61-6.28-11.36-1.22-30.46-1.66-31.61-.37-1-9.27-2-12.11-2.3q.08-7.08.26-14.16c-.43,16.64-.53,33.33.33,50,.15,2.82.32,5.65.59,8.47,1.58,16.3-.1,30.13,19.28,47.18h0c1.71,1.51,3.57,3,5.63,4.59C33.27,432.57,34.63,430.78,33.07,427.35Z"/><path class="cls-5" d="M19.29,338.82c.44,1.15-4.62,20.25,1.66,31.61.73,1.33,1.43,2.53,2.1,3.61a47.65,47.65,0,0,0,5.79,7.9l0,0-.49-.88c-.12-.2-.23-.4-.34-.6-.33-.56-.65-1.11-1-1.61,0-.06-.07-.12-.11-.17-.16-.26-.31-.5-.47-.74l-.18-.27-.41-.61-.23-.34-.34-.49c-.1-.14-.2-.27-.29-.41l-.25-.34-.5-.68a10.35,10.35,0,0,1-1.18-2.17c-2.59-6.27-2-18-.71-23.89q3.87-17.32,7.13-34.76c-7.14.09-15.76-.11-21.79-1.23q-.18,4.79-.3,9.57-.18,7.08-.26,14.16C10,336.83,18.92,337.85,19.29,338.82Z"/><path class="cls-11" d="M32.24,299.23c1.45.08,2.84.12,4.17.13h0l.29-.3c.31-.33.62-.67.92-1l0-.05c.31-.36.62-.72.92-1.09s.67-.82,1-1.23l1.54-42.75,4.68-29.85c-1.64-3.14-3.25-6.28-4.58-9.52l-.06-.14c-.22-.55-.44-1.1-.64-1.65l-.15-.4c-.18-.51-.36-1-.53-1.54l-.12-.36c-.2-.64-.39-1.28-.56-1.93a27.51,27.51,0,0,1-.79-4.55c-.68-7.67,2-14.27,3.52-22.13a13.68,13.68,0,0,0,.21-1.51c0-.12,0-.24,0-.35,0-.38,0-.75,0-1.11,0-.16,0-.33,0-.49,0-.32,0-.64-.07-.95s0-.35-.07-.52-.09-.6-.15-.9-.07-.34-.11-.52-.15-.59-.23-.89l-.15-.49c-.09-.31-.2-.62-.31-.92-.06-.14-.1-.29-.16-.43-.13-.34-.28-.69-.43-1l-.12-.29a38.33,38.33,0,0,0-2.15-4l-.07-.11c-.24-.41-.49-.8-.75-1.2l-.07-.11c-.9-1.39-1.83-2.75-2.73-4.09l0,0h0a35.73,35.73,0,0,1,4.14,3.87c3.3,4.06,6.92,8.11,7.79,13.46s-.79,10.58-1.85,15.7a36.28,36.28,0,0,0,.55,18.13,14.8,14.8,0,0,0,1.74,3.9c2.18,3.42,5.62,5.47,9.77,7.18,9.2,3.79,19.88,3.67,29.61,2.62a17.32,17.32,0,0,0,7.27-2,4.24,4.24,0,0,1,1.48-.72c1.83-.29,5.31,1.8,7.37,2.05,3.2.4,6.45.15,9.66.42,6,.49,12,2,18,2.52,2.19-3.94,5.68-5.63,9.35-8.19l.7-.49c6-4.29,10.22-9.08,11.89-16.63a40.27,40.27,0,0,0-.62-18c-1.27-5-6-9.41-4.77-14.95a24.14,24.14,0,0,1,4.08-8.74,35.94,35.94,0,0,1,2.73-3.3l0,0a30.94,30.94,0,0,0-1.79,3.88c-.1.25-.22.5-.31.75a19,19,0,0,0-1.1,4.8,11.53,11.53,0,0,0,.14,3.16c.05.25.11.49.18.73a31.29,31.29,0,0,0,1.18,3.37c4.37,11.14,5.44,22.84.7,34.09-2.77,6.57-7.62,11.87-11.23,18-.55.93-1.07,1.89-1.55,2.86q.72-1.45,1.56-2.85l4.39,28,1.3,36.2a59,59,0,0,1-5.16-9.81,68.4,68.4,0,0,1-4.8-20.68.4.4,0,0,1,0,.11s0-.18,0-.56,0-.47,0-.7a29.81,29.81,0,0,0-.75-3.35c-.1-.37-.2-.76-.32-1.16-.39-1.36-.85-2.88-1.35-4.47l-.74-2.33c-2.45-7.75-5.22-16.44-4.08-18.86q.19-.39.39-.75c-20.19-.64-47,.22-61.7,13.28A33.29,33.29,0,0,0,60.17,253c0,.17.11.34.16.51.15.52.31,1.05.47,1.57,2.22,7.31,5,14.39,9.54,20.52q-4.25-4.33-8.25-8.87a34.3,34.3,0,0,1-3.69-4.81,83.77,83.77,0,0,1-1.55,9.69,68.35,68.35,0,0,0,5.78,8.89,31.18,31.18,0,0,1-6.44-5.9c-.73,3.18-1.5,6.35-2.16,9.47-1.17,5.6-2.35,11.32-1.61,17a19,19,0,0,0,5.71,11.63,166.63,166.63,0,0,0,28.32,3.41,93.36,93.36,0,0,0,8.83-38.79s.06,23.27,11.28,38.29a177.18,177.18,0,0,0,36.23-6.92l-2.25-9.16a15.46,15.46,0,0,0,5.77,1.31h0l1,.06a70.42,70.42,0,0,0,7.22-.06l1.19-.08a219,219,0,0,0,22.61-3c2.06-.36,3.84-.69,5.23-1-.14-19.56-5.19-31.46-9.66-45.15,0-80.5-10.77-100.74-12.42-103.36-.09-.17-.17-.26-.18-.29l0,0c-5.41-2.06-10.81-4.33-16.2-6.7l-.24.28c1.4.64,2.8,1.29,4.21,1.91l-23.11,25-15.43-.07,7,5.33-.08.17,2.28,1.6L94.37,221.79h0L64.56,174.16l2.23-1-.42-.73,8.45-4.28L56.6,164.36,41.47,140.54c-5.36,1.83-10.82,3.45-16,5.88h0s-.09.12-.18.29c-1.65,2.62-12.42,22.86-12.42,103.36-4.47,13.69-9.52,25.59-9.66,45.15,1.39.27,3.17.6,5.23,1A216.08,216.08,0,0,0,32.24,299.23Z"/><path class="cls-6" d="M29.53,314c3,0,5.69-.11,7.85-.2,3-.12,5-.24,5-.24l1.17-4.75h0l.07,0h0c.73.23,1.49.47,2.27.7l.5.15.16.05h0l.14,0,1.38.4.31.09.3.08.32.08,1.37.37.19.05L51,311l.58.15,1.34.34h.07l.12,0,.18.05,1,.24,1.15.27h.07l.16,0c.8.19,1.63.37,2.48.55h0A19,19,0,0,1,52.42,301c-.74-5.66.44-11.38,1.61-17,.66-3.12,1.43-6.29,2.16-9.47a31.18,31.18,0,0,0,6.44,5.9,68.35,68.35,0,0,1-5.78-8.89,83.77,83.77,0,0,0,1.55-9.69,34.3,34.3,0,0,0,3.69,4.81q4,4.55,8.25,8.87c-4.5-6.13-7.32-13.21-9.54-20.52-.16-.52-.32-1.05-.47-1.57,0-.17-.11-.34-.16-.51a33.29,33.29,0,0,1,8.18-11.57c14.69-13.06,41.51-13.92,61.7-13.28q-.2.36-.39.75c-1.14,2.42,1.63,11.11,4.08,18.86l.74,2.33c.5,1.59,1,3.11,1.35,4.47.12.4.22.79.32,1.16a29.81,29.81,0,0,1,.75,3.35l0,.17c-.15-3.24-.52-12.71-.52-14.72v-.38c0-.38.19-3,.29-4.1a2.27,2.27,0,0,1,.06-.41c0-.12,0-.23,0-.35.08-.56.17-1.13.26-1.69l.12-.67c.05-.26.11-.52.16-.78s.13-.57.2-.85l.15-.63c.13-.47.26-.94.41-1.41l.15-.44c.12-.37.25-.74.39-1.1.06-.15.11-.3.17-.44.2-.49.4-1,.63-1.45h0l.24-.49c.48-1,1-1.93,1.55-2.86,3.61-6.1,8.46-11.4,11.23-18,4.74-11.25,3.67-22.95-.7-34.09a31.29,31.29,0,0,1-1.18-3.37c-.07-.24-.13-.48-.18-.73a11.53,11.53,0,0,1-.14-3.16,19,19,0,0,1,1.1-4.8c.09-.25.21-.5.31-.75a30.94,30.94,0,0,1,1.79-3.88l0,0a35.94,35.94,0,0,0-2.73,3.3,24.14,24.14,0,0,0-4.08,8.74c-1.24,5.54,3.5,10,4.77,14.95a40.27,40.27,0,0,1,.62,18c-1.67,7.55-5.92,12.34-11.89,16.63l-.7.49c-3.67,2.56-7.16,4.25-9.35,8.19-6-.52-12-2-18-2.52-3.21-.27-6.46,0-9.66-.42-2.06-.25-5.54-2.34-7.37-2.05a4.24,4.24,0,0,0-1.48.72,17.32,17.32,0,0,1-7.27,2c-9.73,1.05-20.41,1.17-29.61-2.62-4.15-1.71-7.59-3.76-9.77-7.18a14.8,14.8,0,0,1-1.74-3.9A36.28,36.28,0,0,1,44.63,194c1.06-5.12,2.71-10.42,1.85-15.7s-4.49-9.4-7.79-13.46a35.73,35.73,0,0,0-4.14-3.87h0l0,0c.9,1.34,1.83,2.7,2.73,4.09l.07.11c.26.4.51.79.75,1.2l.07.11a38.33,38.33,0,0,1,2.15,4l.12.29c.15.34.3.69.43,1,.06.14.1.29.16.43.11.3.22.61.31.92l.15.49c.08.3.16.59.23.89s.07.35.11.52.11.6.15.9,0,.35.07.52,0,.63.07.95c0,.16,0,.33,0,.49,0,.36,0,.73,0,1.11,0,.11,0,.23,0,.35a13.68,13.68,0,0,1-.21,1.51c-1.52,7.86-4.2,14.46-3.52,22.13a27.51,27.51,0,0,0,.79,4.55c.17.65.36,1.29.56,1.93l.12.36c.17.51.35,1,.53,1.54l.15.4c.2.55.42,1.1.64,1.65l.06.14c1.33,3.24,2.94,6.38,4.58,9.52s3.27,6.2,4.67,9.38a.64.64,0,0,1,.08.14,19.56,19.56,0,0,1,1.4,2.87,35.92,35.92,0,0,1,1.83,6.88c1.61,5.44,1,11.88-.09,17.86-.17,1.13-.37,2.25-.59,3.37-.11.53-.23,1.05-.34,1.58s-.25,1.17-.39,1.74-.31,1.21-.46,1.82l-.39,1.46c-.18.64-.37,1.27-.56,1.9s-.44,1.48-.68,2.21A88.81,88.81,0,0,1,47,283.2a.61.61,0,0,0-.05.12l0,0h0c-.16.38-.35.75-.52,1.13h0c-.21.47-.43.92-.65,1.38-.31.63-.63,1.25-1,1.86-.24.46-.5.92-.76,1.37s-.64,1.12-1,1.67-.83,1.32-1.27,2c-.07.11-.14.23-.22.34h0l-.13.2-.1.13a5.72,5.72,0,0,1-.37.49c-.28.4-.58.79-.88,1.18l-.19.26h0l-.27.33c-.32.41-.65.83-1,1.23s-.61.73-.92,1.09l0,.05c-.3.34-.61.68-.92,1l-.29.3h0c-1.33,0-2.72-.05-4.17-.13a216.08,216.08,0,0,1-23.8-3c-2.06-.37-3.84-.7-5.23-1-2-.39-3.21-.65-3.21-.65s.51,3.86,1,15.66c1.15,1.16,3.59,2,6.72,2.55C13.77,313.91,22.39,314.11,29.53,314ZM9.59,304a2.18,2.18,0,0,1-1.5.33,2.35,2.35,0,0,1-1.64-1l-.39-.57a2.3,2.3,0,0,1,.65-3.15,2.25,2.25,0,0,1,1.59-.33,2.3,2.3,0,0,1,1.57,1c.1.16.21.32.31.49a2.38,2.38,0,0,1,.28.55h0l0,.07a.43.43,0,0,1,0-.07A2.28,2.28,0,0,1,9.59,304Z"/><path class="cls-12" d="M10.18,300.76c-.1-.17-.21-.33-.31-.49a2.3,2.3,0,0,0-1.57-1,2.25,2.25,0,0,0-1.59.33,2.3,2.3,0,0,0-.65,3.15l.39.57a2.35,2.35,0,0,0,1.64,1,2.18,2.18,0,0,0,1.5-.33,2.28,2.28,0,0,0,.87-2.68A2.38,2.38,0,0,0,10.18,300.76Z"/><path class="cls-12" d="M10.46,301.31h0a.43.43,0,0,0,0,.07Z"/><path class="cls-4" d="M167.48,340.38c-.44,1.15,4.62,20.25-1.65,31.6a69.34,69.34,0,0,1-6.09,9.42c-.68.86-1.29,1.55-1.81,2.1a48.94,48.94,0,0,0-5.47,16.37c-1.64,11.54-2.34,15.93-2.34,15.93l.49-.15a25,25,0,0,0,3.57-1.39c2.39-1.23,2.71-2.56,3.1-5.47.54-4.1,4.91-8.19,4.91-8.19-.68,2.85,2.82,9.48.69,16-.77,2.36-7.27,8.09-9.18,12.28-1.56,3.43-.2,5.22-.2,5.22,25.36-19.22,23.2-34,24.91-51.77.27-2.82.44-5.65.59-8.47.86-16.64.76-33.33.33-50q.18,7.08.26,14.16C176.75,338.38,167.85,339.41,167.48,340.38Z"/><path class="cls-13" d="M159.81,380.28l.07-.12.4-.62-.4.62Z"/><path class="cls-5" d="M157.24,315.58q3.28,17.43,7.13,34.76c1.51,6.7,2,20.81-1.89,26.05l-.5.68-.25.35-.29.41-.34.49-.23.34-.41.61-.18.27-.4.62-.07.12a1.4,1.4,0,0,0-.1.16c-.32.51-.65,1.05-1,1.62l-.33.59c-.16.29-.33.58-.49.88l0,0c.52-.55,1.13-1.24,1.81-2.1a69.34,69.34,0,0,0,6.09-9.42c6.27-11.35,1.21-30.45,1.65-31.6.37-1,9.27-2,12.11-2.3q-.08-7.08-.26-14.16-.12-4.79-.3-9.57C173,315.47,164.38,315.67,157.24,315.58Z"/><path class="cls-6" d="M186.77,296.14s-1.2.26-3.21.65c-1.39.27-3.17.6-5.23,1a219,219,0,0,1-22.61,3l-1.19.08a70.42,70.42,0,0,1-7.22.06l-1-.06h0a15.46,15.46,0,0,1-5.77-1.31l2.25,9.16,1.6,6.5s2.77.18,6.88.31c1.78.06,3.8.11,6,.13,7.14.09,15.76-.11,21.79-1.23,3.13-.58,5.57-1.39,6.73-2.55C186.26,300,186.77,296.14,186.77,296.14Zm-6.06,8.18-.39.58a2.35,2.35,0,0,1-1.64,1,2.24,2.24,0,0,1-1.5-.33,2.31,2.31,0,0,1-.87-2.68.43.43,0,0,1,0,.07l0-.08h0a3.55,3.55,0,0,1,.28-.55c.1-.17.21-.33.32-.49a2.22,2.22,0,0,1,1.56-1,2.24,2.24,0,0,1,2.24,3.47Z"/><path class="cls-12" d="M180.06,301.17a2.3,2.3,0,0,0-1.59-.32,2.22,2.22,0,0,0-1.56,1c-.11.16-.22.32-.32.49a3.55,3.55,0,0,0-.28.55,2.31,2.31,0,0,0,.87,2.68,2.24,2.24,0,0,0,1.5.33,2.35,2.35,0,0,0,1.64-1l.39-.58A2.3,2.3,0,0,0,180.06,301.17Z"/><path class="cls-12" d="M176.27,302.94a.43.43,0,0,0,0-.07h0Z"/><polygon class="cls-4" points="92.73 141.92 92.58 142.09 92.73 142.2 92.88 142.09 92.73 141.92"/><path class="cls-4" d="M109.9,126.06l.51-.47.44-.41.43-.4-.63-.37-2.39-1.27c-.9-1.86-1.62-10-2.1-17.58L100,110a9.74,9.74,0,0,1-11.58,0l-6.9-5.09v-.1c-.44,6.52-1.1,13.54-2,16a9.93,9.93,0,0,1-3.11,3.94l-2.58,1.19L75,125.5l1,.93.94.87.22.21,6.09,5.62,9.52,8.79,10.07-9.3Z"/><polygon class="cls-12" points="99.9 153.24 92.73 142.2 86.41 151.92 81.99 158.71 92.73 194.2 102.38 157.04 102.38 157.04 99.9 153.24"/><polygon class="cls-14" points="125.31 132.28 125.27 132.33 105.61 156.27 103.28 153.67 103.26 153.65 102.31 152.6 92.92 142.13 92.89 142.1 92.88 142.09 92.73 142.2 99.9 153.24 102.38 157.04 102.43 157.13 105.61 162.01 128.11 133.66 128.16 133.59 129.41 132.01 126.56 130.76 126.43 130.91 125.31 132.28"/><polygon class="cls-14" points="92.73 142.2 92.57 142.09 84.39 151.21 80.92 155.07 80.9 155.1 79.85 156.27 60.49 133.17 60.49 133.17 59.56 132.06 56.83 133 57.73 134.14 57.73 134.15 79.85 162.01 81.99 158.71 86.41 151.92 92.73 142.2"/><path class="cls-12" d="M60.49,133.17h0l19.36,23.1,1.05-1.17,0,0,3.47-3.86,8.18-9.12.16.11-.15-.11.15-.17-9.52-8.79-6.09-5.62-.22-.21-.94-.87-1-.93-1.16.43-2.86,1,.09.23.34.79h0c.07.17.15.34.23.51s.19.43.29.64h0c.57,1.23,1.15,2.46,1.79,3.66-2.83-.25-5.67-.55-8.48-1,0-.06,0-.13-.08-.2h0c-.13-.28-.24-.56-.36-.85-.06-.13-.12-.26-.17-.4h0v0a1.17,1.17,0,0,1,0-.11c-.1-.25-.21-.49-.31-.74l-2.68,1,.18.63-1.1-.29h0l-1.61.59.55.65,0,0Z"/><path class="cls-12" d="M126.23,130.61l-.43.07-.14,0-.65.07q-1.14.15-2.28.24h-.23l-.9.07c-2.8.19-5.64.2-8.43.2.45-.94.86-1.89,1.26-2.85.1-.25.2-.5.31-.75l.06-.16.09-.26.12-.3a2.6,2.6,0,0,1,.1-.25l.3-.8-3.9-1.37-.23.21-.43.4-.44.41-.51.47-7.1,6.56-10.07,9.3.15.18h0l0,0,9.4,10.47.94,1.05,0,0,2.33,2.6,19.66-23.94,0,0,1.12-1.38.13-.15.15-.19,0,0Z"/><path class="cls-15" d="M106,102.53h0l-5.9,3.79a9.74,9.74,0,0,1-11.58,0L81.69,102h0l-.18,2.81v.1l6.9,5.09A9.74,9.74,0,0,0,100,110l6.17-4.43,0,0Z"/><path class="cls-4" d="M63.6,78.91c.13.44.26.88.4,1.32A2,2,0,0,1,65.34,82a2.07,2.07,0,0,1-.27,1.08A39.23,39.23,0,0,0,78,99.67L81.69,102h0l6.8,4.33a9.74,9.74,0,0,0,11.58,0l5.9-3.79h0l4.44-2.85A39.24,39.24,0,0,0,125.3,76.74c0-.37.09-.74.13-1.11.88-7.87,1.33-15.73-.75-23.34-.15-.52-.3-1-.46-1.55,0,0,0,0,0-.06h0q-.36-1.08-.75-2.16a17.29,17.29,0,0,0-5.55-1c-3.17.11-9.87,3.5-12.42,4.85a1.26,1.26,0,0,1-1.65-.41,1.22,1.22,0,0,1,.46-1.77c2.6-1.35,8.7-4.37,11.78-4.47,1.94-.07,4.74,1,7.1,2.11a45.21,45.21,0,0,0-2.51-5.48c-1.24-1.45-2.52-2.86-3.89-4.19a72.33,72.33,0,0,0-5.49-4.85c-1.64-1.31-3.57-3.11-5.57-3.82a14,14,0,0,1-1.07,2.89c-.53.87-1.08,1.74-1.67,2.57a39.25,39.25,0,0,1-4,4.8,41.94,41.94,0,0,1-9.87,7.45c-1,.57-2.2,1.14-3.41,1.69,1,.49,1.93,1,2.6,1.3a1.24,1.24,0,0,1,.6.7l.07,0A19.84,19.84,0,0,1,91,55.53c.59,2.34,1,5.21.6,11.4,0,0-.84-10.94-3.69-14.31a1.58,1.58,0,0,1-.12-.15,1.25,1.25,0,0,1-.73-.12c-1-.53-2.66-1.38-4.48-2.22-5.69,2.11-12.29,3.34-17.38,1.43,0,.27-.09.54-.13.82-.77,4.71-1.83,9.11-2.3,13.74q0,3.87,0,7.74c.08.6.17,1.19.26,1.79C63.27,76.78,63.46,77.89,63.6,78.91Zm49.17-24.18a3.59,3.59,0,0,0,.43-2.9,3.14,3.14,0,0,1,.73,2.89,9.15,9.15,0,0,1,1.32.17,3.38,3.38,0,0,0,1.06-2.73,3.46,3.46,0,0,1,.17,3.07,10.65,10.65,0,0,1,1.49.66,2.33,2.33,0,0,0,.56-.61,2.78,2.78,0,0,0,.42-1.72,3.28,3.28,0,0,1,.16,1.91,3,3,0,0,1-.35.88c.43.28.83.56,1.22.86a3.38,3.38,0,0,0,2-2.36.49.49,0,0,1,0,.12,3.37,3.37,0,0,1-.31,2l-.16.23a3.07,3.07,0,0,1-.6.69l.4.32a12.45,12.45,0,0,0,1.86,1.28s-1,.55-2.29,1.2a22.57,22.57,0,0,1-5,2h0a13.6,13.6,0,0,1-6,.42,15.51,15.51,0,0,1-3.68-1l-3.46-.23S107.56,55.22,112.77,54.73Zm-10.26,31.6a5.76,5.76,0,0,0,3.67-.73h0a13.08,13.08,0,0,1-2.71,4.18q-.21.23-.45.45c-.14.13-.29.27-.45.4a16.71,16.71,0,0,1-1.66,1.25,6,6,0,0,1-2.26,1.06l-.17,0c-.61.08-2.43.24-2.43.24a18.41,18.41,0,0,1-5.34-.37,8.87,8.87,0,0,1-2.38-1,11.57,11.57,0,0,1-1.81-1.25c-.26-.23-.53-.45-.78-.65-.55-.42-1-.77-1.29-1s-2.26-3-2.26-3a13.32,13.32,0,0,0,6.32-.49,7.69,7.69,0,0,1,5.63.27l.21.11a6.32,6.32,0,0,1,4.54-.46,11.84,11.84,0,0,0,2.16.7C101.49,86.22,102,86.28,102.51,86.33ZM89.15,77.82s0-.06,0-.08a.29.29,0,0,1,0-.09,1.33,1.33,0,0,1,.4-.68l.14-.13c-.34.58-.55,1.58,1.53,2.06a6.74,6.74,0,0,0,2.56.87l.43,0h.44l.43,0a6.74,6.74,0,0,0,2.56-.87c2.08-.48,1.87-1.48,1.53-2.06l.14.13a1.26,1.26,0,0,1,.4.68.29.29,0,0,1,0,.09.19.19,0,0,1,0,.08,1.64,1.64,0,0,1,0,.23,2.2,2.2,0,0,1-.07.56,2.77,2.77,0,0,1-.23.64C99,80.17,97,81,97,81a4.38,4.38,0,0,1-2.52.84A4.62,4.62,0,0,1,91.91,81s-2-.79-2.48-1.71a3.33,3.33,0,0,1-.23-.64,2.2,2.2,0,0,1-.07-.56A1.64,1.64,0,0,1,89.15,77.82ZM70.1,57a3.3,3.3,0,0,1-.29-2.1,3.27,3.27,0,0,0,1.93,2.3c.38-.28.77-.56,1.19-.83a2.81,2.81,0,0,1-.34-.86,3.2,3.2,0,0,1,.15-1.86,2.74,2.74,0,0,0,.41,1.68,2.38,2.38,0,0,0,.55.59,10.21,10.21,0,0,1,1.46-.64,3.37,3.37,0,0,1,.16-3,3.27,3.27,0,0,0,1,2.66,9.9,9.9,0,0,1,1.28-.17A3.07,3.07,0,0,1,78.35,52a3.51,3.51,0,0,0,.43,2.83c5.08.48,9.86,7,9.86,7L85.26,62h0a15.18,15.18,0,0,1-3.59,1,13.15,13.15,0,0,1-5.89-.42,4,4,0,0,1-.56-.17c-2.3.2-3.92-1.91-6.59-2.94a13.11,13.11,0,0,0,2.21-1.56A3,3,0,0,1,70.1,57Z"/><path class="cls-4" d="M104.7,86.87c.66-.55,1.44-1.23,1.48-1.27l-1.56,1.29-.81.68h0A7.51,7.51,0,0,0,104.7,86.87Z"/><polygon class="cls-4" points="85.08 87.59 82.2 86.02 85.08 87.59 85.08 87.59"/><path class="cls-4" d="M62.87,75.92v0l0,.14Z"/><path class="cls-15" d="M89.07,47.18a41.94,41.94,0,0,0,9.87-7.45,39.25,39.25,0,0,0,4-4.8c.59-.83,1.14-1.7,1.67-2.57a14,14,0,0,0,1.07-2.89c2,.71,3.93,2.51,5.57,3.82a72.33,72.33,0,0,1,5.49,4.85c1.37,1.33,2.65,2.74,3.89,4.19a35.81,35.81,0,0,0-5.24-7.4,62.08,62.08,0,0,0-10.33-8.4,22.42,22.42,0,0,1-4.28,8.1,38,38,0,0,1-14.58,11,30,30,0,0,1-4.54,1.45c1.37.55,2.75,1.17,4,1.76C86.87,48.32,88,47.75,89.07,47.18Z"/><path class="cls-15" d="M65.21,51.56c5.09,1.91,11.69.68,17.38-1.43a39.39,39.39,0,0,0-6-2.3,26,26,0,0,1-4.41-.12,32.81,32.81,0,0,0-7.31,2.49,52.85,52.85,0,0,1,5.34-2.78c-.72-.14-1.43-.3-2.14-.51a15.06,15.06,0,0,0,5-2.42,60.12,60.12,0,0,0,12-10.72h0l.21-.22h0c-3.41,2-6.85,4.07-10.16,6.33a63.83,63.83,0,0,0-11.49,9.7c0,.3-.05.61-.08.92-.46,5.2-.68,10.41-.73,15.62.47-4.63,1.53-9,2.3-13.74C65.12,52.1,65.17,51.83,65.21,51.56Z"/><path class="cls-15" d="M63,76.52c.16.72.34,1.44.54,2.15a3.58,3.58,0,0,1,.09.35.36.36,0,0,0,0-.11c-.14-1-.33-2.13-.52-3.26-.09-.6-.18-1.19-.26-1.79,0,.59,0,1.19,0,1.78,0,.1,0,.19,0,.28l0,.17Z"/><path class="cls-16" d="M65.07,83.11A2.07,2.07,0,0,0,65.34,82a2,2,0,0,0-2.08-1.91,2.3,2.3,0,0,0-.26,0c0,.19,0,.37,0,.55l.26,0a1.53,1.53,0,0,1,1,.33,1.46,1.46,0,0,1,.53,1.06,1.13,1.13,0,0,1,0,.32,1.44,1.44,0,0,1-1.37,1.19,1.13,1.13,0,0,1-.26,0l0,.54.26,0A2,2,0,0,0,65.07,83.11Z"/><path class="cls-17" d="M64.77,82.37a1.13,1.13,0,0,0,0-.32A1.46,1.46,0,0,0,64.26,81a1.53,1.53,0,0,0-1-.33l-.26,0,.12,2.85a1.13,1.13,0,0,0,.26,0A1.44,1.44,0,0,0,64.77,82.37Z"/><path class="cls-12" d="M86.9,61.21a22.32,22.32,0,0,0-4.27-3.37,3.64,3.64,0,0,1,.23,1.24,3.5,3.5,0,1,1-5.42-2.93c-3,.15-5,3.08-5,3.08a16.47,16.47,0,0,1,1.26,1.63,18.3,18.3,0,0,0,1.5,1.55h0a4,4,0,0,0,.56.17,13.15,13.15,0,0,0,5.89.42,15.18,15.18,0,0,0,3.59-1h0Z"/><path class="cls-18" d="M75.86,59.08a3.5,3.5,0,0,0,7,0,3.64,3.64,0,0,0-.23-1.24,14.63,14.63,0,0,0-1.3-.69.78.78,0,0,1,.24.76A.79.79,0,1,1,80,57.52a.77.77,0,0,1,.85-.57,9.8,9.8,0,0,0-2.63-.77,4.53,4.53,0,0,0-.82,0A3.52,3.52,0,0,0,75.86,59.08Z"/><path class="cls-19" d="M75.22,62.41h0a18.3,18.3,0,0,1-1.5-1.55,16.47,16.47,0,0,0-1.26-1.63s2-2.93,5-3.08a4.53,4.53,0,0,1,.82,0,9.8,9.8,0,0,1,2.63.77A.41.41,0,0,1,81,57a.79.79,0,0,1,.33.2,14.63,14.63,0,0,1,1.3.69,22.32,22.32,0,0,1,4.27,3.37l-1.64.8h0l3.38-.22s-4.78-6.51-9.86-7A3.51,3.51,0,0,1,78.35,52a3.07,3.07,0,0,0-.71,2.81,9.9,9.9,0,0,0-1.28.17,3.27,3.27,0,0,1-1-2.66,3.37,3.37,0,0,0-.16,3,10.21,10.21,0,0,0-1.46.64,2.38,2.38,0,0,1-.55-.59,2.74,2.74,0,0,1-.41-1.68,3.2,3.2,0,0,0-.15,1.86,2.81,2.81,0,0,0,.34.86c-.42.27-.81.55-1.19.83a3.27,3.27,0,0,1-1.93-2.3A3.3,3.3,0,0,0,70.1,57a3,3,0,0,0,.74.9,13.11,13.11,0,0,1-2.21,1.56C71.3,60.5,72.92,62.61,75.22,62.41Z"/><path class="cls-15" d="M88.72,51.94a1.24,1.24,0,0,1-.92.53,1.58,1.58,0,0,0,.12.15c2.85,3.37,3.69,14.31,3.69,14.31.42-6.19,0-9.06-.6-11.4a19.84,19.84,0,0,0-2.08-4.64l-.07,0a1.4,1.4,0,0,1,.07.4A1.2,1.2,0,0,1,88.72,51.94Z"/><path class="cls-12" d="M117.93,60.94a16.73,16.73,0,0,1,1.29-1.67s-2.06-3-5.08-3.15a3.6,3.6,0,1,1-5.32,1.73,22.81,22.81,0,0,0-4.38,3.45l1.69.82a15.51,15.51,0,0,0,3.68,1,13.6,13.6,0,0,0,6-.42h0A5.92,5.92,0,0,0,117.93,60.94Z"/><path class="cls-18" d="M112.17,62.71a3.59,3.59,0,0,0,2-6.59,4.94,4.94,0,0,0-.85,0,12.16,12.16,0,0,0-4.47,1.7,3.54,3.54,0,0,0-.24,1.27A3.59,3.59,0,0,0,112.17,62.71Zm.1-5.19a.79.79,0,1,1,.56,1A.79.79,0,0,1,112.27,57.52Z"/><path class="cls-19" d="M104.44,61.3a22.81,22.81,0,0,1,4.38-3.45,12.16,12.16,0,0,1,4.47-1.7,4.94,4.94,0,0,1,.85,0c3,.14,5.08,3.15,5.08,3.15a16.73,16.73,0,0,0-1.29,1.67,5.92,5.92,0,0,1-2.09,1.77h0a22.57,22.57,0,0,0,5-2c1.3-.65,2.29-1.2,2.29-1.2a12.45,12.45,0,0,1-1.86-1.28l-.4-.32a3.07,3.07,0,0,0,.6-.69l.16-.23a3.37,3.37,0,0,0,.31-2,.49.49,0,0,0,0-.12,3.38,3.38,0,0,1-2,2.36c-.39-.3-.79-.58-1.22-.86a3,3,0,0,0,.35-.88,3.28,3.28,0,0,0-.16-1.91,2.78,2.78,0,0,1-.42,1.72,2.33,2.33,0,0,1-.56.61,10.65,10.65,0,0,0-1.49-.66,3.46,3.46,0,0,0-.17-3.07,3.38,3.38,0,0,1-1.06,2.73,9.15,9.15,0,0,0-1.32-.17,3.14,3.14,0,0,0-.73-2.89,3.59,3.59,0,0,1-.43,2.9c-5.21.49-10.1,7.16-10.1,7.16l3.46.23Z"/><path class="cls-19" d="M104.29,50.17a1.22,1.22,0,0,0-.46,1.77,1.26,1.26,0,0,0,1.65.41C108,51,114.73,47.61,117.9,47.5a17.29,17.29,0,0,1,5.55,1l-.28-.7c-2.36-1.11-5.16-2.18-7.1-2.11C113,45.8,106.89,48.82,104.29,50.17Z"/><path class="cls-19" d="M87.07,52.35a1.34,1.34,0,0,0,1.65-.41,1.2,1.2,0,0,0,.21-.67,1.4,1.4,0,0,0-.07-.4,1.24,1.24,0,0,0-.6-.7c-.67-.35-1.58-.81-2.6-1.3-1.22-.59-2.6-1.21-4-1.76a28.24,28.24,0,0,1-5.09.72,39.39,39.39,0,0,1,6,2.3C84.41,51,86.07,51.82,87.07,52.35Z"/><path class="cls-19" d="M72.19,47.71c-.66-.07-1.32-.16-2-.29a52.85,52.85,0,0,0-5.34,2.78A32.81,32.81,0,0,1,72.19,47.71Z"/><path class="cls-20" d="M61.72,131.07l-.18-.63c-1.71-5.62-2.61-11.38-1.63-17.12a69.12,69.12,0,0,0,4.31,16.14c.1.25.21.49.31.74a1.17,1.17,0,0,0,0,.11v0h0c0,.14.11.27.17.4.12.29.23.57.36.85h0c0,.07,0,.14.08.2,2.81.49,5.65.79,8.48,1-.64-1.2-1.22-2.43-1.79-3.66h0c-.1-.21-.2-.43-.29-.64s-.16-.34-.23-.51h0l-.34-.79-.09-.23c-5.17-12.38-6.87-25.93-7.6-39.42-.06-1.16-.12-2.31-.17-3.47l0-.54L63,80.7c0-.18,0-.36,0-.55,0-1.4-.09-2.8-.13-4.2v0c0-.09,0-.18,0-.28,0-.59,0-1.19,0-1.78q-.07-3.87,0-7.74c0-5.21.27-10.42.73-15.62,0-.31.05-.62.08-.92a63.83,63.83,0,0,1,11.49-9.7c3.31-2.26,6.75-4.34,10.16-6.33h0l-.21.22h0A60.12,60.12,0,0,1,73,44.49a15.06,15.06,0,0,1-5,2.42c.71.21,1.42.37,2.14.51s1.31.22,2,.29a26,26,0,0,0,4.41.12,28.24,28.24,0,0,0,5.09-.72,30,30,0,0,0,4.54-1.45,38,38,0,0,0,14.58-11,22.42,22.42,0,0,0,4.28-8.1,62.08,62.08,0,0,1,10.33,8.4,35.81,35.81,0,0,1,5.24,7.4,45.21,45.21,0,0,1,2.51,5.48l.28.7q.39,1.08.75,2.16h0s0,0,0,.06c.16.51.31,1,.46,1.55,2.08,7.61,1.63,15.47.75,23.34,0,.37-.08.74-.13,1.11-.08.76-.17,1.52-.26,2.28-.66,5.43-.71,10.8-1.87,16.15-.69,3.22-1.39,6.43-2.09,9.65a151.54,151.54,0,0,1-5.67,21.12l-.3.8a2.6,2.6,0,0,0-.1.25l-.12.3-.09.26-.06.16c-.11.25-.21.5-.31.75-.4,1-.81,1.91-1.26,2.85,2.79,0,5.63,0,8.43-.2l.9-.07h.23q1.14-.09,2.28-.24l.65-.07.14,0,.43-.07.52-.08c1-.17,1.92-.35,2.87-.58l0,0h0a42.36,42.36,0,0,0,7-20.55,61,61,0,0,1-2.1,18.89c.45-.2.89-.42,1.33-.65a29.73,29.73,0,0,0,5.26-3.54A54,54,0,0,0,144,112.55c-.18,3.15-.36,6.31-.65,9.46a24.6,24.6,0,0,0,6.4-11.22c2.13-8.77-2.5-17.24-4.32-25.66-1.42-6.55-1.89-13.24-3.06-19.83a140.12,140.12,0,0,0-15.74-45c-2.48-4.36-4.85-9.21-8.76-12.5a12.44,12.44,0,0,0-5.66-2.94,6.46,6.46,0,0,0-5.92,1.76C105.73,2.74,101.62.2,97.7,0c-7.9-.36-16,3.69-22.5,7.75-8,5-16.25,12-20,20.84a56.71,56.71,0,0,0-2.92,10.1C48,58.18,45.1,77.91,42.19,97.62c-1,6.79-1.94,14,1,20.27A20.45,20.45,0,0,0,49,125.15q.08-4.62.37-9.23a49.78,49.78,0,0,0,1.55,10.62v0a29.79,29.79,0,0,0,5.31,2.77,37,37,0,0,0,4.09,1.37l.32.08Z"/><path class="cls-12" d="M85.38,87.75l.93.51c1.53,1.25,3.1,2,8.52,1.92a17.82,17.82,0,0,0,8.25-2l.4-.38.15-.12.18-.15a5.3,5.3,0,0,1-2.75.19,7.59,7.59,0,0,0-2.83-.17c-.51,0-2.86.31-2.86.31a3.47,3.47,0,0,1-1,0,32.47,32.47,0,0,0-3.28-.4,25.33,25.33,0,0,0-2.76.21,27.41,27.41,0,0,1-3,0l-.3-.16h0Z"/><path class="cls-21" d="M94.36,85.91l-.21-.11a7.69,7.69,0,0,0-5.63-.27A13.32,13.32,0,0,1,82.2,86l2.88,1.57.3.16a27.41,27.41,0,0,0,3,0,25.33,25.33,0,0,1,2.76-.21,32.47,32.47,0,0,1,3.28.4,3.47,3.47,0,0,0,1,0s2.35-.31,2.86-.31a7.59,7.59,0,0,1,2.83.17,5.3,5.3,0,0,0,2.75-.19l.81-.68,1.56-1.29s-.82.72-1.48,1.27a7.51,7.51,0,0,1-.88.69h0l-.18.15-.15.12-.4.38a17.82,17.82,0,0,1-8.25,2c-5.42,0-7-.67-8.52-1.92l-.93-.51-.3-.16L82.2,86s1.89,2.69,2.26,3,.74.55,1.29,1c.25.2.52.42.78.65a11.57,11.57,0,0,0,1.81,1.25,8.87,8.87,0,0,0,2.38,1,18.41,18.41,0,0,0,5.34.37s1.82-.16,2.43-.24l.17,0a6,6,0,0,0,2.26-1.06,16.71,16.71,0,0,0,1.66-1.25c.16-.13.31-.27.45-.4s.31-.3.45-.45a13.08,13.08,0,0,0,2.71-4.18h0a5.76,5.76,0,0,1-3.67.73c-.54,0-1-.11-1.45-.18a11.84,11.84,0,0,1-2.16-.7A6.32,6.32,0,0,0,94.36,85.91Z"/><path class="cls-15" d="M89.43,79.25c.46.92,2.48,1.71,2.48,1.71a4.62,4.62,0,0,0,2.58.84A4.38,4.38,0,0,0,97,81s2-.79,2.48-1.71a2.77,2.77,0,0,0,.23-.64,2.2,2.2,0,0,0,.07-.56,1.64,1.64,0,0,0,0-.23.19.19,0,0,0,0-.08.29.29,0,0,0,0-.09,1.26,1.26,0,0,0-.4-.68l-.14-.13c.34.58.55,1.58-1.53,2.06a6.74,6.74,0,0,1-2.56.87l-.43,0h-.44l-.43,0a6.74,6.74,0,0,1-2.56-.87c-2.08-.48-1.87-1.48-1.53-2.06l-.14.13a1.33,1.33,0,0,0-.4.68.29.29,0,0,0,0,.09s0,.05,0,.08a1.64,1.64,0,0,0,0,.23,2.2,2.2,0,0,0,.07.56A3.33,3.33,0,0,0,89.43,79.25Z"/><path class="cls-22" d="M112.83,58.48a.79.79,0,1,0-.56-1A.79.79,0,0,0,112.83,58.48Z"/><path class="cls-22" d="M80,57.52a.79.79,0,1,0,1.53.39.78.78,0,0,0-.24-.76A.79.79,0,0,0,81,57a.41.41,0,0,0-.11,0A.77.77,0,0,0,80,57.52Z"/><path class="cls-7" d="M137,260.3a.4.4,0,0,0,0-.11,5.88,5.88,0,0,0,0-1c0,.2,0,.38,0,.53C137,260.12,137,260.33,137,260.3Z"/><line class="cls-15" x1="134.79" y1="527.45" x2="99.41" y2="527.25"/></g></g></svg>