<svg xmlns="http://www.w3.org/2000/svg" viewBox="0 0 205.97 621.07"><defs><style>.cls-1{fill:none;}.cls-2{fill:#292a2c;}.cls-3{fill:#d89875;}.cls-4{fill:#d1916c;}.cls-5{fill:#95684e;}.cls-6{fill:#281d0f;}.cls-7{fill:#faefe3;}.cls-8{fill:#22160c;}.cls-9{fill:#563918;}.cls-10{fill:#a4a3a3;}.cls-11{fill:#f1dfd0;}.cls-12{fill:#cbcbca;}.cls-13{fill:#2d2d2d;}.cls-14{fill:#3a3a3a;}.cls-15{fill:#372612;}.cls-16{fill:#807f7f;}.cls-17{fill:#8b8a8a;}</style></defs><title>Banda</title><g id="Layer_2" data-name="Layer 2"><g id="banda"><path class="cls-1" d="M156.48,328.62a1.83,1.83,0,0,0-.28-.14,1.83,1.83,0,0,1,.28.14Z"/><path class="cls-1" d="M79.2,46.48a.63.63,0,0,1-.27-.14,1.64,1.64,0,0,1,0,.22Z"/><path d="M117.75,599a38.85,38.85,0,0,0-.85,5.18c-.45,3.72-.76,7.52-3.31,10.52-2,2.36-.51,4.27.43,6.32h33.49c.43-.49.87-1,1.28-1.47a3.71,3.71,0,0,0-1.18-5.64l-.37-.84-.7-1c-2.81-3.68-4.66-7.9-6.6-12.06a14.44,14.44,0,0,1-.08-1.46l-21.66-1.38C118.06,597.85,117.9,598.44,117.75,599Z"/><path d="M66.35,599.12c-2.38,4.33-4.23,9-7,13,0,1.1-.22,2-1.58,1.91l0,0c-1.86.61-2.41,1.89-1.59,3.6.56,1.15.83,2.48,1.84,3.39H91.25c2.29-3,2.28-4.23,0-7.5-1.4-2-1.79-4.36-2.17-6.57-.61-3.61-1.07-7.23-1.73-10.83l-21.06,1.69A3,3,0,0,1,66.35,599.12Z"/><path class="cls-2" d="M145.82,290.09c-.36.09-3.41,2.48-3.41,2.48-3.38,1.38-10.1.14-13.62.31-5.21.75-5.91,4.58-11.16,4.64-7.83.09-23.48.18-31.28-.62-3.59,0-10.2-5.71-13.63-6.81-3.61-.24-14.63,4.73-21.08,4.77-.22,1.41-.42,2.83-.66,4.23-1,5.7-1.89,11.45-2.45,17.22-.39,4-1.22,8.06-.94,12.15h0c.09,4.74-1.74,9.3-1.34,14.07a2.16,2.16,0,0,0-.24.7c-.12,12.56-1.31,25.08,1.13,37.64,1.84,9.51,2.41,19.26,4.74,28.72,1.25,5.09,2.52,10.19,4,15.2a61.22,61.22,0,0,1,2.33,22.45c-.39,4.67-.69,9.41.33,14,.75,3.36.4,6.43,0,9.76-.94,8.88-3.21,17.55-4,26.43-.35,4-2.06,8-1.07,12.11,1.66,6.88,1.61,14,3.35,20.9.82,3.22.69,6.7,1.67,9.84,2.38,7.63,3.59,15.5,5.26,23.27,1.09,5,1,10.28,2.43,15.28a4.3,4.3,0,0,1-.3,2.43c-1.44,4.72-2.72,9.45-.67,14.38.3.73.77,1.44,1,2.23l21.06-1.69c-.33-1.8-.71-3.59-1.18-5.36a6.14,6.14,0,0,1,.15-4.19,8.55,8.55,0,0,0,0-6.92c-2.13-6-1.5-12.37-1.54-18.61a106.1,106.1,0,0,1,1.73-22.18c1.21-5.85,1.39-11.89,3.23-17.62a22.57,22.57,0,0,0,.69-4.44c.79-7,3.39-13.89,1.94-21-1.26-6.18-1.61-12.49-3.21-18.62a40.16,40.16,0,0,1,.3-22.45c1.23-4,.61-8.29.75-12.44.37-11.09.15-22.22,1-33.28a71.94,71.94,0,0,1,3-16c1-3.31,1.2-6.89,1.64-10.36,1-7.75,1.74-15.53,2-23.34.23-6.33,1.12-12.58,1.94-18.84h6.06c1.23,3.86,1.06,7.9,1.48,11.86s0,8.25.8,12.23c1.14,6,.55,12.14,1.71,18.05,1.12,5.7,2.1,11.43,3.41,17.1a77.08,77.08,0,0,1,1.66,15.91c.12,5.84-.38,11.73.21,17.52,1,9.59,0,19.39,2.48,28.78,1.76,6.58-.87,12.54-1.83,18.67-1.15,7.41-2.58,14.73-2.32,22.27.26,7.35,2,14.48,3.18,21.71.91,5.66,2,11.3,3,16.94,1.79,10.18,1.73,20.36,1.49,30.59-.07,3-1.12,5.69-2,8.46a5.88,5.88,0,0,0-.3,3.44c1.28,4.5.53,8.86-.55,13.2l21.66,1.38a17,17,0,0,1,1.61-7.06,3.72,3.72,0,0,0,.19-3.11,23.53,23.53,0,0,1-1.72-11.22c.44-4.55,1.46-9,2.1-13.53a123.44,123.44,0,0,1,3.5-17.29c1.72-5.83,2.4-11.84,3.6-17.76.75-3.67.89-7.47,1.67-11.12a59.58,59.58,0,0,0,1.27-14.1c-.09-4.11-1.59-7.9-1.91-11.94a55.37,55.37,0,0,0-1.38-10.06,57,57,0,0,1-1.76-19.3c.34-4.49.94-9,.3-13.48-1.35-9.41.53-18.46,3.23-27.28a199.33,199.33,0,0,0,5.56-22.64c.59-3.27.63-6.64,1.19-9.93,1.25-7.39,2.53-14.78,2.63-22.3a242.1,242.1,0,0,0-.76-25,105.63,105.63,0,0,0-1-13.42h0c.81-1.87-.27-3.53-.5-5.29-.93-7.07-1.49-14.18-2.59-21.24-.76-4.85-1.73-9.61-2.9-14.35C147.71,288.75,151.43,290.07,145.82,290.09Zm10.66,38.53h0a1.83,1.83,0,0,0-.28-.14A1.83,1.83,0,0,1,156.48,328.62Z"/><path class="cls-3" d="M59.76,264.42a29.77,29.77,0,0,1-.5-4.26,29.85,29.85,0,0,0,.53,5.3l0-.19A4.79,4.79,0,0,0,59.76,264.42Z"/><path class="cls-3" d="M57.86,214.35a41.66,41.66,0,0,1,1.9,10.49v-.07A33.55,33.55,0,0,0,57.86,214.35Z"/><path class="cls-3" d="M145.51,245.3h0c0,.09,0,.18.06.26,0-.73,0-1.46,0-2.19,0-1.64,0-3.28,0-4.92,0,1.28,0,2.56,0,3.85C145.57,243.3,145.53,244.3,145.51,245.3Z"/><path class="cls-3" d="M153.18,196.9c.52-2,1-4,1.41-6,.19-.91.43-1.81.68-2.73a3.32,3.32,0,0,0-.71,1.67C154.07,192.23,153.64,194.57,153.18,196.9Z"/><path class="cls-3" d="M24.05,279.89c-2.47-.37-4.66.5-6.16-1.4C16.74,277,8,270.38,4,267.42c0,.26,0,.52-.07.78-1,10.19-.91,20.47-1.33,30.71a9.17,9.17,0,0,1-.77,4.14A10.59,10.59,0,0,0,1,310.1a21.41,21.41,0,0,1,.14,5.48c-.31,4.07-.67,8.13-1,12.2a12.93,12.93,0,0,0,.54,5.92,2.89,2.89,0,0,1,.5,2.1l0,.22c-.14,2,1.19,3.56,1.56,5.45,1.31,6.66,3.51,12.95,9.12,17.41a9.3,9.3,0,0,1,1.39,1.76,59.61,59.61,0,0,0,8.94,9.64c1-2.35.32-4.38-.31-6.31-1.34-4.12-3.54-7.86-5.55-11.68-2.22-4.19-1.79-10.16.91-13.2A18.06,18.06,0,0,1,20,345.43c.53,2.31.89,4.65,1.37,7,.41,2,.56,4.15,2.41,5.59.6.46,1.07,1.13,1.92.79s.57-1.27.66-2c.81-6.1-.6-12.15-.46-18.19.16-7.25-2.86-13.32-5.42-19.69-1.28-3.18-3.47-6.34-2.61-9.93.53-2.18.9-4.38,1.4-6.57a167.73,167.73,0,0,1,6.45-22.18l.15-.39A5.54,5.54,0,0,1,24.05,279.89Z"/><path class="cls-3" d="M17.72,183.8c0,.2.06.41.08.62l.09-.69Z"/><path class="cls-3" d="M183.5,153.59l-.06,8.47,0,.08q0-3.75.05-7.48.14-3,0-5.89C183.57,150.36,183.56,152,183.5,153.59Z"/><path class="cls-3" d="M146.87,259c0,.61,0,1.41.09,2.31A7.51,7.51,0,0,0,146.87,259Z"/><path class="cls-3" d="M17.39,193.13a10.26,10.26,0,0,1-.11-2.3,11.49,11.49,0,0,0,0,2.81c0-.29.06-.48.07-.51Z"/><path class="cls-3" d="M160.89,197.4q1.13,4,2.25,8c.45,1.6.87,3.22,1.28,4.83-.37-2-.77-4-1.32-5.9C162.36,201.65,161.62,199.48,160.89,197.4Z"/><path class="cls-3" d="M50,186.18c.22,1.22.5,2.43.82,3.63a8.47,8.47,0,0,0-.73-3.49A.48.48,0,0,0,50,186.18Z"/><path class="cls-3" d="M21.82,153c0,.55,0,1.1.09,1.66,0-.21,0-.42,0-.62S21.85,153.37,21.82,153Z"/><path class="cls-3" d="M99.79,130c1.54,1.55,2.16,3.4,3.09,9.6l.62,6.51,1.55,1.85s2.79-16.41,4-18,6.7-12.45,8-14.25c1.68-2.24,6-15.22,7.62-18.74a5.71,5.71,0,0,1-.78-2.86c-.44-4.23-.64-8.48-.76-12.73a27.88,27.88,0,0,0,1.74-3.7l.22,0a79,79,0,0,0,2.77-8.06,1.48,1.48,0,0,1,.94-1,4,4,0,0,0,2.18-1.81A21.14,21.14,0,0,1,134.34,62a5.16,5.16,0,0,0,.76-1.28,22.18,22.18,0,0,0,2.08-9.49c0-2.14-.26-4-2.73-4.67-.06,0-.08-.12-.12-.19a.26.26,0,0,1-.13-.16,4.16,4.16,0,0,0-1.68.17l-.77.19a85.54,85.54,0,0,0-3.26,10.88c-1.79-9.56-3.7-21-3.7-21a48.68,48.68,0,0,0-.12-11c-3.37-3.85-10.24-2.27-12.77-1.51a.1.1,0,0,0,0,0l0,0c-.57.17-.9.3-.9.3S92.88,19.08,83,31c.26,1,.46,1.79.46,1.79l-.62,3.7c-2.49,2.5-3.54,6.2-3.88,9.85a.63.63,0,0,0,.27.14l-.29.08a42.58,42.58,0,0,0,.67,10.88,2.36,2.36,0,0,1,.14.66l-.14-.66a46.55,46.55,0,0,0-2.71-5.7c-.2-1.42-.61-3.26-1.06-5.06l-.26-.06a6,6,0,0,0-2.34-.38h0a.5.5,0,0,1-.15.17c-.11.1-.2.28-.32.3-1.61.36-2.18,1.54-2.42,3a14.48,14.48,0,0,0,0,2.87c.16,4.23,1.26,8.1,4.28,11.25a6.37,6.37,0,0,1,1.15,1.86,5.28,5.28,0,0,0,2.83,2.89,1.2,1.2,0,0,1,.83.86c.73,3.15,2.25,6,2.94,9.2.26.49.41.8.55,1.07-.12,3.84-1.24,7.59-1.17,11.45a11.94,11.94,0,0,1-1,5.34c2.46,3.21,13.59,17.82,14.69,21.68C96.69,122.52,98.24,128.41,99.79,130Zm19.5-88.5,3.83,1.94-3.63-.35L108.91,44.4l-2-1.37ZM87,49.05a2.2,2.2,0,0,1,.66-1.3,4.51,4.51,0,0,1,.59-.47,5.93,5.93,0,0,1,.65-.36,8.41,8.41,0,0,1,2.86-.71,10.6,10.6,0,0,1,2.92.21,6.75,6.75,0,0,1,2.65,1.18L97,47.48v3.16c-4,2.17-9.62,0-9.62,0s-.8,1.08.81-2.17a2.61,2.61,0,0,1,.86-1A3.12,3.12,0,0,0,87,49.05Zm25.19,25.38s-3.11,3.61-4.76,3.81S99.8,78,99.8,78a4.1,4.1,0,0,1-4.4-3.61A33.71,33.71,0,0,0,112.22,74.43Zm-2-23.79V47.51l-.65.22a6.87,6.87,0,0,1,2.64-1.19,10.15,10.15,0,0,1,2.91-.25A8.39,8.39,0,0,1,118,47a4.44,4.44,0,0,1,1.25.8,2.16,2.16,0,0,1,.67,1.3,2.59,2.59,0,0,0-1.45-1.33,2.55,2.55,0,0,1,.58.75c1.6,3.25.8,2.17.8,2.17S114.22,52.81,110.22,50.64ZM106,44.57l0,0-.1,0C105.89,44.55,105.94,44.54,106,44.57Zm.21,21.9s3.44-1.14,1.36-3.44l.69.6c1.33,1.7.45,3.15-.53,4.24A3.54,3.54,0,0,1,105.41,69c-1.75,1.6-4.35.48-4.81,0,0,0-3.2-.8-3.2-3.2A3.49,3.49,0,0,1,98.74,63s-2.14,2.63,1.06,3.43C99.8,66.47,103,69.68,106.21,66.47ZM87.45,41.66l12.44,1L98,44.08l-10.66-.82-3.62.53ZM85,84.55a2.32,2.32,0,0,0-.2-.38c0-.15-1.73-3.17-1.74-3.33.5-.3,2.23,3,2.33,3.21a10.86,10.86,0,0,0,1.92,2c1.06.93,2.23,1.86,2.87,2.54s1.13,1.15,1.68,1.65a15.29,15.29,0,0,0,8.23,3.92,14.78,14.78,0,0,0,8.69-.74,23.4,23.4,0,0,0,4.32-2.35c3.21-2.16,3.65-1.63,5.58-4.65.1-.15,3.63-4.86,4.46-6l.18-.23a5.19,5.19,0,0,1-.16.69,13.43,13.43,0,0,1-.47,1.33A31.39,31.39,0,0,1,117,90.9c-3.55,3.51-8.09,5.77-13.1,7.46a2.39,2.39,0,0,1-1.54,0,35.45,35.45,0,0,1-11.65-6.08A16.62,16.62,0,0,1,85,84.55Z"/><path class="cls-3" d="M204.47,305.5a81.94,81.94,0,0,1-2-15.06c-.06-3.66-.2-7.32-.38-11-1.35,1.3-2.34,2.65-4.26,2.42-1.72-.2-11.19,1.06-16.46,1.8a135.93,135.93,0,0,1,4.53,16.88c.21,1.06.64,2.08.87,3.09.69,3.06,1.94,6.23.71,9.33-1,2.47-1.68,5.06-2.86,7.43-2.93,5.89-5,11.92-4.48,18.64.13,1.64-.43,3.31-.42,5s-1.37,3.21-.86,4.83c.74,2.38.48,4.79.72,7.18.09.91-.64,2.33.66,2.63s2.19-.92,2.75-2.1c.21-.46.34-.94.53-1.41,1.93-4.7,1.26-10.12,4-14.58.37-.59.23-1.77,1.17-1.66s.84,1.14,1,1.84c1.63,6,.08,11.41-3,16.64a26.46,26.46,0,0,0-3.91,10.11c-.1.86-.47,2.13.55,2.45.83.26,1.53-.78,2.15-1.47,2.88-3.22,5.88-6.33,8.62-9.66,1.53-1.86,3.72-3.37,4.67-5.41a79.61,79.61,0,0,0,4.78-14.36.44.44,0,0,0,0-.32,6,6,0,0,1,.94-4.18.56.56,0,0,0,.06-.4c0-1.34-.24-2.76,1.21-3.62.38-4.94-1-9.72-1.49-14.57C204,312.44,205.18,309,204.47,305.5Z"/><path class="cls-4" d="M106,44.57c-.06,0-.11,0-.14.07l.1,0Z"/><path class="cls-5" d="M103.86,98.36c5-1.69,9.55-4,13.1-7.46a31.39,31.39,0,0,0,5.77-8.65,13.43,13.43,0,0,0,.47-1.33,5.19,5.19,0,0,0,.16-.69l-.18.23c-.83,1.1-4.36,5.81-4.46,6-1.93,3-2.37,2.49-5.58,4.65a23.4,23.4,0,0,1-4.32,2.35,14.78,14.78,0,0,1-8.69.74,15.29,15.29,0,0,1-8.23-3.92c-.55-.5-1.11-1-1.68-1.65S88.41,87,87.35,86.05a10.86,10.86,0,0,1-1.92-2c-.1-.16-1.83-3.51-2.33-3.21,0,.16,1.73,3.18,1.74,3.33a2.32,2.32,0,0,1,.2.38,16.62,16.62,0,0,0,5.63,7.76,35.45,35.45,0,0,0,11.65,6.08A2.39,2.39,0,0,0,103.86,98.36Z"/><polygon class="cls-6" points="97.99 44.08 99.89 42.62 87.45 41.66 83.71 43.79 87.33 43.26 97.99 44.08"/><polygon class="cls-6" points="119.49 43.05 123.12 43.4 119.29 41.47 106.94 43.03 108.91 44.4 119.49 43.05"/><path class="cls-5" d="M98.74,63a3.49,3.49,0,0,0-1.34,2.75c0,2.4,3.2,3.2,3.2,3.2.46.48,3.06,1.6,4.81,0a3.54,3.54,0,0,0,2.32-1.12c1-1.09,1.86-2.54.53-4.24l-.69-.6c2.08,2.3-1.36,3.44-1.36,3.44-3.2,3.21-6.41,0-6.41,0C96.6,65.67,98.74,63,98.74,63Z"/><path class="cls-7" d="M88.19,48.47c-1.61,3.25-.81,2.17-.81,2.17s5.61,2.17,9.62,0V47.48A11.25,11.25,0,0,0,94.62,47h0A2.5,2.5,0,0,1,95,48.32a2.41,2.41,0,1,1-4.48-1.23,10.72,10.72,0,0,0-1.38.35l-.09,0A2.61,2.61,0,0,0,88.19,48.47Z"/><path class="cls-8" d="M91.84,46.92c-.44,0-.88.09-1.32.17A2.42,2.42,0,1,0,95,48.32,2.5,2.5,0,0,0,94.59,47,14.85,14.85,0,0,0,91.84,46.92Zm1.84.47a.4.4,0,1,1-.4-.4A.4.4,0,0,1,93.68,47.39Z"/><path class="cls-7" d="M119.83,50.64s.8,1.08-.8-2.17a2.55,2.55,0,0,0-.58-.75c-.22-.1-.45-.18-.67-.26l-.57-.13a2.39,2.39,0,0,1,.22,1,2.41,2.41,0,1,1-4.81,0A2.42,2.42,0,0,1,113,47c-.23,0-.45,0-.67.05a13.81,13.81,0,0,0-2.09.42v3.13C114.22,52.81,119.83,50.64,119.83,50.64Z"/><path class="cls-8" d="M113,47a2.42,2.42,0,0,0-.36,1.28,2.41,2.41,0,1,0,4.81,0,2.39,2.39,0,0,0-.22-1,11.77,11.77,0,0,0-2.14-.33A14.61,14.61,0,0,0,113,47Zm3,.07a.4.4,0,1,1-.4.4A.4.4,0,0,1,115.93,47.11Z"/><path class="cls-9" d="M90.52,47.09c.44-.08.88-.13,1.32-.17a14.85,14.85,0,0,1,2.75,0h0a11.25,11.25,0,0,1,2.38.51l.36.12a6.75,6.75,0,0,0-2.65-1.18,10.6,10.6,0,0,0-2.92-.21,8.41,8.41,0,0,0-2.86.71,5.93,5.93,0,0,0-.65.36,4.51,4.51,0,0,0-.59.47,2.2,2.2,0,0,0-.66,1.3,3.12,3.12,0,0,1,2-1.58l.09,0A10.72,10.72,0,0,1,90.52,47.09Z"/><path class="cls-9" d="M113,47a14.61,14.61,0,0,1,2.09,0,11.77,11.77,0,0,1,2.14.33l.57.13c.22.08.45.16.67.26a2.59,2.59,0,0,1,1.45,1.33,2.16,2.16,0,0,0-.67-1.3A4.44,4.44,0,0,0,118,47a8.39,8.39,0,0,0-2.86-.66,10.15,10.15,0,0,0-2.91.25,6.87,6.87,0,0,0-2.64,1.19l.65-.22a13.81,13.81,0,0,1,2.09-.42C112.53,47.06,112.75,47.05,113,47Z"/><path class="cls-10" d="M179.58,277.46c1.79-1.27,1.56-1.06,3.31-1s18.37-6.74,18.37-6.74l.29,0h0c-.64-9.83-1.46-19.64-2-29.47-.41-8.09-3.52-15-6.8-22-1.58-3.38-3.13-6.65-3.19-10.54-.05-1-.27-2.09-.31-3.1-.93-2.53-.67-5.08-.62-7.74.17-10.42-1.82-20.68-3.77-30.89a11.08,11.08,0,0,0-1.44-3.84l0-.08.06-8.47c.06-1.62.07-3.23,0-4.82-.28-8.67-2.43-16.84-7.82-24.08C171.42,119,166,115,158.52,114.47c-4.46-2-9.07-3.73-13.41-6.07-5.67-3.06-11.53-5.74-16.94-9.28A11.39,11.39,0,0,1,125,96.41c-.08.14-.18.33-.29.56-1.65,3.52-5.94,16.5-7.62,18.74-1.35,1.8-6.81,12.7-8,14.25s-4,18-4,18l-1.55-1.85-.62-6.51c-.93-6.2-1.55-8.05-3.09-9.6s-3.1-7.44-4.34-11.77c-1.1-3.86-12.23-18.47-14.69-21.68l-.35-.45a10.75,10.75,0,0,1-4.47,4.1c-9,4.79-17.71,10.13-27.46,13.38a1.64,1.64,0,0,0-1.07.95c-5.75.29-10.51,2.88-14.58,6.7a30.14,30.14,0,0,0-7.16,11.21c-2,5-3.6,10.11-3.53,15.59l-.12.84a17.94,17.94,0,0,0-.2,4.2c0,.34.05.69.08,1s0,.41,0,.62c0,2.61,0,5.21,0,7.82-1.34,3.72-3.12,13.58-4,21.22l-.09.69c-.29,2.53-.48,4.77-.52,6.41a10.26,10.26,0,0,0,.11,2.3h0s0,.22-.07.51c-.37,3-2.15,18.63-2.33,18.67.19,2.77-5,11.36-5.28,13.09-.3.53-.59,1.07-.88,1.6,0,.27.05.54.07.81l-1.31,1c.13,2-1.13,3.66-1.25,5.53-.61,9.07-1.17,18.13-1.92,27.18l.12,0a25.69,25.69,0,0,0,3.56.89c2.16.37,1.85.36,3.05,1.63s15.59,7.31,17.53,8.13h0c2.14-4.36,4.55-8.68,6.24-13.08a50,50,0,0,0,2.17-8.05c1.22-6.87-.12-12.6,0-19.52a42.43,42.43,0,0,1,1.23-8.67c1.72-7.59,9.19-31.76,9.61-35.93a.88.88,0,0,1,.93-.93l.78-2.75L52,175.09s-.71,9.67,3.09,14.9,5.94,4.69,9.51,5.2a46.17,46.17,0,0,1-6.66,1.63c-1.66.07,2.14,13.89,4.28,17.68,2.06,3.64-2.06,47.34-2.38,50.77l0,.19a19.89,19.89,0,0,1-.93,3.54c-1.24,4.55-9.39,20.71-10,25.43a7.43,7.43,0,0,0,2.77.43c6.45,0,17.47-5,21.08-4.77,3.43,1.1,10,6.84,13.63,6.81,7.8.8,23.45.71,31.28.62,5.25-.06,6-3.89,11.16-4.64,3.52-.17,10.24,1.07,13.62-.31,0,0,3.05-2.39,3.41-2.48,5.61,0,1.89-1.34,6.36-2.86L153,287a129.73,129.73,0,0,1-4.71-12.72c-.81-2.91-1.12-9-1.28-13,0-.9-.07-1.7-.09-2.31s-.05-1.13-.07-1.31c-.49-4-.26-8.14-1.23-12.12,0-.08,0-.17-.06-.26h0c0-1,.06-2,.06-3,0-1.29,0-2.57,0-3.85.16-10.06,1-20,4.55-29.83a79.67,79.67,0,0,0,3-11.72c.46-2.33.89-4.67,1.38-7a3.32,3.32,0,0,1,.71-1.67,5.41,5.41,0,0,0,1.7-2.52c1.38,4.87,2.66,8.14,3.92,11.7.73,2.08,1.47,4.25,2.21,6.89.55,1.93,1,3.91,1.32,5.9a96.39,96.39,0,0,0,2.78,12.68,16,16,0,0,1,.93,6.51c-.52,5,.9,9.69.84,14.68,0,2.58-.78,6.06.08,8.55,2.36,6.72,4.85,13.81,7.44,20.44a24.86,24.86,0,0,0,2.73,4.65l.07-.05ZM80.54,97h0l0,0,0,.06,0,.07h0L80.31,97ZM86,110.27c-1.12,2.84-3.53,10.55-2.57,22.61,1.24,15.49-.3,22.62-2.47,27.88l-.21,0-.65,1.66c-.08.19-.25.31-.38.25s-.18-.25-.11-.45l.62-1.56h0a41.53,41.53,0,0,0,2.79-20.14,87.64,87.64,0,0,0-.62-9.91s-.83-12.47,2.75-20.64a1.32,1.32,0,1,1,.9.35Zm39-13h.27a1.6,1.6,0,0,0-.13.21h0l-.15-.22Zm4.89,63.52c-.14.05-.31-.07-.39-.26l-.65-1.65-.17,0c-2.17-5.26-3.72-12.39-2.48-27.87,1-12.07-1.44-19.78-2.56-22.62a1.32,1.32,0,1,1,1.32-1.31,1.27,1.27,0,0,1-.43,1c3.59,8.17,2.76,20.64,2.76,20.64a87.76,87.76,0,0,0-.62,9.92,41.58,41.58,0,0,0,2.78,20.13l-.08,0,.62,1.55A.35.35,0,0,1,129.84,160.78Z"/><path class="cls-10" d="M123.6,106.08a1,1,0,0,0-1,1,1,1,0,0,0,.88,1c-.25-.6-.41-.91-.41-.91l.16-.15.62-.31c.18.34.35.69.52,1.05a1,1,0,0,0,.26-.66A1,1,0,0,0,123.6,106.08Z"/><path class="cls-10" d="M86.35,108.88l.15.15s-.16.31-.4.91a1,1,0,0,0,.87-1,1,1,0,1,0-2,0,1,1,0,0,0,.26.66c.17-.36.34-.71.52-1.05Z"/><path class="cls-7" d="M99.8,78s6,.4,7.66.2,4.76-3.81,4.76-3.81a33.71,33.71,0,0,1-16.82,0A4.1,4.1,0,0,0,99.8,78Z"/><circle class="cls-11" cx="93.28" cy="47.39" r="0.4"/><circle class="cls-11" cx="115.93" cy="47.51" r="0.4"/><path class="cls-3" d="M80.44,97.13l0-.07,0-.06,0,0h-.23l.13.17Z"/><path class="cls-3" d="M125.09,97.47a1.6,1.6,0,0,1,.13-.21h-.29l.15.22Z"/><path class="cls-12" d="M129.32,158.77l-.52.1.65,1.65c.08.19.25.31.39.26a.35.35,0,0,0,.1-.46Z"/><path class="cls-12" d="M79.58,162.18c-.07.2,0,.4.11.45s.3-.06.38-.25l.65-1.66-.52-.1Z"/><path class="cls-13" d="M122.58,107.1a1,1,0,1,1,2,0,1,1,0,0,1-.26.66l.13.3a1.27,1.27,0,0,0,.43-1,1.32,1.32,0,1,0-1.32,1.31l-.13-.33A1,1,0,0,1,122.58,107.1Z"/><path class="cls-14" d="M129.4,158.75a41.58,41.58,0,0,1-2.78-20.13,87.76,87.76,0,0,1,.62-9.92s.83-12.47-2.76-20.64l-.13-.3c-.17-.36-.34-.71-.52-1.05l-.62.31-.16.15s.16.31.41.91l.13.33c1.12,2.84,3.53,10.55,2.56,22.62-1.24,15.48.31,22.61,2.48,27.87l.17,0,.52-.1Z"/><path class="cls-13" d="M86,107.64a1.31,1.31,0,0,0-.89,2.28l.14-.3A1,1,0,0,1,85,109a1,1,0,1,1,2,0,1,1,0,0,1-.87,1l-.13.33a1.32,1.32,0,1,0,0-2.63Z"/><path class="cls-14" d="M86.5,109l-.15-.15-.62-.31c-.18.34-.35.69-.52,1.05l-.14.3c-3.58,8.17-2.75,20.64-2.75,20.64a87.64,87.64,0,0,1,.62,9.91,41.53,41.53,0,0,1-2.79,20.14h0l.52.1.21,0c2.17-5.26,3.71-12.39,2.47-27.88-1-12.06,1.45-19.77,2.57-22.61l.13-.33C86.34,109.34,86.5,109,86.5,109Z"/><path class="cls-5" d="M105.2,22.16h0a32.17,32.17,0,0,0-4.17-.8,1.19,1.19,0,0,1,.08.2l-.08,0-.12-.25a36.52,36.52,0,0,0-11.47.46.14.14,0,0,1,0,.06l-.09,0s0,0,0-.07a34,34,0,0,0-7.7,2.45A46.65,46.65,0,0,0,83,31c9.91-11.92,28-6.74,28-6.74a32.51,32.51,0,0,0-5.68-2.1Z"/><path class="cls-15" d="M83.47,6.7a18.07,18.07,0,0,1,7.71,2.53c.26.15.5.33.75.49a23.29,23.29,0,0,1,7.76,8.59,22.26,22.26,0,0,1,1.34,3,32.17,32.17,0,0,1,4.17.8,29.32,29.32,0,0,0-.18-3.24,27.9,27.9,0,0,0-2.29-8.49l-.17-.39a26.57,26.57,0,0,0-3.34-5.19A25.73,25.73,0,0,0,94.76.52l0-.08a15,15,0,0,1,5.13,3.79,19.14,19.14,0,0,1,3.32,5.49l.29.75a27.38,27.38,0,0,1,1.77,8.5,28.48,28.48,0,0,1,0,3.2h0a32.51,32.51,0,0,1,5.68,2.1s.33-.13.9-.3l0,0a12.85,12.85,0,0,0,2.35-5.43,14.07,14.07,0,0,0-.25-5.85c-.14-.53-.3-1-.48-1.55a29.58,29.58,0,0,0-1.77-3.89,38.49,38.49,0,0,0-3.2-5l.07-.06a18.35,18.35,0,0,1,4,4.63,17.18,17.18,0,0,1,1.85,4.42c.11.43.22.88.31,1.32a14.68,14.68,0,0,1,0,6.12,13.07,13.07,0,0,1-2.7,5.34c2.53-.76,9.4-2.34,12.77,1.51a48.68,48.68,0,0,1,.12,11s1.91,11.43,3.7,21a85.54,85.54,0,0,1,3.26-10.88c.51-1.35,1.07-2.68,1.68-3.93a41.37,41.37,0,0,1,3.09-5.56s4.32-35.19-16.67-29.63c0,0-16.67-16.66-44.25-.25A26.59,26.59,0,0,1,83.47,6.7Zm53,22.41a16.55,16.55,0,0,0-2.44-2.5,9.64,9.64,0,0,0-2.91-1.7,11.16,11.16,0,0,0-2.08-.45,12.22,12.22,0,0,0-1.35-.08,13.5,13.5,0,0,0-3.51.43l0-.09a13.72,13.72,0,0,1,3.53-.81,12.48,12.48,0,0,1,1.37,0,10.59,10.59,0,0,1,2.3.3,6.9,6.9,0,0,1,3.32,1.72,7.06,7.06,0,0,1,1.89,3.16ZM126,17.46a13.74,13.74,0,0,1,2.54-.66,10.37,10.37,0,0,1,2.16-.12,10.9,10.9,0,0,1,4.56,1.25l0,.09a24.47,24.47,0,0,0-4.55-.39c-.62,0-1.25,0-1.88.1a13.47,13.47,0,0,0-2.57.46A17.14,17.14,0,0,0,122.1,20a19.06,19.06,0,0,0-3.67,2.78l-.07-.06A18.21,18.21,0,0,1,126,17.46Z"/><path class="cls-15" d="M76.23,14.6a20.37,20.37,0,0,1,4.86.39,12.67,12.67,0,0,1,5.26,2.19c.15.12.28.26.42.39a9.11,9.11,0,0,1,2.67,4.22,36.52,36.52,0,0,1,11.47-.46,24,24,0,0,0-1.53-3,24.38,24.38,0,0,0-2.5-3.44,22.49,22.49,0,0,0-6.08-5c-.17-.1-.35-.18-.52-.27a22.17,22.17,0,0,0-6.91-2,48.51,48.51,0,0,0-7.92-.3v0A76.54,76.54,0,0,0,68,12.42,8.74,8.74,0,0,1,70,15.66a26.27,26.27,0,0,1,5.37-1C75.68,14.61,76,14.61,76.23,14.6Z"/><path class="cls-15" d="M79.58,57.44a42.58,42.58,0,0,1-.67-10.88,1.64,1.64,0,0,0,0-.22c.34-3.65,1.39-7.35,3.88-9.85l.62-3.7s-.2-.74-.46-1.79a46.65,46.65,0,0,1-1.32-6.74,34,34,0,0,1,7.7-2.45,8.71,8.71,0,0,0-3.28-4.24l-.07,0a12.07,12.07,0,0,0-5-1.79,34.89,34.89,0,0,0-5.51-.16c-.57,0-1.14,0-1.71.07-1.21,0-2.43.11-3.66.14,1.56,3.57,3.45,10.6,3.8,24,0,0,1,3.38,1.92,6.89.45,1.8.86,3.64,1.06,5.06A46.55,46.55,0,0,1,79.58,57.44Z"/><path class="cls-15" d="M79.58,57.44l.14.66A2.36,2.36,0,0,0,79.58,57.44Z"/><path class="cls-6" d="M75.46,15.58a34.89,34.89,0,0,1,5.51.16,12.07,12.07,0,0,1,5,1.79l.07,0a8.71,8.71,0,0,1,3.28,4.24s0,.05,0,.07l.09,0a.14.14,0,0,0,0-.06,9.11,9.11,0,0,0-2.67-4.22c-.14-.13-.27-.27-.42-.39A12.67,12.67,0,0,0,81.09,15a20.37,20.37,0,0,0-4.86-.39c-.27,0-.55,0-.82,0a26.27,26.27,0,0,0-5.37,1l-.18.05,0,.09h.21c1.23,0,2.45-.09,3.66-.14C74.32,15.62,74.89,15.59,75.46,15.58Z"/><path class="cls-6" d="M83.37,7.65a22.17,22.17,0,0,1,6.91,2c.17.09.35.17.52.27a22.49,22.49,0,0,1,6.08,5,24.38,24.38,0,0,1,2.5,3.44,24,24,0,0,1,1.53,3l.12.25.08,0a1.19,1.19,0,0,0-.08-.2,22.26,22.26,0,0,0-1.34-3,23.29,23.29,0,0,0-7.76-8.59c-.25-.16-.49-.34-.75-.49A18.07,18.07,0,0,0,83.47,6.7a26.59,26.59,0,0,0-7.87.53l-.16,0v.09A48.51,48.51,0,0,1,83.37,7.65Z"/><path class="cls-6" d="M105.25,22.16h0a28.48,28.48,0,0,0,0-3.2,27.38,27.38,0,0,0-1.77-8.5l-.29-.75a19.14,19.14,0,0,0-3.32-5.49A15,15,0,0,0,94.81.44l0,.08a25.73,25.73,0,0,1,4.46,4.32A26.57,26.57,0,0,1,102.56,10l.17.39A27.9,27.9,0,0,1,105,18.91a29.32,29.32,0,0,1,.18,3.24h0Z"/><path class="cls-6" d="M114.63,12.48c-.09-.44-.2-.89-.31-1.32a17.18,17.18,0,0,0-1.85-4.42,18.35,18.35,0,0,0-4-4.63l-.07.06a38.49,38.49,0,0,1,3.2,5,29.58,29.58,0,0,1,1.77,3.89c.18.51.34,1,.48,1.55a14.07,14.07,0,0,1,.25,5.85,12.85,12.85,0,0,1-2.35,5.43l0,0,0,0a.1.1,0,0,1,0,0,13.07,13.07,0,0,0,2.7-5.34A14.68,14.68,0,0,0,114.63,12.48Z"/><path class="cls-6" d="M122.1,20a17.14,17.14,0,0,1,4.17-1.82,13.47,13.47,0,0,1,2.57-.46c.63-.06,1.26-.09,1.88-.1a24.47,24.47,0,0,1,4.55.39l0-.09a10.9,10.9,0,0,0-4.56-1.25,10.37,10.37,0,0,0-2.16.12,13.74,13.74,0,0,0-2.54.66,18.21,18.21,0,0,0-7.68,5.27l.07.06A19.06,19.06,0,0,1,122.1,20Z"/><path class="cls-6" d="M131.35,24.18a10.59,10.59,0,0,0-2.3-.3,12.48,12.48,0,0,0-1.37,0,13.72,13.72,0,0,0-3.53.81l0,.09a13.5,13.5,0,0,1,3.51-.43,12.22,12.22,0,0,1,1.35.08,11.16,11.16,0,0,1,2.08.45,9.64,9.64,0,0,1,2.91,1.7,16.55,16.55,0,0,1,2.44,2.5l.08-.05a7.06,7.06,0,0,0-1.89-3.16A6.9,6.9,0,0,0,131.35,24.18Z"/><path class="cls-16" d="M59.82,265.27c.32-3.43,4.44-47.13,2.38-50.77-2.14-3.79-5.94-17.61-4.28-17.68a46.17,46.17,0,0,0,6.66-1.63c-3.57-.51-5.71,0-9.51-5.2S52,175.09,52,175.09l-2.33,8.17L48.87,186c.45,0,.92-.13,1.15.17a.48.48,0,0,1,.09.14,8.47,8.47,0,0,1,.73,3.49,10.46,10.46,0,0,0,.5,2.7c1.53,5,2.8,10.2,4.34,15.18.7,2.26,1.48,4.45,2.18,6.66a33.55,33.55,0,0,1,1.9,10.42v.07c0,6.81.05,13.62.08,20.42,0,5-.82,9.92-.58,14.9a29.77,29.77,0,0,0,.5,4.26A4.79,4.79,0,0,1,59.82,265.27Z"/><path class="cls-17" d="M11.15,264.05c-1.2-1.27-.89-1.26-3.05-1.63a25.69,25.69,0,0,1-3.56-.89l-.12,0a2.54,2.54,0,0,1-.32-.11l-1,1.22,0,.93-.95.59.89,1.57-.94.29L4,267.42c3.94,3,12.7,9.6,13.85,11.07,1.5,1.9,3.69,1,6.16,1.4a5.54,5.54,0,0,0,1.77,0,11.39,11.39,0,0,0,3.54-1.36l-.89-1.58.94-.28.05-1.86.94-.59-1.5-1.9-.21-.09h0C26.74,271.36,12.28,265.24,11.15,264.05Z"/><path class="cls-17" d="M197.87,281.89c1.92.23,2.91-1.12,4.26-2.42a9.1,9.1,0,0,1,1.09-.94c2-1.48,2.75-4.75,2.75-4.75l-1.74-.48.46-.87-1.27-1.35.24-1.08-2.08-.25h0l-.29,0s-16.61,6.79-18.37,6.74-1.52-.26-3.31,1l-.29.19-.07.05a25.83,25.83,0,0,1-3.2,1.85l.18,1.54.63.67-.24,1.09,1.74.49-.47.86,3.55-.51C186.68,283,196.15,281.69,197.87,281.89Z"/></g></g></svg>