<svg xmlns="http://www.w3.org/2000/svg" viewBox="0 0 223.12 653.07"><defs><style>.cls-1{fill:none;}.cls-2{fill:#281a18;}.cls-3{fill:#442c28;}.cls-4{fill:#111;}.cls-5{fill:#d89875;}.cls-6{fill:#1e1311;}.cls-7{fill:#d3936c;}.cls-8{fill:#96684e;}.cls-9{fill:#281a03;}.cls-10{fill:#fcefe3;}.cls-11{fill:#211307;}.cls-12{fill:#f2e0d1;}.cls-13{fill:#382407;}.cls-14{fill:#262626;}.cls-15{fill:#5b3b34;}.cls-16{fill:#dbd7df;}.cls-17{fill:#efeef4;}.cls-18{fill:#414042;}.cls-19{fill:#0f0f0f;}.cls-20{fill:#302221;opacity:0.56;}.cls-21{fill:#1e1e1e;}.cls-22{fill:#353535;}</style></defs><title>Pro Banda</title><g id="Layer_2" data-name="Layer 2"><g id="Layer_1-2" data-name="Layer 1"><path class="cls-1" d="M134.73,99.36l-.3-.24Z"/><path class="cls-1" d="M111,315.5l-2.89-.05,1.18.05Z"/><path class="cls-2" d="M87.3,101c-.22.43-.42.86-.61,1.27s-.15.56-.22.84l-.06.49a13.25,13.25,0,0,0,2.66-4.08c-.58.32-1.16.66-1.73,1a11.86,11.86,0,0,0-.45,1.12A7.14,7.14,0,0,0,87.3,101Zm.14,1a1.62,1.62,0,0,0-.1.18l-.15-.18Z"/><path class="cls-2" d="M134.66,103.47c-.07-.39-.16-.78-.25-1.17v0a15.53,15.53,0,0,0-.67-2.18s.22.47.54,1.33a8,8,0,0,0,1,1.14,16.71,16.71,0,0,0-.59-3.2l-.3-.24.3.24a6,6,0,0,0-.58-.47h0l-.09-.07.09.07c-1-.69-2.55-1.6-2.66-1.66.06.56.11,1.12.18,1.73C131.7,100.91,133.06,102.31,134.66,103.47Z"/><path class="cls-2" d="M86.38,101.12c-.86.55-1.7,1.14-2.52,1.75.71-.46,1.35-.86,1.86-1.17Z"/><path class="cls-2" d="M134.37,101.68c.19.53.4,1.18.62,1.94A15.08,15.08,0,0,0,134.37,101.68Z"/><path d="M126.56,629.9a41.28,41.28,0,0,0-.89,5.45c-.47,3.91-.8,7.9-3.48,11.06-2.11,2.48-.54,4.5.46,6.65h35.2c.46-.51.93-1,1.36-1.54a3.91,3.91,0,0,0-1.25-5.94c-.13-.29-.25-.59-.38-.88l-.75-1c-3-3.88-4.89-8.31-6.93-12.68a13.38,13.38,0,0,1-.09-1.54L127,628C126.89,628.65,126.72,629.27,126.56,629.9Z"/><path d="M72.52,630c-2.5,4.55-4.45,9.4-7.4,13.72,0,1.15-.22,2.07-1.66,2l0,0c-2,.64-2.54,2-1.67,3.78.58,1.21.87,2.61,1.93,3.57h35c2.42-3.12,2.41-4.45,0-7.89-1.46-2.06-1.88-4.58-2.27-6.91-.64-3.79-1.13-7.6-1.83-11.38L72.4,628.64A3.35,3.35,0,0,1,72.52,630Z"/><path class="cls-3" d="M102.36,315.61h.52v0Z"/><path class="cls-3" d="M101.45,315.53l0,.08h0Z"/><path class="cls-3" d="M108.14,315.45c-1.29,0-2.55,0-3.79.05h5Z"/><path class="cls-4" d="M125.17,327.09s-.21-.5-.57-1.4h-5.28v.11H102.88v-.11H99.21v-1.2c-.32,1.25-.51,1.95-.51,1.95-12.2,37.93-16.82,37.09-16.82,37.09-3.28-2.12-19.68-4.5-30.33-8a22.55,22.55,0,0,0-.17,4.65,2.49,2.49,0,0,0-.25.74c-.13,13.21-1.38,26.38,1.18,39.58,1.94,10,2.54,20.25,5,30.2,1.31,5.35,2.65,10.72,4.18,16a64.49,64.49,0,0,1,2.44,23.61c-.41,4.91-.72,9.9.35,14.7.79,3.52.42,6.76,0,10.26-1,9.34-3.38,18.45-4.2,27.79-.37,4.25-2.16,8.4-1.12,12.73,1.73,7.24,1.69,14.74,3.52,22,.86,3.38.72,7,1.76,10.35,2.5,8,3.76,16.3,5.53,24.47,1.14,5.29,1,10.81,2.55,16.06a4.51,4.51,0,0,1-.32,2.56c-1.51,5-2.86,9.93-.7,15.11.32.78.81,1.52,1.06,2.35l22.14-1.77c-.35-1.89-.74-3.78-1.24-5.64a6.48,6.48,0,0,1,.17-4.41c1.16-2.47.92-4.74,0-7.27-2.23-6.35-1.57-13-1.61-19.57,0-7.83.22-15.7,1.81-23.32,1.28-6.16,2.18-12.51,4.12-18.54a23.32,23.32,0,0,0,.72-4.66c.83-7.36,3.57-14.61,2-22.1-1.32-6.5-1.69-13.13-3.37-19.59a42.3,42.3,0,0,1,.31-23.6c1.3-4.2.65-8.72.79-13.08.4-11.67.16-23.37,1-35a75.31,75.31,0,0,1,3.15-16.78c1.08-3.48,1.26-7.24,1.73-10.9,1-8.15,1.82-16.32,2.12-24.53.25-6.66,1.18-13.23,2-19.81h4.21c1.3,4.06,1.11,8.31,1.56,12.48s0,8.67.83,12.85c1.21,6.31.59,12.77,1.81,19,1.17,6,2.2,12,3.58,18a80.74,80.74,0,0,1,1.75,16.73c.12,6.14,1,12.33,1.66,18.42,1,10.08-.76,20.39,1.88,30.26,1.85,6.92-.91,13.19-1.91,19.63A124,124,0,0,0,122,528.82c.27,7.73,2.12,15.23,3.34,22.83,1,6,2.08,11.88,3.12,17.81,1.88,10.71,1.82,21.41,1.57,32.17-.08,3.16-1.18,6-2.09,8.89a6.17,6.17,0,0,0-.33,3.62c1.35,4.74.56,9.31-.57,13.88l22.77,1.45a18,18,0,0,1,1.7-7.42,3.94,3.94,0,0,0,.2-3.27A24.69,24.69,0,0,1,149.9,607c.46-4.78,1.53-9.48,2.21-14.22a129.5,129.5,0,0,1,3.67-18.18c1.81-6.14,2.53-12.46,3.8-18.69.78-3.85.92-7.84,1.75-11.69a63,63,0,0,0,1.34-14.82c-.1-4.32-1.68-8.31-2-12.56a57.58,57.58,0,0,0-1.45-10.58A59.67,59.67,0,0,1,157.36,486c.35-4.72,1-9.47.31-14.17-1.42-9.9.56-19.42,3.39-28.69a206.54,206.54,0,0,0,5.85-23.8c.62-3.45.67-7,1.25-10.44,1.32-7.78,2.66-15.55,2.77-23.46a253.06,253.06,0,0,0-.8-26.27c0-.75,0-1.49-.08-2.24-10.58,3.13-25,5.32-28.06,7.3C142,364.18,137.37,365,125.17,327.09Z"/><path class="cls-5" d="M21.38,193.26c0,.22.06.44.09.66,0-.24.05-.48.08-.73Z"/><path class="cls-5" d="M195.79,158.85c0-.81,0-1.62-.07-2.42,0,.77,0,1.55,0,2.33Z"/><path class="cls-5" d="M215.52,326.86a105.61,105.61,0,0,1-15.22,1,6.4,6.4,0,0,1-.37,1.23c-1,2.59-1.77,5.32-3,7.81-3.08,6.19-5.26,12.53-4.71,19.6.13,1.72-.45,3.48-.44,5.23s-1.45,3.37-.91,5.08c.78,2.5.51,5,.76,7.55.1.95-.67,2.44.69,2.75s2.31-1,2.89-2.2c.22-.48.36-1,.56-1.48,2-4.94,1.33-10.64,4.25-15.34.39-.62.24-1.85,1.23-1.74s.89,1.19,1.09,1.94c1.71,6.33.08,12-3.16,17.49a27.65,27.65,0,0,0-4.1,10.63c-.12.91-.5,2.24.57,2.58.87.27,1.61-.82,2.26-1.55,3-3.38,6.18-6.65,9.06-10.15,1.61-2,3.92-3.55,4.91-5.7a83.27,83.27,0,0,0,5-15.09.41.41,0,0,0,0-.34,6.34,6.34,0,0,1,1-4.4.59.59,0,0,0,.06-.41c0-1.42-.25-2.91,1.27-3.81.4-5.2-1-10.23-1.56-15.33a27.06,27.06,0,0,1,.15-5.4A10,10,0,0,1,215.52,326.86Z"/><path class="cls-5" d="M3.82,321a12.14,12.14,0,0,0-.07,5.06,22.67,22.67,0,0,1,.14,5.76c-.33,4.27-.7,8.55-1,12.83a13.68,13.68,0,0,0,.57,6.22A3.05,3.05,0,0,1,4,353.1l0,.23c-.14,2.1,1.25,3.74,1.65,5.73,1.37,7,3.69,13.62,9.58,18.31a9.39,9.39,0,0,1,1.46,1.84A62.83,62.83,0,0,0,26,389.36c1-2.47.33-4.61-.32-6.64-1.41-4.33-3.73-8.27-5.85-12.28-2.33-4.41-1.87-10.68,1-13.88a18.87,18.87,0,0,1,2.92,6.67c.55,2.42.93,4.88,1.43,7.32.44,2.12.6,4.36,2.54,5.87.63.49,1.13,1.2,2,.83s.6-1.33.7-2.07c.85-6.41-.64-12.78-.5-19.12.18-7.63-3-14-5.69-20.71-1.35-3.34-3.65-6.66-2.74-10.44.32-1.37.6-2.74.88-4.11C17,321.41,8.62,322.09,3.82,321Z"/><path class="cls-5" d="M21,203.08a11.88,11.88,0,0,1-.12-2.42,12.22,12.22,0,0,0,.05,3c0-.31.07-.51.07-.54Z"/><path class="cls-5" d="M25.7,160.91c0,.58,0,1.16.08,1.75V162C25.74,161.64,25.72,161.27,25.7,160.91Z"/><path class="cls-5" d="M173.47,212.18l-.36-.43c.39,1.4.79,2.8,1.18,4.19.48,1.69.92,3.38,1.35,5.08-.39-2.09-.82-4.17-1.39-6.2Q173.86,213.43,173.47,212.18Z"/><path class="cls-5" d="M86.15,108.43c.84,8,7.19,15.21,13.13,20.31l.37,0s.08.21.23.55a77.15,77.15,0,0,0,9.24,6.66,10.07,10.07,0,0,0,2-.2c1.21-.69,26.31-15.39,23.56-32.24-1.6-1.16-3-2.56-3-4.51-.07-.61-.12-1.17-.18-1.73a63.71,63.71,0,0,1-.42-9.21c-.29.57-.62,1.16-1,1.75a31.51,31.51,0,0,1-4.36,5.81c-3.74,3.69-4.31,4.87-9.58,6.63a21.22,21.22,0,0,1-4.86,1.35,18.8,18.8,0,0,1-4.38-1c-5.27-1.77-6.33-3.25-10.07-6.94a32,32,0,0,1-4.36-5.81,23.33,23.33,0,0,1-1.94-3.93,8.26,8.26,0,0,1-.28-.84c-.06-.22-.11-.44-.15-.64.14.17,4.78,6.33,4.89,6.51.39.47.72.85,1,1.17a17,17,0,0,0,1.83,1.7l.2.17c3.27,2.77,5,4.06,9.16,4.94L108,99a16.71,16.71,0,0,0,6.51,0l.83-.16c4.17-.88,5.89-2.17,9.16-4.94l.2-.17a17,17,0,0,0,1.83-1.7c.29-.32.62-.7,1-1.17.1-.15,3.28-4.39,4.46-5.94a30.44,30.44,0,0,0,1.55-3.37,1.06,1.06,0,0,1,.13-.18,82.24,82.24,0,0,0,3-8.36,1.51,1.51,0,0,1,1-1.1A4.18,4.18,0,0,0,140,70a21.86,21.86,0,0,1,3.45-5,5.73,5.73,0,0,0,.8-1.35,23.5,23.5,0,0,0,2.19-10c0-2.25-.28-4.23-2.88-4.91-.06,0-.09-.13-.13-.2a.31.31,0,0,1-.13-.17,4.61,4.61,0,0,0-1.77.18l-.1,0a90,90,0,0,0-3.55,11.79C136,50.39,134,38.37,134,38.37a51.82,51.82,0,0,0-.13-11.61A6.33,6.33,0,0,0,133,26l-.14,0,.11-.05c-4.73-3.74-13.58-.43-13.58-.43l-.86-.39C114.5,24.2,99,21.59,90,32.6l.48,1.88-.65,3.89c-6,6.05-4,18.91-3.39,22a2.7,2.7,0,0,1,.15.69s-.06-.24-.15-.69a49.59,49.59,0,0,0-2.85-6c-.21-1.5-.65-3.45-1.13-5.36a4.24,4.24,0,0,1-.84-.19,6.26,6.26,0,0,0-2.47-.4h0a.35.35,0,0,1-.16.18c-.1.11-.2.29-.32.32-1.71.37-2.3,1.61-2.55,3.16a14.51,14.51,0,0,0,0,3c.17,4.44,1.33,8.52,4.5,11.83a6.45,6.45,0,0,1,1.21,2,5.46,5.46,0,0,0,3,3,1.29,1.29,0,0,1,.87.91c.77,3.31,2.36,6.35,3.09,9.67,1,1.89.63,1.28,1,1.89.16.27.33.53.5.79a26,26,0,0,1-.13,10.66,18.91,18.91,0,0,1-1.1,3.65,13.25,13.25,0,0,1-2.66,4.08A42,42,0,0,0,86.15,108.43Zm8.48-55.19s-.84,1.15.85-2.28c.67-1.37,2.3-1.82,4-1.87a14.9,14.9,0,0,1,2.5,0c0,.05.09.12.14.18a20.47,20.47,0,0,1,2.62.56v3.42C100.53,55.53,94.63,53.24,94.63,53.24Zm21.12,29c-1.74.21-8.06-.21-8.06-.21a4.32,4.32,0,0,1-4.63-3.79,35.51,35.51,0,0,0,17.69,0S117.48,82.06,115.75,82.27Zm13-29s-5.89,2.29-10.11,0V49.82a21.13,21.13,0,0,1,3.1-.62,1.25,1.25,0,0,1,.08-.12,14.39,14.39,0,0,1,3.91.19.3.3,0,0,1,0,.08A3.22,3.22,0,0,1,127.91,51C129.59,54.39,128.75,53.24,128.75,53.24Zm-.56-9.64,4,2-3.81-.37-11.13,1.41-2.07-1.43Zm-14,3.27,0,0-.11,0C114.09,46.85,114.14,46.84,114.2,46.87Zm.23,20.87s3.37-.84.84-3.37l1.17,1.17c1.36,1.36.58,3-.41,4.38a3.41,3.41,0,0,1-2.44,1.19c-1.74,1.73-4.58.5-5.06,0,0,0-3.37-.85-3.37-3.37a3.64,3.64,0,0,1,1.69-3.37s-2.53,2.53.84,3.37C107.69,67.74,111.06,71.11,114.43,67.74ZM94.7,43.81l13.08,1-.42.32,1.2,4.06-.32,7.58L107.78,51l-2-4.61-11.22-.86-3.8.55Z"/><path class="cls-5" d="M135.07,103.9l0-.1c.07.22.13.45.19.68C135.17,104.24,135.11,104,135.07,103.9Z"/><path class="cls-6" d="M102.88,325.69V315.61h-.52l-1,.06,0-.06h0c-.94,3.9-1.73,7-2.22,8.88v1.2Z"/><path class="cls-7" d="M114.2,46.87c-.06,0-.11,0-.14.06l.11,0Z"/><path class="cls-8" d="M126.57,92a17,17,0,0,1-1.83,1.7l-.2.17c-3.27,2.77-5,4.06-9.16,4.94l-.83.16A16.71,16.71,0,0,1,108,99l-.83-.16c-4.17-.88-5.89-2.17-9.16-4.94l-.2-.17A17,17,0,0,1,96,92c-.29-.32-.62-.7-1-1.17-.11-.18-4.75-6.34-4.89-6.51,0,.2.09.42.15.64a8.26,8.26,0,0,0,.28.84,23.33,23.33,0,0,0,1.94,3.93,32,32,0,0,0,4.36,5.81c3.74,3.69,4.8,5.17,10.07,6.94a18.8,18.8,0,0,0,4.38,1,21.22,21.22,0,0,0,4.86-1.35c5.27-1.76,5.84-2.94,9.58-6.63a31.51,31.51,0,0,0,4.36-5.81c.35-.59.68-1.18,1-1.75a20.05,20.05,0,0,0,1-2.18c.1-.29.2-.57.27-.84s.11-.44.15-.64c0,0-.19.24-.43.57-1.18,1.55-4.36,5.79-4.46,5.94C127.19,91.34,126.86,91.72,126.57,92Z"/><polygon class="cls-9" points="128.4 45.27 132.22 45.63 128.19 43.6 115.2 45.25 117.27 46.69 128.4 45.27"/><path class="cls-8" d="M106.85,64.37a3.64,3.64,0,0,0-1.69,3.37c0,2.52,3.37,3.37,3.37,3.37.48.5,3.32,1.73,5.06,0A3.41,3.41,0,0,0,116,69.92c1-1.33,1.77-3,.41-4.38l-1.17-1.17c2.53,2.53-.84,3.37-.84,3.37-3.37,3.37-6.74,0-6.74,0C104.32,66.9,106.85,64.37,106.85,64.37Z"/><path class="cls-10" d="M104.74,49.82a20.47,20.47,0,0,0-2.62-.56,2.55,2.55,0,1,1-4.54,1.55,2.65,2.65,0,0,1,.5-1.54c.45-.08.92-.14,1.4-.18-1.7,0-3.33.5-4,1.87-1.69,3.43-.85,2.28-.85,2.28s5.9,2.29,10.11,0Z"/><path class="cls-8" d="M113,23.24v0a35.46,35.46,0,0,0-4.47-.81c0,.08.05.15.07.22l-.11-.22A38.91,38.91,0,0,0,88.61,25.5,48.62,48.62,0,0,0,90,32.6c9-11,24.51-8.4,28.54-7.49A33.94,33.94,0,0,0,113,23.2.06.06,0,0,0,113,23.24Z"/><path class="cls-11" d="M97.58,50.81a2.53,2.53,0,1,0,4.54-1.55c-.05-.06-.09-.13-.14-.18a14.9,14.9,0,0,0-2.5,0c-.48,0-1,.1-1.4.18A2.65,2.65,0,0,0,97.58,50.81Zm2.11-1.61a.43.43,0,1,1-.42.43A.42.42,0,0,1,99.69,49.2Z"/><path class="cls-10" d="M125.77,49.35a2.63,2.63,0,0,1,.46,1.46,2.53,2.53,0,1,1-4.49-1.61,21.13,21.13,0,0,0-3.1.62v3.42c4.22,2.29,10.11,0,10.11,0s.84,1.15-.84-2.28A3.22,3.22,0,0,0,125.77,49.35Z"/><path class="cls-11" d="M123.7,53.42a2.58,2.58,0,0,0,2.53-2.61,2.63,2.63,0,0,0-.46-1.46.3.3,0,0,0,0-.08,14.39,14.39,0,0,0-3.91-.19,1.25,1.25,0,0,0-.08.12,2.6,2.6,0,0,0,2,4.22Zm-.42-4.22a.43.43,0,0,1,0,.85.43.43,0,0,1,0-.85Z"/><path class="cls-10" d="M103.06,78.27a4.32,4.32,0,0,0,4.63,3.79s6.32.42,8.06.21,5-4,5-4A35.51,35.51,0,0,1,103.06,78.27Z"/><path class="cls-6" d="M119.32,325.69h5.28c-.74-1.87-2.15-5.47-3.84-10.08h-1.44Z"/><circle class="cls-12" cx="99.69" cy="49.63" r="0.42"/><circle class="cls-12" cx="123.28" cy="49.63" r="0.42"/><path class="cls-13" d="M86.43,60.4c-.61-3.12-2.65-16,3.39-22l.65-3.89L90,32.6a48.62,48.62,0,0,1-1.38-7.1,38.91,38.91,0,0,1,19.84-3.11,26.26,26.26,0,0,0-1.9-3.45,24.35,24.35,0,0,0-2.5-3.31,25.52,25.52,0,0,0-6.33-5.21A21.66,21.66,0,0,0,90,7.86a31.8,31.8,0,0,0-4.15-.31c-1.18,0-2.37,0-3.56,0a79.38,79.38,0,0,0-8,5.46,9,9,0,0,1,2.1,3.3,33.17,33.17,0,0,1,5.25-.93,23.51,23.51,0,0,1,6,.17,12.47,12.47,0,0,1,5.6,2.29,8.72,8.72,0,0,1,3.14,5,10.1,10.1,0,0,0-3.6-4.41,13.61,13.61,0,0,0-5.3-1.94,31.73,31.73,0,0,0-5.78-.37c-1.73,0-3.48.14-5.24.26,1.64,3.7,3.68,11.1,4,25.37,0,0,1.09,3.53,2,7.2.48,1.91.92,3.86,1.13,5.36A49.59,49.59,0,0,1,86.43,60.4Z"/><path class="cls-13" d="M90.05,7.1a19.77,19.77,0,0,1,8.17,2.45,22.94,22.94,0,0,1,6.42,5.59,22.14,22.14,0,0,1,3.85,7.25,35.46,35.46,0,0,1,4.47.81,41.19,41.19,0,0,0-.88-6.49,32.53,32.53,0,0,0-2-6.19A26.46,26.46,0,0,0,106.7,5,23.68,23.68,0,0,0,102,.44c.5.25,1,.52,1.47.79l1.39.94,1.29,1.09,1.19,1.2A21.09,21.09,0,0,1,111,10.11a25.56,25.56,0,0,1,2,13.09,33.94,33.94,0,0,1,5.56,1.91l.86.39s8.85-3.31,13.58.43a10.69,10.69,0,0,1,7.46-.66,7.87,7.87,0,0,1,3.39,2,8.23,8.23,0,0,1,2,3.27,13.49,13.49,0,0,0-2.53-2.68,8.94,8.94,0,0,0-3.16-1.61,13.34,13.34,0,0,0-3.57-.52A24.22,24.22,0,0,0,133,26a6.33,6.33,0,0,1,.84.8A51.82,51.82,0,0,1,134,38.37s2,12,3.89,22.07a90,90,0,0,1,3.55-11.79c.5-1.29,1.05-2.58,1.64-3.79A45.49,45.49,0,0,1,146.3,39s4.54-37-17.53-31.16c0,0-17.44-17.43-46.33-.38A29.79,29.79,0,0,1,90.05,7.1Zm40.28,13.34a15.71,15.71,0,0,1,6.92-2.79c.41-.06.84-.06,1.25-.09l.63,0,.63,0a12.69,12.69,0,0,1,4.78,1.26,20.66,20.66,0,0,0-4.79-.48,16,16,0,0,0-4.66.8,21.78,21.78,0,0,0-4.34,1.93,29.55,29.55,0,0,0-4,2.78A15.22,15.22,0,0,1,130.33,20.44ZM117.51,3.28l1.08,1.19,1,1.27.89,1.34a19.28,19.28,0,0,1,2.47,6,14.18,14.18,0,0,1,0,6.48c-.16.52-.29,1-.49,1.55s-.41,1-.66,1.47-.57.92-.87,1.36-.68.83-1,1.23a15.28,15.28,0,0,0,2.3-5.77,15.93,15.93,0,0,0-.23-6.11,23.54,23.54,0,0,0-2.16-5.79L119,6.09l-.84-1.33-.89-1.31c-.32-.41-.64-.83-1-1.27Z"/><path class="cls-13" d="M86.43,60.4c.09.45.15.69.15.69A2.7,2.7,0,0,0,86.43,60.4Z"/><path class="cls-14" d="M218.29,314c-1.79-19.5-5.17-52-5.65-61.34-.43-8.51-3.7-15.78-7.15-23.17-1.66-3.55-3.29-7-3.36-11.08,0-1.06-.28-2.2-.32-3.26-1-2.66-.7-5.34-.65-8.14.15-8.82-1.19-17.53-2.78-26.19a14.38,14.38,0,0,1,.85-2.66c.5-1-1.45-2.8-2.24-5.15-.09-.78-.19-1.73-.31-2.7.07-1.77.52-3.73.71-5.83.16-1.71-.77-3.6-1.6-5.63l0-.09c0-.78,0-1.56,0-2.33a53.77,53.77,0,0,0-.5-6c.4-4.39-2.62-9.84-3.41-12.76-.88-3.29-3.14-5.6-2.75-7.53s.5-4-1.83-5.12a113.76,113.76,0,0,0-11.31-3.24,22.13,22.13,0,0,0-5.2-1.3l-2-.48,0,0c-4.49-2-9.09-3.75-13.44-6.09-2.61-1.41-5.26-2.74-7.89-4.11-1-.76-2-1.51-2.9-2.22,3.66,5.29,11.55,15.89,18.18,19l-6.59,5.18s10.36,7.53,14.12,8.47c0,0-57.3,105-59.18,119.65l-2.8,7.26a37.92,37.92,0,0,1,.3-9.82l.16-.68c-9.79-27-56.65-116.41-56.65-116.41,3.77-.94,14.13-8.47,14.13-8.47l-6.59-5.18c6.44-3.05,14.08-13.16,17.86-18.58-7.7,4.22-15.36,8.49-23.75,11.29,0,0-16.15,3.89-18.48,5s-2.22,3.2-1.84,5.12-1.86,4.24-2.75,7.53v0c-.32.7-.63,1.42-.92,2.14C27.63,144.53,26,149.85,26,155.61c0,.3-.09.6-.13.89a18.11,18.11,0,0,0-.2,4.41c0,.36,0,.73.08,1.09v.66c0,.74,0,1.48,0,2.22a7.06,7.06,0,0,0-.34,2.49,16.36,16.36,0,0,1,.17,4c-.19.59-.39,1.28-.59,2.06v0c-.83,2.33-2.42,3.9-1.92,4.9a11.53,11.53,0,0,1,.38,2.22c-.75,4.06-1.45,8.6-1.94,12.57,0,.25-.06.49-.08.73-.31,2.66-.51,5-.56,6.74a11.88,11.88,0,0,0,.12,2.42h0s0,.23-.07.54c-.39,3.19-2.27,19.59-2.45,19.63.2,2.91-5.23,11.95-5.55,13.76L12,238.69c0,.28.05.57.08.86l-1.38,1c.14,2.08-1.19,3.86-1.32,5.83-.66,9.81-4.27,45.28-6,62.58,5.91,1.25,17.88,3.4,23.23,1.63,4-12,10.75-32.76,12.81-38.14A52.05,52.05,0,0,0,41.75,264c1.29-7.22-.12-13.25,0-20.52a31.21,31.21,0,0,1,.3-3.6c.55-.44,1.14-.86,1.7-1.26,1.5-1.08-.09-4.07-.21-6.27.16-.6.32-1.24.51-1.94,1.08-2,3-4.72,3.3-6.78a24.87,24.87,0,0,0,0-5.14c2.67-9.35,5.52-19.31,5.78-21.91a.94.94,0,0,1,1-1c.19,0,.39,0,.57,0,.81,3.16,1.59,6.25,2.32,9.24L54.2,192.15s13.94,33.23,16.74,42.14l-5.8-3.47L45.05,320.66c-1.91,11.9-3.34,23.43-2.8,28.79.23,2.36,4.08,4.35,9.3,6.07,10.65,3.51,27.05,5.89,30.33,8,0,0,4.62.84,16.82-37.09,0,0,.19-.7.51-1.95.49-1.87,1.28-5,2.22-8.88l0-.08c1.92-8,4.56-19.57,6.41-30.06l2.34,3.13,1.37-1.84c2.53,10,6.27,20.9,9.19,28.85,1.69,4.61,3.1,8.21,3.84,10.08.36.9.57,1.4.57,1.4C137.37,365,142,364.18,142,364.18c3-2,17.48-4.17,28.06-7.3,6.35-1.87,11.3-4.08,11.57-6.78C183,336.69,172,284.72,172,284.72,168.66,261.86,162,229,162,229c1-7.13,3.54-18.39,6.7-30.79.8,2.57,1.57,4.73,2.33,6.83a14,14,0,0,0,.19,3.57,8.69,8.69,0,0,0,1.92,3.18l.36.43q.39,1.24.78,2.64c.57,2,1,4.11,1.39,6.2.05.23.09.47.13.7A1.82,1.82,0,0,0,176,223a79.4,79.4,0,0,0,2.56,11.4,16.87,16.87,0,0,1,1,6.84c-.55,5.26.94,10.19.88,15.44,0,2.72-.82,6.38.09,9,2.47,7.07,5.09,14.53,7.82,21.5.89,2.28,6.33,20.43,9.65,31.37C203.62,318.7,212.94,315.84,218.29,314ZM92.41,291.33C78.25,293.78,63.75,289,63.75,289l.4-8.27c15.41,10.09,33.08,1.58,33.08,1.58C97,286,92.41,291.33,92.41,291.33ZM113,274a3.08,3.08,0,1,1,3.08-3.08A3.08,3.08,0,0,1,113,274Zm50.11,11.77.4,8.27s-14.5,4.79-28.66,2.34c0,0-4.55-5.34-4.82-9C130,287.34,147.66,295.85,163.07,285.76Z"/><path class="cls-15" d="M134.27,101.42c0,.08.06.17.1.26a15.08,15.08,0,0,1,.62,1.94l0,.11a.19.19,0,0,1,0,.07l0,.1c0,.12.1.34.16.58s.19.71.28,1.1l0-.76c0-.39,0-.76-.06-1.12v-.09q0-.54-.09-1A8,8,0,0,1,134.27,101.42Z"/><path class="cls-15" d="M217.84,326.84a8.14,8.14,0,0,0,1.48-.31c0-.15,0-.33,0-.5a30.79,30.79,0,0,1-3.77.83A10,10,0,0,0,217.84,326.84Z"/><path class="cls-5" d="M87.34,102.13a1.62,1.62,0,0,1,.1-.18h-.25Z"/><path class="cls-16" d="M101.41,315.67l1-.06.52,0v-.07h1.47c1.24-.05,2.5-.06,3.79-.05l2.89.05h8.29v.12h1.44c-2.92-7.95-6.66-18.86-9.19-28.85l-1.37,1.84-2.34-3.13c-1.85,10.49-4.49,22.1-6.41,30.06l0,.08Z"/><path class="cls-16" d="M99.65,128.7l-.37,0,.6.51C99.73,128.91,99.65,128.7,99.65,128.7Z"/><path class="cls-16" d="M111.36,136.36l-.33-.61.07,0a10.07,10.07,0,0,1-2,.2l.76.45Z"/><path class="cls-16" d="M115.71,144.15l-1,8.71s-5.9-.7-7.52-.29l-1.87-7.92c-2.14,3.68-4.3,7.11-4.72,6.7A57.44,57.44,0,0,1,88.63,135c3.2,22.12,9,50.59,14.17,74.53l4.25-56.27,7.66.45,3.61,59.89c5.47-25.73,11.83-57.79,15.07-81.78a55.82,55.82,0,0,1-13,19C120,151.15,117.82,147.79,115.71,144.15Z"/><path class="cls-15" d="M45.05,320.65l2.44-14.13C46.66,311,45.82,315.87,45.05,320.65Z"/><path class="cls-15" d="M47.51,306.41l4.36-22.34S49.76,294.06,47.51,306.41Z"/><polygon class="cls-15" points="60.8 221.77 60.8 221.78 60.8 221.77 60.8 221.77"/><path class="cls-15" d="M59.54,240.3l2.36-12S60.93,233.11,59.54,240.3Z"/><path class="cls-15" d="M54.21,269.42l5.32-29.07C58,248.22,56,258.94,54.21,269.42Z"/><path class="cls-15" d="M51.87,284.07l2.32-14.53C53.33,274.55,52.53,279.51,51.87,284.07Z"/><path class="cls-15" d="M86.94,101c-.08.25-.15.54-.22.83.28-.72.46-1.12.46-1.12a18.24,18.24,0,0,0-.64,2c0,.13,0,.25-.07.39.07-.28.14-.57.22-.84s.39-.84.61-1.27a7.14,7.14,0,0,1-.41.65,11.86,11.86,0,0,1,.45-1.12c.07-.16.14-.33.21-.47s-.42.4-1.17,1.06l-.66.58Z"/><path class="cls-15" d="M105.27,144.65l1.87,7.92c1.62-.41,7.52.29,7.52.29l1-8.71c-1.82-3.13-3.63-6.46-4.35-7.79h-1.48S107.59,140.65,105.27,144.65Z"/><path class="cls-17" d="M105.27,144.65c2.32-4,4.61-8.29,4.61-8.29l-.76-.45a77.15,77.15,0,0,1-9.24-6.66l-.6-.51c-5.94-5.1-12.29-12.33-13.13-20.31,0,6.49.92,15.74,2.48,26.52a57.44,57.44,0,0,0,11.92,16.4C101,151.76,103.13,148.33,105.27,144.65Z"/><path class="cls-17" d="M86.72,101.81c-.07.29-.12.59-.18.91a18.24,18.24,0,0,1,.64-2S87,101.09,86.72,101.81Z"/><path class="cls-17" d="M135,103.8a.19.19,0,0,0,0-.07l0-.11c-.22-.76-.43-1.41-.62-1.94,0-.09-.07-.18-.1-.26-.32-.86-.54-1.33-.54-1.33a15.53,15.53,0,0,1,.67,2.18v0c.09.39.18.78.25,1.17,2.75,16.85-22.35,31.55-23.56,32.24l-.07,0,.33.61c.72,1.33,2.53,4.66,4.35,7.79,2.11,3.64,4.24,7,4.65,6.6a55.82,55.82,0,0,0,13-19c1.46-10.81,2.29-20,2.12-26.19-.09-.39-.19-.75-.28-1.1S135.11,104,135,103.8Z"/><path class="cls-15" d="M107.05,153.21l-4.25,56.27c3.25,14.93,6.28,28.09,8.33,36.83,1.79-7.93,4.38-19.5,7.19-32.76l-3.61-59.89Z"/><path class="cls-18" d="M59.62,126.68l6.59,5.18s-10.36,7.53-14.13,8.47c0,0,46.86,89.42,56.65,116.41l-.16.68a37.92,37.92,0,0,0-.3,9.82l2.8-7.26c1.88-14.6,59.18-119.65,59.18-119.65-3.76-.94-14.12-8.47-14.12-8.47l6.59-5.18c-6.63-3.14-14.52-13.74-18.18-19-.19-.29-.39-.57-.56-.82-1.29-1.07-2.81-2.3-4.25-3.46-2.65-2.14-5-4-5-4a16.71,16.71,0,0,1,.59,3.2q.06.51.09,1v.09c0,.36.05.73.06,1.12l0,.76c.17,6.22-.66,15.38-2.12,26.19-3.24,24-9.6,56-15.07,81.78-2.81,13.26-5.4,24.83-7.19,32.76-2-8.74-5.08-21.9-8.33-36.83-5.2-23.94-11-52.41-14.17-74.53-1.56-10.78-2.5-20-2.48-26.52a42,42,0,0,1,.26-4.83l.06-.49c0-.14,0-.26.07-.39.06-.32.11-.62.18-.91s.14-.58.22-.83l-1.22.72c-.51.31-1.15.71-1.86,1.17a63.69,63.69,0,0,0-5.51,4l-.87,1.27C73.7,113.52,66.06,123.63,59.62,126.68Z"/><path class="cls-19" d="M113,267.83a3.08,3.08,0,1,0,3.08,3.08A3.08,3.08,0,0,0,113,267.83Z"/><path class="cls-19" d="M130,287.34c.27,3.69,4.82,9,4.82,9C149,298.82,163.47,294,163.47,294l-.4-8.27C147.66,295.85,130,287.34,130,287.34Z"/><path class="cls-19" d="M64.15,280.72l-.4,8.27s14.5,4.79,28.66,2.34c0,0,4.54-5.34,4.82-9C97.23,282.3,79.56,290.81,64.15,280.72Z"/><path class="cls-19" d="M3.43,309c-2.1-.45-3.43-.78-3.43-.78s.42,3,.78,11.46a6.38,6.38,0,0,0,3,1.37c4.8,1.07,13.2.39,18.55-.22,2.91-.33,4.92-.65,4.92-.65l.37-10a6.52,6.52,0,0,1-1,.41C21.31,312.37,9.34,310.22,3.43,309Z"/><path class="cls-19" d="M223.12,324c-.73-8.42-.7-11.46-.7-11.46s-1.63.64-4.13,1.5c-5.35,1.84-14.67,4.7-20.31,4.49a8.93,8.93,0,0,1-2.73-.46l1.64,9.83s1.34,0,3.41,0a105.61,105.61,0,0,0,15.22-1,30.79,30.79,0,0,0,3.77-.83A7.61,7.61,0,0,0,223.12,324Z"/><path class="cls-20" d="M45.05,320.67h0Z"/><path class="cls-20" d="M59.53,240.34h0v0Z"/><path class="cls-20" d="M61.9,228.31c-.26-1.9-.63-4.1-1.1-6.53Z"/><path class="cls-20" d="M54.2,269.47v.07l0-.12Z"/><path class="cls-20" d="M60.8,221.77c-.93-4.86-2.25-10.68-3.78-17Z"/><path class="cls-21" d="M70.94,234.29c-2.8-8.91-16.74-42.14-16.74-42.14L57,204.79c1.53,6.3,2.85,12.12,3.78,17h0c.47,2.43.84,4.63,1.1,6.53l-2.36,12v0l-5.32,29.07,0,.12-2.32,14.53-4.36,22.34v.11l-2.44,14.13h0l20.09-89.84Z"/><path class="cls-9" d="M87.41,16.58a13.61,13.61,0,0,1,5.3,1.94,10.1,10.1,0,0,1,3.6,4.41,8.72,8.72,0,0,0-3.14-5,12.47,12.47,0,0,0-5.6-2.29,23.51,23.51,0,0,0-6-.17,33.17,33.17,0,0,0-5.25.93l-.58.14.63,0c1.76-.12,3.51-.22,5.24-.26A31.73,31.73,0,0,1,87.41,16.58Z"/><path class="cls-9" d="M85.81,7.55A31.8,31.8,0,0,1,90,7.86a21.66,21.66,0,0,1,7.76,2.56,25.52,25.52,0,0,1,6.33,5.21,24.35,24.35,0,0,1,2.5,3.31,26.26,26.26,0,0,1,1.9,3.45l.11.22c0-.07,0-.14-.07-.22a22.14,22.14,0,0,0-3.85-7.25,22.94,22.94,0,0,0-6.42-5.59A19.77,19.77,0,0,0,90.05,7.1a29.79,29.79,0,0,0-7.61.38l-.82.14.63,0C83.44,7.55,84.63,7.51,85.81,7.55Z"/><path class="cls-9" d="M113,23.2a25.56,25.56,0,0,0-2-13.09,21.09,21.09,0,0,0-3.66-5.65l-1.19-1.2-1.29-1.09-1.39-.94c-.48-.27-1-.54-1.47-.79A23.68,23.68,0,0,1,106.7,5,26.46,26.46,0,0,1,110,10.52a32.53,32.53,0,0,1,2,6.19A41.19,41.19,0,0,1,113,23.2v0A.06.06,0,0,1,113,23.2Z"/><path class="cls-9" d="M118.19,4.76,119,6.09l.75,1.37a23.54,23.54,0,0,1,2.16,5.79,15.93,15.93,0,0,1,.23,6.11,15.28,15.28,0,0,1-2.3,5.77c.35-.4.69-.81,1-1.23s.57-.9.87-1.36.44-1,.66-1.47.33-1,.49-1.55a14.18,14.18,0,0,0,0-6.48,19.28,19.28,0,0,0-2.47-6l-.89-1.34-1-1.27-1.08-1.19-1.16-1.1c.31.44.63.86,1,1.27Z"/><path class="cls-9" d="M135.09,19.16a16,16,0,0,1,4.66-.8,20.66,20.66,0,0,1,4.79.48,12.69,12.69,0,0,0-4.78-1.26l-.63,0-.63,0c-.41,0-.84,0-1.25.09a15.71,15.71,0,0,0-6.92,2.79,15.22,15.22,0,0,0-3.55,3.43,29.55,29.55,0,0,1,4-2.78A21.78,21.78,0,0,1,135.09,19.16Z"/><path class="cls-9" d="M140.15,26.23a8.94,8.94,0,0,1,3.16,1.61,13.49,13.49,0,0,1,2.53,2.68,8.23,8.23,0,0,0-2-3.27,7.87,7.87,0,0,0-3.39-2,10.69,10.69,0,0,0-7.46.66l-.11.05.14,0a24.22,24.22,0,0,1,3.58-.25A13.34,13.34,0,0,1,140.15,26.23Z"/><polygon class="cls-22" points="119.32 315.5 111.03 315.5 109.32 315.5 104.35 315.5 102.88 315.5 102.88 315.57 102.88 315.61 102.88 325.69 102.88 325.8 119.32 325.8 119.32 325.69 119.32 315.62 119.32 315.5"/><polygon class="cls-8" points="107.78 50.96 108.24 56.78 108.56 49.2 107.36 45.14 105.79 46.35 107.78 50.96"/><polygon class="cls-9" points="105.79 46.35 107.36 45.14 107.78 44.82 94.7 43.81 90.77 46.04 94.57 45.49 105.79 46.35"/></g></g></svg>