<svg xmlns="http://www.w3.org/2000/svg" viewBox="0 0 145.86 616.12"><defs><style>.cls-1{fill:none;}.cls-2{fill:#9b5a25;}.cls-3{fill:#d89875;}.cls-4{fill:#f69977;}.cls-5{fill:#c3896e;}.cls-6{fill:#232525;}.cls-7{fill:#34516d;}.cls-8{fill:#5e2f1d;}.cls-9{fill:#fff;}.cls-10{fill:#16110e;}.cls-11{fill:#95684e;}.cls-12{fill:#71bf57;}.cls-13{fill:#405eaa;}.cls-14{fill:#23160e;}.cls-15{fill:#481815;}.cls-16{fill:#1f150c;}.cls-17{fill:#bb675c;}.cls-18{fill:#f1dfd0;}.cls-19{fill:#2a4462;}.cls-20{fill:#7a4620;}.cls-21{fill:#261611;}.cls-22{fill:#1a1210;}</style></defs><title>Bandi</title><g id="Layer_2" data-name="Layer 2"><g id="Bandi"><path class="cls-1" d="M28,247.85c-.48.07-1,.13-1.64.2l-3.37.38q-2.72,14.46-5.9,28.84C16,282.41,15.54,293,18.3,297.51c0-1,.07-2.09.11-3.13,0,.45,0,.73,0,.83C18.38,287.74,20.06,270.47,28,247.85Z"/><path class="cls-1" d="M112.1,187.76c-1.14,9.36-1,23.82,3.37,45l-1.1-30.56Z"/><path class="cls-1" d="M39.6,194.9c.19-8-1.18-12.17-1.88-13.76-.65-1.29-1.32-2.57-2-3.85L32,201l-1.23,34.05-.05,1.36-.15,4C37.18,219.08,39.14,203.94,39.6,194.9Z"/><path class="cls-1" d="M121.58,256.72A121.06,121.06,0,0,1,127,294.49c0,1.72-.07,3.69-.11,5.87l0,0c.08-.11.16-.21.23-.32l.2-.28.4-.54c3.11-4.17,2.7-15.39,1.51-20.72-2.16-9.61-4.11-19.26-5.92-28.93-1.5-.1-2.82-.23-3.92-.36C120.1,251.62,120.81,254.13,121.58,256.72Z"/><path class="cls-1" d="M128.08,331.18c1.69-5.2-1.09-10.48-.55-12.75,0,0-.47.44-1.09,1.16-.12,4.62-.25,9.5-.4,14.46A11.52,11.52,0,0,0,128.08,331.18Z"/><path class="cls-1" d="M18.29,330a14.09,14.09,0,0,0,2.5,3.4c-.77-5.38-1.41-10.74-1.85-16l-.1-.1C19.38,319.52,16.6,324.79,18.29,330Z"/><path class="cls-2" d="M120.78,341c1-2.14,3.45-4.78,5.26-6.9.15-5,.28-9.84.4-14.46a11.58,11.58,0,0,0-2.82,5.36c-.42,3.16-.72,4-5.3,5.45l-.39.13s.55-3.5,1.86-12.68a39,39,0,0,1,4.35-13l0,0c.13-.25.26-.47.4-.7s.17-.32.26-.47c.26-.45.52-.88.77-1.29l.08-.13.38-.59.14-.21.33-.49.18-.26.25-.36c0-2.18.08-4.15.11-5.87a121.06,121.06,0,0,0-5.44-37.77c-.77-2.59-1.48-5.1-2.15-7.55,1.1.13,2.42.26,3.92.36a77.8,77.8,0,0,0,13.4-.14,111.25,111.25,0,0,1-13.45-.1c-1.47-.09-2.8-.19-3.91-.28-2-.17-3.34-.32-3.34-.32l-.28-10.31a6.91,6.91,0,0,0,1,.41,15.1,15.1,0,0,0,4.69.58c5.82,0,13.66-1.91,18.85-3.35,1.76-.49,3.21-.93,4.17-1.23-.28-14.92-4.2-24.19-7.67-34.83,0-64-8.56-80.12-9.87-82.21,0,0,0,0,0,0l0,0-.1,0-.08-.13h0l-.09.07-.29-.12h0l-.85-.33.19.07c-9.36-3.7-17.41-8.36-26.36-12.66,0,0-9.7,16.33-15,18.46a28.09,28.09,0,0,1-21-.45c-6.53-2.91-11.67-15-12.83-17.93l-1.24-.29c-3.41,1.47-6.77,3.08-10.15,4.63-6.33,2.91-13.27,4.36-19.65,7.36h0l-.05.07s-.06.09-.09.16c-1.32,2.08-9.88,18.18-9.88,82.21C6,209.66,2,219.12,1.84,234.65c1.05.24,2.48.55,4.16.88,5.35,1.06,13.19,2.33,19,2.08a14.25,14.25,0,0,0,5.75-1.17l.05-1.36L32,201l3.72-23.74c-1.17-2.24-2.32-4.5-3.32-6.8l-.43-1-.3-.78c-.15-.39-.29-.78-.43-1.17l-.24-.71c-.18-.55-.35-1.11-.5-1.67a1.66,1.66,0,0,1-.06-.21,21.82,21.82,0,0,1-.62-3.53c-.58-6.13,1.57-11.41,2.79-17.69a10.14,10.14,0,0,0,.16-1.2c0-.1,0-.19,0-.28,0-.3,0-.59,0-.88,0-.13,0-.26,0-.39s0-.5-.06-.76,0-.27,0-.41l-.12-.72-.09-.41c-.06-.23-.12-.47-.19-.71s-.07-.25-.11-.38-.16-.5-.25-.74l-.12-.34c-.11-.27-.23-.55-.35-.82a2.29,2.29,0,0,0-.1-.23,29.23,29.23,0,0,0-1.7-3.16l-.06-.11-.59-.93-.06-.1c-.72-1.1-1.46-2.18-2.17-3.25l0,0h0a29.12,29.12,0,0,1,3.29,3.08c2.63,3.24,5.51,6.46,6.2,10.71s-.63,8.42-1.47,12.49a28.88,28.88,0,0,0,.43,14.42,12.21,12.21,0,0,0,1.39,3.1c1.74,2.72,4.47,4.35,7.77,5.71,7.32,3,15.81,2.92,23.55,2.08a13.86,13.86,0,0,0,5.78-1.59,3.48,3.48,0,0,1,1.18-.57c1.45-.24,4.22,1.42,5.86,1.63,2.55.31,5.13.12,7.69.33,1.53.12,3.06.34,4.6.58h0a26.06,26.06,0,0,0,14.18-3.14h0c.89-.61,1.83-1.2,2.79-1.86l.13-.09c5-3.51,8.63-7.38,10-13.62a31.92,31.92,0,0,0-.5-14.35c-1-4-4.77-7.48-3.79-11.89a19.18,19.18,0,0,1,3.25-6.95,28.44,28.44,0,0,1,2.17-2.62v0a23.92,23.92,0,0,0-1.42,3.09c-.08.2-.17.4-.24.6a14.87,14.87,0,0,0-.89,3.88,9.15,9.15,0,0,0,.12,2.45c0,.19.09.38.14.57a25,25,0,0,0,.94,2.68c3.47,8.87,4.33,18.17.56,27.12a42.28,42.28,0,0,1-4.39,7.54,26,26,0,0,1-5.65,4.48c-.63.38-1.26.73-1.86,1l0,0A25.42,25.42,0,0,1,103,181.1l-.14.05h0l-.3.1c.69.06,1.38.11,2.07.13-16.23-.61-38.79-.29-50.94,10.5a26.57,26.57,0,0,0-6.5,9.2l-1.57,8.51c-.25,2.1-.62,4.2-1.07,6.29l.56-3.52L44,218.25s-5.89,15.45-7.34,18.87c-15.85,37.44-17.95,53.53-18.23,57.26,0,1-.08,2.09-.11,3.13.11.17.2.34.31.49l.4.54.19.27.24.33.27.39.18.27.33.48a1.64,1.64,0,0,0,.14.22c.13.19.25.39.38.59l.08.13c.25.4.51.83.77,1.28l.27.48c.13.23.26.45.39.7l0,0a38.9,38.9,0,0,1,4.35,13c1.31,9.18,1.86,12.67,1.86,12.67l-.38-.12c-4.59-1.48-4.89-2.29-5.31-5.46-.39-2.94-3.25-5.87-3.81-6.41.44,5.31,1.08,10.67,1.85,16,1.75,2,3.91,4.4,4.8,6.37,1.25,2.72.16,4.15.16,4.15-1.37-1-2.63-2.06-3.81-3.07.56,3.36,1.16,6.72,1.79,10.1,6.21,33-1.56,68.35-1.56,68.35l100.44.08a122.86,122.86,0,0,1,.64-22.45c.86-6.26,1.83-31.44,2.59-56.14-1.56,1.41-3.29,2.85-5.22,4.31C120.62,345.1,119.54,343.68,120.78,341Zm-43-182.69H71.53c-1.29-6.46,0-33.43,0-33.43h6.26C78.45,155.25,77.79,158.26,77.79,158.26Zm34.31,29.5,2.27,14.45,1.1,30.56C111.05,211.58,111,197.12,112.1,187.76Z"/><path class="cls-3" d="M131.73,270.53c-.35.92,3.68,16.11-1.31,25.14a62.17,62.17,0,0,1-3.54,5.74,30.79,30.79,0,0,1-2.74,3.42,39,39,0,0,0-4.35,13c-1.31,9.18-1.86,12.68-1.86,12.68l.39-.13c4.58-1.48,4.88-2.29,5.3-5.45a11.58,11.58,0,0,1,2.82-5.36c.62-.72,1.09-1.16,1.09-1.16-.54,2.27,2.24,7.55.55,12.75a11.52,11.52,0,0,1-2,2.87c-1.81,2.12-4.29,4.76-5.26,6.9-1.24,2.73-.16,4.15-.16,4.15,1.93-1.46,3.66-2.9,5.22-4.31,14.64-13.26,13.36-24.11,14.59-36.86.21-2.25.35-4.5.47-6.74.68-13.23.6-26.51.26-39.75.1,3.76.17,7.51.21,11.27C139.11,269,132,269.76,131.73,270.53Z"/><path class="cls-4" d="M126.66,300.72c.08-.13.17-.24.25-.36l0,0,0,0Z"/><path class="cls-5" d="M123.35,249.53c1.81,9.67,3.76,19.32,5.92,28.93,1.19,5.33,1.6,16.55-1.51,20.72l-.4.54-.2.28c-.07.11-.15.21-.23.32l0,0c-.08.12-.17.23-.25.36l-.18.26-.33.49-.14.21-.38.59-.08.13c-.25.41-.51.84-.77,1.29-.09.15-.18.31-.26.47s-.27.45-.4.7l0,0a30.79,30.79,0,0,0,2.74-3.42,62.17,62.17,0,0,0,3.54-5.74c5-9,1-24.22,1.31-25.14.3-.77,7.38-1.58,9.64-1.82,0-3.76-.11-7.51-.21-11.27q-.09-3.85-.24-7.72l0-.83a39.15,39.15,0,0,1-4.14.5A77.8,77.8,0,0,1,123.35,249.53Z"/><path class="cls-2" d="M143.88,248.18s0-.08,0-.11c-.26.1-.54.21-.84.3Z"/><path class="cls-6" d="M71.2,571.12h0Z"/><path class="cls-4" d="M44.34,428.69c0,1.23-.14,2.55-.32,3.9a24.56,24.56,0,0,1-.48,2.49,24.56,24.56,0,0,0,.48-2.49C44.2,431.24,44.3,429.92,44.34,428.69Z"/><path class="cls-3" d="M48.64,603.44c1.23.8,14.29.91,17.36-2.44,2.68-2.91,2.87-4.9,3.59-8.68a99.17,99.17,0,0,0,1.72-14.87c0-.81,0-1.63.07-2.44,0-1,0-2.07-.12-3.12l-.06-.75h0c-.4-4.16-1.37-8.36-2-12.46l-.08,0c-2.38-1.2-7.85.67-10.91.67a2.54,2.54,0,0,0-2.34,1.27c-1.26,7-5.59,27.1-7.08,34.22-.24,1.16-1.38,4.62-1.09,6.86A2.31,2.31,0,0,0,48.64,603.44Z"/><path class="cls-6" d="M95.12,603.44c-1.22.8-14.29.91-17.36-2.44-2.67-2.91-2.86-4.9-3.59-8.68a99.17,99.17,0,0,1-1.72-14.87c0-.81,0-1.63-.06-2.44s0-1.65.07-2.48c-.15,1-.36,2.26-.57,3.49-.26-1.57-.52-3.2-.63-4.13.08,1.05.13,2.08.12,3.12,0,.81,0,1.63-.07,2.44a99.17,99.17,0,0,1-1.72,14.87c-.72,3.78-.91,5.77-3.59,8.68-3.07,3.35-16.13,3.24-17.36,2.44a2.31,2.31,0,0,1-.89-1.72,13.92,13.92,0,0,0-2.3,2.06,17.42,17.42,0,0,0-3.93,8.2c-.2,1-.36,3.12.47,4.14H63a10.6,10.6,0,0,0,7.28-6.9l0-.07a43.1,43.1,0,0,0,1.54-5.75,44.67,44.67,0,0,0,1.54,5.75l0,.07a10.64,10.64,0,0,0,7.28,6.9h21c.84-1,.67-3.09.48-4.14a17.44,17.44,0,0,0-3.94-8.2,13.92,13.92,0,0,0-2.3-2.06A2.27,2.27,0,0,1,95.12,603.44Z"/><path class="cls-4" d="M76.29,544.53v0h0Z"/><path class="cls-3" d="M85.51,559.37c-3.06,0-8.54-1.87-10.92-.67l-.07,0c-.66,4.56-1.78,9.24-2.06,13.86,0,.83-.08,1.65-.07,2.48s0,1.63.06,2.44a99.17,99.17,0,0,0,1.72,14.87c.73,3.78.92,5.77,3.59,8.68,3.07,3.35,16.14,3.24,17.36,2.44a2.27,2.27,0,0,0,.89-1.72c.3-2.24-.85-5.7-1.09-6.86-1.49-7.12-5.81-27.23-7.08-34.22A2.52,2.52,0,0,0,85.51,559.37Z"/><path class="cls-4" d="M77.73,517.85c.1,2.08.09,4.18,0,6.26v0C77.82,522,77.83,519.93,77.73,517.85Z"/><path class="cls-7" d="M126.44,117.47h0l-.65-.25-.19-.07Z"/><path class="cls-3" d="M25.59,339.77c-.89-2-3.05-4.35-4.8-6.37a14.09,14.09,0,0,1-2.5-3.4c-1.69-5.21,1.09-10.48.55-12.75l.1.1c.56.54,3.42,3.47,3.81,6.41.42,3.17.72,4,5.31,5.46l.38.12s-.55-3.49-1.86-12.67a38.9,38.9,0,0,0-4.35-13,35.35,35.35,0,0,1-3.95-5.23c-.72-1.12-1.5-2.42-2.33-3.93-5-9-1-24.22-1.31-25.14S7.26,267.77,5,267.53c0-3.76.11-7.52.21-11.27-.34,13.24-.42,26.51.26,39.74.12,2.25.26,4.5.48,6.75,1.26,13.14-.14,24.27,16,38.1,1.18,1,2.44,2,3.81,3.07C25.75,343.92,26.84,342.49,25.59,339.77Z"/><path class="cls-5" d="M14.64,269.35c.35.92-3.68,16.11,1.31,25.14.83,1.51,1.61,2.81,2.33,3.93a35.35,35.35,0,0,0,3.95,5.23l0,0c-.13-.25-.26-.47-.39-.7l-.27-.48c-.26-.45-.52-.88-.77-1.28l-.08-.13c-.13-.2-.25-.4-.38-.59a1.64,1.64,0,0,1-.14-.22l-.33-.48-.18-.27-.27-.39-.24-.33-.19-.27-.4-.54c-.11-.15-.2-.32-.31-.49-2.76-4.49-2.35-15.1-1.19-20.24q3.21-14.37,5.9-28.84c-5.43.56-12.7,1-17.56.26q-.15,3.8-.24,7.57c-.1,3.75-.16,7.51-.21,11.27C7.26,267.77,14.34,268.58,14.64,269.35Z"/><path class="cls-2" d="M28,247.84l-1.65.21c.61-.07,1.16-.13,1.64-.2Z"/><path class="cls-8" d="M23,248.43l3.37-.38,1.65-.21q.84-2.42,1.79-4.89l.76-2.46v0l.15-4A14.25,14.25,0,0,1,25,237.61c-5.79.25-13.63-1-19-2.08-1.68-.33-3.11-.64-4.16-.88L0,234.22S.47,237.56.87,247c.86.87,2.5,1.42,4.58,1.74C10.31,249.46,17.58,249,23,248.43Zm-15.4-8.91h0l0,.06Z"/><path class="cls-9" d="M7.61,239.52l0,.06,0-.06Z"/><path class="cls-8" d="M145.81,234.38l-1.3.41c-1,.3-2.41.74-4.17,1.23-5.19,1.44-13,3.31-18.85,3.35a15.1,15.1,0,0,1-4.69-.58,6.91,6.91,0,0,1-1-.41l.28,10.31s1.29.15,3.34.32c1.11.09,2.44.19,3.91.28a111.25,111.25,0,0,0,13.45.1,39.15,39.15,0,0,0,4.14-.5,20.8,20.8,0,0,0,2.16-.52c.3-.09.58-.2.84-.3a5.33,5.33,0,0,0,1.72-1.06C146,237.62,145.81,234.38,145.81,234.38Zm-6.64,6.33,0,0,0-.06Z"/><path class="cls-9" d="M139.17,240.71h0l0,.06Z"/><path class="cls-10" d="M38.94,99.54a14.52,14.52,0,0,0,1.52,1.11,39.81,39.81,0,0,1-1.23-8.46Q39,95.87,38.94,99.54Z"/><path class="cls-10" d="M87.8,79.28l-3.54,2.27c0,.73.09,1.47.14,2.23l0,.16,0,0c.39,6,1,12.5,1.67,14L88,99l3.59,1.75a118.26,118.26,0,0,0,4.71-17.33c.56-2.56,1.11-5.12,1.67-7.68.92-4.25,1-8.52,1.48-12.84L99.64,61A31.21,31.21,0,0,1,87.8,79.28Z"/><path class="cls-10" d="M108.64,87a33.64,33.64,0,0,1-5.52,16.35,31.61,31.61,0,0,1-4.57.78l.09,0A28,28,0,0,0,107,102,48.43,48.43,0,0,0,108.64,87Z"/><path class="cls-10" d="M112.21,98.69A24.08,24.08,0,0,1,108,101.5c-.35.19-.7.36-1.06.52,6.73-3.13,7-5,7-5,.22-2.5.37-5,.51-7.52A42.64,42.64,0,0,1,112.21,98.69Z"/><path class="cls-10" d="M63.2,96.08c.73-1.94,1.26-7.53,1.61-12.72L65,81.13,62,79.27A31.13,31.13,0,0,1,51.73,66.1a1.58,1.58,0,0,1-1.3.8l-.21,0c.05.92.09,1.84.14,2.76.58,10.8,1.94,21.64,6.11,31.54l4.26-2A7.76,7.76,0,0,0,63.2,96.08Z"/><path class="cls-10" d="M50.88,63.81c-.11-.34-.21-.7-.31-1.05,0,0,0,.06,0,.09a2.86,2.86,0,0,0-.07-.28c-.16-.56-.31-1.13-.43-1.71,0-.11,0-.23-.07-.34l0-.11c0,1.11.07,2.23.11,3.34l.2,0A1.62,1.62,0,0,1,50.88,63.81Z"/><path class="cls-10" d="M50.36,104l1-.43,0,0a54.71,54.71,0,0,1-3.66-13.39,30,30,0,0,0,1.44,14.12c-.38-.1-.76-.19-1.13-.3.45.14.93.26,1.42.39l1.24.29C50.44,104.22,50.36,104,50.36,104Z"/><path class="cls-3" d="M98.53,104.12a81.16,81.16,0,0,1-8.54.32c.53-1.13,1-2.27,1.46-3.42l.12-.32L88,99l-1.9-1c-.71-1.48-1.28-8-1.67-14l-4.9,3.52a7.75,7.75,0,0,1-9.21,0l-5.49-4v-.09c-.35,5.19-.88,10.78-1.61,12.72a7.76,7.76,0,0,1-2.47,3.13l-4.26,2c.05.11.09.22.14.34.6,1.39,1.25,2.77,2,4.12-2.25-.2-4.51-.44-6.74-.83-.18-.41-.36-.83-.53-1.25l-1,.43s.08.23.24.64c1.16,2.91,6.3,15,12.83,17.93a28.09,28.09,0,0,0,21,.45c5.28-2.13,15-18.43,15-18.46h0l-.79-.39-.09,0Z"/><path class="cls-11" d="M84.4,83.78l-.47-2-4.36,2.8a7.75,7.75,0,0,1-9.21,0L65,81.14h0l-.15,2.23v.09l5.49,4a7.75,7.75,0,0,0,9.21,0L84.41,84l0,0Z"/><path class="cls-3" d="M50.88,63.81A1.59,1.59,0,0,1,52,65.24a1.56,1.56,0,0,1-.22.86A31.13,31.13,0,0,0,62,79.27L65,81.13h0l5.4,3.44a7.75,7.75,0,0,0,9.21,0l4.36-2.8.47,2c-.05-.76-.09-1.5-.14-2.23l3.54-2.27A31.21,31.21,0,0,0,99.64,61c.76-6.55,1.23-13.1-.49-19.43-.13-.44-.25-.88-.39-1.31s-.38-1.15-.59-1.71a13.48,13.48,0,0,0-4.42-.81c-2.52.08-7.85,2.78-9.87,3.86a1,1,0,0,1-1.32-.33,1,1,0,0,1-.17-.53,1,1,0,0,1,.54-.88c2.06-1.07,6.92-3.47,9.37-3.56A14.6,14.6,0,0,1,97.94,38a37.19,37.19,0,0,0-2-4.36c-1-1.15-2-2.27-3.09-3.33a57,57,0,0,0-4.37-3.85c-1.31-1-2.84-2.48-4.43-3a11.37,11.37,0,0,1-.85,2.3c-.43.69-.86,1.38-1.33,2a31.67,31.67,0,0,1-3.21,3.82,33.44,33.44,0,0,1-7.85,5.93c-.83.45-1.75.9-2.71,1.34.81.39,1.54.75,2.07,1a1,1,0,0,1,.48.56h0a15.82,15.82,0,0,1,1.65,3.69c.48,1.87.82,4.15.48,9.07,0,0-.67-8.7-2.93-11.38l-.1-.12a1.08,1.08,0,0,1-.58-.09c-.8-.43-2.11-1.1-3.57-1.77-4.52,1.68-9.77,2.66-13.81,1.14-.62,4-1.54,7.68-1.94,11.58q0,3.07,0,6.15c.19,1.38.45,2.78.63,4C50.67,63.11,50.77,63.47,50.88,63.81ZM89.67,43.53a2.86,2.86,0,0,0,.35-2.3,2.51,2.51,0,0,1,.58,2.29,8.44,8.44,0,0,1,1,.13,2.64,2.64,0,0,0,.85-2.17,2.75,2.75,0,0,1,.13,2.45,8.55,8.55,0,0,1,1.19.52,1.84,1.84,0,0,0,.44-.48,2.2,2.2,0,0,0,.34-1.37,2.63,2.63,0,0,1,.12,1.52,2.48,2.48,0,0,1-.27.7c.34.22.66.45,1,.68A2.67,2.67,0,0,0,97,43.62a2.71,2.71,0,0,1-.24,1.71,2.41,2.41,0,0,1-.6.74,11.32,11.32,0,0,0,1.8,1.27s-4,2.24-5.83,2.53h0a10.68,10.68,0,0,1-4.79.34,11.94,11.94,0,0,1-2.93-.81l-2.75-.17S85.53,43.92,89.67,43.53ZM81.51,68.66a4.56,4.56,0,0,0,2.92-.58h0a10.53,10.53,0,0,1-2.15,3.33l-.36.35-.36.32a14.4,14.4,0,0,1-1.32,1,4.7,4.7,0,0,1-1.8.84l-.14,0c-.48.07-1.93.19-1.93.19a14.55,14.55,0,0,1-4.25-.29,7.27,7.27,0,0,1-1.89-.76,10,10,0,0,1-1.44-1c-.2-.18-.42-.35-.62-.51l-1-.78c-.29-.23-1.79-2.37-1.79-2.37a10.6,10.6,0,0,0,5-.39,6.15,6.15,0,0,1,4.48.21l.17.09A5,5,0,0,1,78.64,68a9.83,9.83,0,0,0,1.72.56A11,11,0,0,0,81.51,68.66ZM70.89,61.89v-.06s0,0,0-.07a1,1,0,0,1,.32-.54l.11-.11c-.27.46-.44,1.26,1.22,1.64a5.32,5.32,0,0,0,2,.69,2.07,2.07,0,0,0,.35,0h.34a2.07,2.07,0,0,0,.35,0,5.32,5.32,0,0,0,2-.69c1.66-.38,1.49-1.18,1.22-1.64l.11.11a1,1,0,0,1,.32.54.19.19,0,0,0,0,.07v.06a1.11,1.11,0,0,1,0,.19,2.28,2.28,0,0,1,0,.44,2.48,2.48,0,0,1-.19.51c-.36.73-2,1.36-2,1.36a3.54,3.54,0,0,1-2,.67,3.7,3.7,0,0,1-2-.67s-1.61-.63-2-1.36a2.48,2.48,0,0,1-.19-.51,2.28,2.28,0,0,1,0-.44A1.11,1.11,0,0,1,70.89,61.89ZM55.74,45.34a2.59,2.59,0,0,1-.24-1.67A2.64,2.64,0,0,0,57,45.51c.3-.23.61-.45.94-.67a2.34,2.34,0,0,1-.26-.68,2.53,2.53,0,0,1,.12-1.49A2.13,2.13,0,0,0,58.16,44a2,2,0,0,0,.44.48A7.69,7.69,0,0,1,59.76,44a2.63,2.63,0,0,1,.13-2.38,2.6,2.6,0,0,0,.82,2.12,8.09,8.09,0,0,1,1-.14,2.42,2.42,0,0,1,.57-2.23,2.75,2.75,0,0,0,.34,2.24c4,.38,7.84,5.56,7.84,5.56l-2.69.18h0a12.21,12.21,0,0,1-2.86.79,10.48,10.48,0,0,1-4.68-.33,3.26,3.26,0,0,1-.44-.15c-1.83.17-3.12-1.51-5.24-2.33a10.76,10.76,0,0,0,1.75-1.24A2.28,2.28,0,0,1,55.74,45.34Z"/><path class="cls-3" d="M83.25,69.09l1.18-1-1.24,1-.65.54h0A6.74,6.74,0,0,0,83.25,69.09Z"/><path class="cls-3" d="M50,60.39v0l0,.11Z"/><polygon class="cls-3" points="67.65 69.66 65.36 68.42 67.64 69.66 67.65 69.66"/><path class="cls-11" d="M70.82,37.53a33.44,33.44,0,0,0,7.85-5.93,31.67,31.67,0,0,0,3.21-3.82c.47-.66.9-1.35,1.33-2a11.37,11.37,0,0,0,.85-2.3c1.59.56,3.12,2,4.43,3a57,57,0,0,1,4.37,3.85c1.08,1.06,2.1,2.18,3.09,3.33a29.09,29.09,0,0,0-4.17-5.87,48.66,48.66,0,0,0-8.22-6.69,18,18,0,0,1-3.4,6.44,30.11,30.11,0,0,1-11.6,8.78A24.05,24.05,0,0,1,65,37.47c1.09.43,2.19.93,3.16,1.4C69.07,38.43,70,38,70.82,37.53Z"/><path class="cls-11" d="M65.66,39.87A31.68,31.68,0,0,0,60.91,38,20.54,20.54,0,0,1,57.4,38a26.23,26.23,0,0,0-5.81,2,42,42,0,0,1,4.24-2.2c-.57-.11-1.14-.25-1.7-.41a12.1,12.1,0,0,0,3.95-1.93,47.49,47.49,0,0,0,9.54-8.52h0l.17-.18h0q-2,1.18-4,2.43l-1.78,1.12a55.55,55.55,0,0,0-11.39,9.2c-.41,4.38-.6,8.77-.64,13.16.4-3.9,1.32-7.59,1.94-11.58C55.89,42.53,61.14,41.55,65.66,39.87Z"/><path class="cls-11" d="M50.08,60.86c.12.58.27,1.15.43,1.71a2.86,2.86,0,0,1,.07.28s0-.06,0-.09c-.18-1.24-.44-2.64-.63-4,0,.55,0,1.1,0,1.65l0,.13C50,60.63,50.05,60.75,50.08,60.86Z"/><path class="cls-12" d="M51.73,66.1a1.56,1.56,0,0,0,.22-.86,1.59,1.59,0,0,0-1.07-1.43,1.62,1.62,0,0,0-.59-.09l-.2,0c0,.15,0,.29,0,.43l.2,0a1.1,1.1,0,0,1,.78.26,1.15,1.15,0,0,1,.42.84.69.69,0,0,1,0,.25,1.14,1.14,0,0,1-1.08.95.74.74,0,0,1-.21,0c0,.15,0,.29,0,.43l.21,0A1.58,1.58,0,0,0,51.73,66.1Z"/><path class="cls-13" d="M51.49,65.51a.69.69,0,0,0,0-.25,1.15,1.15,0,0,0-.42-.84,1.1,1.1,0,0,0-.78-.26l-.2,0,.09,2.27a.74.74,0,0,0,.21,0A1.14,1.14,0,0,0,51.49,65.51Z"/><path class="cls-9" d="M69.1,48.68A18.09,18.09,0,0,0,65.7,46a3,3,0,0,1,.19,1,2.79,2.79,0,1,1-4.32-2.33c-2.34.11-3.94,2.45-3.94,2.45a14.2,14.2,0,0,1,1,1.29,13.87,13.87,0,0,0,1.19,1.23h0a3.26,3.26,0,0,0,.44.15,10.48,10.48,0,0,0,4.68.33,12.21,12.21,0,0,0,2.86-.79h0Z"/><path class="cls-14" d="M60.31,47a2.79,2.79,0,0,0,5.58,0,3,3,0,0,0-.19-1c-.33-.19-.67-.38-1-.55a.63.63,0,1,1-.36-.16,8.13,8.13,0,0,0-2.08-.61,3.7,3.7,0,0,0-.66,0A2.79,2.79,0,0,0,60.31,47Z"/><path class="cls-15" d="M59.81,49.63h0a13.87,13.87,0,0,1-1.19-1.23,14.2,14.2,0,0,0-1-1.29s1.6-2.34,3.94-2.45a3.7,3.7,0,0,1,.66,0,8.13,8.13,0,0,1,2.08.61h.09a.52.52,0,0,1,.27.15c.36.17.7.36,1,.55a18.09,18.09,0,0,1,3.4,2.68l-1.31.64h0l2.69-.18s-3.8-5.18-7.84-5.56a2.75,2.75,0,0,1-.34-2.24,2.42,2.42,0,0,0-.57,2.23,8.09,8.09,0,0,0-1,.14,2.6,2.6,0,0,1-.82-2.12A2.63,2.63,0,0,0,59.76,44a7.69,7.69,0,0,0-1.16.52,2,2,0,0,1-.44-.48,2.13,2.13,0,0,1-.32-1.34,2.53,2.53,0,0,0-.12,1.49,2.34,2.34,0,0,0,.26.68c-.33.22-.64.44-.94.67a2.64,2.64,0,0,1-1.54-1.84,2.59,2.59,0,0,0,.24,1.67,2.28,2.28,0,0,0,.58.72,10.76,10.76,0,0,1-1.75,1.24C56.69,48.12,58,49.8,59.81,49.63Z"/><path class="cls-11" d="M70.55,41.31a1,1,0,0,1-.74.42l.1.12c2.26,2.68,2.93,11.38,2.93,11.38.34-4.92,0-7.2-.48-9.07a15.82,15.82,0,0,0-1.65-3.69h0a1.13,1.13,0,0,1,0,.32A.94.94,0,0,1,70.55,41.31Z"/><path class="cls-9" d="M93.78,48.47a13.68,13.68,0,0,1,1-1.33s-1.63-2.39-4-2.51A2.85,2.85,0,1,1,86.34,47a2.79,2.79,0,0,1,.19-1,18.08,18.08,0,0,0-3.48,2.74l1.34.65a11.94,11.94,0,0,0,2.93.81,10.68,10.68,0,0,0,4.79-.34h0A4.73,4.73,0,0,0,93.78,48.47Z"/><path class="cls-14" d="M89.2,49.87a2.85,2.85,0,0,0,1.56-5.24,3.8,3.8,0,0,0-.67,0A9.63,9.63,0,0,0,86.53,46a2.79,2.79,0,0,0-.19,1A2.85,2.85,0,0,0,89.2,49.87Zm.07-4.12a.63.63,0,1,1,.45.76A.64.64,0,0,1,89.27,45.75Z"/><path class="cls-15" d="M83.05,48.75A18.08,18.08,0,0,1,86.53,46a9.63,9.63,0,0,1,3.56-1.35,3.8,3.8,0,0,1,.67,0c2.41.12,4,2.51,4,2.51a13.68,13.68,0,0,0-1,1.33,4.73,4.73,0,0,1-1.67,1.4h0c1.82-.29,5.83-2.53,5.83-2.53a11.32,11.32,0,0,1-1.8-1.27,2.41,2.41,0,0,0,.6-.74A2.71,2.71,0,0,0,97,43.62,2.67,2.67,0,0,1,95.4,45.5c-.3-.23-.62-.46-1-.68a2.48,2.48,0,0,0,.27-.7,2.63,2.63,0,0,0-.12-1.52A2.2,2.2,0,0,1,94.25,44a1.84,1.84,0,0,1-.44.48,8.55,8.55,0,0,0-1.19-.52,2.75,2.75,0,0,0-.13-2.45,2.64,2.64,0,0,1-.85,2.17,8.44,8.44,0,0,0-1-.13A2.51,2.51,0,0,0,90,41.23a2.86,2.86,0,0,1-.35,2.3c-4.14.39-8,5.7-8,5.7l2.75.17Z"/><path class="cls-15" d="M82.93,39.9a1,1,0,0,0-.54.88,1,1,0,0,0,.17.53,1,1,0,0,0,1.32.33c2-1.08,7.35-3.78,9.87-3.86a13.48,13.48,0,0,1,4.42.81c-.07-.19-.15-.38-.23-.57a14.6,14.6,0,0,0-5.64-1.68C89.85,36.43,85,38.83,82.93,39.9Z"/><path class="cls-15" d="M69.23,41.64a1.08,1.08,0,0,0,.58.09,1,1,0,0,0,.74-.42.94.94,0,0,0,.16-.53,1.13,1.13,0,0,0,0-.32,1,1,0,0,0-.48-.56c-.53-.28-1.26-.64-2.07-1-1-.47-2.07-1-3.16-1.4a23,23,0,0,1-4,.57,31.68,31.68,0,0,1,4.75,1.83C67.12,40.54,68.43,41.21,69.23,41.64Z"/><path class="cls-15" d="M57.4,38c-.53-.06-1-.13-1.57-.23a42,42,0,0,0-4.24,2.2A26.23,26.23,0,0,1,57.4,38Z"/><path class="cls-16" d="M47.63,90.13a54.71,54.71,0,0,0,3.66,13.39l0,0c.17.42.35.84.53,1.25,2.23.39,4.49.63,6.74.83-.72-1.35-1.37-2.73-2-4.12,0-.12-.09-.23-.14-.34-4.17-9.9-5.53-20.74-6.11-31.54,0-.92-.09-1.84-.14-2.76,0-.14,0-.28,0-.43l-.09-2.27c0-.14,0-.28,0-.43,0-1.11-.08-2.23-.11-3.34v0c0-.55,0-1.1,0-1.65q-.06-3.08,0-6.15c0-4.39.23-8.78.64-13.16a55.55,55.55,0,0,1,11.39-9.2l1.78-1.12q2-1.24,4-2.43h0l-.17.18h0a47.49,47.49,0,0,1-9.54,8.52,12.1,12.1,0,0,1-3.95,1.93c.56.16,1.13.3,1.7.41s1,.17,1.57.23a20.54,20.54,0,0,0,3.51.09,23,23,0,0,0,4-.57,24.05,24.05,0,0,0,3.61-1.15,30.11,30.11,0,0,0,11.6-8.78,18,18,0,0,0,3.4-6.44,48.66,48.66,0,0,1,8.22,6.69A29.09,29.09,0,0,1,96,33.66a37.19,37.19,0,0,1,2,4.36c.08.19.16.38.23.57.21.56.4,1.13.59,1.71s.26.87.39,1.31c1.72,6.33,1.25,12.88.49,19.43l-.21,1.81c-.53,4.32-.56,8.59-1.48,12.84-.56,2.56-1.11,5.12-1.67,7.68a118.26,118.26,0,0,1-4.71,17.33l-.12.32c-.45,1.15-.93,2.29-1.46,3.42a81.16,81.16,0,0,0,8.54-.32h0a31.61,31.61,0,0,0,4.57-.78A33.64,33.64,0,0,0,108.64,87,48.43,48.43,0,0,1,107,102c.36-.16.71-.33,1.06-.52a24.08,24.08,0,0,0,4.18-2.81,42.64,42.64,0,0,0,2.3-9.17c-.14,2.5-.29,5-.51,7.52a19.48,19.48,0,0,0,5.08-8.92c1.7-7-2-13.72-3.43-20.41-1.13-5.21-1.5-10.53-2.43-15.77A111.8,111.8,0,0,0,100.7,16.11c-2-3.47-3.86-7.32-7-9.93a10,10,0,0,0-4.5-2.35,5.15,5.15,0,0,0-4.71,1.4C84.07,2.18,80.81.16,77.69,0,71.4-.27,65,3,59.79,6.18c-6.39,4-12.92,9.57-15.89,16.57a45.68,45.68,0,0,0-2.33,8c-3.4,15.48-5.72,31.18-8,46.85-.8,5.41-1.55,11.16.75,16.13a16.34,16.34,0,0,0,4.65,5.77q0-3.67.29-7.35a39.81,39.81,0,0,0,1.23,8.46h0a23.23,23.23,0,0,0,4.22,2.21A30.93,30.93,0,0,0,47.94,104c.37.11.75.2,1.13.3A30,30,0,0,1,47.63,90.13Z"/><path class="cls-9" d="M67.89,69.79l.74.41c1.21,1,2.46,1.56,6.77,1.52A14,14,0,0,0,82,70.17l.32-.31.12-.09.14-.12a4.2,4.2,0,0,1-2.18.15,6.1,6.1,0,0,0-2.25-.14c-.41,0-2.28.25-2.28.25a2.31,2.31,0,0,1-.76,0,25.83,25.83,0,0,0-2.61-.31,20.21,20.21,0,0,0-2.19.17,23.77,23.77,0,0,1-2.38,0l-.24-.13h0Z"/><path class="cls-17" d="M75,68.33l-.17-.09A6.15,6.15,0,0,0,70.38,68a10.6,10.6,0,0,1-5,.39l2.29,1.24.24.13a23.77,23.77,0,0,0,2.38,0,20.21,20.21,0,0,1,2.19-.17,25.83,25.83,0,0,1,2.61.31,2.31,2.31,0,0,0,.76,0s1.87-.25,2.28-.25a6.1,6.1,0,0,1,2.25.14,4.2,4.2,0,0,0,2.18-.15l.65-.54,1.24-1-1.18,1a6.74,6.74,0,0,1-.69.55h0l-.14.12-.12.09-.32.31a14,14,0,0,1-6.56,1.55c-4.31,0-5.56-.52-6.77-1.52l-.74-.41-.25-.13-2.28-1.24s1.5,2.14,1.79,2.37l1,.78c.2.16.42.33.62.51a10,10,0,0,0,1.44,1,7.27,7.27,0,0,0,1.89.76,14.55,14.55,0,0,0,4.25.29s1.45-.12,1.93-.19l.14,0a4.7,4.7,0,0,0,1.8-.84,14.4,14.4,0,0,0,1.32-1l.36-.32.36-.35a10.53,10.53,0,0,0,2.15-3.33h0a4.56,4.56,0,0,1-2.92.58,11,11,0,0,1-1.15-.14A9.83,9.83,0,0,1,78.64,68,5,5,0,0,0,75,68.33Z"/><path class="cls-11" d="M71.11,63c.36.73,2,1.36,2,1.36a3.7,3.7,0,0,0,2,.67,3.54,3.54,0,0,0,2-.67s1.61-.63,2-1.36a2.48,2.48,0,0,0,.19-.51,2.28,2.28,0,0,0,0-.44,1.11,1.11,0,0,0,0-.19v-.06a.19.19,0,0,1,0-.07,1,1,0,0,0-.32-.54l-.11-.11c.27.46.44,1.26-1.22,1.64a5.32,5.32,0,0,1-2,.69,2.07,2.07,0,0,1-.35,0h-.34a2.07,2.07,0,0,1-.35,0,5.32,5.32,0,0,1-2-.69c-1.66-.38-1.49-1.18-1.22-1.64l-.11.11a1,1,0,0,0-.32.54s0,.05,0,.07v.06a1.11,1.11,0,0,0,0,.19,2.28,2.28,0,0,0,0,.44A2.48,2.48,0,0,0,71.11,63Z"/><path class="cls-18" d="M89.72,46.51a.63.63,0,1,0-.45-.76A.64.64,0,0,0,89.72,46.51Z"/><path class="cls-18" d="M63.64,45.75a.62.62,0,1,0,1-.3.52.52,0,0,0-.27-.15h-.09A.62.62,0,0,0,63.64,45.75Z"/><path class="cls-19" d="M44.51,215.87c.45-2.09.82-4.19,1.07-6.29l-.51,2.77Z"/><path class="cls-20" d="M39.6,194.9c-.46,9-2.42,24.18-9,45.57v0L29.82,243q-.95,2.48-1.79,4.89h0c-8,22.62-9.64,39.89-9.65,47.36,0-.1,0-.38,0-.83.28-3.73,2.38-19.82,18.23-57.26C38.09,233.7,44,218.25,44,218.25l1.09-5.9.51-2.77,1.57-8.51a26.57,26.57,0,0,1,6.5-9.2c12.15-10.79,34.71-11.11,50.94-10.5-.69,0-1.38-.07-2.07-.13l.3-.1h0l.14-.05a25.42,25.42,0,0,0,5.68-2.34l0,0c.6-.31,1.23-.66,1.86-1a26,26,0,0,0,5.65-4.48,42.28,42.28,0,0,0,4.39-7.54c3.77-9,2.91-18.25-.56-27.12a25,25,0,0,1-.94-2.68c0-.19-.1-.38-.14-.57a9.15,9.15,0,0,1-.12-2.45,14.87,14.87,0,0,1,.89-3.88c.07-.2.16-.4.24-.6a23.92,23.92,0,0,1,1.42-3.09v0a28.44,28.44,0,0,0-2.17,2.62,19.18,19.18,0,0,0-3.25,6.95c-1,4.41,2.79,7.94,3.79,11.89a31.92,31.92,0,0,1,.5,14.35c-1.38,6.24-5,10.11-10,13.62l-.13.09c-1,.66-1.9,1.25-2.79,1.86h0a26.06,26.06,0,0,1-14.18,3.14h0c-1.54-.24-3.07-.46-4.6-.58-2.56-.21-5.14,0-7.69-.33-1.64-.21-4.41-1.87-5.86-1.63a3.48,3.48,0,0,0-1.18.57,13.86,13.86,0,0,1-5.78,1.59c-7.74.84-16.23.94-23.55-2.08-3.3-1.36-6-3-7.77-5.71a12.21,12.21,0,0,1-1.39-3.1,28.88,28.88,0,0,1-.43-14.42c.84-4.07,2.16-8.29,1.47-12.49s-3.57-7.47-6.2-10.71a29.12,29.12,0,0,0-3.29-3.08h0l0,0C27.5,129,28.24,130,29,131.14l.06.1.59.93.06.11a29.23,29.23,0,0,1,1.7,3.16,2.29,2.29,0,0,1,.1.23c.12.27.24.55.35.82l.12.34c.09.24.17.49.25.74s.08.26.11.38.13.48.19.71l.09.41.12.72c0,.14,0,.28,0,.41s0,.51.06.76,0,.26,0,.39c0,.29,0,.58,0,.88,0,.09,0,.18,0,.28a10.14,10.14,0,0,1-.16,1.2c-1.22,6.28-3.37,11.56-2.79,17.69a21.82,21.82,0,0,0,.62,3.53,1.66,1.66,0,0,0,.06.21c.15.56.32,1.12.5,1.67l.24.71c.14.39.28.78.43,1.17l.3.78.43,1c1,2.3,2.15,4.56,3.32,6.8.67,1.28,1.34,2.56,2,3.85C38.42,182.73,39.79,186.9,39.6,194.9Z"/><path class="cls-8" d="M71.53,124.83s-1.29,27,0,33.43h6.26s.66-3,0-33.43Z"/><path class="cls-21" d="M43.71,419.38h0v.05h0Z"/><path class="cls-21" d="M43.73,419.49h0v.07h0Z"/><path class="cls-21" d="M58.26,559.37c3.06,0,8.53-1.87,10.91-.67l.08,0c.36-.1,1.94-.64,1-1.79s-2-2.78-1.39-3.49,0-1.7-.43-2.82.34-1.25.29-2.78-1.1-2.15-1.25-3.21c-.17-1.57-.33-3.14-.48-4.72,0-.31-.06-.62-.08-.93-.12-1.26-.23-2.53-.33-3.8,0-.44-.06-.88-.1-1.32-.08-1.19-.16-2.38-.22-3.57,0-.44-.06-.89-.08-1.34-.08-1.59-.15-3.19-.19-4.79s-.06-3.14,0-4.72c0-.52,0-1,.06-1.57.14-2.87.27-6.43.38-10.46,0-1.34.07-2.74.1-4.18.07-3.47.14-7.2.19-11.09l0-2c.06-4.6.11-9.4.15-14.24s.06-9.71.08-14.46c0-1.36,0-2.7,0-4,0-2.67,0-5.28,0-7.8V430c0-1.1,0-2.12,0-3.07H44.37v.58c0,.39,0,.79,0,1.21,0,1.23-.14,2.55-.32,3.9a24.56,24.56,0,0,1-.48,2.49c-.22.88-.48,1.83-.78,2.84-.48,1.63-1,3.44-1.61,5.5-.29,1-.58,2.11-.87,3.26a97.41,97.41,0,0,0-1.94,10,105.46,105.46,0,0,0-1,11.24c-.09,2.79-.09,5.79,0,9,.58,15.88,5.08,40.52,8.73,58.91-1.37,3.34.08,2.77.94,4.72.16.8.32,1.57.47,2.33,0,2.23-1.84,2.25-.64,4.24.85,1.41,1.68,1.88,2,2.63l.18.93a4.69,4.69,0,0,1-.17,1.16c-.68,2.62-.8,4.28,1.62,6.17s2,2.88,3.54,3.77c1,.61,1.22-.29,1.78-1.16A2.54,2.54,0,0,1,58.26,559.37Z"/><path class="cls-21" d="M100,419.53v0Z"/><path class="cls-21" d="M100.05,419.42v0h0v0Z"/><path class="cls-21" d="M105.65,458.38c-.08-.58-.15-1.14-.23-1.7s-.18-1.27-.28-1.89c-.16-1-.32-1.92-.5-2.82s-.38-1.93-.58-2.83c-.12-.54-.25-1.07-.37-1.59q-.47-1.91-.93-3.6c-1.35-4.89-2.64-8.46-3-11.36a44.9,44.9,0,0,1-.35-5.69H76.76V430c0,.44,0,.89,0,1.34v16.4c0,1.86,0,3.77,0,5.73,0,1.3,0,2.62,0,3.95s0,2.68,0,4c0,2,0,4.1,0,6.16,0,.69,0,1.38,0,2.08,0,2.07,0,4.15,0,6.22,0,4.15.07,8.27.12,12.26.14,12,.37,22.77.73,29.67v0c.1,2.08.09,4.18,0,6.26v0c0,1.59-.11,3.18-.19,4.77,0,.45,0,.9-.07,1.35-.07,1.18-.14,2.37-.23,3.55,0,.45-.07.89-.1,1.34-.1,1.26-.21,2.52-.32,3.78l-.09,1c-.15,1.55-.3,3.11-.47,4.66v0h0c-.14,1.07-1.2,1.71-1.25,3.22s.69,1.65.29,2.78-1,2.1-.43,2.82-.33,2.2-1.39,3.49.65,1.69,1,1.79l.07,0c2.38-1.2,7.86.67,10.92.67a2.52,2.52,0,0,1,2.33,1.27c.57.87.76,1.77,1.78,1.16,1.51-.89,1.12-1.89,3.54-3.77s2.3-3.55,1.63-6.17a4.77,4.77,0,0,1-.18-1.16c.06-.3.12-.61.19-.93.36-.75,1.19-1.22,2-2.63,1.21-2-.6-2-.64-4.24.15-.76.31-1.53.47-2.33.86-2,2.32-1.38.94-4.72,3.65-18.39,8.16-43,8.74-58.91a122.36,122.36,0,0,0-.33-15C105.91,460.73,105.79,459.53,105.65,458.38Z"/><path class="cls-22" d="M67,426.9c0-1.54,0-2.87,0-4v-1.15c0-.91,0-1.58,0-2v-.51H43.71v0h0v.05h0v.06h0a43.64,43.64,0,0,1,.63,7.46H67Z"/><path class="cls-22" d="M99.39,426.9h0a43.32,43.32,0,0,1,.63-7.33v-.06l0-.08h0v0H76.78v4.22c0,1,0,2.05,0,3.28H99.39Z"/></g></g></svg>