<?xml version="1.0" encoding="utf-8"?>
<!-- Generator: Adobe Illustrator 22.1.0, SVG Export Plug-In . SVG Version: 6.00 Build 0)  -->
<svg version="1.1" id="Capa_1" xmlns="http://www.w3.org/2000/svg" xmlns:xlink="http://www.w3.org/1999/xlink" x="0px" y="0px"
	 viewBox="0 0 480 480" style="enable-background:new 0 0 480 480;" xml:space="preserve">
<style type="text/css">
	.st0{fill:#FFFFFF;}
</style>
<g>
	<g>
		<path class="st0" d="M400,40.8V8c0-4.4-3.6-8-8-8c-0.7,0-1.3,0.1-1.9,0.2L263,32h-15c-26.5,0.1-47.9,21.7-47.8,48.2
			c0.1,21.9,15,40.9,36.2,46.3l3.5,10.6c-2.6-0.7-5.3-1.1-7.9-1.1H40c-22.1,0-40,17.9-40,40v296c0,4.4,3.6,8,8,8h112
			c13.3,0,24-10.7,24-24s-10.7-24-24-24h-8V232h128c15.5,0,28.8-11.2,31.4-26.5c0.5,0.2,0.9,0.6,1.3,0.8
			c14.8,6.9,32.3,0.4,39.2-14.4c3.2-6.8,3.6-14.6,1.2-21.8l-10.8-32.4l87.7,21.9c4.3,1.1,8.6-1.5,9.7-5.8c0.2-0.6,0.2-1.3,0.2-1.9
			v-32.8c18.6-3.8,32-20.2,32-39.2C432,61,418.6,44.6,400,40.8z M216,80c0-17.7,14.3-32,32-32h8v64h-8C230.3,112,216,97.7,216,80z
			 M104,184c-4.4,0-8,3.6-8,8v248c0,4.4,3.6,8,8,8h16c4.4,0,8,3.6,8,8s-3.6,8-8,8H64V328c0-4.4-3.6-8-8-8s-8,3.6-8,8v136H16V176
			c0-13.3,10.7-24,24-24h192c8.8,0,16,7.2,16,16s-7.2,16-16,16H104z M248.7,213.5c-2.6,1.7-5.6,2.5-8.7,2.5H112v-16h120
			c8,0,15.6-3,21.5-8.5C258.2,198.9,256.1,208.7,248.7,213.5z M290.2,192.1c-6.9,2.8-14.8-0.6-17.5-7.5c-0.1-0.3-0.2-0.5-0.3-0.8
			L253.8,128h9.3l21,5.2l14,42C300.2,182.1,296.8,189.4,290.2,192.1z M384,141.8l-112-28V46.2l112-28V141.8z M414.6,88
			c-2.4,6.8-7.8,12.2-14.6,14.6V57.4C412.5,61.8,419.1,75.5,414.6,88z"/>
	</g>
</g>
<g>
	<g>
		<path class="st0" d="M472,72h-16c-4.4,0-8,3.6-8,8s3.6,8,8,8h16c4.4,0,8-3.6,8-8S476.4,72,472,72z"/>
	</g>
</g>
<g>
	<g>
		<path class="st0" d="M454.4,17.8c-3.1-3.2-8.1-3.3-11.3-0.2c-0.1,0.1-0.1,0.1-0.2,0.2l-11.3,11.3c-3.2,3.1-3.3,8.1-0.2,11.3
			s8.1,3.3,11.3,0.2c0.1-0.1,0.1-0.1,0.2-0.2l11.3-11.3C457.4,26,457.5,21,454.4,17.8z"/>
	</g>
</g>
<g>
	<g>
		<path class="st0" d="M454.2,130.9l-11.3-11.3c-3.1-3.2-8.1-3.3-11.3-0.2c-3.2,3.1-3.3,8.1-0.2,11.3c0.1,0.1,0.1,0.1,0.2,0.2
			l11.3,11.3c3.2,3.1,8.2,3,11.3-0.2C457.2,138.9,457.2,134,454.2,130.9z"/>
	</g>
</g>
<g>
	<g>
		<path class="st0" d="M120,0H64C28.7-0.1,0.1,28.5,0,63.8C0,70,0.9,76.1,2.6,82l-0.3,0.3l0.5,0.5c10.4,33.8,46.2,52.7,80,42.3
			C109.7,116.9,128,92.1,128,64V8C128,3.6,124.4,0,120,0z M112,64c0,26.5-21.5,48-48,48c-17.8,0-34.2-9.9-42.5-25.7
			C46.4,63.5,78.4,50.1,112,48.4C112,48.4,112,64,112,64z M112,32.4C76.9,34,43.3,47,16.3,69.4c-3.1-26.2,15.7-50,41.9-53.1
			c1.9-0.2,3.8-0.3,5.8-0.3h48V32.4z"/>
	</g>
</g>
</svg>
