<svg xmlns="http://www.w3.org/2000/svg" viewBox="0 0 181.98 181.98"><defs><style>.cls-1{fill:#a82400;}.cls-2{fill:#fefefe;}.cls-3{fill:#a72400;}.cls-4{fill:#a82401;}</style></defs><title>Quora_1</title><g id="Layer_2" data-name="Layer 2"><g id="Layer_5" data-name="Layer 5"><rect class="cls-1" width="181.98" height="181.98"/><path class="cls-2" d="M56.73,84.93a21.21,21.21,0,0,1-9.19,17.48c-.73.52-.71.84-.28,1.52a4.82,4.82,0,0,0,3.66,2.62c1.18.1,1.33.75,1.47,1.61.44,2.6.37,2.76-2.27,3a8.8,8.8,0,0,1-8.54-4.32,2.16,2.16,0,0,0-2.51-1.07c-7,.88-13.44-.36-18.6-5.58-3.79-3.83-5-8.72-5.33-13.9-.79-11.27,6.32-21,17.13-22.83,7.85-1.32,15.08.24,20.36,6.84C55.81,74.26,56.65,79.06,56.73,84.93Z"/><path class="cls-2" d="M80.22,101a14.6,14.6,0,0,1-7.85,4c-6.26.91-10.93-3-11-9.28,0-4.63,0-9.26,0-13.88,0-2-.3-2.31-2.29-2.6A2.25,2.25,0,0,1,57.56,76c.22-.4.59-.35.91-.38,3.31-.29,6.62-.54,9.91-.89,1.11-.12,1.23.35,1.22,1.26,0,5.63,0,11.27,0,16.9a11.19,11.19,0,0,0,.22,2.39,5.11,5.11,0,0,0,10-.81c.12-4.42,0-8.85,0-13.27,0-1.52-1-1.88-2.31-2-.56-.06-1.42.16-1.57-.55A9,9,0,0,1,76,76c0-.41.56-.32.9-.35,3.3-.29,6.61-.54,9.91-.88,1.07-.11,1.22.31,1.22,1.24,0,7.39,0,14.79,0,22.18,0,2.33.06,2.51,2.31,2.85,1.83.28,1.1,1.56,1.21,2.51.15,1.21-.79.9-1.43.9-2.81,0-5.63,0-8.44,0-1.19,0-1.65-.3-1.49-1.49A16.37,16.37,0,0,0,80.22,101Z"/><path class="cls-2" d="M120.18,90c-.21,5.55-2.38,10.69-8.08,13.71-9.75,5.17-20.75-1.11-21.27-12.12-.29-6.16,1.5-11.54,6.89-15a14.62,14.62,0,0,1,15.62-.45C118.49,78.92,120.12,83.79,120.18,90Z"/><path class="cls-2" d="M157.41,101.21a11,11,0,0,1-8.14,3.9c-4.22.17-7.44-1.74-8.63-5.18a9.41,9.41,0,0,1,3.21-10.53c3.38-2.42,7.29-3.05,11.3-3.06,1.45,0,1.77-.45,1.69-1.78-.14-2.36-1.22-3.76-3.53-4.19-2.74-.51-5.29.29-7.75,1.36-1.15.5-1.45.23-1.54-.92a25.18,25.18,0,0,0-.52-3.57c-.19-.8.13-1.1.79-1.31A24.73,24.73,0,0,1,157.65,75a8.42,8.42,0,0,1,6.84,7.49c.51,3.4.17,6.83.24,10.24,0,2.06.05,4.12,0,6.18A1.8,1.8,0,0,0,166.5,101c1.65.23,2.22,1.32,1.73,2.92-.16.54-.55.49-.94.5-3,0-5.93,0-8.9.07-.84,0-1-.32-1-1.07C157.44,102.87,157.41,102.28,157.41,101.21Z"/><path class="cls-2" d="M130.44,80.16A14.47,14.47,0,0,1,134.78,76a10.13,10.13,0,0,1,5.61-1.42c.73,0,1.06.25,1.14,1,.15,1.55.36,3.1.65,4.62.2,1,0,1.35-1.12,1.37a12.31,12.31,0,0,0-7.52,2.7A5.86,5.86,0,0,0,131,89.49c.15,3.06.08,6.13,0,9.19,0,1.51.54,2.26,2.09,2.26.74,0,1.49.22,2.24.24s1.13.29,1.11,1.16c-.07,2.61.14,2.09-2.06,2.1-5.08,0-10.15,0-15.23,0-.72,0-1.51.1-1.32-1,.14-.84-.56-1.93,1.17-2.2,3.93-.62,3.88.33,3.86-4.49s0-9.65,0-14.47c0-2.44-.14-2.61-2.54-3a2.27,2.27,0,0,1-2-3.25c.16-.49.5-.43.82-.45,3.2-.29,6.4-.54,9.6-.86.83-.09,1,.22,1.1.94C130,77.09,130.21,78.51,130.44,80.16Z"/><path class="cls-3" d="M25,85.66c0-4,.39-7.74,2.09-11.27,2.45-5.1,7.72-7.32,12.68-5.34a8.29,8.29,0,0,1,4.76,4.6,27.76,27.76,0,0,1,0,21.95c-.45,1.1-.83,1.47-1.87.34a8.9,8.9,0,0,0-8.65-2.72c-.86.16-1.1.5-1,1.42.17,1.49.35,2.79,2.3,2.71a1.53,1.53,0,0,1,.69.27c1.08.6,2.42,1.47,2.22,2.57-.16.84-1.85.54-2.86.51-4.72-.15-7.66-2.36-9.21-6.84A27.31,27.31,0,0,1,25,85.66Z"/><path class="cls-3" d="M99.64,89.27c.14-2.1.09-4.57,1-6.91.84-2.08,2.18-3.43,4.57-3.51s3.85,1.29,4.71,3.3c1.52,3.51,1.5,7.24,1.22,11A12.71,12.71,0,0,1,110,97.92a4.76,4.76,0,0,1-4.27,2.86,4.57,4.57,0,0,1-4.28-2.57C99.92,95.56,99.79,92.58,99.64,89.27Z"/><path class="cls-4" d="M154.79,91.17c2.07-.16,2.07-.16,2,1.92a5.12,5.12,0,0,1-6.95,4.76,2.87,2.87,0,0,1-2-2.44,2.83,2.83,0,0,1,1.4-2.93C150.48,91.72,151.82,91.39,154.79,91.17Z"/></g></g></svg>