<svg xmlns="http://www.w3.org/2000/svg" viewBox="0 0 210 70"><defs><style>.cls-1{fill:#db3236;}.cls-2,.cls-3{fill:#fff;}.cls-3{font-size:26px;font-family:Roboto-Bold, Roboto;font-weight:700;}</style></defs><title>210x70_1</title><g id="Layer_2" data-name="Layer 2"><g id="Layer_1-2" data-name="Layer 1"><rect class="cls-1" width="210" height="70"/><path class="cls-2" d="M31.33,33.64c-.35-9.34,7.83-18,17.19-18.09a18.12,18.12,0,0,1,13,4.46c-1.48,1.63-3,3.24-4.6,4.75-3.18-1.93-7-3.41-10.71-2.1a11.48,11.48,0,0,0-7.4,14.64c1.83,6.11,9.27,9.47,15.11,6.9a10,10,0,0,0,5.88-6.86c-3.46-.07-6.92,0-10.38-.12,0-2.06,0-4.11,0-6.17,5.77,0,11.55,0,17.33,0,.36,5-.39,10.45-3.67,14.5-4.49,5.78-12.79,7.48-19.54,5.21A18.11,18.11,0,0,1,31.33,33.64Z"/><text class="cls-3" transform="translate(89.75 42.35)">Sign in </text></g></g></svg>