<?xml version="1.0" encoding="utf-8"?>
<!-- Generator: Adobe Illustrator 22.1.0, SVG Export Plug-In . SVG Version: 6.00 Build 0)  -->
<svg version="1.1" id="Layer_1" xmlns="http://www.w3.org/2000/svg" xmlns:xlink="http://www.w3.org/1999/xlink" x="0px" y="0px"
	 viewBox="0 0 496 496" style="enable-background:new 0 0 496 496;" xml:space="preserve">
<style type="text/css">
	.st0{fill:#FFFFFF;}
</style>
<g>
	<g>
		<g>
			<path class="st0" d="M112.7,260c-8.2,0-15.8,4.3-20,11.3l-12,20.1l-0.6-1.3v-24.7l26-10.4c8.5-3.4,14-11.5,14-20.6
				c0-7.2-3.5-13.9-9.3-18.1c-5.8-4.2-13.3-5.3-20.1-3l-2.8,1l3.2-6.5c3.2-6.5,4.9-13.7,4.9-20.9c0-12.6-10.2-22.8-22.8-22.8
				c-8.7,0-16.5,4.8-20.4,12.6l-19.9,39.8l-16.7,82L16,404l6.3,32H0v56h120v-56H96v-53.6l14.7-22l21.8-57.5
				c2.4-6.3,3.6-12.9,3.6-19.6C136,270.5,125.5,260,112.7,260z M95.8,228.4c1.9-0.6,4-0.3,5.6,0.8s2.6,3,2.6,5.1
				c0,2.6-1.5,4.8-3.9,5.8l-20.1,8v-14.4L95.8,228.4z M104,452v24H16v-24H104z M117.5,297.3l-20.6,55L80,377.6V436H38.6L32,403.2
				V300.8l15.6-78.2l19.4-38.8c1.2-2.3,3.5-3.8,6.1-3.8c3.8,0,6.8,3.1,6.8,6.8c0,4.8-1.1,9.5-3.3,13.8L64,226.1v67.8l15.4,30.7
				l27-45.1c1.3-2.2,3.7-3.6,6.3-3.6c4,0,7.3,3.3,7.3,7.3C120,288.1,119.2,292.8,117.5,297.3z"/>
			<path class="st0" d="M473.8,436l6.1-30.4L480,300l-16.2-81.6l-20.6-41.8c-3.9-7.8-11.7-12.6-20.4-12.6
				c-12.6,0-22.8,10.2-22.8,22.8c0,7.2,1.7,14.5,4.9,20.9l3.2,6.4l-2.8-1c-6.8-2.3-14.3-1.2-20.1,3c-5.8,4.2-9.3,10.9-9.3,18.1
				c0,9.2,5.5,17.3,14,20.6l26,10.4v24.7l-0.6,1.3l-12-20.1c-4.2-7-11.8-11.3-20-11.3c-12.9,0-23.3,10.5-23.3,23.3
				c0,6.7,1.2,13.3,3.6,19.6l21,55.9l15.5,23.6V436h-24v56h120v-56H473.8z M395.9,240.2c-2.4-1-3.9-3.2-3.9-5.8c0-2,0.9-3.9,2.6-5.1
				s3.7-1.5,5.6-0.8l15.8,5.3v14.4L395.9,240.2z M399.2,352.3l-20.6-55c-1.7-4.5-2.5-9.2-2.5-14c0-4,3.3-7.3,7.3-7.3
				c2.6,0,5,1.4,6.3,3.6l27,45.1l15.4-30.7v-67.8l-12.7-25.5c-2.1-4.3-3.3-9-3.3-13.8c0-3.8,3.1-6.8,6.8-6.8c2.6,0,4.9,1.4,6.1,3.8
				l19.4,38.8l15.6,78.2v102.4l-6.6,32.8H416v-58.4L399.2,352.3z M480,476h-88v-24h88V476z"/>
			<path class="st0" d="M349.1,148H368v-48h-18.9c-2.6-10.8-6.8-21.1-12.6-30.5l13.3-13.4l-33.9-33.9l-13.4,13.3
				c-9.5-5.8-19.7-10.1-30.5-12.6V4h-48v18.9c-10.8,2.6-21.1,6.8-30.5,12.6l-13.4-13.3l-33.9,33.9l13.3,13.4
				c-5.8,9.5-10.1,19.7-12.6,30.5H128v48h18.9c2.6,10.8,6.8,21.1,12.6,30.5l-13.3,13.4l33.9,33.9l12.3-12.3
				c-0.1,0.8-0.2,1.6-0.2,2.4c0,7.1,3.8,13.3,9.4,16.9c-0.8,2.2-1.4,4.6-1.4,7.1c0,11,9,20,20,20h56c11,0,20-9,20-20
				c0-2.5-0.5-4.9-1.4-7.1c5.6-3.5,9.4-9.8,9.4-16.9c0-0.7-0.1-1.4-0.2-2.2l12,12l33.9-33.9l-13.3-13.4
				C342.3,169.1,346.6,158.8,349.1,148z M276.1,244h-56c-2.2,0-4-1.8-4-4s1.8-4,4-4h56c2.2,0,4,1.8,4,4S278.3,244,276.1,244z
				 M284.1,220h-8h-56h-8c-2.2,0-4-1.8-4-4s1.8-4,4-4h72c2.2,0,4,1.8,4,4S286.3,220,284.1,220z M256.1,146.5
				c9.3-3.3,16-12.1,16-22.5c0-13.2-10.8-24-24-24s-24,10.8-24,24c0,10.4,6.7,19.2,16,22.5V196h-16v-21.2l-4-2.3
				c-17.3-10-28-28.6-28-48.4c0-30.9,25.1-56,56-56s56,25.1,56,56c0,19.9-10.7,38.4-28,48.4l-4,2.3V196h-16V146.5z M248.1,132
				c-4.4,0-8-3.6-8-8s3.6-8,8-8s8,3.6,8,8S252.5,132,248.1,132z M334.7,138.7c-2.2,13.2-7.3,25.4-15,36.2l-3.9,5.5l11.4,11.5
				l-11.3,11.3l-11.5-11.5l-5.5,3.9c-1.5,1-3.1,2.1-4.8,3.1c-1.8-1.1-3.8-1.9-6-2.4v-12.6c19.8-13.3,32-35.8,32-59.8
				c0-39.7-32.3-72-72-72s-72,32.3-72,72c0,24,12.2,46.5,32,59.8v12.6c-2.2,0.4-4.3,1.3-6.1,2.5c-1.7-1.1-3.4-2.1-4.9-3.2l-5.5-3.9
				l-11.5,11.5l-11.3-11.3l11.4-11.5l-3.9-5.5c-7.7-10.8-12.8-23-15-36.2l-1.1-6.7H144v-16h16.2l1.1-6.7c2.2-13.2,7.3-25.4,15-36.2
				l3.9-5.5l-11.4-11.5l11.3-11.3l11.5,11.4l5.5-3.9c10.8-7.7,23-12.8,36.2-15l6.7-1.1V20h16v16.2l6.7,1.1
				c13.2,2.2,25.4,7.3,36.2,15l5.5,3.9l11.5-11.4l11.3,11.3l-11.4,11.5l3.9,5.5c7.7,10.8,12.8,23,15,36.2l1.1,6.7H352v16h-16.2
				L334.7,138.7z"/>
			<rect x="240" y="276" class="st0" width="16" height="16"/>
			<rect x="240" y="308" class="st0" width="16" height="16"/>
			<rect x="240" y="340" class="st0" width="16" height="16"/>
			<rect x="240" y="372" class="st0" width="16" height="16"/>
		</g>
	</g>
</g>
</svg>
