<?xml version="1.0" encoding="utf-8"?>
<!-- Generator: Adobe Illustrator 22.1.0, SVG Export Plug-In . SVG Version: 6.00 Build 0)  -->
<svg version="1.1" id="Capa_1" xmlns="http://www.w3.org/2000/svg" xmlns:xlink="http://www.w3.org/1999/xlink" x="0px" y="0px"
	 viewBox="0 0 480 480" style="enable-background:new 0 0 480 480;" xml:space="preserve">
<style type="text/css">
	.st0{fill:#FFFFFF;}
</style>
<g>
	<g>
		<rect x="160" y="40" class="st0" width="160" height="16"/>
	</g>
</g>
<g>
	<g>
		<path class="st0" d="M396,300c0-15.4-12.6-28-28-28h-16V160h-16v112h-20c-15.4,0-28,12.6-28,28c0,7.8,3.3,14.9,8.5,20
			c-5.2,5.1-8.5,12.2-8.5,20c0,5.4,1.6,10.4,4.3,14.7c-9.6,4.5-16.3,14.1-16.3,25.3c0,4.3,1.1,8.3,2.8,12H216
			c0-24.5-12.3-46.1-31-59.1c18.1-6.9,31-24.4,31-44.9c0-4.4-3.6-8-8-8h-64v-80h-16v80c-13.2,0-24,10.8-24,24v176h16V304
			c0-4.4,3.6-8,8-8h71c-3.6,13.8-16.1,24-31,24h-24c-4.4,0-8,3.6-8,8s3.6,8,8,8c30.9,0,56,25.1,56,56v8c0,4.4,3.6,8,8,8h46.8
			c-1.7,3.7-2.8,7.7-2.8,12c0,15.4,12.6,28,28,28v32h16v-32h32h4c15.4,0,28-12.6,28-28c0-4.4-1.1-8.4-2.9-12.1
			C372,407.3,384,395.1,384,380c0-5.4-1.6-10.4-4.3-14.7c9.6-4.5,16.3-14.1,16.3-25.3c0-7.8-3.3-14.9-8.5-20
			C392.7,314.9,396,307.8,396,300z M332,432h-4h-40h-8c-6.6,0-12-5.4-12-12s5.4-12,12-12h24h28c6.6,0,12,5.4,12,12
			S338.6,432,332,432z M356,392h-24h-28c-6.6,0-12-5.4-12-12s5.4-12,12-12h12h40c6.6,0,12,5.4,12,12S362.6,392,356,392z M368,352
			h-12h-40c-6.6,0-12-5.4-12-12s5.4-12,12-12h52c6.6,0,12,5.4,12,12S374.6,352,368,352z M368,312h-52c-6.6,0-12-5.4-12-12
			s5.4-12,12-12h52c6.6,0,12,5.4,12,12S374.6,312,368,312z"/>
	</g>
</g>
<g>
	<g>
		<path class="st0" d="M120,101.8c-0.2-2.3-1.3-4.4-3.1-5.8l-8.3-6.3C106.5,79.6,97.7,72,87.1,72c-11.9,0-21.7,9.7-21.8,21.7
			c-6.4-1.1-12.5-3.6-18-7.3l-2.8-1.9c-2.4-1.7-5.6-1.8-8.2-0.4c-2.6,1.4-4.2,4.1-4.2,7.1v6.6c0,9.6,2.9,18.8,8.3,26.6l-6,6.1
			c-2.3,2.3-2.9,5.7-1.7,8.7c1.2,3,4.2,4.9,7.4,4.9h38.8c15.5,0,28.2-11.8,30-26.9l9-9.1C119.3,106.4,120.1,104.1,120,101.8z
			 M95.2,108c-1.5,1.5-2.3,3.5-2.3,5.6c0,7.9-6.4,14.4-14.2,14.4H58.4c1.3-2.9,0.7-6.4-1.6-8.8c-3.7-3.8-6.4-8.5-7.8-13.7
			c7.6,3.2,15.8,4.9,24.2,4.9c4.4,0,8-3.6,8-8V94c0-3.3,2.6-6,5.8-6s5.8,2.7,5.8,6c0,2.5,1.2,4.9,3.2,6.4l3.8,2.9L95.2,108z"/>
	</g>
</g>
<g>
	<g>
		<path class="st0" d="M264,136v-16h-24c-4.4,0-8,3.6-8,8v24h-16v16h16v32h16v-32h16v-16h-16v-16H264z"/>
	</g>
</g>
<g>
	<g>
		<path class="st0" d="M288,88h-96c-13.2,0-24,10.8-24,24v96c0,13.2,10.8,24,24,24h96c13.2,0,24-10.8,24-24v-96
			C312,98.8,301.2,88,288,88z M296,208c0,4.4-3.6,8-8,8h-96c-4.4,0-8-3.6-8-8v-96c0-4.4,3.6-8,8-8h96c4.4,0,8,3.6,8,8V208z"/>
	</g>
</g>
<g>
	<g>
		<path class="st0" d="M120,40H24C10.8,40,0,50.8,0,64v96c0,13.2,10.8,24,24,24h96c13.2,0,24-10.8,24-24V64
			C144,50.8,133.2,40,120,40z M128,160c0,4.4-3.6,8-8,8H24c-4.4,0-8-3.6-8-8V64c0-4.4,3.6-8,8-8h96c4.4,0,8,3.6,8,8V160z"/>
	</g>
</g>
<g>
	<g>
		<path class="st0" d="M456,0h-96c-13.2,0-24,10.8-24,24v96c0,13.2,10.8,24,24,24h96c13.2,0,24-10.8,24-24V24
			C480,10.8,469.2,0,456,0z M464,120c0,4.4-3.6,8-8,8h-96c-4.4,0-8-3.6-8-8V80h16.8c3.7,18.2,19.9,32,39.2,32s35.5-13.8,39.2-32H464
			V120z M384,72c0-13.2,10.8-24,24-24s24,10.8,24,24s-10.8,24-24,24S384,85.2,384,72z M464,64h-16.8c-3.7-18.2-19.9-32-39.2-32
			s-35.5,13.8-39.2,32H352V24c0-4.4,3.6-8,8-8h96c4.4,0,8,3.6,8,8V64z"/>
	</g>
</g>
<g>
	<g>
		<rect x="232" y="328" class="st0" width="16" height="16"/>
	</g>
</g>
</svg>
