<svg xmlns="http://www.w3.org/2000/svg" xmlns:xlink="http://www.w3.org/1999/xlink" viewBox="0 0 372.35 1080"><defs><style>.cls-1,.cls-2{opacity:0.4;}.cls-1{fill:url(#linear-gradient);}.cls-2{fill:url(#linear-gradient-2);}</style><linearGradient id="linear-gradient" x1="186.18" x2="186.18" y2="1080" gradientUnits="userSpaceOnUse"><stop offset="0" stop-color="#996"/><stop offset="1" stop-opacity="0"/></linearGradient><linearGradient id="linear-gradient-2" x1="194.11" x2="194.11" y2="1080" xlink:href="#linear-gradient"/></defs><title>Spot light</title><g id="Layer_2" data-name="Layer 2"><g id="Layer_11" data-name="Layer 11"><path class="cls-1" d="M372.35,1080H0l5.4-84,2.78-43.19,1.25-19.49,2.49-38.72v0l.39-6v0l3.44-53.64L29,628.48,35,535.86l8.45-131.48v0l2.94-45.57v0l3.7-57.6.1-1.49,1.55-24.11h0l3.9-60.62.3-4.74,7.91-123,5-78.48L69.42,0H309.78l.51,8.72L316.1,109.2,326,279.94l16.58,286.25,5.56,95.86.16,2.8,4.7,81,1.63,28.23,1.11,19.13.6,10.36.33,5.69,5.74,99.11h0l2.07,35.48.87,15.08,1,17.24,2,34.64,1.15,19.9Z"/><path class="cls-2" d="M68.19,1080l1.43-39,.5-13.9,1.72-47,4.48-122.41.31-8.26,1.61-44.14,2.45-67.3.56-15.1.2-5.48.35-9.82.69-18.82L83.62,658l1.11-30.21,1.36-37.2.07-1.83,1.44-39.3,0-.91,3.42-93.37.14-3.69,2.56-70.38,5.41-147.85L104.66,83l2.72-74.29L107.7,0H275.16l.36,8.72,2.13,51.17.88,21.17.39,9.19.28,7.08,2.58,62.29,3.58,86,3.3,79.3,7.59,182.6,1.67,40.08.64,15.57.42,9.91v0l.62,15v0l.67,16.09.19,4.55L303,669.67,305,718l.27,6.28.35,8.49,5,121.43.41,9.91,6.1,146.74.83,19.9,1.64,39.71a.28.28,0,0,1,0,.09L320,1080Z"/></g></g></svg>