<svg xmlns="http://www.w3.org/2000/svg" viewBox="0 0 182.79 182.25"><defs><style>.cls-1{opacity:0.9;}.cls-2{fill:#fff;}.cls-3{fill:#1da1f2;}</style></defs><title>twitter</title><g id="Layer_2" data-name="Layer 2"><g id="Layer_5" data-name="Layer 5"><g class="cls-1"><path class="cls-2" d="M156.56,53a52,52,0,0,1-14.94,4.1,26.25,26.25,0,0,0,11.45-14.41A52.33,52.33,0,0,1,136.53,49a26,26,0,0,0-45,17.8,26.53,26.53,0,0,0,.67,6A74,74,0,0,1,38.48,45.55a26.07,26.07,0,0,0,8.07,34.76,26,26,0,0,1-11.8-3.26h0a26.05,26.05,0,0,0,20.88,25.86,25.66,25.66,0,0,1-11.75.44A26.07,26.07,0,0,0,68.2,121.44a52.21,52.21,0,0,1-32.34,11.15,51.13,51.13,0,0,1-6.21-.37,73.6,73.6,0,0,0,39.92,11.71c47.9,0,74.09-39.69,74.09-74.09,0-1.13,0-2.25-.08-3.37A52.81,52.81,0,0,0,156.56,53Z"/><path class="cls-3" d="M182.39,141V0H.15V136.75L0,182.25H182.79ZM143.66,69.84c0,34.4-26.19,74.09-74.09,74.09a73.6,73.6,0,0,1-39.92-11.71,51.13,51.13,0,0,0,6.21.37A52.21,52.21,0,0,0,68.2,121.44a26.07,26.07,0,0,1-24.32-18.09,25.66,25.66,0,0,0,11.75-.44A26.05,26.05,0,0,1,34.75,77.05h0a26,26,0,0,0,11.8,3.26,26.07,26.07,0,0,1-8.07-34.76A74,74,0,0,0,92.16,72.76a26.53,26.53,0,0,1-.67-6,26,26,0,0,1,45-17.8,52.33,52.33,0,0,0,16.54-6.33,26.25,26.25,0,0,1-11.45,14.41A52,52,0,0,0,156.56,53a52.81,52.81,0,0,1-13,13.48C143.64,67.59,143.66,68.71,143.66,69.84Z"/></g></g></g></svg>