<svg xmlns="http://www.w3.org/2000/svg" viewBox="0 0 120 35"><defs><style>.cls-1{fill:#db3236;}.cls-2{fill:#fff;}</style></defs><title>upload</title><g id="Layer_2" data-name="Layer 2"><g id="Layer_1-2" data-name="Layer 1"><path class="cls-1" d="M64.89,16.07a1.28,1.28,0,0,0-1.27.71v3a1.31,1.31,0,0,0,1.29.73q1.41,0,1.41-2.31a3,3,0,0,0-.36-1.6A1.21,1.21,0,0,0,64.89,16.07Z"/><path class="cls-1" d="M76.42,16.06a1.3,1.3,0,0,0-1.12.56,3,3,0,0,0-.4,1.75A2.75,2.75,0,0,0,75.3,20a1.43,1.43,0,0,0,2.25,0A3,3,0,0,0,78,18.23a2.72,2.72,0,0,0-.41-1.6A1.29,1.29,0,0,0,76.42,16.06Z"/><path class="cls-1" d="M82.84,19.66v.12a.82.82,0,0,0,.26.61,1,1,0,0,0,.71.24,1.73,1.73,0,0,0,.81-.2,1.26,1.26,0,0,0,.55-.52V18.64h-.74C83.43,18.64,82.9,19,82.84,19.66Z"/><path class="cls-1" d="M0,0V35H120V0ZM29.29,7,35,13.56H32.29V19h-6V13.56H23.61Zm9.5,18h-19V18h3v4h13V18h3Zm21.3-6.4a3.38,3.38,0,0,1-1,2.59,4.58,4.58,0,0,1-5.56,0,3.25,3.25,0,0,1-1-2.53V12.05h2v6.57A1.9,1.9,0,0,0,55,20a1.78,1.78,0,0,0,1.29.45c1.16,0,1.74-.61,1.76-1.82V12.05h2.06Zm8.21-.23a4.43,4.43,0,0,1-.78,2.74,2.48,2.48,0,0,1-2.09,1,2.3,2.3,0,0,1-1.81-.78v3.48h-2V14.6h1.83l.07.73a2.3,2.3,0,0,1,1.87-.86,2.49,2.49,0,0,1,2.13,1,4.51,4.51,0,0,1,.76,2.79ZM71.61,22h-2V11.5h2ZM79,21.11a3.67,3.67,0,0,1-5.1,0,4,4,0,0,1-.95-2.79v-.09a4.44,4.44,0,0,1,.42-2,3.08,3.08,0,0,1,1.22-1.33,3.51,3.51,0,0,1,1.85-.47,3.35,3.35,0,0,1,2.44.91,3.63,3.63,0,0,1,1.06,2.49v.51A3.85,3.85,0,0,1,79,21.11Zm8.45.89h-2a2.23,2.23,0,0,1-.2-.66,2.4,2.4,0,0,1-1.87.8,2.63,2.63,0,0,1-1.8-.63,2,2,0,0,1-.71-1.59,2.09,2.09,0,0,1,.87-1.8,4.33,4.33,0,0,1,2.52-.64h.91v-.42a1.19,1.19,0,0,0-.27-.82,1,1,0,0,0-.83-.31,1.17,1.17,0,0,0-.78.24.81.81,0,0,0-.28.66H81a1.94,1.94,0,0,1,.4-1.19,2.53,2.53,0,0,1,1.12-.86,4,4,0,0,1,1.63-.31,3.23,3.23,0,0,1,2.16.68,2.41,2.41,0,0,1,.81,1.93v3.21a3.49,3.49,0,0,0,.29,1.59ZM95,22H93.23l-.1-.79a2.31,2.31,0,0,1-1.9.93,2.52,2.52,0,0,1-2.09-1,4.59,4.59,0,0,1-.79-2.86,4.52,4.52,0,0,1,.77-2.76,2.54,2.54,0,0,1,2.13-1,2.28,2.28,0,0,1,1.78.8V11.5h2Z"/><path class="cls-1" d="M91.75,16.07c-1,0-1.43.78-1.43,2.32a2.93,2.93,0,0,0,.37,1.6,1.17,1.17,0,0,0,1,.55A1.31,1.31,0,0,0,93,19.77V16.85A1.3,1.3,0,0,0,91.75,16.07Z"/><path class="cls-2" d="M58,18.67c0,1.21-.6,1.82-1.76,1.82A1.78,1.78,0,0,1,55,20a1.9,1.9,0,0,1-.47-1.42V12.05h-2v6.63a3.25,3.25,0,0,0,1,2.53,4.58,4.58,0,0,0,5.56,0,3.38,3.38,0,0,0,1-2.59V12.05H58Z"/><path class="cls-2" d="M65.41,14.47a2.3,2.3,0,0,0-1.87.86l-.07-.73H61.64V24.84h2V21.36a2.3,2.3,0,0,0,1.81.78,2.48,2.48,0,0,0,2.09-1,4.43,4.43,0,0,0,.78-2.74v-.1a4.51,4.51,0,0,0-.76-2.79A2.49,2.49,0,0,0,65.41,14.47Zm-.5,6.07a1.31,1.31,0,0,1-1.29-.73v-3a1.28,1.28,0,0,1,1.27-.71,1.21,1.21,0,0,1,1.07.56,3,3,0,0,1,.36,1.6Q66.32,20.54,64.91,20.54Z"/><rect class="cls-2" x="69.63" y="11.5" width="1.98" height="10.5"/><path class="cls-2" d="M78.86,15.38a3.35,3.35,0,0,0-2.44-.91,3.51,3.51,0,0,0-1.85.47,3.08,3.08,0,0,0-1.22,1.33,4.44,4.44,0,0,0-.42,2v.09a4,4,0,0,0,.95,2.79,3.67,3.67,0,0,0,5.1,0,3.85,3.85,0,0,0,1-2.73v-.51A3.63,3.63,0,0,0,78.86,15.38ZM77.55,20a1.43,1.43,0,0,1-2.25,0,2.75,2.75,0,0,1-.4-1.62,3,3,0,0,1,.4-1.75,1.4,1.4,0,0,1,2.25,0,2.72,2.72,0,0,1,.41,1.6A3,3,0,0,1,77.55,20Z"/><path class="cls-2" d="M87.14,17.08a2.41,2.41,0,0,0-.81-1.93,3.23,3.23,0,0,0-2.16-.68,4,4,0,0,0-1.63.31,2.53,2.53,0,0,0-1.12.86,1.94,1.94,0,0,0-.4,1.19h2a.81.81,0,0,1,.28-.66,1.17,1.17,0,0,1,.78-.24,1,1,0,0,1,.83.31,1.19,1.19,0,0,1,.27.82v.42h-.91a4.33,4.33,0,0,0-2.52.64,2.09,2.09,0,0,0-.87,1.8,2,2,0,0,0,.71,1.59,2.63,2.63,0,0,0,1.8.63,2.4,2.4,0,0,0,1.87-.8,2.23,2.23,0,0,0,.2.66h2v-.12a3.49,3.49,0,0,1-.29-1.59Zm-2,2.83a1.26,1.26,0,0,1-.55.52,1.73,1.73,0,0,1-.81.2,1,1,0,0,1-.71-.24.82.82,0,0,1-.26-.61v-.12c.06-.68.59-1,1.58-1h.74Z"/><path class="cls-2" d="M93,15.27a2.28,2.28,0,0,0-1.78-.8,2.54,2.54,0,0,0-2.13,1,4.52,4.52,0,0,0-.77,2.76,4.59,4.59,0,0,0,.79,2.86,2.52,2.52,0,0,0,2.09,1,2.31,2.31,0,0,0,1.9-.93l.1.79H95V11.5H93Zm0,4.5a1.31,1.31,0,0,1-1.29.77,1.17,1.17,0,0,1-1-.55,2.93,2.93,0,0,1-.37-1.6c0-1.54.48-2.32,1.43-2.32a1.3,1.3,0,0,1,1.28.78Z"/><polygon class="cls-2" points="26.29 19 32.29 19 32.29 13.56 34.97 13.56 29.29 7 23.61 13.56 26.29 13.56 26.29 19"/><polygon class="cls-2" points="35.79 22 22.79 22 22.79 18 19.79 18 19.79 25 19.79 25 36.79 25 36.79 25 38.79 25 38.79 18 35.79 18 35.79 22"/></g></g></svg>