<svg xmlns="http://www.w3.org/2000/svg" viewBox="0 0 181.98 181.98"><defs><style>.cls-1{fill:#7ad06d;}.cls-2{fill:#fff;}</style></defs><title>Whatsapp</title><g id="Layer_2" data-name="Layer 2"><g id="Layer_5" data-name="Layer 5"><path class="cls-1" d="M0,0V182H182V0ZM165.52,90.83A71.37,71.37,0,0,1,62.44,152.45l-36,8.54a2.77,2.77,0,0,1-3.36-3.26L30.62,121a71.36,71.36,0,1,1,134.9-30.13Z"/><path class="cls-1" d="M94.21,32.68A55.87,55.87,0,0,0,38.34,88.55a55.22,55.22,0,0,0,6.07,25.36l2.47,4.84-4.65,22.58,22.09-5.24,5,2.5a55.9,55.9,0,0,0,64.37-10.53,55.88,55.88,0,0,0-39.5-95.38Zm37.55,79.07c-2.71,4.26-7,9.47-12.36,10.77-9.46,2.29-24,.06-42.13-16.88C61.56,91,57.41,78.78,58.39,69.1c.56-5.5,5.13-10.45,9-13.72a5.16,5.16,0,0,1,8.05,1.85l5.81,13.15a5.14,5.14,0,0,1-.63,5.23l-3,3.82a5,5,0,0,0-.4,5.58c3.51,6.12,17.26,18.34,23.8,21a5,5,0,0,0,5.48-1.16l3.38-3.44a5.14,5.14,0,0,1,5.09-1.34l13.82,4A5.16,5.16,0,0,1,131.76,111.75Z"/><path class="cls-2" d="M90.72,17.28A71.4,71.4,0,0,0,30.62,121l-7.57,36.77A2.77,2.77,0,0,0,26.41,161l36-8.54A71.36,71.36,0,1,0,90.72,17.28Zm43,110.78a55.9,55.9,0,0,1-64.37,10.53l-5-2.5-22.09,5.24,4.65-22.58-2.47-4.84A55.92,55.92,0,0,1,54.7,49.05a55.87,55.87,0,1,1,79,79Z"/><path class="cls-2" d="M128.83,104l-13.82-4a5.14,5.14,0,0,0-5.09,1.34l-3.38,3.44a5,5,0,0,1-5.48,1.16c-6.54-2.65-20.29-14.87-23.8-21a5,5,0,0,1,.4-5.58l3-3.82a5.14,5.14,0,0,0,.63-5.23L75.43,57.23a5.16,5.16,0,0,0-8.05-1.85c-3.86,3.27-8.43,8.22-9,13.72-1,9.68,3.17,21.89,18.88,36.54,18.14,16.94,32.67,19.17,42.13,16.88,5.36-1.3,9.65-6.51,12.36-10.77A5.16,5.16,0,0,0,128.83,104Z"/></g></g></svg>