<?xml version="1.0" encoding="utf-8"?>
<!-- Generator: Adobe Illustrator 22.1.0, SVG Export Plug-In . SVG Version: 6.00 Build 0)  -->
<svg version="1.1" id="Capa_1" xmlns="http://www.w3.org/2000/svg" xmlns:xlink="http://www.w3.org/1999/xlink" x="0px" y="0px"
	 viewBox="0 0 480 480" style="enable-background:new 0 0 480 480;" xml:space="preserve">
<style type="text/css">
	.st0{fill:#FFFFFF;}
</style>
<g>
	<g>
		<path class="st0" d="M123.6,102.5c-9-9.3-21.4-14.5-34.4-14.5h-2.5c-12.9,0-25.3,5.2-34.3,14.5c-8.5,8.7-13,20.5-12.4,32.6
			l0.9,21.5c1.4,24.6,22,43.8,46.7,43.3h0.6c24.7,0.4,45.3-18.7,46.7-43.3l1-21.5C136.5,123,132,111.2,123.6,102.5z M119,156
			c-1.1,16.1-14.6,28.4-30.7,28h-0.6C71.6,184.4,58,172.1,57,156l-0.3-6.5c15.3-0.7,29.9-6.2,41.8-15.7c4.9,7.3,12.3,12.5,20.9,14.6
			L119,156z M109,118.2c-0.4-3.4-3-6.2-6.4-6.8c-3.4-0.7-6.8,0.9-8.5,3.8c-0.1,0.2-10,15.9-38,18.3c-0.1-7.4,2.8-14.6,7.9-19.9
			c6-6.2,14.2-9.6,22.8-9.6h2.5c8.6,0,16.8,3.4,22.8,9.6c4.7,4.9,7.4,11.2,7.8,18C114.3,129.1,110.3,124.1,109,118.2z"/>
	</g>
</g>
<g>
	<g>
		<path class="st0" d="M435.6,294.5c-9-9.3-21.4-14.5-34.4-14.5h-2.5c-12.9,0-25.3,5.2-34.3,14.5c-8.5,8.7-13,20.5-12.4,32.6
			l0.9,21.5c1.4,24.6,22,43.8,46.7,43.3h0.6c24.7,0.4,45.3-18.7,46.7-43.3l1-21.5C448.5,315,444,303.2,435.6,294.5z M432,326.5
			l-1,21.5c-1.1,16.1-14.6,28.4-30.7,28h-0.6c-16.1,0.4-29.7-11.9-30.7-28l-1-21.6c-0.3-7.8,2.6-15.3,8-20.8
			c6-6.2,14.2-9.6,22.8-9.6h2.5c8.6,0,16.8,3.4,22.8,9.6C429.4,311.2,432.3,318.7,432,326.5z"/>
	</g>
</g>
<g>
	<g>
		<path class="st0" d="M247.1,116.3c-8.6-8.3-22.2-8.3-30.8,0L127,205.7c-1.5,1.5-3.5,2.3-5.7,2.3H40c-22.1,0-40,17.9-40,40v112
			c0,13.3,10.7,24,24,24c2.7,0,5.4-0.5,8-1.4v9.4c0,4.4,3.6,8,8,8h96c4.4,0,8-3.6,8-8V262.3c0-2,0.8-4,2.1-5.5l101.5-109.2
			C256.2,138.9,255.9,124.8,247.1,116.3z M236.2,136.5C236.2,136.5,236.2,136.5,236.2,136.5L134.4,245.9c-4.1,4.4-6.4,10.3-6.4,16.3
			V384H48V264c0-4.4-3.6-8-8-8s-8,3.6-8,8v96c0,4.4-3.6,8-8,8s-8-3.6-8-8V248c0-13.3,10.7-24,24-24h81.4c6.4,0,12.5-2.5,17-7
			l89.3-89.3c2.4-2.3,6.3-2.3,8.7,0C238.7,130.1,238.7,134.1,236.2,136.5z"/>
	</g>
</g>
<g>
	<g>
		<path class="st0" d="M88,232c-4.4,0-8,3.6-8,8v96c0,4.4,3.6,8,8,8s8-3.6,8-8v-96C96,235.6,92.4,232,88,232z"/>
	</g>
</g>
<g>
	<g>
		<path class="st0" d="M259.5,294.5c-9-9.3-21.4-14.5-34.3-14.5h-2.5c-12.9,0-25.3,5.2-34.3,14.5c-8.5,8.7-13,20.5-12.4,32.6
			l0.9,21.5c1.4,24.6,22,43.8,46.7,43.3h0.6c24.7,0.4,45.3-18.7,46.7-43.3l0.9-21.5C272.5,315,268,303.2,259.5,294.5z M256,326.5
			l-1,21.5c-1.1,16.1-14.6,28.4-30.7,28h-0.6c-16.1,0.4-29.7-11.9-30.7-28l-1-21.6c-0.3-7.8,2.6-15.3,8-20.8
			c6-6.2,14.2-9.6,22.8-9.6h2.5c8.6,0,16.8,3.4,22.8,9.6C253.4,311.2,256.3,318.7,256,326.5z"/>
	</g>
</g>
<g>
	<g>
		<path class="st0" d="M265.3,400h-82.7c-21.3,0-38.6,17.3-38.7,38.7V472c0,4.4,3.6,8,8,8s8-3.6,8-8v-33.3
			c0-12.5,10.2-22.7,22.7-22.7h82.7c12.5,0,22.7,10.2,22.7,22.7V472c0,4.4,3.6,8,8,8s8-3.6,8-8v-33.3C304,417.3,286.7,400,265.3,400
			z"/>
	</g>
</g>
<g>
	<g>
		<path class="st0" d="M441.3,400h-82.7c-21.3,0-38.6,17.3-38.7,38.7V472c0,4.4,3.6,8,8,8s8-3.6,8-8v-33.3
			c0-12.5,10.2-22.7,22.7-22.7h82.7c12.5,0,22.7,10.2,22.7,22.7V472c0,4.4,3.6,8,8,8s8-3.6,8-8v-33.3C480,417.3,462.7,400,441.3,400
			z"/>
	</g>
</g>
<g>
	<g>
		<path class="st0" d="M456.4,0H175.6c-13.1,0.1-23.7,10.9-23.6,24v120c0,4.4,3.6,8,8,8s8-3.6,8-8V48h296v192c0.1,4.3-3.3,7.9-7.6,8
			h-273c-4.4,0-8,3.6-8,8s3.6,8,8,8h273c13.1-0.1,23.7-10.9,23.6-24V24C480.1,10.9,469.5,0.1,456.4,0z M464,32H168v-8
			c-0.1-4.3,3.3-7.9,7.6-8h280.8c4.3,0.1,7.7,3.7,7.6,8V32z"/>
	</g>
</g>
<g>
	<g>
		<path class="st0" d="M440,102c-4.4,0-8,3.6-8,8v114c0,4.4,3.6,8,8,8s8-3.6,8-8V110C448,105.6,444.4,102,440,102z"/>
	</g>
</g>
<g>
	<g>
		<path class="st0" d="M408,152c-4.4,0-8,3.6-8,8v64c0,4.4,3.6,8,8,8s8-3.6,8-8v-64C416,155.6,412.4,152,408,152z"/>
	</g>
</g>
<g>
	<g>
		<path class="st0" d="M376,136c-4.4,0-8,3.6-8,8v80c0,4.4,3.6,8,8,8s8-3.6,8-8v-80C384,139.6,380.4,136,376,136z"/>
	</g>
</g>
<g>
	<g>
		<path class="st0" d="M344,184c-4.4,0-8,3.6-8,8v32c0,4.4,3.6,8,8,8s8-3.6,8-8v-32C352,187.6,348.4,184,344,184z"/>
	</g>
</g>
<g>
	<g>
		<path class="st0" d="M444.4,65.3c-3.7-2.5-8.6-1.5-11.1,2.2l-27.3,41l-25.2-18.9c-3.5-2.7-8.5-2-11.2,1.5
			c-0.3,0.4-0.6,0.8-0.8,1.3l-31.2,62.3l-30.4,22.9c-3.5,2.7-4.3,7.7-1.6,11.2s7.7,4.3,11.2,1.6l32-24c1-0.7,1.8-1.7,2.4-2.8
			l27.7-55.4l24.3,18.2c3.5,2.7,8.5,1.9,11.2-1.6c0.1-0.1,0.2-0.2,0.3-0.4l32-48C449.1,72.8,448.1,67.8,444.4,65.3z"/>
	</g>
</g>
<g>
	<g>
		<path class="st0" d="M288,64h-96c-4.4,0-8,3.6-8,8s3.6,8,8,8h96c4.4,0,8-3.6,8-8S292.4,64,288,64z"/>
	</g>
</g>
<g>
	<g>
		<path class="st0" d="M336,64h-16c-4.4,0-8,3.6-8,8s3.6,8,8,8h16c4.4,0,8-3.6,8-8S340.4,64,336,64z"/>
	</g>
</g>
</svg>
