<svg xmlns="http://www.w3.org/2000/svg" xmlns:xlink="http://www.w3.org/1999/xlink" viewBox="0 0 181.98 181.98"><defs><style>.cls-1{fill:url(#radial-gradient);}.cls-2{fill:#fff;}.cls-3{fill:url(#radial-gradient-2);}.cls-4{fill:url(#radial-gradient-3);}</style><radialGradient id="radial-gradient" cx="90.99" cy="90.99" r="90.99" gradientUnits="userSpaceOnUse"><stop offset="0.17" stop-color="#c2181e"/><stop offset="0.77" stop-color="#de2925"/></radialGradient><radialGradient id="radial-gradient-2" cx="96.38" cy="91.58" r="20.77" xlink:href="#radial-gradient"/><radialGradient id="radial-gradient-3" cx="96.38" cy="82.5" r="16.63" xlink:href="#radial-gradient"/></defs><title>youtube_1</title><g id="Layer_2" data-name="Layer 2"><g id="Layer_5" data-name="Layer 5"><rect class="cls-1" width="181.98" height="181.98"/><path class="cls-2" d="M164.07,108.34c0,18.42-6.3,33.35-24.71,33.35H44.62C26.21,141.69,18,126.76,18,108.34V73.08c0-18.41,7.48-33.34,25.89-33.34h96.3c18.42,0,23.93,14.93,23.93,33.34Z"/><polygon class="cls-3" points="76.06 70.38 116.69 91.58 76.06 112.78 76.06 70.38"/><polygon class="cls-4" points="76.06 70.7 111.4 94.34 116.69 91.58 79.2 72.02 76.06 70.66 76.06 70.7"/></g></g></svg>