<?xml version="1.0" encoding="utf-8"?>
<!-- Generator: Adobe Illustrator 16.0.0, SVG Export Plug-In . SVG Version: 6.00 Build 0)  -->
<!DOCTYPE svg PUBLIC "-//W3C//DTD SVG 1.1//EN" "http://www.w3.org/Graphics/SVG/1.1/DTD/svg11.dtd">
<svg version="1.1" id="Layer_1" xmlns="http://www.w3.org/2000/svg" xmlns:xlink="http://www.w3.org/1999/xlink" x="0px" y="0px"
	 width="176px" height="60px" viewBox="0 0 176 60" enable-background="new 0 0 176 60" xml:space="preserve">
<g>
	<g>
		<polygon fill="#1F3C92" points="5.607,9.809 14.08,34.945 22.555,9.809 28.298,9.809 16.881,43.073 11.348,43.073 0,9.809 		"/>
		<rect x="30.672" y="9.809" fill="#1F3C92" width="5.541" height="33.265"/>
		<path fill="#1F3C92" d="M45.005,9.809v2.647c0.866-1.18,1.952-2.013,3.249-2.488c1.295-0.477,2.834-0.716,4.611-0.716
			c0.957,0,2.084,0.162,3.385,0.474c1.295,0.324,2.515,0.824,3.656,1.503l-3.217,4.499c-1.545-0.728-3.049-1.087-4.508-1.087
			c-2.141,0-3.846,0.519-5.127,1.568c-1.274,1.052-1.958,2.507-2.05,4.374v22.49h-5.534V9.809H45.005z"/>
		<path fill="#1F3C92" d="M65.724-0.009h5.533v9.261h8.859v5.389h-8.859v18.67c0,1.185,0.288,2.212,0.856,3.079
			c0.574,0.868,1.59,1.3,3.05,1.3h5.409v5.384h-5.408c-2.964,0-5.277-0.866-6.945-2.594c-1.667-1.735-2.495-4.126-2.495-7.177
			V14.641h-3.486V9.252h3.486V-0.009z"/>
		<path fill="#1F3C92" d="M102.674,42.521v-2.719c-0.957,1.095-2.166,1.907-3.627,2.451c-1.459,0.548-2.844,0.82-4.168,0.82
			c-3.74,0-6.679-1.047-8.823-3.139c-2.142-2.099-3.212-4.947-3.212-8.543V9.252h5.537V31.4c0,1.958,0.649,3.495,1.948,4.611
			c1.301,1.116,3.045,1.678,5.234,1.678c2.092,0,3.795-0.522,5.092-1.574c1.303-1.048,1.973-2.507,2.02-4.371V9.252h5.531v33.269
			H102.674z"/>
		<path fill="#1F3C92" d="M115.287,32.564c0.41,1.642,1.322,2.906,2.732,3.793c1.412,0.886,3.031,1.332,4.857,1.332
			c2.273,0,4.076-0.412,5.395-1.231c1.324-0.821,1.984-1.98,1.984-3.483c0-1.508-0.512-2.582-1.541-3.215
			c-1.021-0.636-3.059-1.162-6.105-1.576c-3.551-0.415-6.451-1.357-8.703-2.836c-2.25-1.48-3.377-3.795-3.377-6.938
			c0.088-3.104,1.236-5.495,3.445-7.18c2.213-1.684,5.184-2.534,8.914-2.534c3.371,0,6.15,0.871,8.334,2.594
			c2.186,1.725,3.572,4.143,4.164,7.241l-5.535,0.683c-0.365-1.646-1.17-2.906-2.424-3.797c-1.248-0.888-2.762-1.332-4.539-1.332
			c-2.137,0-3.811,0.368-5.018,1.092c-1.207,0.729-1.805,1.799-1.805,3.213c0,1.414,0.701,2.453,2.111,3.111
			c1.414,0.667,3.053,1.089,4.912,1.271c4.693,0.453,7.982,1.476,9.871,3.071c1.889,1.599,2.832,3.969,2.832,7.114
			c0,3.144-1.172,5.62-3.523,7.423c-2.344,1.796-5.48,2.694-9.393,2.694c-3.373,0-6.248-0.859-8.613-2.589
			c-2.371-1.727-3.875-4.138-4.51-7.234L115.287,32.564z"/>
		<path fill="#1F3C92" d="M137.713,18.53c0.596-3.098,1.984-5.516,4.17-7.241c2.186-1.723,4.992-2.594,8.404-2.594
			c3.828,0,6.891,1.053,9.191,3.151c2.299,2.093,3.455,4.937,3.455,8.534v22.14h-5.535v-2.036c-0.783,0.863-1.826,1.51-3.15,1.942
			c-1.32,0.431-2.646,0.646-3.961,0.646c-3.883,0-6.965-0.992-9.27-2.975c-2.303-1.984-3.451-4.686-3.451-8.101
			c0-3.422,1.148-6.117,3.451-8.074c2.305-1.966,5.387-2.95,9.27-2.95c1.361,0,2.664,0.208,3.896,0.616
			c1.229,0.412,2.299,1.004,3.215,1.779v-3.007c0-1.954-0.643-3.493-1.918-4.609c-1.271-1.11-3.006-1.669-5.193-1.669
			c-1.826,0-3.357,0.443-4.607,1.332c-1.26,0.891-2.064,2.151-2.43,3.797L137.713,18.53z M157.398,31.998
			c-0.096-1.836-0.783-3.235-2.057-4.189c-1.273-0.963-2.961-1.441-5.061-1.441c-2.189,0-3.932,0.502-5.23,1.507
			c-1.297,1.001-1.951,2.377-1.951,4.123c0,1.736,0.654,3.115,1.951,4.146c1.299,1.031,3.041,1.546,5.23,1.546
			s3.922-0.515,5.199-1.546C156.756,35.113,157.398,33.734,157.398,31.998"/>
		<g>
			<path fill="#F7941E" d="M36.669,4.075c0,1.797-1.46,3.262-3.26,3.262c-1.802,0-3.26-1.465-3.26-3.262c0-1.8,1.458-3.26,3.26-3.26
				C35.209,0.815,36.669,2.275,36.669,4.075z"/>
		</g>
		<g>
			<g>
				<path fill="#1F3C92" d="M168.26,12.393c0.273-0.057,0.672-0.093,1.041-0.093c0.576,0,0.957,0.111,1.219,0.348
					c0.205,0.181,0.33,0.469,0.33,0.798c0,0.547-0.355,0.914-0.791,1.062v0.02c0.32,0.113,0.512,0.411,0.615,0.846
					c0.143,0.587,0.236,0.993,0.32,1.155h-0.563c-0.068-0.12-0.162-0.481-0.271-1.004c-0.127-0.577-0.357-0.795-0.848-0.815h-0.512
					v1.819h-0.541V12.393z M168.801,14.298h0.555c0.578,0,0.943-0.316,0.943-0.798c0-0.539-0.389-0.775-0.963-0.775
					c-0.26,0-0.443,0.021-0.535,0.05V14.298z"/>
			</g>
			<path fill="#1F3C92" d="M169.395,11.23c-1.83,0-3.314,1.484-3.314,3.315c0,1.833,1.484,3.314,3.314,3.314
				c1.834,0,3.318-1.482,3.318-3.314C172.713,12.715,171.229,11.23,169.395,11.23z M169.408,17.61c-1.682,0-3.051-1.365-3.051-3.053
				c0-1.682,1.369-3.05,3.051-3.05c1.684,0,3.051,1.368,3.051,3.05C172.459,16.245,171.092,17.61,169.408,17.61z"/>
		</g>
	</g>
	<g>
		<path fill="#1F3C92" d="M16.835,56.569c0.012,0.084,0.013,0.15,0.009,0.202c-0.006,0.051-0.028,0.089-0.063,0.117
			c-0.037,0.026-0.093,0.044-0.168,0.053c-0.077,0.006-0.18,0.008-0.309,0.008c-0.084,0-0.156-0.001-0.217-0.007
			c-0.062-0.007-0.108-0.014-0.139-0.027c-0.033-0.014-0.056-0.033-0.073-0.055c-0.014-0.022-0.025-0.052-0.027-0.086l-0.276-1.799
			h-3.075l-0.965,1.781c-0.017,0.038-0.04,0.071-0.064,0.095c-0.025,0.023-0.059,0.045-0.104,0.061
			c-0.042,0.014-0.1,0.023-0.17,0.03c-0.071,0.006-0.158,0.007-0.26,0.007c-0.115,0-0.206-0.002-0.275-0.014
			c-0.068-0.007-0.115-0.026-0.142-0.054c-0.027-0.026-0.034-0.064-0.023-0.115c0.011-0.052,0.037-0.118,0.08-0.204l3.846-6.859
			c0.027-0.041,0.056-0.075,0.087-0.103c0.029-0.026,0.067-0.047,0.119-0.063c0.048-0.015,0.111-0.025,0.188-0.031
			c0.075-0.006,0.169-0.008,0.279-0.008c0.125,0,0.227,0.002,0.306,0.008c0.077,0.006,0.14,0.017,0.187,0.031
			c0.047,0.017,0.081,0.038,0.1,0.067c0.021,0.027,0.033,0.063,0.042,0.104L16.835,56.569z M14.912,50.513h-0.006l-1.996,3.681
			h2.555L14.912,50.513z"/>
		<path fill="#1F3C92" d="M22.422,52.089c0,0.068-0.007,0.138-0.019,0.211c-0.014,0.072-0.033,0.141-0.061,0.202
			c-0.028,0.063-0.059,0.116-0.094,0.157c-0.037,0.041-0.078,0.063-0.124,0.063c-0.052,0-0.108-0.027-0.165-0.082
			c-0.058-0.056-0.132-0.117-0.227-0.186c-0.092-0.068-0.21-0.13-0.353-0.188c-0.143-0.057-0.323-0.084-0.544-0.084
			c-0.245,0-0.461,0.048-0.649,0.149c-0.188,0.101-0.352,0.234-0.49,0.396c-0.139,0.161-0.255,0.344-0.345,0.549
			c-0.092,0.206-0.166,0.414-0.224,0.624c-0.056,0.206-0.098,0.41-0.124,0.606c-0.024,0.196-0.037,0.367-0.037,0.511
			c0,0.394,0.086,0.689,0.258,0.89c0.17,0.201,0.425,0.304,0.763,0.304c0.249,0,0.46-0.031,0.638-0.09
			c0.176-0.063,0.328-0.133,0.45-0.21c0.125-0.078,0.227-0.148,0.306-0.21c0.081-0.06,0.15-0.091,0.212-0.091
			c0.029,0,0.054,0.015,0.07,0.043c0.017,0.029,0.025,0.069,0.025,0.123c0,0.046-0.002,0.1-0.011,0.162
			c-0.006,0.063-0.02,0.128-0.037,0.194c-0.016,0.068-0.036,0.129-0.062,0.186c-0.025,0.058-0.061,0.109-0.106,0.157
			c-0.046,0.05-0.125,0.105-0.239,0.174s-0.247,0.13-0.396,0.186c-0.151,0.056-0.313,0.102-0.488,0.138
			c-0.175,0.035-0.357,0.053-0.542,0.053c-0.614,0-1.07-0.155-1.373-0.468c-0.303-0.313-0.453-0.775-0.453-1.391
			c0-0.232,0.018-0.486,0.059-0.763c0.04-0.276,0.107-0.554,0.203-0.833c0.096-0.28,0.216-0.552,0.365-0.813
			c0.149-0.265,0.331-0.496,0.549-0.699c0.216-0.203,0.468-0.366,0.753-0.487c0.284-0.123,0.612-0.186,0.982-0.186
			c0.152,0,0.297,0.013,0.44,0.038c0.139,0.024,0.272,0.059,0.395,0.099c0.124,0.043,0.236,0.096,0.337,0.158
			c0.1,0.063,0.178,0.119,0.234,0.169c0.054,0.049,0.088,0.091,0.103,0.124C22.415,52.01,22.422,52.048,22.422,52.089z"/>
		<path fill="#1F3C92" d="M27.181,52.089c0,0.068-0.006,0.138-0.018,0.211c-0.014,0.072-0.034,0.141-0.06,0.202
			c-0.027,0.063-0.059,0.116-0.097,0.157c-0.036,0.041-0.076,0.063-0.122,0.063c-0.052,0-0.108-0.027-0.166-0.082
			c-0.056-0.056-0.13-0.117-0.225-0.186c-0.092-0.068-0.211-0.13-0.353-0.188c-0.143-0.057-0.325-0.084-0.544-0.084
			c-0.245,0-0.461,0.048-0.65,0.149c-0.187,0.101-0.351,0.234-0.49,0.396s-0.254,0.344-0.345,0.549
			c-0.092,0.206-0.167,0.414-0.222,0.624c-0.057,0.206-0.099,0.41-0.123,0.606c-0.024,0.196-0.038,0.367-0.038,0.511
			c0,0.394,0.085,0.689,0.257,0.89c0.171,0.201,0.426,0.304,0.764,0.304c0.248,0,0.461-0.031,0.637-0.09
			c0.178-0.063,0.327-0.133,0.451-0.21c0.124-0.078,0.225-0.148,0.306-0.21c0.08-0.06,0.15-0.091,0.212-0.091
			c0.029,0,0.054,0.015,0.071,0.043c0.016,0.029,0.024,0.069,0.024,0.123c0,0.046-0.003,0.1-0.011,0.162
			c-0.007,0.063-0.02,0.128-0.037,0.194c-0.016,0.068-0.038,0.129-0.062,0.186c-0.025,0.058-0.061,0.109-0.106,0.157
			c-0.046,0.05-0.125,0.105-0.24,0.174s-0.245,0.13-0.396,0.186c-0.15,0.056-0.313,0.102-0.488,0.138
			c-0.174,0.035-0.355,0.053-0.542,0.053c-0.612,0-1.069-0.155-1.373-0.468c-0.304-0.313-0.453-0.775-0.453-1.391
			c0-0.232,0.021-0.486,0.059-0.763c0.042-0.276,0.109-0.554,0.205-0.833c0.096-0.28,0.215-0.552,0.364-0.813
			c0.147-0.265,0.331-0.496,0.548-0.699c0.216-0.203,0.467-0.366,0.755-0.487c0.285-0.123,0.612-0.186,0.98-0.186
			c0.153,0,0.299,0.013,0.439,0.038c0.142,0.024,0.274,0.059,0.397,0.099c0.125,0.043,0.236,0.096,0.338,0.158
			c0.099,0.063,0.178,0.119,0.232,0.169c0.056,0.049,0.09,0.091,0.104,0.124C27.175,52.01,27.181,52.048,27.181,52.089z"/>
		<path fill="#1F3C92" d="M32.375,52.688c0,0.261-0.06,0.497-0.182,0.706s-0.312,0.389-0.571,0.537
			c-0.257,0.149-0.59,0.262-0.992,0.342c-0.404,0.081-0.886,0.121-1.451,0.121h-0.604c-0.027,0.124-0.044,0.246-0.055,0.364
			c-0.01,0.118-0.014,0.229-0.014,0.331c0,0.379,0.095,0.672,0.283,0.875c0.188,0.2,0.493,0.301,0.915,0.301
			c0.244,0,0.464-0.017,0.657-0.055c0.194-0.036,0.362-0.074,0.506-0.115c0.142-0.042,0.259-0.082,0.351-0.117
			c0.091-0.036,0.154-0.055,0.187-0.055c0.035,0,0.06,0.011,0.08,0.037c0.016,0.024,0.023,0.06,0.023,0.104
			c0,0.038-0.003,0.084-0.01,0.138c-0.007,0.054-0.02,0.109-0.036,0.163c-0.015,0.053-0.035,0.107-0.059,0.158
			c-0.025,0.049-0.053,0.091-0.084,0.124c-0.046,0.045-0.125,0.091-0.241,0.135c-0.116,0.045-0.254,0.083-0.414,0.119
			c-0.161,0.036-0.334,0.065-0.524,0.09c-0.192,0.021-0.381,0.032-0.573,0.032c-0.338,0-0.636-0.035-0.888-0.112
			c-0.255-0.078-0.467-0.195-0.636-0.352c-0.171-0.157-0.297-0.354-0.379-0.59c-0.083-0.236-0.125-0.516-0.125-0.835
			c0-0.247,0.022-0.512,0.069-0.795c0.048-0.284,0.124-0.564,0.227-0.843c0.102-0.277,0.235-0.542,0.398-0.8
			c0.165-0.254,0.361-0.478,0.587-0.671c0.226-0.196,0.487-0.353,0.783-0.47c0.298-0.118,0.631-0.177,1.004-0.177
			c0.322,0,0.591,0.039,0.813,0.121c0.224,0.077,0.408,0.183,0.548,0.308c0.144,0.125,0.247,0.264,0.313,0.417
			C32.343,52.382,32.375,52.536,32.375,52.688z M31.411,52.772c0-0.192-0.075-0.35-0.229-0.469c-0.152-0.122-0.369-0.181-0.65-0.181
			c-0.246,0-0.465,0.043-0.655,0.127c-0.191,0.087-0.36,0.201-0.506,0.347c-0.146,0.145-0.272,0.314-0.377,0.505
			c-0.104,0.193-0.188,0.394-0.252,0.608h0.581c0.398,0,0.735-0.024,1.001-0.075c0.268-0.048,0.481-0.116,0.645-0.2
			c0.162-0.085,0.275-0.188,0.341-0.301C31.377,53.019,31.411,52.898,31.411,52.772z"/>
		<path fill="#1F3C92" d="M33.991,56.774c-0.007,0.031-0.021,0.057-0.039,0.077c-0.021,0.021-0.049,0.038-0.087,0.054
			c-0.039,0.016-0.089,0.027-0.151,0.036c-0.064,0.006-0.141,0.008-0.231,0.008c-0.097,0-0.173-0.002-0.231-0.008
			c-0.059-0.009-0.106-0.021-0.137-0.036c-0.032-0.016-0.053-0.033-0.063-0.054c-0.008-0.021-0.01-0.046-0.002-0.077l1.518-7.627
			c0.008-0.027,0.021-0.055,0.037-0.077c0.018-0.022,0.046-0.043,0.087-0.059c0.04-0.014,0.091-0.026,0.155-0.033
			c0.062-0.009,0.14-0.013,0.236-0.013c0.092,0,0.165,0.004,0.225,0.013c0.06,0.007,0.104,0.02,0.138,0.033
			c0.032,0.016,0.051,0.036,0.059,0.059s0.01,0.05,0.006,0.077L33.991,56.774z"/>
		<path fill="#1F3C92" d="M40.641,52.688c0,0.261-0.063,0.497-0.185,0.706c-0.121,0.209-0.312,0.389-0.569,0.537
			c-0.26,0.149-0.59,0.262-0.995,0.342c-0.402,0.081-0.885,0.121-1.449,0.121h-0.604c-0.028,0.124-0.046,0.246-0.054,0.364
			c-0.01,0.118-0.015,0.229-0.015,0.331c0,0.379,0.093,0.672,0.283,0.875c0.186,0.2,0.492,0.301,0.915,0.301
			c0.243,0,0.463-0.017,0.656-0.055c0.195-0.036,0.363-0.074,0.506-0.115c0.142-0.042,0.258-0.082,0.35-0.117
			c0.091-0.036,0.154-0.055,0.188-0.055c0.034,0,0.059,0.011,0.078,0.037c0.016,0.024,0.024,0.06,0.024,0.104
			c0,0.038-0.003,0.084-0.013,0.138c-0.006,0.054-0.018,0.109-0.032,0.163c-0.016,0.053-0.036,0.107-0.061,0.158
			c-0.025,0.049-0.051,0.091-0.083,0.124c-0.047,0.045-0.126,0.091-0.244,0.135c-0.116,0.045-0.253,0.083-0.412,0.119
			c-0.161,0.036-0.335,0.065-0.525,0.09c-0.191,0.021-0.379,0.032-0.571,0.032c-0.337,0-0.636-0.035-0.89-0.112
			c-0.256-0.078-0.467-0.195-0.636-0.352c-0.171-0.157-0.297-0.354-0.38-0.59c-0.083-0.236-0.126-0.516-0.126-0.835
			c0-0.247,0.025-0.512,0.072-0.795c0.048-0.284,0.122-0.564,0.225-0.843c0.103-0.277,0.235-0.542,0.401-0.8
			c0.162-0.254,0.357-0.478,0.584-0.671c0.227-0.196,0.488-0.353,0.784-0.47c0.297-0.118,0.633-0.177,1.005-0.177
			c0.319,0,0.591,0.039,0.814,0.121c0.222,0.077,0.404,0.183,0.547,0.308s0.248,0.264,0.313,0.417
			C40.607,52.382,40.641,52.536,40.641,52.688z M39.675,52.772c0-0.192-0.077-0.35-0.229-0.469c-0.151-0.122-0.369-0.181-0.65-0.181
			c-0.249,0-0.468,0.043-0.658,0.127c-0.189,0.087-0.357,0.201-0.504,0.347c-0.146,0.145-0.272,0.314-0.375,0.505
			c-0.106,0.193-0.19,0.394-0.255,0.608h0.583c0.398,0,0.733-0.024,1.001-0.075c0.268-0.048,0.482-0.116,0.645-0.2
			c0.162-0.085,0.276-0.188,0.343-0.301C39.641,53.019,39.675,52.898,39.675,52.772z"/>
		<path fill="#1F3C92" d="M45.245,51.643c0,0.016-0.003,0.046-0.009,0.09c-0.006,0.043-0.013,0.093-0.021,0.152
			c-0.006,0.056-0.018,0.116-0.032,0.175c-0.016,0.062-0.036,0.119-0.06,0.167c-0.021,0.053-0.045,0.098-0.07,0.13
			c-0.025,0.035-0.051,0.051-0.082,0.051s-0.065-0.005-0.1-0.021c-0.037-0.012-0.077-0.028-0.121-0.047
			c-0.043-0.02-0.094-0.035-0.15-0.049c-0.057-0.015-0.124-0.019-0.2-0.019c-0.129,0-0.278,0.055-0.448,0.168
			c-0.168,0.109-0.335,0.267-0.498,0.465c-0.166,0.196-0.314,0.432-0.451,0.701c-0.133,0.271-0.232,0.563-0.298,0.879l-0.452,2.289
			c-0.006,0.031-0.02,0.057-0.04,0.077c-0.019,0.021-0.047,0.038-0.085,0.054c-0.037,0.016-0.089,0.027-0.152,0.036
			c-0.063,0.006-0.138,0.008-0.229,0.008c-0.096,0-0.172-0.002-0.232-0.008c-0.058-0.009-0.105-0.021-0.138-0.036
			c-0.03-0.016-0.053-0.033-0.063-0.054c-0.007-0.021-0.008-0.046-0.001-0.077l1.021-5.142c0.004-0.026,0.014-0.054,0.033-0.075
			c0.019-0.022,0.049-0.042,0.087-0.056c0.037-0.017,0.084-0.027,0.138-0.033c0.057-0.005,0.121-0.009,0.197-0.009
			c0.08,0,0.146,0.004,0.197,0.009c0.052,0.006,0.093,0.017,0.12,0.033c0.029,0.014,0.048,0.033,0.056,0.056
			c0.006,0.021,0.009,0.049,0.006,0.075l-0.188,0.936c0.086-0.156,0.191-0.306,0.309-0.451c0.121-0.145,0.251-0.271,0.393-0.38
			c0.14-0.106,0.288-0.194,0.441-0.259c0.154-0.063,0.305-0.098,0.455-0.098c0.063,0,0.129,0.005,0.196,0.015
			c0.065,0.01,0.127,0.021,0.187,0.033c0.056,0.015,0.106,0.028,0.15,0.046s0.076,0.036,0.1,0.061
			C45.234,51.558,45.245,51.594,45.245,51.643z"/>
		<path fill="#1F3C92" d="M49.582,56.774c-0.015,0.064-0.057,0.109-0.125,0.138c-0.069,0.026-0.184,0.037-0.342,0.037
			c-0.077,0-0.14-0.002-0.188-0.008c-0.05-0.009-0.091-0.02-0.119-0.032c-0.031-0.016-0.052-0.031-0.063-0.052
			c-0.011-0.02-0.011-0.049,0-0.083l0.188-0.969c-0.05,0.118-0.14,0.253-0.269,0.397c-0.128,0.145-0.282,0.279-0.46,0.399
			c-0.176,0.121-0.373,0.226-0.59,0.303c-0.217,0.08-0.438,0.119-0.662,0.119c-0.305,0-0.557-0.053-0.756-0.159
			c-0.198-0.106-0.36-0.246-0.477-0.422c-0.117-0.177-0.198-0.373-0.243-0.593c-0.042-0.223-0.064-0.448-0.064-0.679
			c0-0.214,0.019-0.455,0.058-0.727c0.042-0.271,0.105-0.545,0.195-0.827c0.089-0.281,0.204-0.556,0.349-0.821
			c0.144-0.268,0.314-0.506,0.516-0.719c0.201-0.209,0.436-0.379,0.702-0.506c0.264-0.127,0.569-0.191,0.907-0.191
			c0.339,0,0.629,0.067,0.87,0.204c0.241,0.139,0.458,0.326,0.647,0.565l0.109-0.518c0.016-0.061,0.059-0.104,0.132-0.131
			s0.183-0.042,0.336-0.042c0.077,0,0.14,0.004,0.191,0.009c0.052,0.006,0.093,0.017,0.124,0.033
			c0.029,0.014,0.048,0.033,0.057,0.056c0.006,0.021,0.009,0.049,0.004,0.075L49.582,56.774z M49.404,52.979
			c-0.176-0.262-0.371-0.459-0.579-0.593c-0.208-0.131-0.441-0.195-0.698-0.195c-0.206,0-0.391,0.049-0.558,0.146
			c-0.164,0.098-0.313,0.227-0.437,0.385c-0.13,0.16-0.239,0.342-0.333,0.548c-0.093,0.203-0.169,0.413-0.228,0.63
			c-0.059,0.216-0.103,0.43-0.131,0.638c-0.028,0.209-0.043,0.399-0.043,0.565c0,0.134,0.01,0.265,0.032,0.396
			c0.021,0.132,0.061,0.252,0.12,0.36c0.058,0.109,0.137,0.195,0.241,0.263c0.103,0.065,0.237,0.099,0.4,0.099
			c0.209,0,0.419-0.059,0.631-0.174c0.21-0.115,0.408-0.276,0.59-0.481c0.182-0.207,0.343-0.446,0.485-0.727
			c0.14-0.277,0.246-0.581,0.313-0.917L49.404,52.979z"/>
		<path fill="#1F3C92" d="M56.094,56.774c-0.008,0.031-0.021,0.057-0.039,0.077c-0.02,0.021-0.048,0.038-0.087,0.054
			c-0.038,0.016-0.088,0.027-0.152,0.036c-0.062,0.006-0.14,0.008-0.231,0.008c-0.09,0-0.166-0.002-0.228-0.008
			c-0.061-0.009-0.108-0.021-0.14-0.036c-0.031-0.016-0.055-0.033-0.067-0.054c-0.012-0.021-0.013-0.046-0.004-0.077l0.901-4.502
			h-2.653l-0.577,2.863c-0.015,0.08-0.029,0.168-0.04,0.269c-0.012,0.1-0.018,0.181-0.018,0.246c0,0.194,0.041,0.335,0.124,0.424
			c0.081,0.09,0.213,0.136,0.397,0.136c0.101,0,0.191-0.008,0.267-0.026s0.14-0.035,0.197-0.057
			c0.054-0.018,0.102-0.036,0.144-0.053c0.043-0.016,0.079-0.024,0.109-0.024c0.031,0,0.054,0.011,0.072,0.031
			c0.018,0.02,0.025,0.062,0.025,0.116c0,0.05-0.005,0.104-0.015,0.164c-0.009,0.057-0.022,0.116-0.036,0.175
			c-0.015,0.055-0.035,0.105-0.058,0.153c-0.022,0.045-0.047,0.081-0.074,0.105c-0.031,0.032-0.078,0.057-0.137,0.082
			c-0.06,0.025-0.132,0.052-0.212,0.071c-0.079,0.021-0.164,0.037-0.255,0.047c-0.087,0.014-0.177,0.018-0.264,0.018
			c-0.213,0-0.395-0.021-0.552-0.067c-0.158-0.045-0.289-0.117-0.393-0.214c-0.108-0.096-0.186-0.218-0.239-0.365
			c-0.051-0.146-0.076-0.322-0.076-0.529c0-0.044,0.001-0.093,0.005-0.151c0.003-0.055,0.01-0.111,0.02-0.172
			c0.009-0.061,0.019-0.123,0.028-0.183c0.009-0.062,0.019-0.117,0.031-0.171l0.577-2.888h-0.714c-0.041,0-0.073-0.012-0.097-0.039
			c-0.023-0.024-0.034-0.071-0.034-0.145c0-0.054,0.005-0.115,0.018-0.185c0.012-0.072,0.028-0.136,0.051-0.196
			c0.022-0.063,0.052-0.114,0.086-0.154c0.038-0.044,0.08-0.063,0.129-0.063h0.72l0.246-1.222c0.002-0.026,0.015-0.053,0.035-0.074
			c0.022-0.024,0.052-0.044,0.088-0.062c0.039-0.015,0.09-0.026,0.153-0.038c0.062-0.005,0.14-0.01,0.231-0.01
			c0.089,0,0.167,0.005,0.226,0.01c0.063,0.012,0.109,0.023,0.142,0.038c0.031,0.018,0.052,0.037,0.063,0.062
			c0.009,0.021,0.011,0.048,0.002,0.074l-0.245,1.222h3.303c0.115,0,0.189,0.025,0.221,0.076c0.031,0.052,0.038,0.127,0.015,0.226
			L56.094,56.774z M57.566,49.909c-0.021,0.105-0.045,0.197-0.078,0.268c-0.031,0.071-0.075,0.131-0.127,0.175
			c-0.053,0.043-0.12,0.074-0.196,0.094c-0.08,0.019-0.174,0.027-0.289,0.027s-0.208-0.009-0.277-0.027
			c-0.07-0.02-0.122-0.051-0.154-0.094c-0.032-0.044-0.05-0.104-0.055-0.175c-0.004-0.07,0.005-0.162,0.022-0.268
			c0.018-0.107,0.046-0.194,0.076-0.266c0.036-0.07,0.079-0.129,0.132-0.177c0.057-0.047,0.123-0.082,0.196-0.099
			c0.077-0.016,0.174-0.023,0.287-0.023c0.114,0,0.206,0.008,0.276,0.023c0.071,0.017,0.123,0.052,0.158,0.099
			c0.032,0.048,0.053,0.106,0.056,0.177C57.599,49.715,57.588,49.802,57.566,49.909z"/>
		<path fill="#1F3C92" d="M62.856,52.772c0,0.135-0.008,0.266-0.022,0.396c-0.016,0.129-0.035,0.262-0.061,0.397l-0.647,3.209
			c-0.008,0.031-0.02,0.057-0.037,0.077c-0.017,0.021-0.045,0.038-0.086,0.054c-0.039,0.016-0.092,0.027-0.152,0.036
			c-0.059,0.006-0.138,0.008-0.232,0.008c-0.093,0-0.168-0.002-0.225-0.008c-0.062-0.009-0.106-0.021-0.139-0.036
			c-0.03-0.016-0.052-0.033-0.062-0.054c-0.008-0.021-0.013-0.046-0.007-0.077l0.632-3.173c0.027-0.118,0.044-0.231,0.054-0.343
			c0.007-0.11,0.014-0.205,0.014-0.291c0-0.232-0.049-0.42-0.148-0.563c-0.099-0.141-0.263-0.214-0.496-0.214
			c-0.202,0-0.409,0.059-0.62,0.173c-0.212,0.118-0.408,0.278-0.589,0.48c-0.179,0.203-0.341,0.445-0.482,0.726
			c-0.145,0.279-0.247,0.582-0.312,0.911l-0.457,2.293c-0.009,0.031-0.021,0.057-0.04,0.077c-0.02,0.021-0.047,0.038-0.085,0.054
			c-0.04,0.016-0.09,0.027-0.15,0.036c-0.063,0.006-0.142,0.008-0.233,0.008c-0.095,0-0.171-0.002-0.231-0.008
			c-0.059-0.009-0.106-0.021-0.137-0.036c-0.032-0.016-0.055-0.033-0.062-0.054c-0.012-0.021-0.012-0.046-0.004-0.077l1.032-5.142
			c0.005-0.026,0.015-0.054,0.031-0.075c0.019-0.022,0.044-0.042,0.081-0.056c0.036-0.017,0.081-0.027,0.135-0.033
			c0.056-0.005,0.122-0.009,0.198-0.009c0.08,0,0.145,0.004,0.196,0.009c0.053,0.006,0.092,0.017,0.121,0.033
			c0.03,0.014,0.047,0.033,0.055,0.056c0.007,0.021,0.008,0.049,0.006,0.075l-0.194,0.98c0.057-0.127,0.15-0.265,0.279-0.411
			c0.128-0.144,0.284-0.276,0.462-0.399c0.179-0.122,0.376-0.224,0.59-0.301c0.215-0.082,0.438-0.121,0.671-0.121
			c0.254,0,0.468,0.039,0.638,0.115c0.173,0.081,0.312,0.182,0.417,0.311c0.105,0.127,0.183,0.271,0.229,0.442
			C62.833,52.417,62.856,52.591,62.856,52.772z"/>
		<path fill="#1F3C92" d="M68.027,57.181c-0.061,0.305-0.16,0.569-0.295,0.798c-0.133,0.229-0.307,0.417-0.517,0.567
			c-0.209,0.149-0.456,0.266-0.743,0.34C66.184,58.963,65.859,59,65.494,59c-0.315,0-0.604-0.03-0.865-0.093
			c-0.26-0.063-0.469-0.139-0.625-0.226c-0.058-0.039-0.097-0.075-0.118-0.112c-0.019-0.038-0.031-0.083-0.031-0.141
			c0-0.023,0-0.056,0.001-0.098c0.003-0.04,0.011-0.084,0.02-0.124c0.007-0.042,0.019-0.086,0.033-0.131
			c0.013-0.046,0.031-0.089,0.051-0.122c0.021-0.039,0.045-0.066,0.077-0.087c0.029-0.022,0.063-0.033,0.098-0.033
			c0.045,0,0.102,0.021,0.169,0.062c0.069,0.041,0.16,0.084,0.273,0.135c0.115,0.05,0.256,0.095,0.427,0.137
			c0.168,0.043,0.378,0.062,0.625,0.062c0.204,0,0.389-0.019,0.556-0.062c0.165-0.042,0.309-0.105,0.433-0.188
			c0.123-0.083,0.225-0.19,0.303-0.319c0.078-0.13,0.135-0.285,0.173-0.462c0.065-0.346,0.131-0.635,0.194-0.864
			c0.065-0.228,0.118-0.403,0.16-0.527c-0.062,0.138-0.158,0.281-0.291,0.424c-0.135,0.144-0.289,0.272-0.464,0.392
			c-0.173,0.122-0.366,0.219-0.578,0.294c-0.208,0.074-0.42,0.109-0.638,0.109c-0.286,0-0.527-0.048-0.726-0.143
			c-0.197-0.094-0.355-0.225-0.475-0.39c-0.121-0.166-0.208-0.361-0.259-0.588c-0.054-0.227-0.082-0.472-0.082-0.732
			c0-0.223,0.021-0.47,0.063-0.745c0.041-0.276,0.109-0.556,0.2-0.835s0.209-0.549,0.352-0.814c0.141-0.265,0.313-0.502,0.515-0.71
			c0.201-0.205,0.435-0.373,0.698-0.496c0.266-0.128,0.565-0.19,0.899-0.19c0.338,0,0.628,0.067,0.87,0.204
			c0.243,0.139,0.458,0.326,0.649,0.565l0.108-0.518c0.016-0.061,0.058-0.104,0.132-0.131c0.072-0.027,0.184-0.042,0.335-0.042
			c0.077,0,0.142,0.004,0.192,0.009c0.051,0.006,0.094,0.017,0.123,0.033c0.03,0.014,0.049,0.033,0.057,0.056
			c0.008,0.021,0.01,0.049,0.006,0.075L68.027,57.181z M67.935,52.979c-0.178-0.262-0.371-0.459-0.578-0.593
			c-0.209-0.131-0.441-0.195-0.699-0.195c-0.206,0-0.391,0.049-0.554,0.141c-0.164,0.096-0.31,0.225-0.437,0.383
			c-0.128,0.157-0.238,0.34-0.335,0.544c-0.093,0.205-0.172,0.416-0.229,0.629c-0.061,0.216-0.103,0.43-0.132,0.641
			c-0.027,0.211-0.043,0.401-0.043,0.574c0,0.162,0.016,0.315,0.043,0.45c0.029,0.138,0.075,0.255,0.137,0.352
			c0.063,0.096,0.146,0.175,0.246,0.231c0.101,0.056,0.223,0.084,0.369,0.084c0.21,0,0.418-0.059,0.63-0.174s0.408-0.276,0.59-0.481
			c0.184-0.207,0.345-0.449,0.486-0.728c0.142-0.279,0.246-0.585,0.313-0.916L67.935,52.979z"/>
		<path fill="#1F3C92" d="M78.127,50.969c0,0.232-0.031,0.452-0.094,0.662c-0.062,0.204-0.152,0.397-0.267,0.571
			c-0.118,0.174-0.259,0.33-0.424,0.464c-0.165,0.133-0.353,0.242-0.562,0.33c0.16,0.029,0.311,0.085,0.447,0.164
			c0.14,0.079,0.259,0.182,0.357,0.301c0.099,0.118,0.176,0.261,0.231,0.426c0.055,0.163,0.083,0.344,0.083,0.541
			c0,0.203-0.025,0.406-0.079,0.61c-0.054,0.202-0.136,0.396-0.244,0.581c-0.108,0.183-0.244,0.355-0.404,0.513
			c-0.162,0.158-0.352,0.295-0.57,0.413c-0.216,0.119-0.458,0.211-0.727,0.273c-0.268,0.065-0.58,0.1-0.933,0.1h-1.958
			c-0.124,0-0.218-0.032-0.281-0.096c-0.064-0.063-0.078-0.165-0.044-0.305l1.314-6.586c0.027-0.149,0.086-0.252,0.181-0.313
			c0.096-0.058,0.198-0.087,0.297-0.087h1.588c0.378,0,0.693,0.031,0.947,0.096c0.255,0.061,0.469,0.153,0.636,0.276
			c0.169,0.123,0.297,0.269,0.38,0.447C78.086,50.533,78.127,50.738,78.127,50.969z M76.86,54.497c0-0.315-0.111-0.561-0.337-0.733
			c-0.223-0.173-0.568-0.26-1.037-0.26h-1.263l-0.512,2.602h1.375c0.312,0,0.575-0.043,0.79-0.132
			c0.214-0.09,0.396-0.208,0.542-0.354c0.142-0.147,0.252-0.317,0.328-0.512C76.824,54.915,76.86,54.711,76.86,54.497z
			 M77.083,51.147c0-0.125-0.019-0.237-0.062-0.338c-0.043-0.099-0.111-0.183-0.202-0.253c-0.093-0.071-0.212-0.126-0.356-0.167
			c-0.143-0.038-0.33-0.06-0.56-0.06h-1.04l-0.474,2.392h1.115c0.3,0,0.546-0.05,0.74-0.147c0.196-0.099,0.354-0.226,0.477-0.378
			c0.124-0.156,0.217-0.326,0.275-0.512C77.054,51.496,77.083,51.318,77.083,51.147z"/>
		<path fill="#1F3C92" d="M83.121,56.774c-0.004,0.031-0.014,0.057-0.034,0.08c-0.021,0.022-0.047,0.039-0.081,0.055
			c-0.032,0.013-0.077,0.023-0.134,0.032c-0.054,0.006-0.122,0.008-0.201,0.008c-0.078,0-0.141-0.002-0.192-0.008
			c-0.051-0.009-0.09-0.02-0.119-0.032c-0.029-0.016-0.048-0.032-0.057-0.055c-0.011-0.023-0.011-0.049-0.004-0.08l0.189-0.965
			c-0.062,0.129-0.157,0.265-0.288,0.407c-0.131,0.145-0.285,0.275-0.463,0.398c-0.177,0.121-0.371,0.219-0.583,0.297
			c-0.21,0.077-0.424,0.112-0.641,0.112c-0.258,0-0.477-0.034-0.655-0.104c-0.176-0.071-0.32-0.167-0.426-0.291
			c-0.109-0.124-0.187-0.268-0.235-0.441c-0.048-0.167-0.07-0.354-0.07-0.557c0-0.123,0.009-0.252,0.026-0.381
			c0.015-0.135,0.038-0.266,0.066-0.399l0.632-3.218c0.007-0.026,0.021-0.054,0.04-0.075c0.018-0.022,0.048-0.042,0.088-0.056
			c0.04-0.017,0.093-0.027,0.155-0.033c0.061-0.005,0.138-0.009,0.229-0.009c0.092,0,0.167,0.004,0.226,0.009
			c0.059,0.006,0.104,0.017,0.139,0.033c0.029,0.014,0.051,0.033,0.062,0.056c0.009,0.021,0.011,0.049,0.009,0.075l-0.627,3.184
			c-0.024,0.1-0.042,0.2-0.054,0.309c-0.011,0.106-0.015,0.215-0.015,0.325c0,0.114,0.01,0.219,0.031,0.311
			c0.021,0.094,0.057,0.174,0.108,0.243c0.05,0.068,0.118,0.12,0.197,0.16c0.086,0.038,0.184,0.056,0.303,0.056
			c0.201,0,0.406-0.059,0.619-0.174c0.21-0.115,0.408-0.276,0.59-0.481c0.182-0.207,0.345-0.449,0.488-0.734
			c0.142-0.282,0.247-0.593,0.317-0.927l0.45-2.271c0.002-0.026,0.016-0.054,0.038-0.075c0.019-0.022,0.052-0.042,0.09-0.056
			c0.04-0.017,0.091-0.027,0.154-0.033c0.063-0.005,0.141-0.009,0.232-0.009c0.092,0,0.167,0.004,0.224,0.009
			c0.061,0.006,0.106,0.017,0.138,0.033c0.032,0.014,0.053,0.033,0.062,0.056c0.008,0.021,0.013,0.049,0.008,0.075L83.121,56.774z"
			/>
		<path fill="#1F3C92" d="M88.758,51.916c0,0.04-0.006,0.091-0.018,0.151c-0.011,0.063-0.024,0.125-0.046,0.187
			c-0.021,0.063-0.046,0.112-0.075,0.153c-0.028,0.042-0.058,0.063-0.093,0.063c-0.046,0-0.102-0.017-0.163-0.053
			c-0.061-0.036-0.14-0.077-0.232-0.123c-0.089-0.045-0.2-0.086-0.329-0.127c-0.127-0.037-0.278-0.056-0.451-0.056
			c-0.168,0-0.319,0.024-0.445,0.07c-0.129,0.048-0.24,0.112-0.327,0.194c-0.085,0.081-0.153,0.174-0.199,0.28
			c-0.046,0.104-0.068,0.213-0.068,0.327c0,0.153,0.05,0.28,0.151,0.381c0.1,0.102,0.228,0.191,0.379,0.271
			c0.153,0.081,0.316,0.159,0.492,0.236c0.18,0.08,0.341,0.174,0.494,0.288c0.148,0.11,0.275,0.247,0.375,0.404
			c0.102,0.157,0.151,0.356,0.151,0.597c0,0.265-0.052,0.514-0.157,0.744c-0.104,0.231-0.254,0.428-0.45,0.594
			c-0.195,0.165-0.435,0.294-0.711,0.388c-0.278,0.092-0.587,0.139-0.93,0.139c-0.179,0-0.347-0.013-0.506-0.039
			c-0.158-0.026-0.3-0.06-0.429-0.104c-0.128-0.042-0.236-0.087-0.328-0.139s-0.162-0.102-0.211-0.145
			c-0.03-0.032-0.053-0.063-0.066-0.097c-0.014-0.032-0.021-0.07-0.021-0.115c0-0.03,0.003-0.065,0.006-0.108
			c0.005-0.042,0.013-0.087,0.024-0.133c0.012-0.045,0.024-0.088,0.038-0.13c0.012-0.042,0.028-0.081,0.047-0.115
			c0.02-0.034,0.039-0.06,0.058-0.081s0.043-0.032,0.069-0.032c0.047,0,0.101,0.025,0.166,0.076
			c0.064,0.051,0.148,0.107,0.254,0.165c0.103,0.06,0.235,0.114,0.391,0.168c0.156,0.051,0.352,0.076,0.582,0.076
			c0.209,0,0.39-0.025,0.538-0.076c0.152-0.054,0.276-0.122,0.373-0.207c0.101-0.085,0.172-0.184,0.221-0.299
			c0.047-0.113,0.071-0.235,0.071-0.359c0-0.159-0.05-0.291-0.148-0.392c-0.099-0.102-0.223-0.192-0.373-0.275
			c-0.152-0.079-0.315-0.161-0.489-0.24c-0.174-0.08-0.338-0.175-0.488-0.284c-0.15-0.107-0.275-0.239-0.375-0.398
			c-0.102-0.157-0.153-0.358-0.153-0.602c0-0.252,0.05-0.484,0.15-0.699c0.098-0.215,0.238-0.402,0.419-0.559
			c0.179-0.159,0.397-0.282,0.648-0.371c0.255-0.087,0.534-0.13,0.843-0.13c0.145,0,0.283,0.012,0.418,0.034
			c0.135,0.021,0.26,0.052,0.373,0.087c0.115,0.033,0.215,0.071,0.298,0.112c0.083,0.043,0.147,0.085,0.188,0.124
			C88.737,51.779,88.758,51.837,88.758,51.916z"/>
		<path fill="#1F3C92" d="M90.357,56.774c-0.008,0.031-0.02,0.057-0.039,0.077s-0.051,0.038-0.088,0.054
			c-0.035,0.016-0.086,0.027-0.15,0.036c-0.063,0.006-0.141,0.008-0.23,0.008c-0.096,0-0.174-0.002-0.232-0.008
			c-0.057-0.009-0.104-0.021-0.135-0.036s-0.053-0.033-0.063-0.054s-0.01-0.046-0.004-0.077l1.021-5.137
			c0.006-0.025,0.016-0.053,0.035-0.072c0.02-0.023,0.047-0.044,0.086-0.06c0.039-0.015,0.088-0.026,0.15-0.034
			c0.063-0.005,0.141-0.012,0.236-0.012c0.092,0,0.166,0.007,0.227,0.012c0.059,0.008,0.104,0.02,0.137,0.034
			c0.033,0.016,0.053,0.036,0.063,0.06c0.01,0.02,0.014,0.047,0.01,0.072L90.357,56.774z M91.836,49.909
			c-0.018,0.105-0.045,0.197-0.078,0.268c-0.031,0.071-0.074,0.131-0.127,0.175c-0.053,0.043-0.121,0.074-0.201,0.094
			c-0.08,0.019-0.176,0.027-0.291,0.027c-0.109,0-0.203-0.009-0.273-0.027c-0.07-0.02-0.125-0.051-0.158-0.094
			c-0.035-0.044-0.053-0.104-0.057-0.175c-0.006-0.07,0.004-0.162,0.021-0.268c0.023-0.107,0.053-0.194,0.086-0.266
			c0.035-0.07,0.078-0.129,0.129-0.177c0.049-0.047,0.117-0.082,0.195-0.099c0.082-0.016,0.178-0.023,0.291-0.023
			c0.111,0,0.201,0.008,0.273,0.023c0.068,0.017,0.121,0.052,0.156,0.099c0.037,0.048,0.059,0.106,0.063,0.177
			C91.867,49.715,91.859,49.802,91.836,49.909z"/>
		<path fill="#1F3C92" d="M97.117,52.772c0,0.135-0.01,0.266-0.023,0.396c-0.016,0.129-0.039,0.262-0.063,0.397l-0.646,3.209
			c-0.008,0.031-0.02,0.057-0.037,0.077c-0.016,0.021-0.045,0.038-0.086,0.054c-0.039,0.016-0.09,0.027-0.152,0.036
			c-0.057,0.006-0.137,0.008-0.234,0.008c-0.092,0-0.164-0.002-0.223-0.008c-0.061-0.009-0.105-0.021-0.137-0.036
			c-0.035-0.016-0.055-0.033-0.064-0.054s-0.012-0.046-0.008-0.077l0.635-3.173c0.023-0.118,0.043-0.231,0.053-0.343
			c0.01-0.11,0.014-0.205,0.014-0.291c0-0.232-0.049-0.42-0.148-0.563c-0.098-0.141-0.264-0.214-0.496-0.214
			c-0.201,0-0.408,0.059-0.617,0.173c-0.213,0.118-0.41,0.278-0.592,0.48c-0.18,0.203-0.342,0.445-0.482,0.726
			c-0.145,0.279-0.248,0.582-0.311,0.911l-0.459,2.293c-0.008,0.031-0.02,0.057-0.037,0.077c-0.021,0.021-0.051,0.038-0.088,0.054
			c-0.039,0.016-0.086,0.027-0.148,0.036c-0.064,0.006-0.141,0.008-0.232,0.008c-0.096,0-0.172-0.002-0.234-0.008
			c-0.057-0.009-0.102-0.021-0.135-0.036s-0.053-0.033-0.063-0.054c-0.012-0.021-0.012-0.046-0.004-0.077l1.033-5.142
			c0.004-0.026,0.016-0.054,0.033-0.075c0.016-0.022,0.043-0.042,0.08-0.056c0.035-0.017,0.082-0.027,0.137-0.033
			c0.053-0.005,0.119-0.009,0.197-0.009c0.08,0,0.145,0.004,0.195,0.009c0.051,0.006,0.092,0.017,0.121,0.033
			c0.027,0.014,0.047,0.033,0.053,0.056c0.008,0.021,0.012,0.049,0.006,0.075l-0.193,0.98c0.057-0.127,0.148-0.265,0.279-0.411
			c0.129-0.144,0.285-0.276,0.461-0.399c0.18-0.122,0.379-0.224,0.592-0.301c0.217-0.082,0.438-0.121,0.672-0.121
			c0.254,0,0.469,0.039,0.637,0.115c0.172,0.081,0.313,0.182,0.418,0.311c0.107,0.127,0.184,0.271,0.229,0.442
			C97.094,52.417,97.117,52.591,97.117,52.772z"/>
		<path fill="#1F3C92" d="M103.018,52.688c0,0.261-0.061,0.497-0.186,0.706c-0.119,0.209-0.313,0.389-0.568,0.537
			c-0.26,0.149-0.59,0.262-0.994,0.342c-0.404,0.081-0.887,0.121-1.449,0.121h-0.605c-0.025,0.124-0.045,0.246-0.053,0.364
			c-0.012,0.118-0.016,0.229-0.016,0.331c0,0.379,0.094,0.672,0.279,0.875c0.191,0.2,0.498,0.301,0.92,0.301
			c0.242,0,0.463-0.017,0.656-0.055c0.195-0.036,0.361-0.074,0.506-0.115c0.141-0.042,0.26-0.082,0.35-0.117
			c0.09-0.036,0.154-0.055,0.188-0.055s0.063,0.011,0.078,0.037c0.018,0.024,0.025,0.06,0.025,0.104
			c0,0.038-0.002,0.084-0.012,0.138c-0.008,0.054-0.02,0.109-0.033,0.163c-0.018,0.053-0.037,0.107-0.061,0.158
			c-0.023,0.049-0.053,0.091-0.082,0.124c-0.047,0.045-0.127,0.091-0.242,0.135c-0.117,0.045-0.254,0.083-0.414,0.119
			s-0.336,0.065-0.525,0.09c-0.191,0.021-0.379,0.032-0.57,0.032c-0.338,0-0.635-0.035-0.893-0.112
			c-0.254-0.078-0.465-0.195-0.635-0.352c-0.168-0.157-0.295-0.354-0.379-0.59c-0.086-0.236-0.129-0.516-0.129-0.835
			c0-0.247,0.027-0.512,0.074-0.795c0.049-0.284,0.125-0.564,0.223-0.843c0.105-0.277,0.238-0.542,0.402-0.8
			c0.162-0.254,0.357-0.478,0.584-0.671c0.227-0.196,0.49-0.353,0.785-0.47c0.295-0.118,0.633-0.177,1.004-0.177
			c0.318,0,0.592,0.039,0.814,0.121c0.223,0.077,0.404,0.183,0.545,0.308c0.145,0.125,0.25,0.264,0.314,0.417
			C102.984,52.382,103.018,52.536,103.018,52.688z M102.051,52.772c0-0.192-0.076-0.35-0.227-0.469
			c-0.152-0.122-0.369-0.181-0.65-0.181c-0.248,0-0.469,0.043-0.658,0.127c-0.189,0.087-0.359,0.201-0.504,0.347
			c-0.146,0.145-0.271,0.314-0.377,0.505c-0.105,0.193-0.189,0.394-0.254,0.608h0.582c0.398,0,0.732-0.024,1.002-0.075
			c0.268-0.048,0.484-0.116,0.643-0.2c0.164-0.085,0.277-0.188,0.344-0.301C102.02,53.019,102.051,52.898,102.051,52.772z"/>
		<path fill="#1F3C92" d="M107.582,51.916c0,0.04-0.006,0.091-0.018,0.151c-0.012,0.063-0.029,0.125-0.051,0.187
			c-0.018,0.063-0.043,0.112-0.07,0.153c-0.031,0.042-0.061,0.063-0.098,0.063c-0.043,0-0.098-0.017-0.158-0.053
			c-0.064-0.036-0.143-0.077-0.234-0.123c-0.09-0.045-0.199-0.086-0.326-0.127c-0.129-0.037-0.279-0.056-0.453-0.056
			c-0.17,0-0.316,0.024-0.445,0.07c-0.131,0.048-0.238,0.112-0.324,0.194c-0.09,0.081-0.154,0.174-0.201,0.28
			c-0.047,0.104-0.072,0.213-0.072,0.327c0,0.153,0.055,0.28,0.154,0.381c0.102,0.102,0.227,0.191,0.379,0.271
			c0.152,0.081,0.318,0.159,0.494,0.236c0.178,0.08,0.34,0.174,0.49,0.288c0.152,0.11,0.277,0.247,0.377,0.404
			c0.102,0.157,0.152,0.356,0.152,0.597c0,0.265-0.053,0.514-0.156,0.744c-0.105,0.231-0.256,0.428-0.453,0.594
			c-0.195,0.165-0.434,0.294-0.709,0.388c-0.279,0.092-0.59,0.139-0.932,0.139c-0.178,0-0.348-0.013-0.506-0.039
			s-0.299-0.06-0.426-0.104c-0.129-0.042-0.238-0.087-0.328-0.139c-0.094-0.052-0.162-0.102-0.211-0.145
			c-0.031-0.032-0.053-0.063-0.068-0.097c-0.012-0.032-0.018-0.07-0.018-0.115c0-0.03,0.002-0.065,0.006-0.108
			c0.004-0.042,0.008-0.087,0.021-0.133c0.012-0.045,0.023-0.088,0.037-0.13s0.029-0.081,0.049-0.115s0.037-0.06,0.057-0.081
			s0.043-0.032,0.068-0.032c0.047,0,0.102,0.025,0.164,0.076c0.066,0.051,0.15,0.107,0.254,0.165
			c0.105,0.06,0.236,0.114,0.393,0.168c0.156,0.051,0.352,0.076,0.582,0.076c0.209,0,0.391-0.025,0.539-0.076
			c0.15-0.054,0.275-0.122,0.373-0.207c0.102-0.085,0.172-0.184,0.221-0.299c0.049-0.113,0.072-0.235,0.072-0.359
			c0-0.159-0.049-0.291-0.148-0.392c-0.1-0.102-0.225-0.192-0.375-0.275c-0.15-0.079-0.313-0.161-0.486-0.24
			c-0.176-0.08-0.338-0.175-0.488-0.284c-0.15-0.107-0.275-0.239-0.379-0.398c-0.098-0.157-0.15-0.358-0.15-0.602
			c0-0.252,0.049-0.484,0.15-0.699c0.098-0.215,0.238-0.402,0.42-0.559c0.18-0.159,0.398-0.282,0.65-0.371
			c0.25-0.087,0.533-0.13,0.84-0.13c0.146,0,0.285,0.012,0.422,0.034c0.133,0.021,0.256,0.052,0.371,0.087
			c0.115,0.033,0.213,0.071,0.297,0.112c0.082,0.043,0.146,0.085,0.189,0.124C107.563,51.779,107.582,51.837,107.582,51.916z"/>
		<path fill="#1F3C92" d="M112.131,51.916c0,0.04-0.006,0.091-0.018,0.151c-0.012,0.063-0.029,0.125-0.049,0.187
			c-0.021,0.063-0.047,0.112-0.074,0.153c-0.029,0.042-0.061,0.063-0.094,0.063c-0.045,0-0.1-0.017-0.162-0.053
			c-0.064-0.036-0.139-0.077-0.232-0.123c-0.09-0.045-0.199-0.086-0.328-0.127c-0.127-0.037-0.279-0.056-0.453-0.056
			c-0.168,0-0.314,0.024-0.447,0.07c-0.127,0.048-0.236,0.112-0.322,0.194c-0.088,0.081-0.154,0.174-0.199,0.28
			c-0.047,0.104-0.07,0.213-0.07,0.327c0,0.153,0.053,0.28,0.15,0.381c0.102,0.102,0.229,0.191,0.381,0.271
			c0.152,0.081,0.316,0.159,0.494,0.236c0.174,0.08,0.34,0.174,0.49,0.288c0.15,0.11,0.275,0.247,0.379,0.404
			c0.098,0.157,0.15,0.356,0.15,0.597c0,0.265-0.053,0.514-0.158,0.744c-0.105,0.231-0.258,0.428-0.449,0.594
			c-0.199,0.165-0.434,0.294-0.713,0.388c-0.275,0.092-0.586,0.139-0.93,0.139c-0.18,0-0.348-0.013-0.506-0.039
			s-0.299-0.06-0.428-0.104c-0.127-0.042-0.236-0.087-0.328-0.139s-0.162-0.102-0.211-0.145c-0.029-0.032-0.053-0.063-0.066-0.097
			c-0.014-0.032-0.018-0.07-0.018-0.115c0-0.03,0.002-0.065,0.004-0.108c0.006-0.042,0.012-0.087,0.023-0.133
			c0.01-0.045,0.023-0.088,0.037-0.13s0.031-0.081,0.047-0.115c0.02-0.034,0.039-0.06,0.061-0.081
			c0.016-0.021,0.039-0.032,0.066-0.032c0.045,0,0.1,0.025,0.166,0.076c0.064,0.051,0.148,0.107,0.254,0.165
			c0.104,0.06,0.234,0.114,0.393,0.168c0.156,0.051,0.348,0.076,0.58,0.076c0.209,0,0.389-0.025,0.541-0.076
			c0.146-0.054,0.273-0.122,0.371-0.207c0.1-0.085,0.174-0.184,0.223-0.299c0.045-0.113,0.068-0.235,0.068-0.359
			c0-0.159-0.049-0.291-0.148-0.392c-0.098-0.102-0.223-0.192-0.371-0.275c-0.152-0.079-0.314-0.161-0.488-0.24
			c-0.176-0.08-0.34-0.175-0.488-0.284c-0.152-0.107-0.275-0.239-0.377-0.398c-0.102-0.157-0.154-0.358-0.154-0.602
			c0-0.252,0.053-0.484,0.15-0.699c0.1-0.215,0.238-0.402,0.42-0.559c0.18-0.159,0.396-0.282,0.648-0.371
			c0.254-0.087,0.533-0.13,0.844-0.13c0.145,0,0.285,0.012,0.418,0.034c0.137,0.021,0.262,0.052,0.377,0.087
			c0.113,0.033,0.211,0.071,0.295,0.112c0.082,0.043,0.148,0.085,0.188,0.124C112.111,51.779,112.131,51.837,112.131,51.916z"/>
		<path fill="#1F3C92" d="M122.463,52.01c0,0.294-0.025,0.618-0.078,0.979c-0.053,0.363-0.143,0.729-0.266,1.104
			c-0.129,0.374-0.295,0.733-0.5,1.087c-0.209,0.351-0.465,0.664-0.77,0.937c-0.305,0.271-0.664,0.49-1.084,0.658
			c-0.418,0.168-0.898,0.25-1.439,0.25c-0.432,0-0.814-0.053-1.139-0.161c-0.328-0.108-0.604-0.271-0.82-0.486
			s-0.383-0.48-0.494-0.794c-0.109-0.318-0.164-0.683-0.164-1.098c0-0.326,0.025-0.679,0.086-1.056
			c0.055-0.375,0.15-0.751,0.281-1.126c0.133-0.375,0.303-0.736,0.514-1.082c0.211-0.347,0.471-0.655,0.775-0.923
			c0.307-0.267,0.666-0.481,1.078-0.639c0.41-0.158,0.881-0.236,1.414-0.236c0.43,0,0.811,0.056,1.135,0.168
			c0.322,0.111,0.596,0.278,0.814,0.497s0.383,0.488,0.494,0.812C122.412,51.222,122.463,51.591,122.463,52.01z M121.414,52.075
			c0-0.265-0.029-0.509-0.09-0.733c-0.063-0.222-0.158-0.411-0.293-0.571c-0.133-0.159-0.309-0.285-0.529-0.374
			s-0.488-0.134-0.797-0.134c-0.398,0-0.744,0.071-1.045,0.219c-0.297,0.146-0.557,0.34-0.775,0.575
			c-0.217,0.236-0.396,0.502-0.541,0.802c-0.145,0.296-0.26,0.599-0.344,0.903c-0.084,0.304-0.145,0.6-0.182,0.885
			s-0.055,0.533-0.055,0.741c0,0.271,0.029,0.516,0.09,0.734c0.057,0.218,0.156,0.406,0.293,0.563s0.314,0.276,0.533,0.361
			c0.219,0.086,0.486,0.128,0.803,0.128c0.391,0,0.734-0.07,1.033-0.213c0.297-0.142,0.553-0.331,0.77-0.563
			c0.217-0.229,0.396-0.495,0.543-0.79c0.145-0.296,0.26-0.595,0.348-0.896c0.086-0.301,0.15-0.595,0.186-0.882
			C121.398,52.544,121.414,52.294,121.414,52.075z"/>
		<path fill="#1F3C92" d="M127.34,56.774c-0.004,0.031-0.016,0.057-0.035,0.08c-0.02,0.022-0.045,0.039-0.08,0.055
			c-0.035,0.013-0.078,0.023-0.133,0.032c-0.057,0.006-0.123,0.008-0.203,0.008c-0.078,0-0.139-0.002-0.191-0.008
			c-0.053-0.009-0.09-0.02-0.121-0.032c-0.027-0.016-0.047-0.032-0.055-0.055c-0.01-0.023-0.01-0.049-0.004-0.08l0.189-0.965
			c-0.063,0.129-0.158,0.265-0.289,0.407c-0.131,0.145-0.285,0.275-0.463,0.398c-0.178,0.121-0.369,0.219-0.582,0.297
			c-0.211,0.077-0.426,0.112-0.643,0.112c-0.258,0-0.477-0.034-0.652-0.104c-0.178-0.071-0.32-0.167-0.428-0.291
			c-0.109-0.124-0.188-0.268-0.236-0.441c-0.047-0.167-0.068-0.354-0.068-0.557c0-0.123,0.008-0.252,0.023-0.381
			c0.018-0.135,0.039-0.266,0.066-0.399l0.635-3.218c0.008-0.026,0.02-0.054,0.039-0.075c0.02-0.022,0.049-0.042,0.088-0.056
			c0.041-0.017,0.094-0.027,0.154-0.033c0.063-0.005,0.139-0.009,0.23-0.009s0.166,0.004,0.227,0.009
			c0.059,0.006,0.105,0.017,0.137,0.033c0.033,0.014,0.055,0.033,0.063,0.056c0.012,0.021,0.014,0.049,0.01,0.075l-0.629,3.184
			c-0.021,0.1-0.039,0.2-0.051,0.309c-0.012,0.106-0.018,0.215-0.018,0.325c0,0.114,0.01,0.219,0.031,0.311
			c0.021,0.094,0.057,0.174,0.109,0.243c0.051,0.068,0.117,0.12,0.199,0.16c0.08,0.038,0.184,0.056,0.299,0.056
			c0.203,0,0.41-0.059,0.621-0.174s0.408-0.276,0.588-0.481c0.184-0.207,0.348-0.449,0.49-0.734
			c0.143-0.282,0.248-0.593,0.314-0.927l0.453-2.271c0.002-0.026,0.014-0.054,0.037-0.075c0.02-0.022,0.051-0.042,0.092-0.056
			c0.037-0.017,0.09-0.027,0.154-0.033c0.063-0.005,0.139-0.009,0.229-0.009c0.094,0,0.166,0.004,0.227,0.009
			c0.059,0.006,0.105,0.017,0.137,0.033c0.033,0.014,0.053,0.033,0.063,0.056c0.01,0.021,0.014,0.049,0.01,0.075L127.34,56.774z"/>
		<path fill="#1F3C92" d="M132.762,51.694c0,0.035-0.002,0.074-0.004,0.112c-0.006,0.04-0.012,0.08-0.027,0.123
			c-0.008,0.042-0.027,0.083-0.043,0.123c-0.02,0.046-0.041,0.082-0.063,0.113c-0.02,0.032-0.041,0.059-0.068,0.077
			c-0.027,0.02-0.059,0.029-0.09,0.029h-1.316l-0.574,2.863c-0.016,0.08-0.029,0.168-0.043,0.269
			c-0.012,0.1-0.016,0.181-0.016,0.246c0,0.194,0.041,0.335,0.123,0.424c0.082,0.09,0.217,0.136,0.396,0.136
			c0.104,0,0.191-0.008,0.27-0.026c0.074-0.019,0.141-0.035,0.197-0.057c0.053-0.018,0.102-0.036,0.145-0.053
			c0.041-0.016,0.078-0.024,0.107-0.024c0.031,0,0.055,0.011,0.072,0.031c0.018,0.02,0.027,0.062,0.027,0.116
			c0,0.05-0.008,0.104-0.016,0.164c-0.012,0.057-0.023,0.116-0.037,0.175c-0.016,0.055-0.035,0.105-0.059,0.153
			c-0.023,0.045-0.047,0.081-0.074,0.105c-0.031,0.032-0.076,0.057-0.135,0.082c-0.061,0.025-0.133,0.052-0.213,0.071
			c-0.08,0.021-0.164,0.037-0.254,0.047c-0.088,0.014-0.176,0.018-0.266,0.018c-0.213,0-0.396-0.021-0.553-0.067
			c-0.156-0.045-0.289-0.117-0.395-0.214c-0.107-0.096-0.186-0.218-0.234-0.365c-0.053-0.146-0.082-0.322-0.082-0.529
			c0-0.044,0.004-0.093,0.008-0.151c0.004-0.055,0.012-0.111,0.021-0.172c0.006-0.061,0.02-0.123,0.029-0.183
			c0.01-0.062,0.02-0.117,0.031-0.171l0.574-2.888h-0.711c-0.041,0-0.076-0.012-0.098-0.039c-0.023-0.024-0.035-0.071-0.035-0.145
			c0-0.054,0.008-0.115,0.018-0.185c0.012-0.072,0.027-0.136,0.053-0.196c0.021-0.063,0.051-0.114,0.088-0.154
			c0.033-0.044,0.078-0.063,0.127-0.063h0.719l0.246-1.222c0.002-0.026,0.016-0.053,0.037-0.074
			c0.021-0.024,0.051-0.044,0.088-0.062c0.039-0.015,0.088-0.026,0.152-0.038c0.061-0.005,0.139-0.01,0.229-0.01
			c0.094,0,0.168,0.005,0.227,0.01c0.059,0.012,0.105,0.023,0.139,0.038c0.031,0.018,0.051,0.037,0.063,0.062
			c0.008,0.021,0.012,0.048,0.008,0.074l-0.244,1.222h1.311c0.059,0,0.096,0.02,0.113,0.063
			C132.752,51.594,132.762,51.643,132.762,51.694z"/>
		<path fill="#1F3C92" d="M137.371,52.089c0,0.068-0.006,0.138-0.018,0.211c-0.014,0.072-0.037,0.141-0.061,0.202
			c-0.025,0.063-0.059,0.116-0.096,0.157c-0.035,0.041-0.076,0.063-0.121,0.063c-0.055,0-0.107-0.027-0.166-0.082
			c-0.057-0.056-0.133-0.117-0.225-0.186c-0.096-0.068-0.211-0.13-0.355-0.188c-0.143-0.057-0.324-0.084-0.545-0.084
			c-0.244,0-0.459,0.048-0.646,0.149c-0.189,0.101-0.354,0.234-0.494,0.396c-0.139,0.161-0.252,0.344-0.344,0.549
			c-0.09,0.206-0.166,0.414-0.221,0.624c-0.057,0.206-0.098,0.41-0.121,0.606c-0.027,0.196-0.039,0.367-0.039,0.511
			c0,0.394,0.084,0.689,0.256,0.89c0.172,0.201,0.426,0.304,0.766,0.304c0.248,0,0.459-0.031,0.637-0.09
			c0.176-0.063,0.326-0.133,0.449-0.21c0.121-0.078,0.225-0.148,0.307-0.21c0.078-0.06,0.15-0.091,0.211-0.091
			c0.029,0,0.053,0.015,0.068,0.043c0.02,0.029,0.027,0.069,0.027,0.123c0,0.046-0.004,0.1-0.012,0.162s-0.018,0.128-0.035,0.194
			c-0.018,0.068-0.037,0.129-0.063,0.186c-0.025,0.058-0.059,0.109-0.107,0.157c-0.045,0.05-0.125,0.105-0.24,0.174
			c-0.113,0.068-0.244,0.13-0.395,0.186s-0.314,0.102-0.488,0.138c-0.176,0.035-0.355,0.053-0.543,0.053
			c-0.611,0-1.072-0.155-1.371-0.468c-0.305-0.313-0.455-0.775-0.455-1.391c0-0.232,0.02-0.486,0.061-0.763
			c0.039-0.276,0.107-0.554,0.201-0.833c0.096-0.28,0.217-0.552,0.365-0.813c0.148-0.265,0.332-0.496,0.551-0.699
			c0.215-0.203,0.467-0.366,0.752-0.487c0.285-0.123,0.611-0.186,0.98-0.186c0.15,0,0.299,0.013,0.441,0.038
			c0.141,0.024,0.273,0.059,0.395,0.099c0.125,0.043,0.236,0.096,0.338,0.158c0.102,0.063,0.178,0.119,0.234,0.169
			c0.055,0.049,0.09,0.091,0.104,0.124C137.365,52.01,137.371,52.048,137.371,52.089z"/>
		<path fill="#1F3C92" d="M142.84,53.338c0,0.283-0.025,0.569-0.08,0.861c-0.055,0.294-0.137,0.576-0.244,0.849
			c-0.107,0.271-0.244,0.529-0.414,0.769c-0.168,0.24-0.361,0.448-0.588,0.627c-0.229,0.178-0.484,0.321-0.771,0.426
			c-0.287,0.104-0.607,0.155-0.965,0.155c-0.361,0-0.674-0.042-0.936-0.131c-0.264-0.088-0.475-0.214-0.645-0.382
			c-0.166-0.167-0.289-0.372-0.367-0.616c-0.08-0.243-0.123-0.52-0.123-0.828c0-0.281,0.027-0.567,0.078-0.861
			c0.051-0.292,0.135-0.576,0.242-0.845c0.111-0.269,0.248-0.525,0.414-0.769c0.166-0.24,0.363-0.45,0.588-0.629
			c0.227-0.178,0.482-0.321,0.771-0.426c0.287-0.105,0.607-0.157,0.961-0.157c0.363,0,0.68,0.046,0.941,0.135
			c0.258,0.091,0.473,0.218,0.645,0.385c0.166,0.167,0.293,0.374,0.373,0.616C142.799,52.761,142.84,53.035,142.84,53.338z
			 M141.846,53.395c0-0.189-0.02-0.359-0.059-0.513c-0.043-0.151-0.107-0.28-0.203-0.386c-0.092-0.104-0.211-0.185-0.363-0.242
			c-0.15-0.058-0.334-0.087-0.543-0.087c-0.229,0-0.436,0.042-0.623,0.124c-0.189,0.081-0.354,0.192-0.5,0.331
			s-0.273,0.301-0.383,0.487c-0.107,0.188-0.197,0.386-0.268,0.596c-0.072,0.213-0.123,0.43-0.158,0.651
			c-0.031,0.224-0.049,0.441-0.049,0.654c0,0.19,0.02,0.362,0.061,0.513c0.043,0.151,0.111,0.282,0.203,0.389
			c0.094,0.106,0.215,0.188,0.363,0.245c0.146,0.057,0.328,0.085,0.539,0.085c0.232,0,0.441-0.039,0.627-0.121
			c0.184-0.081,0.35-0.195,0.496-0.334c0.146-0.14,0.275-0.304,0.383-0.491c0.109-0.186,0.199-0.387,0.27-0.599
			c0.068-0.214,0.121-0.432,0.156-0.652C141.83,53.827,141.846,53.609,141.846,53.395z"/>
		<path fill="#1F3C92" d="M151.154,56.774c-0.004,0.031-0.014,0.057-0.033,0.077c-0.021,0.021-0.049,0.038-0.09,0.054
			c-0.039,0.016-0.092,0.027-0.152,0.036c-0.063,0.006-0.141,0.008-0.232,0.008c-0.088,0-0.166-0.002-0.225-0.008
			c-0.061-0.009-0.105-0.021-0.139-0.036s-0.055-0.033-0.063-0.054c-0.016-0.021-0.016-0.046-0.008-0.077l0.635-3.173
			c0.018-0.111,0.035-0.215,0.045-0.315c0.016-0.098,0.023-0.197,0.023-0.297c0-0.242-0.049-0.437-0.143-0.582
			c-0.092-0.143-0.254-0.216-0.486-0.216c-0.189,0-0.387,0.059-0.592,0.173c-0.203,0.118-0.395,0.278-0.578,0.48
			c-0.182,0.203-0.344,0.445-0.486,0.726c-0.139,0.279-0.242,0.582-0.307,0.911l-0.457,2.293c-0.006,0.031-0.021,0.057-0.039,0.077
			c-0.021,0.021-0.051,0.038-0.09,0.054c-0.037,0.016-0.09,0.027-0.152,0.036c-0.064,0.006-0.141,0.008-0.234,0.008
			c-0.09,0-0.166-0.002-0.225-0.008c-0.057-0.009-0.102-0.021-0.133-0.036s-0.051-0.033-0.064-0.054
			c-0.01-0.021-0.012-0.046-0.01-0.077l0.633-3.173c0.027-0.115,0.047-0.228,0.055-0.338s0.012-0.21,0.012-0.307
			c0-0.233-0.043-0.419-0.139-0.557c-0.096-0.139-0.26-0.209-0.486-0.209c-0.193,0-0.393,0.059-0.594,0.173
			c-0.201,0.118-0.393,0.278-0.576,0.48c-0.184,0.203-0.344,0.445-0.484,0.726c-0.143,0.279-0.242,0.582-0.309,0.911l-0.457,2.293
			c-0.008,0.031-0.02,0.057-0.041,0.077c-0.018,0.021-0.047,0.038-0.086,0.054c-0.035,0.016-0.088,0.027-0.15,0.036
			c-0.063,0.006-0.139,0.008-0.23,0.008c-0.096,0-0.172-0.002-0.23-0.008c-0.061-0.009-0.105-0.021-0.139-0.036
			c-0.031-0.016-0.051-0.033-0.063-0.054c-0.008-0.021-0.01-0.046,0-0.077l1.029-5.142c0.004-0.026,0.016-0.054,0.033-0.075
			c0.018-0.022,0.043-0.042,0.08-0.056c0.035-0.017,0.082-0.027,0.139-0.033c0.055-0.005,0.119-0.009,0.195-0.009
			c0.078,0,0.146,0.004,0.195,0.009c0.051,0.006,0.092,0.017,0.121,0.033c0.027,0.014,0.047,0.033,0.053,0.056
			c0.01,0.021,0.01,0.049,0.008,0.075l-0.195,0.98c0.059-0.127,0.152-0.265,0.283-0.411c0.131-0.144,0.283-0.276,0.459-0.399
			c0.176-0.122,0.367-0.224,0.572-0.301c0.209-0.082,0.422-0.121,0.639-0.121c0.227,0,0.424,0.03,0.586,0.094
			c0.164,0.063,0.297,0.149,0.404,0.258c0.105,0.11,0.182,0.239,0.229,0.389c0.051,0.151,0.082,0.315,0.092,0.492
			c0.078-0.131,0.182-0.272,0.316-0.417c0.133-0.145,0.285-0.277,0.459-0.396c0.178-0.119,0.367-0.221,0.572-0.298
			c0.205-0.082,0.416-0.121,0.629-0.121c0.256,0,0.469,0.035,0.639,0.109c0.174,0.071,0.309,0.17,0.418,0.296
			c0.105,0.125,0.182,0.272,0.227,0.439c0.045,0.168,0.068,0.351,0.068,0.547c0,0.135-0.008,0.266-0.023,0.396
			c-0.014,0.129-0.035,0.262-0.063,0.397L151.154,56.774z"/>
		<path fill="#1F3C92" d="M157.787,52.688c0,0.261-0.063,0.497-0.184,0.706c-0.123,0.209-0.313,0.389-0.572,0.537
			c-0.258,0.149-0.588,0.262-0.99,0.342c-0.404,0.081-0.889,0.121-1.451,0.121h-0.604c-0.027,0.124-0.047,0.246-0.055,0.364
			c-0.012,0.118-0.014,0.229-0.014,0.331c0,0.379,0.092,0.672,0.281,0.875c0.188,0.2,0.496,0.301,0.914,0.301
			c0.244,0,0.465-0.017,0.66-0.055c0.193-0.036,0.359-0.074,0.502-0.115c0.145-0.042,0.262-0.082,0.354-0.117
			c0.092-0.036,0.152-0.055,0.188-0.055c0.033,0,0.057,0.011,0.076,0.037c0.018,0.024,0.027,0.06,0.027,0.104
			c0,0.038-0.006,0.084-0.014,0.138c-0.006,0.054-0.02,0.109-0.033,0.163c-0.016,0.053-0.035,0.107-0.059,0.158
			c-0.027,0.049-0.051,0.091-0.084,0.124c-0.047,0.045-0.129,0.091-0.242,0.135c-0.119,0.045-0.254,0.083-0.416,0.119
			c-0.158,0.036-0.334,0.065-0.523,0.09c-0.191,0.021-0.381,0.032-0.572,0.032c-0.338,0-0.633-0.035-0.889-0.112
			c-0.254-0.078-0.469-0.195-0.635-0.352c-0.17-0.157-0.297-0.354-0.381-0.59c-0.086-0.236-0.125-0.516-0.125-0.835
			c0-0.247,0.023-0.512,0.072-0.795c0.045-0.284,0.121-0.564,0.225-0.843c0.102-0.277,0.234-0.542,0.398-0.8
			c0.164-0.254,0.359-0.478,0.586-0.671c0.227-0.196,0.486-0.353,0.783-0.47c0.299-0.118,0.635-0.177,1.006-0.177
			c0.32,0,0.588,0.039,0.813,0.121c0.223,0.077,0.406,0.183,0.547,0.308c0.145,0.125,0.25,0.264,0.313,0.417
			C157.754,52.382,157.787,52.536,157.787,52.688z M156.82,52.772c0-0.192-0.074-0.35-0.227-0.469
			c-0.154-0.122-0.369-0.181-0.65-0.181c-0.248,0-0.465,0.043-0.66,0.127c-0.188,0.087-0.355,0.201-0.502,0.347
			c-0.146,0.145-0.271,0.314-0.377,0.505c-0.107,0.193-0.188,0.394-0.254,0.608h0.582c0.398,0,0.734-0.024,1.002-0.075
			c0.268-0.048,0.482-0.116,0.645-0.2c0.162-0.085,0.275-0.188,0.344-0.301C156.787,53.019,156.82,52.898,156.82,52.772z"/>
		<path fill="#1F3C92" d="M162.352,51.916c0,0.04-0.006,0.091-0.018,0.151c-0.012,0.063-0.027,0.125-0.047,0.187
			c-0.021,0.063-0.047,0.112-0.074,0.153c-0.027,0.042-0.061,0.063-0.094,0.063c-0.049,0-0.1-0.017-0.164-0.053
			c-0.063-0.036-0.141-0.077-0.23-0.123c-0.09-0.045-0.201-0.086-0.328-0.127c-0.127-0.037-0.281-0.056-0.453-0.056
			c-0.166,0-0.316,0.024-0.447,0.07c-0.131,0.048-0.236,0.112-0.324,0.194c-0.086,0.081-0.154,0.174-0.199,0.28
			c-0.047,0.104-0.068,0.213-0.068,0.327c0,0.153,0.051,0.28,0.15,0.381c0.1,0.102,0.229,0.191,0.379,0.271
			c0.152,0.081,0.316,0.159,0.494,0.236c0.176,0.08,0.342,0.174,0.49,0.288c0.15,0.11,0.275,0.247,0.377,0.404
			s0.152,0.356,0.152,0.597c0,0.265-0.053,0.514-0.158,0.744c-0.102,0.231-0.256,0.428-0.451,0.594
			c-0.195,0.165-0.434,0.294-0.709,0.388c-0.277,0.092-0.586,0.139-0.93,0.139c-0.18,0-0.348-0.013-0.506-0.039
			c-0.156-0.026-0.299-0.06-0.43-0.104c-0.127-0.042-0.236-0.087-0.328-0.139s-0.162-0.102-0.209-0.145
			c-0.031-0.032-0.055-0.063-0.066-0.097c-0.012-0.032-0.021-0.07-0.021-0.115c0-0.03,0.004-0.065,0.008-0.108
			c0.002-0.042,0.012-0.087,0.021-0.133c0.012-0.045,0.025-0.088,0.039-0.13c0.01-0.042,0.027-0.081,0.047-0.115
			s0.037-0.06,0.057-0.081s0.043-0.032,0.07-0.032c0.043,0,0.1,0.025,0.164,0.076s0.148,0.107,0.254,0.165
			c0.104,0.06,0.236,0.114,0.393,0.168c0.154,0.051,0.35,0.076,0.58,0.076c0.211,0,0.391-0.025,0.539-0.076
			c0.152-0.054,0.275-0.122,0.375-0.207c0.098-0.085,0.172-0.184,0.219-0.299c0.049-0.113,0.072-0.235,0.072-0.359
			c0-0.159-0.049-0.291-0.148-0.392c-0.098-0.102-0.223-0.192-0.373-0.275c-0.152-0.079-0.314-0.161-0.488-0.24
			c-0.174-0.08-0.34-0.175-0.488-0.284c-0.15-0.107-0.275-0.239-0.375-0.398c-0.104-0.157-0.154-0.358-0.154-0.602
			c0-0.252,0.051-0.484,0.15-0.699s0.238-0.402,0.418-0.559c0.182-0.159,0.398-0.282,0.652-0.371c0.252-0.087,0.531-0.13,0.84-0.13
			c0.146,0,0.285,0.012,0.422,0.034c0.135,0.021,0.256,0.052,0.373,0.087c0.113,0.033,0.215,0.071,0.297,0.112
			c0.084,0.043,0.145,0.085,0.188,0.124C162.33,51.779,162.352,51.837,162.352,51.916z"/>
	</g>
</g>
</svg>
