<svg xmlns="http://www.w3.org/2000/svg" viewBox="0 0 4535.43 2551.18"><defs><style>.a{fill:#fff;}</style></defs><title>our tf logo-with dates</title><path class="a" d="M836.4261,733.3595q161.5694,0,323.1388.0194c4.7872.0011,9.5991.0392,14.3537.5165,3.871.3886,5.5591,3.0533,4.662,6.8032a46.88,46.88,0,0,1-2.4749,7.2342c-4.2166,10.0064-8.5135,19.9791-12.7946,29.9582-.63,1.4674-1.3515,2.8948-1.9973,4.3556-2.6022,5.887-7.0889,8.8462-13.5489,8.7855-1.9174-.018-3.8353.0231-5.753.0227q-136.1584-.03-272.3168-.0695-173.0751-.1108-346.15-.2984c-5.4327-.0044-10.8741-.0681-16.2967.1974-15.699.7688-23.8587,7.3949-28.11,22.6138-2.1465,7.684-3.7933,15.544-6.4774,23.0336-5.0615,14.1232-10.7257,28.03-16.1007,42.0415a49.369,49.369,0,0,0-2.7339,8.1424c-1.0361,5.3739,1.3148,8.6168,6.8308,9.4249a66.8069,66.8069,0,0,0,9.5641.3614q37.875.0463,75.75.033a83.5456,83.5456,0,0,1,15.232,1.33c24.9687,4.6041,33.3517,22.0453,36.38,38.0769,2.7389,14.5,1.078,28.6383-3.0228,42.5826-1.8894,6.4248-4.1458,12.7579-6.5463,19.0135q-41.7023,108.6782-83.5054,217.3177-34.7076,90.3254-69.3935,180.6593-32.1864,83.5965-64.5358,167.13c-.9206,2.3826-1.9485,4.7241-2.9419,7.0782-3.76,8.9115-10.4469,13.4244-20.1538,13.3906-1.2785-.0044-2.557.008-3.8354.0067q-68.0787-.07-136.1574-.151c-3.82-.0053-7.6694.2794-11.3741-1.1351-3.9422-1.505-5.8432-4.2045-4.6492-8.1595a82.44,82.44,0,0,1,5.0231-12.3933c14.0764-28.6782,28.3051-57.2817,42.39-85.9557q50.4939-102.7931,100.8948-205.632,41.322-84.342,82.5321-168.7387c15.3295-31.2642,30.8533-62.4331,46.2533-93.6629a56.9168,56.9168,0,0,0,3.7581-8.7967c1.6752-5.6394-.23-10.1188-5.5338-12.8a54.1152,54.1152,0,0,0-16.4825-4.8185,204.77,204.77,0,0,0-27.69-2.0882,109.5322,109.5322,0,0,1-27.454-3.8c-10.3062-2.8315-19.6386-7.5226-27.3838-15.119-13.14-12.8876-17.5017-28.5669-14.8286-46.43a67.9886,67.9886,0,0,1,7.5193-22.64c16.5471-30.2708,31.9637-61.1737,50.4082-90.3871a326.3729,326.3729,0,0,1,20.4127-28.9853,118.2022,118.2022,0,0,1,23.2733-22.68,87.1712,87.1712,0,0,1,38.718-15.5388,131.53,131.53,0,0,1,27.72-1.03c25.8614,1.5831,51.7517,1.3693,77.6311,1.4128q118.898.2,237.7965.0484Z"/><path class="a" d="M895.6742,1236.0178q-29.727,0-59.454-.0006c-2.2375,0-4.4751-.0268-6.7125-.0107-10.0185.0722-17.8635,4.2523-23.4666,12.5507-2.6816,3.9716-5.282,7.9993-7.8609,12.0389-28.8884,45.25-57.3459,90.781-87.8277,134.9918-19.78,28.6889-40.2684,56.87-62.7641,83.506-30.2665,35.8376-65.7182,65.1547-108.4384,85.239-19.8741,9.3435-40.7374,14.6908-62.4978,17.208-26.4594,3.0607-52.9795,1.8859-79.4892,1.828a20.3431,20.3431,0,0,1-5.6646-.7592,5.678,5.678,0,0,1-3.7541-6.8379,32.7845,32.7845,0,0,1,1.8021-5.4471c4.796-11.1506,9.8633-22.19,14.4169-33.4375,3.0569-7.5505,8.3832-10.9016,16.2889-10.7461a219.7813,219.7813,0,0,0,32.493-1.994,109.1835,109.1835,0,0,1,17.2348-.4646c21.484.658,40.9881-5.4968,58.9543-16.9113a172.2939,172.2939,0,0,0,14.8285-10.5534c23.8832-18.9943,44.7081-41.0255,63.73-64.8067,30.5432-38.1842,54.4063-80.3654,74.3447-124.8576,43.3774-96.796,82.9923-195.17,122.8905-293.4241,10.6951-26.338,21.54-52.6153,32.3022-78.9259a91.1854,91.1854,0,0,1,9.1982-17.86,58.4435,58.4435,0,0,1,32.8956-23.4464,100.3948,100.3948,0,0,1,27.4368-3.8176q100.6892.0292,201.3784.0353c5.433,0,10.8675.0014,16.2987-.1165,8.0766-.1753,13.9489-4.1484,17.9182-10.977a92.9935,92.9935,0,0,0,4.0943-8.6546c10.4927-23.3,20.9128-46.6327,31.4737-69.9016,6.6012-14.5444,13.4039-28.9975,20.1273-43.4863.806-1.737,1.6126-3.48,2.5373-5.1547,5.0771-9.1966,12.6366-13.83,23.3982-13.7366,30.0448.2613,60.0925.2355,90.139.2514a46.8463,46.8463,0,0,1,16.0017,2.6069c9.9851,3.6018,13.7828,10.8451,11.2129,21.1984-1.3975,5.63-4.0886,10.7263-6.979,15.7183q-11.2876,19.4942-22.5525,39.0014-37.7545,65.0912-75.5694,130.1471a185.6655,185.6655,0,0,1-11.4859,17.6658c-16.0753,21.5309-37.7686,30.9549-64.367,28.1522a329.6939,329.6939,0,0,0-35.4011-1.5575c-48.5855.1121-97.1706.3873-145.756.5671a112.9812,112.9812,0,0,0-29.359,3.8552c-17.0852,4.6461-30.2482,14.7348-40.1512,29.291a96.4671,96.4671,0,0,0-10.2107,19.4924c-7.8374,20.2531-15.49,40.578-23.1861,60.8856a39.7383,39.7383,0,0,0-1.6929,5.4924c-1.4413,6.5381,1.2757,10.3948,8.1281,11.2587a75.96,75.96,0,0,0,9.57.3737q39.7955-.0486,79.5911-.1581c12.4661-.0162,24.9323.065,37.3984.0761a31.9953,31.9953,0,0,1,10.4206,1.2514c2.837.9635,4.2635,3.1314,3.3017,5.9284-1.4509,4.219-3.1656,8.3615-5.0019,12.4311-6.57,14.559-13.3287,29.033-19.8391,43.6182-5.0769,11.3737-9.8859,22.8669-14.8261,34.3019a71.9613,71.9613,0,0,1-3.1527,6.9735c-3.559,6.2926-8.9141,9.894-16.2623,10.1882-2.5537.1023-5.1129.0856-7.67.0864q-30.2067.0092-60.4136.0034Z"/><path class="a" d="M2582.7869,1116.4254c3.92-1.3211,5.3028-3.61,7.141-5.315,22.39-20.7693,48.8877-31.7872,79.2442-34.5792,18.9339-1.7413,37.6354-.4122,56.3654,1.7983,10.7775,1.2719,21.5843,2.4264,32.281,4.2141,17.8684,2.9863,31.0219,12.921,39.655,28.7266,6.2394,11.4235,8.8108,23.8944,9.5462,36.79.9344,16.3962-1.09,32.5608-4.46,48.5285-10.2149,48.4062-20.7058,96.7541-31.0078,145.1421-5.5166,25.9112-10.8552,51.86-16.303,77.7861a77.7126,77.7126,0,0,1-2.4912,10.2252c-1.9442,5.4351-5.6,9.1166-11.6024,10.26a41.1544,41.1544,0,0,1-9.5177.7105c-7.34-.31-14.68-.9233-22.0184-.8923-9.576.04-19.1493.5971-28.7248.9053-3.5031.1127-7.0082.4385-10.4575-.678-4.8011-1.5541-6.9661-4.0212-6.9869-9.0081a39.8636,39.8636,0,0,1,.9946-8.5184q15.2893-70.658,30.6789-141.2943c5.8153-26.8264,11.7674-53.6264,17.2007-80.5307,1.9456-9.6363,3.51-19.3987,1.2762-29.4462-2.3549-10.5906-8.2482-17.6818-18.0454-21.937-8.082-3.51-16.7052-4.3563-25.2742-4.8392a188.0183,188.0183,0,0,0-45.7717,3.0737c-22.5632,4.2828-38.965,16.6652-49.6418,36.9164-6.7537,12.81-11.2385,26.4557-14.8022,40.3868-10.2865,40.207-19.1358,80.744-27.3161,121.4287q-7.4552,37.0785-14.9741,74.1442a55.8476,55.8476,0,0,1-1.62,6.4878c-3.28,9.8955-8.6228,13.8153-19.19,13.983a95.96,95.96,0,0,1-10.5321-.4269,209.2456,209.2456,0,0,0-34.4573-.1531c-4.1408.2915-8.3053.4566-12.4527.3709a33.2211,33.2211,0,0,1-7.5294-1.1189,7.5152,7.5152,0,0,1-5.9092-7.773,44.9706,44.9706,0,0,1,1.3556-9.4378c5.4707-25.2669,11.0552-50.5092,16.5193-75.7775q16.6973-77.2117,33.3093-154.442,19.1658-88.924,38.3333-177.8475c4.9886-23.0852,10.512-46.06,13.7334-69.4977a30.3723,30.3723,0,0,1,2.3528-8.2588c2.5394-5.6234,6.8088-9.2579,13.2417-9.5388,4.1441-.181,8.3032-.1319,12.453-.05,15.33.3012,30.6641,1.1051,45.9622-.7452a19.4946,19.4946,0,0,1,4.7707.1015c8.5465,1.0971,11.435,4.5926,11.5129,13.3808.055,6.163-1.66,12.0179-2.93,17.9272q-15.5952,72.5489-31.3733,145.0584C2584.389,1106.9967,2583.71,1111.3831,2582.7869,1116.4254Z"/><path class="a" d="M1898.281,1276.4026q-51.7583,0-103.5164,0c-1.5975,0-3.1981-.0576-4.7918.0218-10.4548.5208-15.7585,4.9276-18.0264,15.1687-.8267,3.7336-1.47,7.5239-1.9226,11.321-1.3223,11.0937-2.83,22.1675-2.4466,33.4054a62.0966,62.0966,0,0,0,2.1245,14.1724c2.2993,8.49,7.3839,14.726,15.5756,18.293a70.1643,70.1643,0,0,0,21.291,5.2416c23.3362,2.3151,46.5675.6431,69.7369-2.1645a60.496,60.496,0,0,0,12.9347-3.3748c12.44-4.4579,20.961-13.0861,25.8477-25.3206,1.1826-2.9606,2.0383-6.0611,3.3517-8.958a17.4971,17.4971,0,0,1,12.8695-10.4292,41.0392,41.0392,0,0,1,10.4555-.9589c6.0612.2471,12.12.5656,18.1787.8621,10.236.5008,20.4289-.3726,30.6345-.9094,3.8166-.2006,7.6315-.3536,11.3742.9748,3.7829,1.3427,5.8747,3.8894,5.8443,7.8227a35.7008,35.7008,0,0,1-.94,9.4917c-5.14,17.8735-11.8058,35.1152-22.3906,50.585a101.4047,101.4047,0,0,1-47.1437,37.7617,151.191,151.191,0,0,1-38.9168,9.6973,674.6219,674.6219,0,0,1-107.1217,4.09,249.7012,249.7012,0,0,1-58.4-9.8707,80.3249,80.3249,0,0,1-28.1057-14.0476c-16.5669-13.1927-24.3944-30.72-25.21-51.621a448.7579,448.7579,0,0,1,16.1045-137.37,521.4012,521.4012,0,0,1,24.9587-70.3348c17.2951-39.6092,47.57-63.9912,88.8708-75.1944,13.5868-3.6856,27.5118-5.2541,41.5554-6.4742a585.7333,585.7333,0,0,1,74.68-1.3139,242.4778,242.4778,0,0,1,52.0407,7.3963,127.4318,127.4318,0,0,1,12.77,4.03c23.3,8.849,37.739,25.4985,43.249,49.7923a108.27,108.27,0,0,1,2.5221,18.9606c.9432,20.23-1.3464,40.1659-4.8137,60.0291-2.4688,14.1425-4.8327,28.3034-7.2421,42.4562-.1071.6294-.1834,1.2646-.3065,1.8907-2.2795,11.5952-6.2521,15.034-18.3258,15.0637-35.7834.0882-71.567.0316-107.3507.0316Zm-34.3168-56.2019q26.3278,0,52.6556.0009a171.6328,171.6328,0,0,0,17.1679-1.1139c7.6746-.7695,12.9932-5.6842,14.1961-14.2655a159.7814,159.7814,0,0,0,1.2431-30.5589c-.8741-16.7684-5.7014-22.4208-22.0383-26.665-29.33-7.62-58.8352-6.264-88.2458-.9452-12.4891,2.2586-23.5073,8.166-31.7574,18.2362-10.6915,13.05-15.1487,28.6034-17.2728,44.9324-.7043,5.4151,1.8092,8.4987,7.12,9.6075a47.4666,47.4666,0,0,0,9.4921.7418C1825.6708,1220.234,1844.8175,1220.2024,1863.9642,1220.2007Z"/><path class="a" d="M3301.8843,1276.4506q-52.2531,0-104.5064.0118a62.5492,62.5492,0,0,0-8.6074.3119c-5.8345.8166-10.102,3.8-11.8632,9.699a45.6652,45.6652,0,0,0-1.4673,5.536c-1.7728,10.7059-3.7051,21.394-5.1015,32.1507a66.552,66.552,0,0,0,.8469,22.8678c2.47,11.3695,9.3107,18.693,19.8871,22.7,6.9008,2.6142,14.2316,3.4482,21.5152,4.4744,22.42,3.1583,44.6265.6853,66.8034-2.3646a57.9619,57.9619,0,0,0,19.1063-5.9935,39.1535,39.1535,0,0,0,18.7724-20.9253c.9426-2.3708,1.6291-4.8419,2.4979-7.2437,3.4317-9.4866,10.4336-14.2813,20.2842-14.8845a96.7133,96.7133,0,0,1,13.408.2851,185.1035,185.1035,0,0,0,26.8007.08,143.2433,143.2433,0,0,1,19.1615-.07c9.9719.6774,13.3218,4.9009,11.2563,14.4545-5.5025,25.4494-15.8736,48.46-34.4289,67.3084-16.9033,17.1706-37.4186,27.41-60.7408,32.6113a155.2091,155.2091,0,0,1-23.7151,3.1786c-31.8845,2.0808-63.796,3.985-95.7717,2.47a258.032,258.032,0,0,1-60.3721-9.7835c-15.0607-4.4-28.1236-12.1056-38.1287-24.4438-9.576-11.8087-14.81-25.19-14.8-40.56.0178-25.57.6317-51.0638,3.9709-76.4961a455.6289,455.6289,0,0,1,19.4-85.7785,416.9348,416.9348,0,0,1,24.5187-57.1771c16.568-32.4284,42.9834-52.3592,77.5118-62.3757,14.496-4.2052,29.423-5.809,44.3243-7.49,23.8607-2.6919,47.8173-2.968,71.7937-2.2114a305.2475,305.2475,0,0,1,51.2838,6.2629,103.3828,103.3828,0,0,1,27.066,9.4366c15.8169,8.2021,26.6118,20.6854,31.8757,37.7441,5.1593,16.7208,5.7987,33.8627,4.6822,51.21-1.749,27.1756-7.034,53.7791-12.4794,80.3672a38.31,38.31,0,0,1-1.7621,6.4389c-1.9313,4.87-5.5391,7.7441-10.8536,8.105-3.1844.2162-6.3855.2533-9.579.2549q-51.2947.0252-102.59.01Zm-31.5356-56.1967v-.0349q30.1716,0,60.3435-.0023a56.7976,56.7976,0,0,0,5.7423-.0774c8.5846-.8771,12.4211-4.793,13.2825-13.4725.63-6.3455,1.3273-12.6878,1.7735-19.0471.3793-5.4082.7061-10.8445.5881-16.2582-.2255-10.3455-5.7072-17.3718-14.8935-21.513a50.7453,50.7453,0,0,0-10.9344-3.4187,206.6292,206.6292,0,0,0-71.4191-1.7383,108.47,108.47,0,0,0-22.2848,5.4023c-13.6765,5.1647-24.3077,13.8188-31.0254,27.003-4.5428,8.9156-7.04,18.4477-8.63,28.249a26.0883,26.0883,0,0,0-.1445,5.7308c.239,3.8846,2.2851,6.4725,5.9228,7.9116,3.3675,1.3323,6.8591,1.2785,10.3776,1.2752Q3239.6983,1220.2343,3270.3487,1220.2539Z"/><path class="a" d="M1591.795,926.7967q89.6539,0,179.3077.0179a74.0287,74.0287,0,0,1,10.52.4641c6.7.9681,9.5064,4.6866,8.6906,11.2875a35.2765,35.2765,0,0,1-1.827,7.4229c-5.8146,16.3427-8.88,33.282-11.1279,50.406a47.6908,47.6908,0,0,1-.6174,4.7485c-1.6941,7.1765-5.7835,12.0387-13.3866,13.1864a57.3338,57.3338,0,0,1-8.5618.7147q-54.6546-.0406-109.3092-.18c-3.5107-.0051-7.03.0666-10.5305.3141-5.6341.3984-9.5887,3.4836-11.82,8.4948a50.4882,50.4882,0,0,0-3.1893,10q-13.5179,63.6989-26.8861,127.43-10.791,51.0634-21.7,102.1018-14.9824,69.75-30.1393,139.4632c-1.3512,6.2394-2.6045,12.5139-4.3032,18.6615-4.1915,15.1685-9.559,19.3173-25.1946,19.5607-8.3042.1293-16.5968-.25-24.9-.7776-10.1959-.648-20.4392-.5595-30.6625-.7575-3.1951-.0619-6.3973.0935-9.5874-.0484-9.6351-.4285-13.3369-4.9071-11.8052-14.1824.3121-1.89.7242-3.7642,1.1354-5.6357q8.9385-40.6868,17.8806-81.3728,18.0318-82.8074,35.9385-165.6417c9.0266-42.1358,17.6871-84.35,26.5747-126.5156,1.25-5.9311,2.88-11.7818,4.3033-17.6771a37.772,37.772,0,0,0,1.15-5.61c.3114-3.6979-1.5213-6.3344-5.1091-6.9289a61.84,61.84,0,0,0-9.5408-.6493c-17.8971-.1554-35.7947-.3216-53.6923-.3123-19.8057.01-39.6114.202-59.4172.3239-3.8345.0236-7.6484.1289-11.3894-1.0883-5.4712-1.78-8.0625-5.1194-7.3665-10.6676a67.0873,67.0873,0,0,1,2.4306-10.23c4.6338-15.9566,9.0194-31.9588,10.6065-48.5834a30.4054,30.4054,0,0,1,1.2593-5.6016c2.239-7.62,6.4934-11.2464,14.3367-11.8672,4.1323-.3271,8.3029-.2278,12.4561-.2286q87.7362-.0181,175.4724-.0082Z"/><path class="a" d="M3601.4665,1444.16c-25.4821-.8452-49.1588-.6859-72.6916-3.3129-11.4867-1.2822-22.695-3.7974-33.0094-9.2925-22.4215-11.9455-35.6506-30.192-38.9015-55.6975-1.7883-14.03.6914-27.3247,4.894-40.5093,2.6684-8.3719,8.5338-12.4154,17.25-12.4206q29.7249-.0176,59.45.0028a22.3739,22.3739,0,0,1,3.8131.3c5.8315,1.0178,8.3683,3.446,9.2145,9.3448.7246,5.0545,1.2744,10.152,1.5415,15.2492a89.8681,89.8681,0,0,0,2.43,15.1185c2.2458,9.9392,8.8345,15.3723,18.6324,16.7269a173.2834,173.2834,0,0,0,21.0086,1.6209c8.2742.1276,16.5385.3219,24.8485-.8351,6.2623-.8718,12.7583-.0335,19.15-.0176,9.5942.0239,19.18-.0427,28.5366-2.654,18.8747-5.2678,32.2679-16.4009,37.9889-35.6362a66.0733,66.0733,0,0,0,2.7969-21.7631c-.55-12.897-6.6058-20.9332-18.9255-24.6261-8.6184-2.5833-17.5828-3.3183-26.4912-3.8791-16.58-1.0436-33.2065-1.37-49.7753-2.5362-20.38-1.4346-40.839-2.1311-61.06-5.3912-11.6984-1.8861-23.189-4.5427-33.9825-9.6357-15.7111-7.4135-24.4208-19.6037-26.7935-36.979-1.8466-13.5219-.65-26.8494.9983-40.1164a192.6907,192.6907,0,0,1,14.9916-54.3081c9.3-21.0385,23.1417-38.1356,43.7609-49.1837,10.8459-5.8114,22.5428-8.8587,34.5465-10.9476a502.7711,502.7711,0,0,1,107.8316-7.4182,490.129,490.129,0,0,1,69.4624,7.6553,77.04,77.04,0,0,1,28.4256,11.0064c16.08,10.5542,24.2033,25.9092,26.4153,44.63a125.25,125.25,0,0,1,.0377,24.8984,36.003,36.003,0,0,1-1.3727,6.527c-1.6347,5.9443-5.9338,8.9013-11.715,9.8912a41.4521,41.4521,0,0,1-6.6926.2916q-24.9311.161-49.8619.261a56.3545,56.3545,0,0,1-8.609-.3684c-7.3253-1.1124-11.3172-5.334-12.0395-12.7435a57.024,57.024,0,0,1-.03-9.5711c.4418-6.1564-2.3748-10.3392-7.4025-13.4535a26.6743,26.6743,0,0,0-9.7988-3.7425c-19.5832-3.1274-39.1809-5.3578-59.1227-3.1991-10.4994,1.1365-20.88,2.6941-31.2455,4.6133-11.3291,2.0974-20.0077,8.078-26.5963,17.31-7.4049,10.3752-12.3656,21.5911-11.7363,34.7133.55,11.4632,5.8329,18.2661,16.997,21.5108a32.9523,32.9523,0,0,0,6.555,1.2746c17.8314,1.4009,35.6616,2.8392,53.5085,4.0194,21.0378,1.3911,42.1063,2.3388,63.1336,3.8622a131.9465,131.9465,0,0,1,35.5394,7.37,79.7774,79.7774,0,0,1,14.6753,7.0091A52.224,52.224,0,0,1,3794.61,1266.81a69.51,69.51,0,0,1,4.1586,21.5517,195.3294,195.3294,0,0,1-13.4382,76.8738c-12.6253,32.2058-35.7345,53.94-68.1377,65.7815a166.58,166.58,0,0,1-38.2144,8.6011,631.8456,631.8456,0,0,1-67.8923,4.051C3607.2579,1443.7,3603.4322,1444.0548,3601.4665,1444.16Z"/><path class="a" d="M2283.19,1076.9447c10.5434,0,21.0978-.311,31.6276.0681a208.22,208.22,0,0,1,55.5342,9.398,94.96,94.96,0,0,1,19.2966,8.3662c14.924,8.6949,24.1539,21.5887,27.7443,38.4136a86.3929,86.3929,0,0,1,2.2472,18.9932c-.1047,9.5833.0234,19.1692.0649,28.7539a43.9259,43.9259,0,0,1-1.851,12.27c-1.8393,6.4628-6.12,10.3678-12.5082,11.919a59.9678,59.9678,0,0,1-14.1986,2.0074c-14.3775-.0081-28.755.0553-43.1325.0755-1.2765.0018-2.5572-.0615-3.829-.1711-6.9565-.5994-12.5485-3.3916-13.1474-12.3525-.2763-4.1327-.9227-8.2394-1.2908-12.3677-.255-2.8613-.1091-5.7691-.5067-8.605-1.9267-13.7345-8.53-21.1422-22.0282-24.4445-15.56-3.8066-31.3063-6.1785-47.4064-5.6224a136.7091,136.7091,0,0,0-35.7377,6.2288c-17.9108,5.53-30.4377,17.0628-37.4752,34.4046a130.62,130.62,0,0,0-5.5056,16.3109c-9.2756,35.8468-17.8061,71.87-23.618,108.4641-1.5984,10.0659-3.1776,20.1843-2.76,30.4868.6439,15.8955,7.6764,25.6623,22.6245,30.8344a43.4673,43.4673,0,0,0,6.4409,1.82c13.8584,2.4969,27.7642,4.0305,41.9019,2.7406,9.5345-.87,19.11-1.095,28.6174-2.5229,16.975-2.55,29.699-10.9476,37.7976-26.1859a93.7514,93.7514,0,0,0,6.8568-17.84c1.7033-5.81,3.5911-11.5814,5.725-17.2465,2.1858-5.8022,6.3761-9.4706,12.7164-10.2853a88.6651,88.6651,0,0,1,10.4385-1.1851c17.2526-.1466,34.5069-.1134,51.76-.1244a22.47,22.47,0,0,1,8.4861,1.18c3.619,1.4351,5.1218,3.4293,5.1321,7.1968a25.1915,25.1915,0,0,1-1.4612,7.4745c-1.7764,5.7914-3.3916,11.6372-4.8929,17.507a181.36,181.36,0,0,1-14.0106,37.6159c-17.2723,33.8836-44.5221,55.3128-81.1954,64.8627-13.3223,3.4693-26.9335,4.9944-40.6739,5.9134-22.9664,1.5361-45.9348,2.3163-68.9462,1.8749a258.414,258.414,0,0,1-58.7132-7.89,95.9665,95.9665,0,0,1-22.3718-8.3674q-25.5026-13.8274-32.0072-42.0747a68.4861,68.4861,0,0,1-1.854-12.2909c-.9634-22.69-.6476-45.3748,2.1161-67.9333a491.2909,491.2909,0,0,1,23.5773-101.46q8.0066-23.0912,17.7355-45.4974c14.2737-32.7991,38.21-55.3124,71.673-67.8036,15.9485-5.9533,32.4821-9.1437,49.3321-11.3061C2248.7221,1076.341,2265.9532,1077.0036,2283.19,1076.9447Z"/><path class="a" d="M4067.8835,1080.9707q25.41,0,50.82.0023c3.5143.0011,7.0235-.0583,10.43,1.1189,4.5375,1.568,6.09,3.8316,5.56,8.6772a13.7691,13.7691,0,0,1-1.0761,4.6361c-3.6421,7.2391-4.69,15.2289-6.861,22.8913-1.3926,4.9143-2.6181,9.8881-4.2743,14.7131-3.7606,10.9567-8.188,14.3194-19.601,14.8732-6.381.31-12.7807.2966-19.1723.3058-23.333.0337-46.666.08-69.9986-.0289a131.3129,131.3129,0,0,0-17.1716,1.4534,16.6673,16.6673,0,0,0-14.2923,11.2284,73.1847,73.1847,0,0,0-3.3026,10.9774q-9.5789,45.4468-18.9506,90.9372c-5.5737,27.2059-10.9175,54.4589-16.4779,81.6676a53.0527,53.0527,0,0,0-1.225,12.3591c.2622,8.221,3.6293,12.99,11.5555,15.7047a56.8159,56.8159,0,0,0,22.6636,2.729c17.9141-1.3034,30.3565-10.45,37.8341-26.72,2.8166-6.1289,4.695-12.547,6.8043-18.9075,1.9084-5.7543,3.773-11.5352,6.0022-17.1677a17.793,17.793,0,0,1,15.0593-11.788,82.4874,82.4874,0,0,1,9.5055-.9779c12.7826-.18,25.5685-.3009,38.3523-.2366,12.3808.0622,15.81,3.8119,13.0158,15.9815-5.7245,24.929-12.5279,49.5551-25.1276,72.1286-14.3026,25.624-35.4713,42.3313-64.0378,49.4806-21.8048,5.4571-43.9316,8.4035-66.4168,7.6124a260.4987,260.4987,0,0,1-54.9149-7.7582,67.8807,67.8807,0,0,1-15.1483-5.9067c-15.1288-8.0284-23.8261-20.5892-27.2137-37.3275-2.0854-10.3039-1.2414-20.4087.7642-30.4381q11.5484-57.7481,23.5489-115.4055c5.5142-26.567,11.3212-53.0732,16.9661-79.6132a38.9056,38.9056,0,0,0,.9843-6.6118c.3355-9.1979-3.7906-13.4859-13.2179-13.6357a57.7976,57.7976,0,0,0-9.5425.7017,24.285,24.285,0,0,1-9.4858-.7853c-4.9669-1.2041-7.5905-4.5016-7.6-9.6542a20.3381,20.3381,0,0,1,1.0672-6.5613c2.63-7.6167,3.6553-15.51,4.4948-23.4553a45.03,45.03,0,0,1,4.5257-15.5613c3.9044-7.7853,10.0976-12.2912,18.9744-12.3751,4.46-.0422,8.9279.3683,13.3869.6562,10.1224.6537,14.8317-2.3181,17.4687-12.3038,2.1142-8.0058,3.4462-16.2249,4.9652-24.3793,1.578-8.4717,2.9189-16.9873,4.4579-25.4666a57.4277,57.4277,0,0,1,2.0306-8.3727c2.0634-6.0165,6.4042-9.3946,12.7419-10.0554a56.2562,56.2562,0,0,1,5.7477-.134q28.2868-.0363,56.5737-.0515c1.2781-.0009,2.5623-.0457,3.8337.0548,8.0117.6327,11.5729,4.8267,10.0194,12.8638-3.0884,15.98-6.5765,31.8822-9.9335,47.8095-.5921,2.8108-1.5521,5.5558-1.9871,8.3857-1.01,6.57,1.8848,10.5386,8.4039,11.4648a62.2518,62.2518,0,0,0,8.6088.3833q24.9311.0485,49.8619.0158Z"/><path class="a" d="M3081.1513,927.1844c12.353,0,23.2141-.0023,34.0752.0057a16.1809,16.1809,0,0,1,1.9114.1323c9.1588,1.1,12.1872,4.817,10.896,14.2087-.9548,6.9427-2.2814,13.85-3.7927,20.6962-1.65,7.4717-3.6756,14.8612-5.5878,22.2736-2.14,8.296-4.1376,10.1439-12.5443,10.0757-10.2467-.0832-20.4111.9159-30.6018,1.6134a85.619,85.619,0,0,0-19.685,3.8586c-11.2771,3.5195-19.4024,10.6825-24.7083,21.22a110.8149,110.8149,0,0,0-7.0932,18.7885c-2.5155,8.5717-4.7381,17.2294-7.0794,25.8522-.2508.9236-.5085,1.8507-.6715,2.792-1.4666,8.4748,1.15,11.71,9.9885,12.2369,2.548.152,5.11.0981,7.6654.0994q23.4824.0121,46.9648.0068c2.2362,0,4.4785-.0839,6.7079.0444,9.3329.5371,12.24,3.46,11.0219,12.6378a205.1838,205.1838,0,0,1-7.82,36.4557c-3.0306,9.3407-9.1831,15.1663-19.0723,16.6052a85.1478,85.1478,0,0,1-10.453,1.0779c-10.8595.2237-21.7241.3669-32.5847.287a150.6148,150.6148,0,0,0-17.1758,1.311c-7.49.8014-12.2181,4.8369-14.6287,11.9137-2.5864,7.5937-3.7611,15.5025-5.3637,23.3085-7.3157,35.63-14.3536,71.3169-21.8032,106.9182-6.6657,31.8544-13.7144,63.6289-20.6459,95.4274-2.7859,12.7806-5.7079,25.5313-8.5722,38.2947-.28,1.246-.56,2.4934-.8927,3.726-2.1362,7.9188-6.0476,11.1382-14.233,11.6506a41.4542,41.4542,0,0,1-4.7906-.0349c-17.8736-.9551-35.7457-.34-53.619.0025-3.1851.061-6.3756.3138-9.5266-.552-4.7053-1.2927-6.6669-3.31-6.65-8.0272a50.4833,50.4833,0,0,1,1.1161-10.4467q19.4791-89.8034,39.1036-179.5754,8.1555-37.412,16.2859-74.8294a47.2143,47.2143,0,0,0,1.2683-7.5313c.3889-7.7-2.9135-11.352-10.4816-11.7521-2.2252-.1177-4.4675.1412-6.702.1437-6.3876.0073-12.79.2378-19.1585-.1208-6.6261-.373-9.667-4.2191-9.1416-10.8264a37.6029,37.6029,0,0,1,.93-4.6854q4.1364-19.673,8.2859-39.3434c1.8075-8.5,4.9411-11.424,13.6288-11.9632,6.6891-.4153,13.4166-.1823,20.1182-.4527a65.632,65.632,0,0,0,9.4643-1.1961,13.8729,13.8729,0,0,0,11.02-9.58,104.9592,104.9592,0,0,0,3.4443-11.9371,448.3349,448.3349,0,0,1,19.0674-64.178c10.22-26.4281,28.1013-45.3026,54.4851-55.9354a128.16,128.16,0,0,1,22.916-6.7871c13.504-2.69,27.1069-4.2587,40.9158-3.6685C3072.45,927.6432,3077.5722,927.92,3081.1513,927.1844Z"/><path class="a" d="M1936.3584,1677.1624H1812.1871l6.5937-31.4272c9.01-42.1962,26.5924-45.2731,64.8328-51.2074,34.0641-5.9333,41.0968-2.8564,47.471-32.7461,4.6153-21.7576-1.9784-24.8335-25.2744-24.8335-28.57,0-34.0641.2195-41.0968,34.0641h-29.89c8.5711-40.2178,16.2633-59.998,76.4808-59.998,38.9,0,58.9,7.2532,49.6689,50.7674s-24.615,48.79-67.0307,55.6032c-30.9882,4.6143-39.9983,3.7354-45.2731,28.35l-1.0985,5.4933h94.2816Z"/><path class="a" d="M2006.4621,1631.01c-4.6153,21.5371,3.2964,21.5371,29.4488,21.5371,25.9339,0,34.2846-.439,40.2188-28.57l5.9342-27.2519h-.44c-10.11,13.1864-23.5155,16.0438-44.6136,16.0438-35.1635,0-54.2842-5.2748-44.6136-49.8884,8.5711-40.8783,23.5155-51.8668,73.6234-51.8668,54.2832,0,61.316,13.6264,49.0094,70.5475l-10.11,47.6905c-8.7906,41.7563-34.7245,49.2289-74.5034,49.2289-36.0425,0-63.7334-.88-53.8433-47.471Zm15.8233-68.1292c-4.6153,21.5371-1.3189,23.9545,27.4714,23.9545s34.7245-1.7579,39.5593-23.9545c5.0543-24.615-3.9558-25.9329-28.79-25.9329C2031.7356,1536.9482,2027.12,1539.1451,2022.2854,1562.8811Z"/><path class="a" d="M2155.3293,1603.9789h-18.4515L2153.92,1523.64H2125.73l3.3315-15.76h74.8292l-3.3315,15.76h-28.1884Z"/><path class="a" d="M2273.7186,1603.9789h-18.4515l8.7136-41.0022h-44.718l-8.7136,41.0022h-18.45l20.3723-96.099h18.4515l-8.3282,39.3369h44.717l8.3292-39.3369h18.45Z"/><path class="a" d="M2355.7942,1605.9563l-4.6153,21.0981H2292.72l4.6143-21.0981Z"/><path class="a" d="M2395.3506,1621.56c-6.5927,30.5482-1.5375,30.9872,25.9339,30.9872,27.0324,0,35.6035-.2185,40.4383-23.0756,3.7363-17.5823,1.0985-24.3945-16.7033-24.3945H2421.064l5.0553-23.9555h23.9555c16.4828,0,20.8786-7.2522,25.054-27.0324,3.2954-15.8233-3.5159-17.1413-29.2293-17.1413-27.2528,0-31.4282,2.8564-36.9224,28.35h-29.89c10.11-47.471,28.5708-54.2842,72.3064-54.2842,31.2077,0,62.6339.22,53.6238,43.0752-4.1753,19.5607-11.4275,36.263-34.0641,38.4609l-.22.879c22.1976,1.5384,25.4949,14.5044,20.8786,36.0425-9.67,45.4936-33.8456,49.0094-75.8213,49.0094-41.5377,0-61.9764-2.4174-50.3284-56.9211Z"/><path class="a" d="M2603.6919,1677.1624h-29.8888l29.45-138.4562-52.0863,42.8557-13.8449-19.56,63.2934-49.6689h38.0209Z"/><path class="a" d="M2679.7142,1573.3555l-1.0243,4.4846c-2.3062,11.0188,2.3062,11.7885,19.347,11.7885,16.7852,0,19.7333-3.0759,22.04-14.2235,2.9461-13.7093-4.7411-11.9163-18.9646-12.685-20.3713-1.2809-37.03-.5122-31.0067-28.445,5.51-26.3953,22.4219-27.1641,45.4858-27.1641,19.6046,0,35.4923.6409,30.1112,25.8832l-.64,3.0749h-18.4515l.64-3.0749c2.1794-10.3788-1.9218-10.7632-14.8615-10.7632-18.3246,0-21.6552,1.794-23.8326,12.0441-2.5637,11.7885-.2575,12.1729,18.3227,13.326,29.2137,1.794,36.901,3.3315,31.6486,27.804-5.6387,27.0363-18.9646,29.3425-43.6947,29.3425-21.2688,0-40.36.6409-34.5948-26.9075l1.0243-4.4846Z"/><path class="a" d="M2783.6235,1603.9789H2765.172l17.0428-80.3391h-28.1894l3.3305-15.76h74.83l-3.3325,15.76h-28.1894Z"/><path class="a" d="M2937.8631,1512.3332h78.6777c45.4936,0,61.3169,16.4828,51.8658,61.3169l-8.3507,38.8989c-7.2522,34.2855-23.296,64.6133-73.1854,64.6133H2902.919Zm54.7222,137.7968c21.3176,0,32.0876-19.12,35.824-37.5809l8.3507-38.8989c5.9333-27.4723-1.7579-34.2846-25.9339-34.2846h-47.031L2940.28,1650.13Z"/><path class="a" d="M3178.9515,1640.46c-7.6912,36.263-28.79,38.0209-61.7559,38.0209-44.1727,0-50.3264-14.0654-40.8773-58.6791,8.7916-41.3173,19.3412-59.3385,65.9313-59.3385,47.472,0,50.7674,13.8449,40.22,64.1733H3103.13c-5.2738,24.8335-6.3723,32.7452,18.4612,32.7452,15.3844,0,26.1524.22,29.67-16.9218Zm-20.4377-33.4056c5.0533-23.735,1.7579-25.493-20.8786-25.493-23.9555,0-26.3729,5.0543-30.7687,25.493Z"/><path class="a" d="M3304.0008,1633.2082c-8.1321,37.8-23.296,45.2731-62.1969,45.2731-42.4148,0-49.0075-12.3075-39.1194-58.9,8.5711-40.4373,18.9-59.118,64.1733-59.118,34.2846,0,51.4268,5.2738,43.5152,41.7563h-27.69c3.7344-17.5813-1.1-20.6581-20.44-20.6581-23.735,0-25.7134,8.3507-31.8672,38.02-6.1537,28.79-8.5711,37.8,15.8233,37.8,22.6366,0,25.7134-3.9549,30.1092-24.174Z"/><path class="a" d="M3317.8438,1691.8872c8.1321,0,13.6264-2.4174,16.2623-14.7249h-10.9885l6.3742-29.6683h27.6918l-5.4943,25.9319c-4.1753,18.9-7.6932,31.4282-31.2077,31.4282h-5.4943Z"/><path class="a" d="M3593.8724,1677.1624H3469.7011l6.5927-31.4272c9.01-42.1962,26.5914-45.2731,64.8328-51.2074,34.0641-5.9333,41.0978-2.8564,47.47-32.7461,4.6163-21.7576-1.9765-24.8335-25.2725-24.8335-28.5718,0-34.066.2195-41.0978,34.0641h-29.8888c8.5711-40.2178,16.2623-59.998,76.4808-59.998,38.8989,0,58.8976,7.2532,49.667,50.7674-9.2287,43.5152-24.613,48.79-67.03,55.6032-30.9872,4.6143-39.9993,3.7354-45.2731,28.35l-1.0985,5.4933h94.2826Z"/><path class="a" d="M3777.3784,1580.0234l-6.3742,29.8888c-12.526,58.9-33.1842,68.5691-82.6326,68.5691-49.45,0-66.1517-9.67-53.6257-68.5691l6.3742-30.3287c11.8665-55.1622,26.5914-68.5691,82.8531-68.5691C3773.4216,1511.0143,3789.9044,1521.1239,3777.3784,1580.0234Zm-37.8,37.3614,9.4491-45.0536c7.2522-33.6251.22-35.383-30.5482-35.383-30.9872,0-38.6784,1.7579-45.9326,35.383l-9.4491,45.0536c-7.2522,33.8436-.22,35.1626,30.7687,35.1626C3724.6326,1652.5474,3732.3257,1651.2285,3739.5779,1617.3848Z"/><path class="a" d="M3874.0725,1677.1624h-29.8888l29.45-138.4562-52.0863,42.8557-13.8449-19.56,63.2934-49.6689h38.0209Z"/><path class="a" d="M4085.93,1542.662l-95.82,134.5h-34.0641L4056.48,1539.3656h-92.0837l5.7128-27.0324h122.1949Z"/><path class="a" d="M4085.2393,955.126h-11.2324V906.2178h-17.16V896.624H4102.4v9.5938h-17.1611Z"/><path class="a" d="M4160.8213,955.126h-10.0625l-18.5645-49.0635h-.2344l.9365,49.0635h-11.2324V896.624h18.0186l15.9121,43.4473h.3125l15.6006-43.4473h18.4082v58.502h-11.2324l.9365-49.2979h-.3906Z"/></svg>