<svg xmlns="http://www.w3.org/2000/svg" viewBox="0 0 283.52 196.65"><defs><style>.cls-1{fill:#fff;}</style></defs><title>Asset 41</title><g id="Layer_2" data-name="Layer 2"><g id="Layer_1-2" data-name="Layer 1"><path class="cls-1" d="M137.88,14.17h63.5a10.22,10.22,0,0,1,3.08.4,1.74,1.74,0,0,1,1,2.09,10.78,10.78,0,0,1-.53,1.54c-.9,2.14-1.82,4.27-2.73,6.4-.14.32-.29.62-.43.93a2.9,2.9,0,0,1-2.89,1.88H145l-74-.06c-1.16,0-2.33,0-3.48,0-3.36.16-5.1,1.58-6,4.83-.46,1.64-.81,3.32-1.38,4.92-1.09,3-2.3,6-3.44,9a11.51,11.51,0,0,0-.59,1.74,1.54,1.54,0,0,0,1.46,2,13.87,13.87,0,0,0,2,.07H75.82a17.77,17.77,0,0,1,3.25.29c5.34,1,7.13,4.71,7.78,8.13a19.21,19.21,0,0,1-.65,9.1c-.4,1.37-.88,2.73-1.4,4.06Q75.89,94.75,67,118q-7.41,19.31-14.83,38.6-6.87,17.87-13.79,35.71c-.19.51-.41,1-.62,1.52a4.34,4.34,0,0,1-4.31,2.86h-.82l-29.09,0a6.45,6.45,0,0,1-2.43-.25c-.84-.32-1.25-.89-1-1.74A17.28,17.28,0,0,1,1.15,192c3-6.12,6.05-12.24,9.06-18.36q10.78-22,21.55-43.94,8.83-18,17.64-36.05c3.27-6.68,6.59-13.34,9.88-20a11.93,11.93,0,0,0,.8-1.88A2.13,2.13,0,0,0,58.9,69a11.89,11.89,0,0,0-3.52-1,45.1,45.1,0,0,0-5.92-.44,23.21,23.21,0,0,1-5.86-.82,12.92,12.92,0,0,1-5.85-3.23,10.86,10.86,0,0,1-3.17-9.92,14.48,14.48,0,0,1,1.6-4.83C39.72,42.26,43,35.66,47,29.41a69.79,69.79,0,0,1,4.37-6.19,25.06,25.06,0,0,1,5-4.84,18.43,18.43,0,0,1,8.27-3.32c2-.3,4-1,5.92-.89,5.53.34,11.06,0,16.59,0,16.94,0,33.87,0,50.81,0Z"/><path class="cls-1" d="M150.54,122.16H137.83a8.68,8.68,0,0,0-7.3,4l-.82,1.29c-6.18,9.67-12.26,19.39-18.77,28.84-4.23,6.13-8.6,12.15-13.41,17.84A68.23,68.23,0,0,1,74.36,192.3,42.44,42.44,0,0,1,61,196c-5.65.65-10.55.4-16.22.39a4.52,4.52,0,0,1-1.21-.16,1.21,1.21,0,0,1-.8-1.46,31.71,31.71,0,0,1,1.16-3.37c.65-1.63.85-1.93,1.4-3.35,1.27-3.27,1.88-4,4.89-4h4c2,0,3.54-.05,5.33,0,5.09,0,8.76-1.62,12.6-4.05a38.83,38.83,0,0,0,3.17-2.26A86.55,86.55,0,0,0,89,163.9a122.13,122.13,0,0,0,15.89-26.67c9.27-20.69,17.73-41.7,26.26-62.7,2.28-5.62,4.6-11.24,6.9-16.86a19.69,19.69,0,0,1,2-3.82,12.53,12.53,0,0,1,7-5,21.47,21.47,0,0,1,5.86-.81h37.49c1.16,0,2.32,0,3.48,0a4.36,4.36,0,0,0,3.83-2.34c.34-.59.59-1.23.87-1.85,2.24-5,4.47-10,6.73-14.94,1.41-3.11,2.86-6.19,4.3-9.29.17-.37.34-.74.54-1.1a5.24,5.24,0,0,1,5-2.94c6.42.06,12.84,0,19.26.06a10.17,10.17,0,0,1,3.42.55,3.44,3.44,0,0,1,2.39,4.53,12.81,12.81,0,0,1-1.49,3.36q-2.42,4.17-4.82,8.33-8.06,13.92-16.14,27.81A39.48,39.48,0,0,1,215.26,64a14.31,14.31,0,0,1-13.75,6,70.81,70.81,0,0,0-7.56-.33c-10.38,0-15.22.08-25.6.12a24.6,24.6,0,0,0-6.28.82,14.86,14.86,0,0,0-8.57,6.26A20.74,20.74,0,0,0,151.31,81c-1.67,4.32-3.31,8.67-4.95,13A9.32,9.32,0,0,0,146,95.2a1.77,1.77,0,0,0,1.73,2.41,15.61,15.61,0,0,0,2.05.07c5.67,0,11.34,0,17,0l8,0a6.93,6.93,0,0,1,2.22.26,1,1,0,0,1,.71,1.27c-.31.9-.68,1.79-1.07,2.66-1.4,3.11-2.85,6.2-4.24,9.32-1.08,2.43-2.11,4.88-3.17,7.33a14.15,14.15,0,0,1-.67,1.49,4,4,0,0,1-3.48,2.17c-.54,0-1.09,0-1.63,0H150.54Z"/><path class="cls-1" d="M260,13.15h-2.53v-11H253.6V0h10.24V2.16H260Z"/><path class="cls-1" d="M277,13.15h-2.26l-4.18-11h-.05l.21,11h-2.52V0h4.05l3.57,9.77h.07L279.38,0h4.14V13.15H281l.21-11.08h-.09Z"/></g></g></svg>